M48
; DRILL file {KiCad (5.1.9)-1} date 03/27/21 19:24:23
; FORMAT={-:-/ absolute / inch / decimal}
; #@! TF.CreationDate,2021-03-27T19:24:23-07:00
; #@! TF.GenerationSoftware,Kicad,Pcbnew,(5.1.9)-1
FMAT,2
INCH
T1C0.0118
T2C0.0157
T3C0.0197
T4C0.0236
T5C0.0276
T6C0.0315
T7C0.0335
T8C0.0394
T9C0.0469
T10C0.1260
%
G90
G05
T1
X3.465Y-3.535
X3.49Y-2.605
X3.495Y-3.905
X3.5424Y-3.34
X3.555Y-3.19
X3.555Y-3.23
X3.57Y-3.365
X3.6Y-3.35
X3.658Y-3.292
X3.6583Y-3.1117
X3.6586Y-2.9314
X3.6589Y-2.7511
X3.6591Y-2.5709
X3.6594Y-2.3906
X3.6597Y-2.2103
X3.66Y-2.03
X3.725Y-3.41
X3.7274Y-3.7427
X3.755Y-3.335
X3.755Y-3.765
X3.883Y-3.292
X3.8833Y-3.1117
X3.8836Y-2.9314
X3.8839Y-2.7511
X3.8841Y-2.5709
X3.8844Y-2.3906
X3.8847Y-2.2103
X3.885Y-1.535
X3.885Y-1.5744
X3.885Y-1.6137
X3.885Y-1.6531
X3.885Y-1.6925
X3.885Y-1.7319
X3.885Y-1.7712
X3.885Y-1.8106
X3.885Y-2.03
X3.915Y-4.035
X3.9244Y-1.535
X3.9244Y-1.5744
X3.9244Y-1.6137
X3.9244Y-1.6531
X3.9244Y-1.6925
X3.9244Y-1.7319
X3.9244Y-1.7712
X3.9244Y-1.8106
X3.95Y-3.91
X3.955Y-3.87
X3.9637Y-1.535
X3.9637Y-1.5744
X3.9637Y-1.6137
X3.9637Y-1.6531
X3.9637Y-1.6925
X3.9637Y-1.7319
X3.9637Y-1.7712
X3.9637Y-1.8106
X3.975Y-3.3196
X4.0031Y-1.535
X4.0031Y-1.5744
X4.0031Y-1.6137
X4.0031Y-1.6531
X4.0031Y-1.6925
X4.0031Y-1.7319
X4.0031Y-1.7712
X4.0031Y-1.8106
X4.113Y-3.292
X4.1133Y-3.1117
X4.1136Y-2.9314
X4.1139Y-2.7511
X4.1141Y-2.5709
X4.1144Y-2.3906
X4.1147Y-2.2103
X4.115Y-2.03
X4.285Y-3.765
X4.343Y-3.292
X4.3433Y-3.1117
X4.3436Y-2.9314
X4.3439Y-2.7511
X4.3441Y-2.5709
X4.3444Y-2.3906
X4.3447Y-2.2103
X4.345Y-2.03
X4.345Y-4.155
X4.568Y-3.292
X4.5683Y-3.1117
X4.5686Y-2.9314
X4.5689Y-2.7511
X4.5691Y-2.5709
X4.5694Y-2.3906
X4.5697Y-2.2103
X4.57Y-2.03
X4.58Y-3.61
X4.58Y-3.735
X4.58Y-3.77
X4.58Y-3.805
X4.58Y-3.84
X4.58Y-3.93
X4.58Y-3.96
X4.58Y-3.995
X4.58Y-4.025
X4.58Y-4.055
X4.61Y-3.96
X4.61Y-3.995
X4.61Y-4.025
X4.61Y-4.055
X4.63Y-4.24
X4.66Y-3.905
X4.725Y-3.605
X4.725Y-3.6444
X4.725Y-3.6837
X4.725Y-3.7231
X4.725Y-3.7625
X4.725Y-3.8019
X4.7644Y-3.605
X4.7644Y-3.6444
X4.7644Y-3.6837
X4.7644Y-3.7231
X4.7644Y-3.7625
X4.7644Y-3.8019
X4.7846Y-3.9699
X4.785Y-3.83
X4.798Y-3.292
X4.7983Y-3.1117
X4.7986Y-2.9314
X4.7989Y-2.7511
X4.7991Y-2.5709
X4.7994Y-2.3906
X4.7997Y-2.2103
X4.8Y-2.03
X4.845Y-3.975
X4.85Y-3.885
X4.885Y-3.3747
X4.98Y-4.13
X4.98Y-4.46
X5.005Y-3.755
X5.028Y-3.292
X5.0283Y-3.1117
X5.0286Y-2.9314
X5.0289Y-2.7511
X5.0291Y-2.5709
X5.0294Y-2.3906
X5.0297Y-2.2103
X5.03Y-2.03
X5.13Y-3.335
X5.13Y-3.535
X5.135Y-3.4849
X5.18Y-3.5
X5.185Y-3.3747
X5.21Y-3.5
X5.24Y-3.5
X5.258Y-3.292
X5.2583Y-3.1117
X5.2586Y-2.9314
X5.2589Y-2.7511
X5.2591Y-2.5709
X5.2594Y-2.3906
X5.2597Y-2.2103
X5.26Y-2.03
X5.27Y-3.5
X5.27Y-3.53
X5.3Y-3.5
X5.33Y-3.5
X5.35Y-3.4574
X5.415Y-3.36
X5.488Y-3.292
X5.4883Y-3.1117
X5.4886Y-2.9314
X5.4889Y-2.7511
X5.4891Y-2.5709
X5.4894Y-2.3906
X5.4897Y-2.2103
X5.49Y-2.03
X5.575Y-3.4298
X5.58Y-4.035
X5.63Y-3.355
X5.718Y-3.292
X5.7183Y-3.1117
X5.7186Y-2.9314
X5.7189Y-2.7511
X5.7191Y-2.5709
X5.7194Y-2.3906
X5.7197Y-2.2103
X5.72Y-2.03
X5.825Y-3.765
X5.92Y-3.9696
X5.943Y-3.292
X5.9433Y-3.1117
X5.9436Y-2.9314
X5.9439Y-2.7511
X5.9441Y-2.5709
X5.9444Y-2.3906
X5.9447Y-2.2103
X5.945Y-2.03
X6.015Y-4.04
X6.05Y-3.26
X6.173Y-3.292
X6.1733Y-3.1117
X6.1736Y-2.9314
X6.1739Y-2.7511
X6.1741Y-2.5709
X6.1744Y-2.3906
X6.1747Y-2.2103
X6.175Y-2.03
X6.27Y-4.18
X6.3Y-3.245
X6.3Y-4.18
X6.32Y-4.095
X6.325Y-4.045
X6.33Y-4.175
X6.345Y-4.2
X6.403Y-3.292
X6.4033Y-3.1117
X6.4036Y-2.9314
X6.4039Y-2.7511
X6.4041Y-2.5709
X6.4044Y-2.3906
X6.4047Y-2.2103
X6.405Y-2.03
X6.42Y-3.395
X6.42Y-3.4344
X6.42Y-3.4737
X6.435Y-4.13
X6.4594Y-3.395
X6.4594Y-3.4344
X6.4594Y-3.4737
X6.4987Y-3.395
X6.4987Y-3.4344
X6.4987Y-3.4737
X6.51Y-4.13
X6.525Y-3.24
X6.525Y-4.21
X6.525Y-4.245
X6.525Y-4.28
X6.525Y-4.315
X6.5381Y-3.395
X6.5381Y-3.4344
X6.5381Y-3.4737
X6.54Y-4.13
X6.57Y-4.13
X6.575Y-4.175
X6.5775Y-3.395
X6.5775Y-3.4344
X6.5775Y-3.4737
X6.595Y-4.08
X6.633Y-3.292
X6.6333Y-3.1117
X6.6336Y-2.9314
X6.6339Y-2.7511
X6.6341Y-2.5709
X6.6344Y-2.3906
X6.6347Y-2.2103
X6.635Y-2.03
X6.7Y-4.18
X6.75Y-3.225
X6.755Y-4.2
X6.8533Y-3.1117
X6.858Y-3.292
X6.8586Y-2.9314
X6.8589Y-2.7511
X6.8591Y-2.5709
X6.8594Y-2.3906
X6.8597Y-2.2103
X6.86Y-2.03
X6.935Y-3.79
X6.935Y-3.8294
X6.935Y-3.8687
X6.935Y-3.9081
X6.935Y-3.9475
X6.9744Y-3.79
X6.9744Y-3.8294
X6.9744Y-3.8687
X6.9744Y-3.9081
X6.9744Y-3.9475
X6.99Y-3.24
X7.0137Y-3.79
X7.0137Y-3.8294
X7.0137Y-3.8687
X7.0137Y-3.9081
X7.0137Y-3.9475
X7.0531Y-3.8294
X7.0531Y-3.8687
X7.0531Y-3.9081
X7.088Y-3.292
X7.0883Y-3.1117
X7.0886Y-2.9314
X7.0889Y-2.7511
X7.0891Y-2.5709
X7.0894Y-2.3906
X7.0897Y-2.2103
X7.09Y-2.03
X7.0925Y-3.8294
X7.0925Y-3.8687
X7.0925Y-3.9081
T2
X3.885Y-4.32
X3.885Y-4.3987
X3.885Y-4.4775
X3.885Y-4.5562
X3.885Y-4.635
X3.935Y-3.595
X3.935Y-3.635
X3.935Y-3.675
X3.935Y-3.715
X3.935Y-3.755
X3.935Y-3.795
X3.9637Y-4.32
X3.9637Y-4.3987
X3.9637Y-4.4775
X3.9637Y-4.5562
X3.9637Y-4.635
X4.0425Y-4.32
X4.0425Y-4.3987
X4.0425Y-4.4775
X4.0425Y-4.5562
X4.0425Y-4.635
X4.1212Y-4.32
X4.1212Y-4.3987
X4.1212Y-4.4775
X4.1212Y-4.5562
X4.1212Y-4.635
X4.2Y-4.32
X4.2Y-4.3987
X4.2Y-4.4775
X4.2Y-4.5562
X4.2Y-4.635
X4.2787Y-4.32
X4.2787Y-4.3987
X4.2787Y-4.4775
X4.2787Y-4.5562
X4.2787Y-4.635
X4.295Y-3.935
X4.295Y-3.975
X4.295Y-4.015
X4.295Y-4.055
X4.305Y-4.2
X4.335Y-3.935
X4.335Y-3.975
X4.335Y-4.015
X4.335Y-4.055
X4.35Y-4.2
X4.375Y-4.055
X4.415Y-4.03
X4.475Y-4.2
X4.605Y-4.2
X4.835Y-4.54
X4.8465Y-3.5164
X4.9459Y-3.665
X5.0089Y-3.6651
X5.12Y-3.595
X5.16Y-4.025
X5.16Y-4.1037
X5.16Y-4.1825
X5.16Y-4.2612
X5.2387Y-4.025
X5.2387Y-4.1037
X5.2387Y-4.1825
X5.2387Y-4.2612
X5.3175Y-4.025
X5.3175Y-4.1037
X5.3175Y-4.1825
X5.3175Y-4.2612
X5.3962Y-4.025
X5.3962Y-4.1037
X5.3962Y-4.1825
X5.3962Y-4.2612
X5.8014Y-3.705
X5.925Y-4.085
X5.965Y-4.085
X5.98Y-3.99
X6.145Y-4.055
X6.145Y-4.095
X6.145Y-4.135
X6.185Y-3.665
X6.185Y-4.055
X6.185Y-4.095
X6.185Y-4.135
X6.6Y-1.555
X6.6Y-1.5944
X6.6Y-1.6337
X6.6Y-1.6731
X6.6Y-1.7125
X6.6Y-1.7519
X6.6Y-1.7912
X6.6Y-1.8306
X6.6394Y-1.555
X6.6394Y-1.5944
X6.6394Y-1.6337
X6.6394Y-1.6731
X6.6394Y-1.7125
X6.6394Y-1.7519
X6.6394Y-1.7912
X6.6394Y-1.8306
X6.6787Y-1.555
X6.6787Y-1.5944
X6.6787Y-1.6337
X6.6787Y-1.6731
X6.6787Y-1.7125
X6.6787Y-1.7519
X6.6787Y-1.7912
X6.6787Y-1.8306
X6.7181Y-1.555
X6.7181Y-1.5944
X6.7181Y-1.6337
X6.7181Y-1.6731
X6.7181Y-1.7125
X6.7181Y-1.7519
X6.7181Y-1.7912
X6.7181Y-1.8306
T3
X3.5675Y-1.728
X3.5675Y-4.49
X3.5952Y-1.6612
X3.5952Y-1.7948
X3.5952Y-4.4232
X3.5952Y-4.5568
X3.662Y-1.6335
X3.662Y-1.8225
X3.662Y-4.3955
X3.662Y-4.5845
X3.7288Y-1.6612
X3.7288Y-1.7948
X3.7288Y-4.4232
X3.7288Y-4.5568
X3.7565Y-1.728
X3.7565Y-4.49
X6.919Y-1.728
X6.919Y-4.49
X6.9467Y-1.6612
X6.9467Y-1.7948
X6.9467Y-4.4232
X6.9467Y-4.5568
X7.0135Y-1.6335
X7.0135Y-1.8225
X7.0135Y-4.3955
X7.0135Y-4.5845
X7.0803Y-1.6612
X7.0803Y-1.7948
X7.0803Y-4.4232
X7.0803Y-4.5568
X7.108Y-1.728
X7.108Y-4.49
T5
X7.0866Y-3.5545
X7.0866Y-3.7455
T6
X5.6325Y-3.6175
X5.6325Y-3.7175
T7
X7.0637Y-3.9936
X7.0637Y-4.1904
T8
X5.275Y-4.689
X5.375Y-4.689
T9
X4.65Y-4.69
X4.75Y-4.69
X4.85Y-4.69
T10
X3.662Y-1.728
X3.662Y-4.49
X7.0135Y-1.728
X7.0135Y-4.49
T3
G00X7.2014Y-3.5083
M15
G01X7.1699Y-3.5083
M16
G05
G00X7.2014Y-3.7917
M15
G01X7.1699Y-3.7917
M16
G05
T4
G00X7.1562Y-3.9542
M15
G01X7.1838Y-3.9542
M16
G05
G00X7.1838Y-4.2298
M15
G01X7.1562Y-4.2298
M16
G05
T0
M30
