G04 #@! TF.GenerationSoftware,KiCad,Pcbnew,(5.1.9)-1*
G04 #@! TF.CreationDate,2021-03-27T19:24:18-07:00*
G04 #@! TF.ProjectId,attiny_audio_spectrum_bar_graph,61747469-6e79-45f6-9175-64696f5f7370,rev?*
G04 #@! TF.SameCoordinates,Original*
G04 #@! TF.FileFunction,Soldermask,Bot*
G04 #@! TF.FilePolarity,Negative*
%FSLAX46Y46*%
G04 Gerber Fmt 4.6, Leading zero omitted, Abs format (unit mm)*
G04 Created by KiCad (PCBNEW (5.1.9)-1) date 2021-03-27 19:24:18*
%MOMM*%
%LPD*%
G01*
G04 APERTURE LIST*
%ADD10O,1.700000X1.700000*%
%ADD11R,1.700000X1.700000*%
%ADD12C,1.300000*%
%ADD13O,1.900000X1.070000*%
%ADD14O,1.740000X2.190000*%
%ADD15O,1.900000X1.200000*%
%ADD16C,1.450000*%
%ADD17C,0.800000*%
%ADD18C,6.400000*%
%ADD19O,2.000000X1.200000*%
G04 APERTURE END LIST*
D10*
G04 #@! TO.C,J4*
X136525000Y-119101000D03*
D11*
X133985000Y-119101000D03*
G04 #@! TD*
D12*
G04 #@! TO.C,J1*
X180000000Y-95135000D03*
X180000000Y-90285000D03*
D13*
X182515000Y-96310000D03*
X182515000Y-89110000D03*
G04 #@! TD*
D14*
G04 #@! TO.C,J2*
X118110000Y-119126000D03*
X120650000Y-119126000D03*
G36*
G01*
X124060000Y-118280999D02*
X124060000Y-119971001D01*
G75*
G02*
X123810001Y-120221000I-249999J0D01*
G01*
X122569999Y-120221000D01*
G75*
G02*
X122320000Y-119971001I0J249999D01*
G01*
X122320000Y-118280999D01*
G75*
G02*
X122569999Y-118031000I249999J0D01*
G01*
X123810001Y-118031000D01*
G75*
G02*
X124060000Y-118280999I0J-249999D01*
G01*
G37*
G04 #@! TD*
D15*
G04 #@! TO.C,J3*
X182118000Y-100436800D03*
X182118000Y-107436800D03*
D16*
X179418000Y-101436800D03*
X179418000Y-106436800D03*
G04 #@! TD*
D17*
G04 #@! TO.C,H4*
X179840256Y-112348944D03*
X178143200Y-111646000D03*
X176446144Y-112348944D03*
X175743200Y-114046000D03*
X176446144Y-115743056D03*
X178143200Y-116446000D03*
X179840256Y-115743056D03*
X180543200Y-114046000D03*
D18*
X178143200Y-114046000D03*
G04 #@! TD*
D17*
G04 #@! TO.C,H3*
X179840256Y-42194144D03*
X178143200Y-41491200D03*
X176446144Y-42194144D03*
X175743200Y-43891200D03*
X176446144Y-45588256D03*
X178143200Y-46291200D03*
X179840256Y-45588256D03*
X180543200Y-43891200D03*
D18*
X178143200Y-43891200D03*
G04 #@! TD*
D17*
G04 #@! TO.C,H2*
X94711856Y-42194144D03*
X93014800Y-41491200D03*
X91317744Y-42194144D03*
X90614800Y-43891200D03*
X91317744Y-45588256D03*
X93014800Y-46291200D03*
X94711856Y-45588256D03*
X95414800Y-43891200D03*
D18*
X93014800Y-43891200D03*
G04 #@! TD*
D17*
G04 #@! TO.C,H1*
X94711856Y-112348944D03*
X93014800Y-111646000D03*
X91317744Y-112348944D03*
X90614800Y-114046000D03*
X91317744Y-115743056D03*
X93014800Y-116446000D03*
X94711856Y-115743056D03*
X95414800Y-114046000D03*
D18*
X93014800Y-114046000D03*
G04 #@! TD*
D19*
G04 #@! TO.C,MK1*
X143065500Y-91884500D03*
X143065500Y-94424500D03*
G04 #@! TD*
M02*
