G04 #@! TF.GenerationSoftware,KiCad,Pcbnew,(5.1.9)-1*
G04 #@! TF.CreationDate,2021-03-27T19:24:17-07:00*
G04 #@! TF.ProjectId,attiny_audio_spectrum_bar_graph,61747469-6e79-45f6-9175-64696f5f7370,rev?*
G04 #@! TF.SameCoordinates,Original*
G04 #@! TF.FileFunction,Copper,L2,Bot*
G04 #@! TF.FilePolarity,Positive*
%FSLAX46Y46*%
G04 Gerber Fmt 4.6, Leading zero omitted, Abs format (unit mm)*
G04 Created by KiCad (PCBNEW (5.1.9)-1) date 2021-03-27 19:24:17*
%MOMM*%
%LPD*%
G01*
G04 APERTURE LIST*
G04 #@! TA.AperFunction,ComponentPad*
%ADD10O,1.700000X1.700000*%
G04 #@! TD*
G04 #@! TA.AperFunction,ComponentPad*
%ADD11R,1.700000X1.700000*%
G04 #@! TD*
G04 #@! TA.AperFunction,ComponentPad*
%ADD12C,1.300000*%
G04 #@! TD*
G04 #@! TA.AperFunction,ComponentPad*
%ADD13O,1.900000X1.070000*%
G04 #@! TD*
G04 #@! TA.AperFunction,ComponentPad*
%ADD14O,1.740000X2.190000*%
G04 #@! TD*
G04 #@! TA.AperFunction,ComponentPad*
%ADD15O,1.900000X1.200000*%
G04 #@! TD*
G04 #@! TA.AperFunction,ComponentPad*
%ADD16C,1.450000*%
G04 #@! TD*
G04 #@! TA.AperFunction,ComponentPad*
%ADD17C,0.800000*%
G04 #@! TD*
G04 #@! TA.AperFunction,ComponentPad*
%ADD18C,6.400000*%
G04 #@! TD*
G04 #@! TA.AperFunction,ComponentPad*
%ADD19O,2.000000X1.200000*%
G04 #@! TD*
G04 #@! TA.AperFunction,ViaPad*
%ADD20C,0.600000*%
G04 #@! TD*
G04 #@! TA.AperFunction,ViaPad*
%ADD21C,0.800000*%
G04 #@! TD*
G04 #@! TA.AperFunction,Conductor*
%ADD22C,0.800000*%
G04 #@! TD*
G04 #@! TA.AperFunction,Conductor*
%ADD23C,0.250000*%
G04 #@! TD*
G04 #@! TA.AperFunction,Conductor*
%ADD24C,0.400000*%
G04 #@! TD*
G04 #@! TA.AperFunction,Conductor*
%ADD25C,0.254000*%
G04 #@! TD*
G04 #@! TA.AperFunction,Conductor*
%ADD26C,0.100000*%
G04 #@! TD*
G04 APERTURE END LIST*
D10*
G04 #@! TO.P,J4,2*
G04 #@! TO.N,Net-(J4-Pad2)*
X136525000Y-119101000D03*
D11*
G04 #@! TO.P,J4,1*
G04 #@! TO.N,Net-(J4-Pad1)*
X133985000Y-119101000D03*
G04 #@! TD*
D12*
G04 #@! TO.P,J1,6*
G04 #@! TO.N,Net-(J1-Pad6)*
X180000000Y-95135000D03*
X180000000Y-90285000D03*
D13*
X182515000Y-96310000D03*
X182515000Y-89110000D03*
G04 #@! TD*
D14*
G04 #@! TO.P,J2,3*
G04 #@! TO.N,GND*
X118110000Y-119126000D03*
G04 #@! TO.P,J2,2*
G04 #@! TO.N,UPDI*
X120650000Y-119126000D03*
G04 #@! TO.P,J2,1*
G04 #@! TO.N,+5V*
G04 #@! TA.AperFunction,ComponentPad*
G36*
G01*
X124060000Y-118280999D02*
X124060000Y-119971001D01*
G75*
G02*
X123810001Y-120221000I-249999J0D01*
G01*
X122569999Y-120221000D01*
G75*
G02*
X122320000Y-119971001I0J249999D01*
G01*
X122320000Y-118280999D01*
G75*
G02*
X122569999Y-118031000I249999J0D01*
G01*
X123810001Y-118031000D01*
G75*
G02*
X124060000Y-118280999I0J-249999D01*
G01*
G37*
G04 #@! TD.AperFunction*
G04 #@! TD*
D15*
G04 #@! TO.P,J3,6*
G04 #@! TO.N,Net-(J3-Pad6)*
X182118000Y-100436800D03*
X182118000Y-107436800D03*
D16*
X179418000Y-101436800D03*
X179418000Y-106436800D03*
G04 #@! TD*
D17*
G04 #@! TO.P,H4,1*
G04 #@! TO.N,GND*
X179840256Y-112348944D03*
X178143200Y-111646000D03*
X176446144Y-112348944D03*
X175743200Y-114046000D03*
X176446144Y-115743056D03*
X178143200Y-116446000D03*
X179840256Y-115743056D03*
X180543200Y-114046000D03*
D18*
X178143200Y-114046000D03*
G04 #@! TD*
D17*
G04 #@! TO.P,H3,1*
G04 #@! TO.N,GND*
X179840256Y-42194144D03*
X178143200Y-41491200D03*
X176446144Y-42194144D03*
X175743200Y-43891200D03*
X176446144Y-45588256D03*
X178143200Y-46291200D03*
X179840256Y-45588256D03*
X180543200Y-43891200D03*
D18*
X178143200Y-43891200D03*
G04 #@! TD*
D17*
G04 #@! TO.P,H2,1*
G04 #@! TO.N,GND*
X94711856Y-42194144D03*
X93014800Y-41491200D03*
X91317744Y-42194144D03*
X90614800Y-43891200D03*
X91317744Y-45588256D03*
X93014800Y-46291200D03*
X94711856Y-45588256D03*
X95414800Y-43891200D03*
D18*
X93014800Y-43891200D03*
G04 #@! TD*
D17*
G04 #@! TO.P,H1,1*
G04 #@! TO.N,GND*
X94711856Y-112348944D03*
X93014800Y-111646000D03*
X91317744Y-112348944D03*
X90614800Y-114046000D03*
X91317744Y-115743056D03*
X93014800Y-116446000D03*
X94711856Y-115743056D03*
X95414800Y-114046000D03*
D18*
X93014800Y-114046000D03*
G04 #@! TD*
D19*
G04 #@! TO.P,MK1,2*
G04 #@! TO.N,Net-(MK1-Pad2)*
X143065500Y-91884500D03*
G04 #@! TO.P,MK1,1*
G04 #@! TO.N,Net-(MK1-Pad1)*
X143065500Y-94424500D03*
G04 #@! TD*
D20*
G04 #@! TO.N,GND*
X116332000Y-96647000D03*
X116332000Y-95758000D03*
X116332000Y-94869000D03*
X130302000Y-89789000D03*
X131572000Y-88900000D03*
X132334000Y-88900000D03*
X133096000Y-88900000D03*
X133858000Y-88900000D03*
X133858000Y-89662000D03*
X134620000Y-88900000D03*
X135382000Y-88900000D03*
D21*
X99949000Y-96393000D03*
X99949000Y-95377000D03*
X99949000Y-94361000D03*
X99949000Y-93345000D03*
X99949000Y-92329000D03*
X99949000Y-91313000D03*
X109093000Y-99949000D03*
X110109000Y-99949000D03*
X109093000Y-100965000D03*
X110109000Y-100965000D03*
X110109000Y-101981000D03*
X109093000Y-101981000D03*
X109093000Y-102997000D03*
X110109000Y-102997000D03*
X111125000Y-102997000D03*
X112141000Y-102362000D03*
X113665000Y-106680000D03*
X116967000Y-106680000D03*
X110490000Y-106680000D03*
X109347000Y-106680000D03*
X150495000Y-103759000D03*
X151511000Y-103759000D03*
X156083000Y-105029000D03*
X157099000Y-105029000D03*
X157099000Y-104013000D03*
X156083000Y-104013000D03*
X156083000Y-102997000D03*
X157099000Y-102997000D03*
X151892000Y-101346000D03*
D20*
X159258000Y-106172000D03*
X160020000Y-106172000D03*
X160782000Y-106045000D03*
X161163000Y-106680000D03*
X163449000Y-104902000D03*
X165354000Y-104902000D03*
X166116000Y-104902000D03*
X166878000Y-104902000D03*
X165735000Y-106934000D03*
X165735000Y-107823000D03*
X165735000Y-108712000D03*
X165735000Y-109601000D03*
X176149000Y-96266000D03*
X177149000Y-96266000D03*
X178149000Y-96266000D03*
X176149000Y-97266000D03*
X177149000Y-97266000D03*
X178149000Y-97266000D03*
X179149000Y-97266000D03*
X180149000Y-97266000D03*
X176149000Y-98266000D03*
X177149000Y-98266000D03*
X178149000Y-98266000D03*
X179149000Y-98266000D03*
X180149000Y-98266000D03*
X176149000Y-99266000D03*
X177149000Y-99266000D03*
X178149000Y-99266000D03*
X179149000Y-99266000D03*
X180149000Y-99266000D03*
X176149000Y-100266000D03*
X177149000Y-100266000D03*
X178149000Y-100266000D03*
X163068000Y-86233000D03*
X164068000Y-86233000D03*
X165068000Y-86233000D03*
X166068000Y-86233000D03*
X167068000Y-86233000D03*
X163068000Y-87233000D03*
X164068000Y-87233000D03*
X165068000Y-87233000D03*
X166068000Y-87233000D03*
X167068000Y-87233000D03*
X163068000Y-88233000D03*
X164068000Y-88233000D03*
X165068000Y-88233000D03*
X166068000Y-88233000D03*
X167068000Y-88233000D03*
X116332000Y-99822000D03*
X116332000Y-100584000D03*
X116332000Y-101473000D03*
X116332000Y-97536000D03*
X120015000Y-91567000D03*
X121015000Y-91567000D03*
X120015000Y-92567000D03*
X121015000Y-92567000D03*
X120015000Y-93567000D03*
X121015000Y-93567000D03*
X120015000Y-94567000D03*
X121015000Y-94567000D03*
X120015000Y-95567000D03*
X121015000Y-95567000D03*
X120015000Y-96567000D03*
X121015000Y-96567000D03*
X116332000Y-91694000D03*
X116332000Y-102235000D03*
X116332000Y-102997000D03*
X117094000Y-102997000D03*
X117094000Y-102235000D03*
X117094000Y-101473000D03*
X117094000Y-100584000D03*
X98679000Y-38989000D03*
X99679000Y-38989000D03*
X100679000Y-38989000D03*
X101679000Y-38989000D03*
X98679000Y-39989000D03*
X99679000Y-39989000D03*
X100679000Y-39989000D03*
X101679000Y-39989000D03*
X98679000Y-40989000D03*
X99679000Y-40989000D03*
X100679000Y-40989000D03*
X101679000Y-40989000D03*
X98679000Y-41989000D03*
X99679000Y-41989000D03*
X100679000Y-41989000D03*
X101679000Y-41989000D03*
X98679000Y-42989000D03*
X99679000Y-42989000D03*
X100679000Y-42989000D03*
X101679000Y-42989000D03*
X98679000Y-43989000D03*
X99679000Y-43989000D03*
X100679000Y-43989000D03*
X101679000Y-43989000D03*
X98679000Y-44989000D03*
X99679000Y-44989000D03*
X100679000Y-44989000D03*
X101679000Y-44989000D03*
X98679000Y-45989000D03*
X99679000Y-45989000D03*
X100679000Y-45989000D03*
X101679000Y-45989000D03*
D21*
X167640000Y-39497000D03*
X168640000Y-39497000D03*
X169640000Y-39497000D03*
X170640000Y-39497000D03*
X167640000Y-40497000D03*
X168640000Y-40497000D03*
X169640000Y-40497000D03*
X170640000Y-40497000D03*
X167640000Y-41497000D03*
X168640000Y-41497000D03*
X169640000Y-41497000D03*
X170640000Y-41497000D03*
X167640000Y-42497000D03*
X168640000Y-42497000D03*
X169640000Y-42497000D03*
X170640000Y-42497000D03*
X167640000Y-43497000D03*
X168640000Y-43497000D03*
X169640000Y-43497000D03*
X170640000Y-43497000D03*
X167640000Y-44497000D03*
X168640000Y-44497000D03*
X169640000Y-44497000D03*
X170640000Y-44497000D03*
X167640000Y-45497000D03*
X168640000Y-45497000D03*
X169640000Y-45497000D03*
X170640000Y-45497000D03*
X167640000Y-46497000D03*
X168640000Y-46497000D03*
X169640000Y-46497000D03*
X170640000Y-46497000D03*
X131064000Y-102235000D03*
X133064000Y-102235000D03*
X135064000Y-102235000D03*
X137064000Y-102235000D03*
X131064000Y-104235000D03*
X133064000Y-104235000D03*
X135064000Y-104235000D03*
X137064000Y-104235000D03*
X131064000Y-106235000D03*
X133064000Y-106235000D03*
X135064000Y-106235000D03*
X137064000Y-106235000D03*
X131064000Y-108235000D03*
X133064000Y-108235000D03*
X135064000Y-108235000D03*
X137064000Y-108235000D03*
X98679000Y-109728000D03*
X100679000Y-109728000D03*
X102679000Y-109728000D03*
X104679000Y-109728000D03*
X106679000Y-109728000D03*
X108679000Y-109728000D03*
X98679000Y-111728000D03*
X100679000Y-111728000D03*
X102679000Y-111728000D03*
X104679000Y-111728000D03*
X106679000Y-111728000D03*
X108679000Y-111728000D03*
X98679000Y-113728000D03*
X100679000Y-113728000D03*
X102679000Y-113728000D03*
X104679000Y-113728000D03*
X106679000Y-113728000D03*
X108679000Y-113728000D03*
X98679000Y-115728000D03*
X100679000Y-115728000D03*
X102679000Y-115728000D03*
X104679000Y-115728000D03*
X106679000Y-115728000D03*
X108679000Y-115728000D03*
X98679000Y-117728000D03*
X100679000Y-117728000D03*
X102679000Y-117728000D03*
X104679000Y-117728000D03*
X106679000Y-117728000D03*
X108679000Y-117728000D03*
G04 #@! TO.N,+5V*
X130048000Y-91313000D03*
X157099000Y-93091000D03*
X122809000Y-115316000D03*
X123101000Y-89317020D03*
X127226999Y-93093047D03*
X125626999Y-93091000D03*
D20*
G04 #@! TO.N,Net-(C10-Pad1)*
X160655000Y-102743000D03*
X167513000Y-103632000D03*
G04 #@! TO.N,Audio*
X147955000Y-95631000D03*
X127127000Y-95377000D03*
G04 #@! TO.N,SEG1*
X92964000Y-51562000D03*
X98679000Y-51562000D03*
X104521000Y-51562000D03*
X110363000Y-51562000D03*
X116078000Y-51562000D03*
X121920000Y-51562000D03*
X127762000Y-51562000D03*
X133604000Y-51562000D03*
X139446000Y-51562000D03*
X145288000Y-51562000D03*
X151003000Y-51562000D03*
X156845000Y-51562000D03*
X162687000Y-51562000D03*
X168529000Y-51562000D03*
X174244000Y-51562000D03*
X180086000Y-51562000D03*
X95377000Y-95631000D03*
X95377000Y-84709000D03*
G04 #@! TO.N,GRID7*
X124079000Y-85717020D03*
X108839000Y-95631000D03*
G04 #@! TO.N,GRID8*
X130429000Y-88517020D03*
X131699000Y-85717020D03*
G04 #@! TO.N,GRID9*
X135890000Y-87817020D03*
X137541000Y-85344000D03*
G04 #@! TO.N,GRID10*
X141605000Y-87117020D03*
X143002000Y-85217000D03*
G04 #@! TO.N,GRID12*
X91440000Y-85090000D03*
X153670000Y-82804000D03*
G04 #@! TO.N,GRID13*
X90678000Y-85471000D03*
X160020000Y-82423000D03*
G04 #@! TO.N,GRID14*
X89978000Y-84836000D03*
X165735000Y-82296000D03*
G04 #@! TO.N,GRID15*
X171450000Y-81915000D03*
X90297000Y-82042000D03*
G04 #@! TO.N,GRID16*
X177546000Y-82296000D03*
X90297000Y-81026000D03*
G04 #@! TO.N,SEG2*
X92956743Y-56141257D03*
X98671743Y-56141257D03*
X104513743Y-56141257D03*
X110355743Y-56141257D03*
X116070743Y-56141257D03*
X121912743Y-56141257D03*
X127754743Y-56141257D03*
X145280743Y-56141257D03*
X139438743Y-56141257D03*
X133596743Y-56141257D03*
X162679743Y-56141257D03*
X156837743Y-56141257D03*
X150995743Y-56141257D03*
X168521743Y-56141257D03*
X180078743Y-56141257D03*
X174236743Y-56141257D03*
X94677000Y-95065313D03*
X94615000Y-86614000D03*
G04 #@! TO.N,SEG3*
X92949486Y-60720514D03*
X98664486Y-60720514D03*
X104506486Y-60720514D03*
X110348486Y-60720514D03*
X116063486Y-60720514D03*
X121905486Y-60720514D03*
X127747486Y-60720514D03*
X133589486Y-60720514D03*
X139431486Y-60720514D03*
X145273486Y-60720514D03*
X150988486Y-60720514D03*
X156830486Y-60720514D03*
X162672486Y-60720514D03*
X168514486Y-60720514D03*
X174229486Y-60720514D03*
X180071486Y-60720514D03*
X99441000Y-102489000D03*
X100965000Y-84316800D03*
G04 #@! TO.N,SEG4*
X92942229Y-65299771D03*
X98657229Y-65299771D03*
X104499229Y-65299771D03*
X110341229Y-65299771D03*
X116056229Y-65299771D03*
X121898229Y-65299771D03*
X127740229Y-65299771D03*
X145266229Y-65299771D03*
X139424229Y-65299771D03*
X133582229Y-65299771D03*
X156823229Y-65299771D03*
X162665229Y-65299771D03*
X168507229Y-65299771D03*
X150981229Y-65299771D03*
X174222229Y-65299771D03*
X180064229Y-65299771D03*
X88646000Y-66167000D03*
G04 #@! TO.N,SEG5*
X92934972Y-69879028D03*
X98649972Y-69879028D03*
X104491972Y-69879028D03*
X110333972Y-69879028D03*
X116048972Y-69879028D03*
X121890972Y-69879028D03*
X127732972Y-69879028D03*
X133574972Y-69879028D03*
X139416972Y-69879028D03*
X145258972Y-69879028D03*
X168499972Y-69879028D03*
X162657972Y-69879028D03*
X156815972Y-69879028D03*
X150973972Y-69879028D03*
X180056972Y-69879028D03*
X174214972Y-69879028D03*
X88011000Y-89789000D03*
G04 #@! TO.N,SEG6*
X92927715Y-74458285D03*
X98642715Y-74458285D03*
X104484715Y-74458285D03*
X110326715Y-74458285D03*
X116041715Y-74458285D03*
X121883715Y-74458285D03*
X127725715Y-74458285D03*
X145251715Y-74458285D03*
X139409715Y-74458285D03*
X133567715Y-74458285D03*
X156808715Y-74458285D03*
X162650715Y-74458285D03*
X168492715Y-74458285D03*
X150966715Y-74458285D03*
X174207715Y-74458285D03*
X180049715Y-74458285D03*
X88773000Y-99187000D03*
G04 #@! TO.N,SEG7*
X92920458Y-79037542D03*
X98635458Y-79037542D03*
X104477458Y-79037542D03*
X110319458Y-79037542D03*
X116034458Y-79037542D03*
X121876458Y-79037542D03*
X127718458Y-79037542D03*
X139402458Y-79037542D03*
X145244458Y-79037542D03*
X133560458Y-79037542D03*
X156801458Y-79037542D03*
X162643458Y-79037542D03*
X168485458Y-79037542D03*
X150959458Y-79037542D03*
X180042458Y-79037542D03*
X174073458Y-79037542D03*
X117602000Y-107696000D03*
X130302000Y-84709000D03*
G04 #@! TO.N,SEG8*
X92913200Y-83616800D03*
X98628200Y-83616800D03*
X104470200Y-83616800D03*
X110312200Y-83616800D03*
X116027200Y-83616800D03*
X121869200Y-83616800D03*
X127711200Y-83616800D03*
X133553200Y-83616800D03*
X139395200Y-83616800D03*
X145237200Y-83616800D03*
X168478200Y-83616800D03*
X162636200Y-83616800D03*
X156794200Y-83616800D03*
X150952200Y-83616800D03*
X174193200Y-83616800D03*
X180035200Y-83616800D03*
X110363000Y-105537000D03*
G04 #@! TO.N,UPDI*
X126492000Y-113284000D03*
X126492000Y-104902000D03*
G04 #@! TO.N,Net-(MK1-Pad2)*
X150368000Y-100828000D03*
D21*
X147356002Y-94107000D03*
D20*
G04 #@! TO.N,SCLK*
X100330000Y-99314000D03*
X121529000Y-100835804D03*
X123190000Y-98679000D03*
X123063000Y-100965000D03*
G04 #@! TO.N,DATA*
X100457000Y-98298000D03*
X118364000Y-99187000D03*
X121539000Y-97282000D03*
G04 #@! TO.N,Net-(R10-Pad2)*
X152781000Y-102616000D03*
X141732000Y-102489000D03*
G04 #@! TO.N,Net-(C10-Pad2)*
X160528000Y-104013000D03*
X167005000Y-106045000D03*
G04 #@! TO.N,Net-(C12-Pad1)*
X170180000Y-106172000D03*
X171577000Y-106680000D03*
G04 #@! TD*
D22*
G04 #@! TO.N,GND*
X116332000Y-97536000D02*
X116332000Y-94869000D01*
G04 #@! TO.N,+5V*
X135504022Y-93091000D02*
X157099000Y-93091000D01*
X133726022Y-91313000D02*
X135504022Y-93091000D01*
X130048000Y-91313000D02*
X133726022Y-91313000D01*
X122809000Y-118745000D02*
X123190000Y-119126000D01*
X122809000Y-115316000D02*
X122809000Y-118745000D01*
X127229046Y-93091000D02*
X127226999Y-93093047D01*
X135504022Y-93091000D02*
X127229046Y-93091000D01*
X125626999Y-91843019D02*
X123101000Y-89317020D01*
X125626999Y-93091000D02*
X125626999Y-91843019D01*
D23*
G04 #@! TO.N,Net-(C10-Pad1)*
X161544000Y-103632000D02*
X167513000Y-103632000D01*
X160655000Y-102743000D02*
X161544000Y-103632000D01*
G04 #@! TO.N,Audio*
X127381000Y-95631000D02*
X127127000Y-95377000D01*
X147955000Y-95631000D02*
X127381000Y-95631000D01*
D24*
G04 #@! TO.N,SEG1*
X92964000Y-51562000D02*
X98679000Y-51562000D01*
X98679000Y-51562000D02*
X104521000Y-51562000D01*
X104521000Y-51562000D02*
X110363000Y-51562000D01*
X110363000Y-51562000D02*
X116078000Y-51562000D01*
X116078000Y-51562000D02*
X121920000Y-51562000D01*
X121920000Y-51562000D02*
X127762000Y-51562000D01*
X127762000Y-51562000D02*
X133604000Y-51562000D01*
X133604000Y-51562000D02*
X139446000Y-51562000D01*
X139446000Y-51562000D02*
X145288000Y-51562000D01*
X145288000Y-51562000D02*
X151003000Y-51562000D01*
X151003000Y-51562000D02*
X156845000Y-51562000D01*
X156845000Y-51562000D02*
X162687000Y-51562000D01*
X162687000Y-51562000D02*
X168529000Y-51562000D01*
X168529000Y-51562000D02*
X174244000Y-51562000D01*
X174244000Y-51562000D02*
X180086000Y-51562000D01*
X180086000Y-51562000D02*
X181229000Y-51562000D01*
X95377000Y-95631000D02*
X95377000Y-84709000D01*
G04 #@! TO.N,GRID7*
X114165020Y-95631000D02*
X108839000Y-95631000D01*
X124079000Y-85717020D02*
X114165020Y-95631000D01*
G04 #@! TO.N,GRID8*
X130429000Y-86987020D02*
X131699000Y-85717020D01*
X130429000Y-88517020D02*
X130429000Y-86987020D01*
G04 #@! TO.N,GRID9*
X135890000Y-86995000D02*
X137541000Y-85344000D01*
X135890000Y-87817020D02*
X135890000Y-86995000D01*
G04 #@! TO.N,GRID10*
X141605000Y-87117020D02*
X142997020Y-85725000D01*
X142997020Y-85221980D02*
X143002000Y-85217000D01*
X142997020Y-85725000D02*
X142997020Y-85221980D01*
G04 #@! TO.N,GRID12*
X92547258Y-82804000D02*
X153670000Y-82804000D01*
X91440000Y-83911258D02*
X92547258Y-82804000D01*
X91440000Y-85090000D02*
X91440000Y-83911258D01*
G04 #@! TO.N,GRID13*
X92398717Y-82103999D02*
X159700999Y-82103999D01*
X90678000Y-83824716D02*
X92398717Y-82103999D01*
X90678000Y-85471000D02*
X90678000Y-83824716D01*
X159700999Y-82103999D02*
X160020000Y-82423000D01*
G04 #@! TO.N,GRID14*
X92150185Y-81503989D02*
X164942989Y-81503989D01*
X89978000Y-83676174D02*
X92150185Y-81503989D01*
X89978000Y-84836000D02*
X89978000Y-83676174D01*
X164942989Y-81503989D02*
X165735000Y-82296000D01*
G04 #@! TO.N,GRID15*
X170438979Y-80903979D02*
X171450000Y-81915000D01*
X91562021Y-80903979D02*
X170438979Y-80903979D01*
X90297000Y-82042000D02*
X91562021Y-80903979D01*
G04 #@! TO.N,GRID16*
X90297000Y-81026000D02*
X91042028Y-80303969D01*
X175553969Y-80303969D02*
X177546000Y-82296000D01*
X91042028Y-80303969D02*
X175553969Y-80303969D01*
G04 #@! TO.N,SEG2*
X92956743Y-56141257D02*
X98671743Y-56141257D01*
X98671743Y-56141257D02*
X104513743Y-56141257D01*
X104513743Y-56141257D02*
X110355743Y-56141257D01*
X110355743Y-56141257D02*
X116070743Y-56141257D01*
X116070743Y-56141257D02*
X121912743Y-56141257D01*
X121912743Y-56141257D02*
X127754743Y-56141257D01*
X127754743Y-56141257D02*
X133596743Y-56141257D01*
X145280743Y-56141257D02*
X150995743Y-56141257D01*
X139438743Y-56141257D02*
X145280743Y-56141257D01*
X133596743Y-56141257D02*
X139438743Y-56141257D01*
X162679743Y-56141257D02*
X168521743Y-56141257D01*
X156837743Y-56141257D02*
X162679743Y-56141257D01*
X150995743Y-56141257D02*
X156837743Y-56141257D01*
X168521743Y-56141257D02*
X174236743Y-56141257D01*
X180078743Y-56141257D02*
X181229000Y-56141257D01*
X174236743Y-56141257D02*
X180078743Y-56141257D01*
X94677000Y-86676000D02*
X94615000Y-86614000D01*
X94677000Y-95065313D02*
X94677000Y-86676000D01*
G04 #@! TO.N,SEG3*
X92949486Y-60720514D02*
X98664486Y-60720514D01*
X98664486Y-60720514D02*
X104506486Y-60720514D01*
X104506486Y-60720514D02*
X110348486Y-60720514D01*
X110348486Y-60720514D02*
X116063486Y-60720514D01*
X116063486Y-60720514D02*
X121905486Y-60720514D01*
X121905486Y-60720514D02*
X127747486Y-60720514D01*
X127747486Y-60720514D02*
X133589486Y-60720514D01*
X133589486Y-60720514D02*
X139431486Y-60720514D01*
X139431486Y-60720514D02*
X145273486Y-60720514D01*
X145273486Y-60720514D02*
X150988486Y-60720514D01*
X150988486Y-60720514D02*
X156830486Y-60720514D01*
X156830486Y-60720514D02*
X162672486Y-60720514D01*
X162672486Y-60720514D02*
X168514486Y-60720514D01*
X168514486Y-60720514D02*
X174229486Y-60720514D01*
X174229486Y-60720514D02*
X180071486Y-60720514D01*
X180071486Y-60720514D02*
X181229000Y-60720514D01*
X99441000Y-98277998D02*
X100182998Y-97536000D01*
X99441000Y-102489000D02*
X99441000Y-98277998D01*
X100182998Y-97536000D02*
X104394000Y-97536000D01*
X104394000Y-97536000D02*
X106172000Y-95758000D01*
X106172000Y-89523800D02*
X100965000Y-84316800D01*
X106172000Y-95758000D02*
X106172000Y-89523800D01*
G04 #@! TO.N,SEG4*
X92942229Y-65299771D02*
X98657229Y-65299771D01*
X98657229Y-65299771D02*
X104499229Y-65299771D01*
X104499229Y-65299771D02*
X110341229Y-65299771D01*
X110341229Y-65299771D02*
X116056229Y-65299771D01*
X116056229Y-65299771D02*
X121898229Y-65299771D01*
X121898229Y-65299771D02*
X127740229Y-65299771D01*
X127740229Y-65299771D02*
X133582229Y-65299771D01*
X145266229Y-65299771D02*
X150981229Y-65299771D01*
X139424229Y-65299771D02*
X145266229Y-65299771D01*
X133582229Y-65299771D02*
X139424229Y-65299771D01*
X156823229Y-65299771D02*
X162665229Y-65299771D01*
X162665229Y-65299771D02*
X168507229Y-65299771D01*
X168507229Y-65299771D02*
X174222229Y-65299771D01*
X150981229Y-65299771D02*
X156823229Y-65299771D01*
X174222229Y-65299771D02*
X180064229Y-65299771D01*
X180064229Y-65299771D02*
X181229000Y-65299771D01*
X89513229Y-65299771D02*
X92942229Y-65299771D01*
X88646000Y-66167000D02*
X89513229Y-65299771D01*
G04 #@! TO.N,SEG5*
X92934972Y-69879028D02*
X98649972Y-69879028D01*
X98649972Y-69879028D02*
X104491972Y-69879028D01*
X104491972Y-69879028D02*
X110333972Y-69879028D01*
X110333972Y-69879028D02*
X116048972Y-69879028D01*
X116048972Y-69879028D02*
X121890972Y-69879028D01*
X121890972Y-69879028D02*
X127732972Y-69879028D01*
X127732972Y-69879028D02*
X133574972Y-69879028D01*
X133574972Y-69879028D02*
X139416972Y-69879028D01*
X139416972Y-69879028D02*
X145258972Y-69879028D01*
X145258972Y-69879028D02*
X150973972Y-69879028D01*
X168499972Y-69879028D02*
X174214972Y-69879028D01*
X162657972Y-69879028D02*
X168499972Y-69879028D01*
X156815972Y-69879028D02*
X162657972Y-69879028D01*
X150973972Y-69879028D02*
X156815972Y-69879028D01*
X180056972Y-69879028D02*
X181229000Y-69879028D01*
X174214972Y-69879028D02*
X180056972Y-69879028D01*
X88011000Y-89789000D02*
X88011000Y-71882000D01*
X90013972Y-69879028D02*
X92934972Y-69879028D01*
X88011000Y-71882000D02*
X90013972Y-69879028D01*
G04 #@! TO.N,SEG6*
X92927715Y-74458285D02*
X98642715Y-74458285D01*
X98642715Y-74458285D02*
X104484715Y-74458285D01*
X104484715Y-74458285D02*
X110326715Y-74458285D01*
X110326715Y-74458285D02*
X116041715Y-74458285D01*
X116041715Y-74458285D02*
X121883715Y-74458285D01*
X121883715Y-74458285D02*
X127725715Y-74458285D01*
X127725715Y-74458285D02*
X133567715Y-74458285D01*
X145251715Y-74458285D02*
X150966715Y-74458285D01*
X139409715Y-74458285D02*
X145251715Y-74458285D01*
X133567715Y-74458285D02*
X139409715Y-74458285D01*
X156808715Y-74458285D02*
X162650715Y-74458285D01*
X162650715Y-74458285D02*
X168492715Y-74458285D01*
X168492715Y-74458285D02*
X174207715Y-74458285D01*
X150966715Y-74458285D02*
X156808715Y-74458285D01*
X174207715Y-74458285D02*
X180049715Y-74458285D01*
X180049715Y-74458285D02*
X181229000Y-74458285D01*
X88773000Y-78613000D02*
X92927715Y-74458285D01*
X88773000Y-99187000D02*
X88773000Y-78613000D01*
G04 #@! TO.N,SEG7*
X92920458Y-79037542D02*
X98635458Y-79037542D01*
X98635458Y-79037542D02*
X104477458Y-79037542D01*
X104477458Y-79037542D02*
X110319458Y-79037542D01*
X110319458Y-79037542D02*
X116034458Y-79037542D01*
X116034458Y-79037542D02*
X121876458Y-79037542D01*
X121876458Y-79037542D02*
X127718458Y-79037542D01*
X127718458Y-79037542D02*
X133560458Y-79037542D01*
X133687458Y-79037542D02*
X139402458Y-79037542D01*
X139402458Y-79037542D02*
X145244458Y-79037542D01*
X145244458Y-79037542D02*
X150959458Y-79037542D01*
X133560458Y-79037542D02*
X133687458Y-79037542D01*
X156801458Y-79037542D02*
X162643458Y-79037542D01*
X162643458Y-79037542D02*
X168485458Y-79037542D01*
X168485458Y-79037542D02*
X174073458Y-79037542D01*
X150959458Y-79037542D02*
X156801458Y-79037542D01*
X180042458Y-79037542D02*
X181229000Y-79037542D01*
X174073458Y-79037542D02*
X180042458Y-79037542D01*
X126426999Y-88584001D02*
X130302000Y-84709000D01*
X126426999Y-98871001D02*
X126426999Y-88584001D01*
X117602000Y-107696000D02*
X126426999Y-98871001D01*
G04 #@! TO.N,SEG8*
X92913200Y-83616800D02*
X98628200Y-83616800D01*
X98628200Y-83616800D02*
X104470200Y-83616800D01*
X104470200Y-83616800D02*
X110312200Y-83616800D01*
X110312200Y-83616800D02*
X116027200Y-83616800D01*
X116027200Y-83616800D02*
X121869200Y-83616800D01*
X121869200Y-83616800D02*
X127711200Y-83616800D01*
X127711200Y-83616800D02*
X133553200Y-83616800D01*
X133553200Y-83616800D02*
X139395200Y-83616800D01*
X139395200Y-83616800D02*
X145237200Y-83616800D01*
X145237200Y-83616800D02*
X150952200Y-83616800D01*
X168478200Y-83616800D02*
X174193200Y-83616800D01*
X162636200Y-83616800D02*
X168478200Y-83616800D01*
X156794200Y-83616800D02*
X162636200Y-83616800D01*
X150952200Y-83616800D02*
X156794200Y-83616800D01*
X174193200Y-83616800D02*
X180035200Y-83616800D01*
X180035200Y-83616800D02*
X181229000Y-83616800D01*
X118765002Y-105537000D02*
X122301000Y-102001002D01*
X110363000Y-105537000D02*
X118765002Y-105537000D01*
X127203200Y-83616800D02*
X127711200Y-83616800D01*
X122301000Y-88519000D02*
X127203200Y-83616800D01*
X122301000Y-102001002D02*
X122301000Y-88519000D01*
D23*
G04 #@! TO.N,UPDI*
X126492000Y-113284000D02*
X126492000Y-104902000D01*
G04 #@! TO.N,Net-(MK1-Pad2)*
X150368000Y-99187000D02*
X150368000Y-100828000D01*
X150368000Y-97118998D02*
X147356002Y-94107000D01*
X150368000Y-99187000D02*
X150368000Y-97118998D01*
X147356002Y-94107000D02*
X147356002Y-94107000D01*
G04 #@! TO.N,SCLK*
X100330000Y-99314000D02*
X100838000Y-98806000D01*
X100838000Y-98806000D02*
X116840000Y-98806000D01*
X118869804Y-100835804D02*
X121529000Y-100835804D01*
X116840000Y-98806000D02*
X118869804Y-100835804D01*
X123190000Y-100838000D02*
X123063000Y-100965000D01*
X123190000Y-98679000D02*
X123190000Y-100838000D01*
G04 #@! TO.N,DATA*
X100457000Y-98298000D02*
X116332000Y-98298000D01*
X116332000Y-98298000D02*
X117475000Y-98298000D01*
X117475000Y-98298000D02*
X118364000Y-99187000D01*
X119634000Y-99187000D02*
X118364000Y-99187000D01*
X121539000Y-97282000D02*
X119634000Y-99187000D01*
G04 #@! TO.N,Net-(R10-Pad2)*
X141859000Y-102616000D02*
X141732000Y-102489000D01*
X152781000Y-102616000D02*
X141859000Y-102616000D01*
G04 #@! TO.N,Net-(C10-Pad2)*
X163031998Y-106045000D02*
X167005000Y-106045000D01*
X160029999Y-103043001D02*
X163031998Y-106045000D01*
X160029999Y-103514999D02*
X160029999Y-103043001D01*
X160528000Y-104013000D02*
X160029999Y-103514999D01*
G04 #@! TO.N,Net-(C12-Pad1)*
X171069000Y-106172000D02*
X171577000Y-106680000D01*
X170180000Y-106172000D02*
X171069000Y-106172000D01*
G04 #@! TD*
D25*
G04 #@! TO.N,GND*
X175418684Y-37564407D02*
X176574850Y-37784957D01*
X177694243Y-38148671D01*
X178759231Y-38649815D01*
X179753013Y-39280487D01*
X180659915Y-40030741D01*
X181465636Y-40888748D01*
X182157465Y-41840969D01*
X182724492Y-42872389D01*
X183157775Y-43966739D01*
X183450485Y-45106768D01*
X183599045Y-46282741D01*
X183616999Y-46998264D01*
X183617000Y-88160244D01*
X183583162Y-88132474D01*
X183379906Y-88023831D01*
X183159360Y-87956929D01*
X182987477Y-87940000D01*
X182042523Y-87940000D01*
X181870640Y-87956929D01*
X181650094Y-88023831D01*
X181446838Y-88132474D01*
X181268682Y-88278682D01*
X181122474Y-88456838D01*
X181013831Y-88660094D01*
X180946929Y-88880640D01*
X180924339Y-89110000D01*
X180946929Y-89339360D01*
X180979719Y-89447454D01*
X180819140Y-89286875D01*
X180608676Y-89146247D01*
X180374821Y-89049381D01*
X180126561Y-89000000D01*
X179873439Y-89000000D01*
X179625179Y-89049381D01*
X179391324Y-89146247D01*
X179180860Y-89286875D01*
X179001875Y-89465860D01*
X178861247Y-89676324D01*
X178764381Y-89910179D01*
X178715000Y-90158439D01*
X178715000Y-90411561D01*
X178764381Y-90659821D01*
X178861247Y-90893676D01*
X179001875Y-91104140D01*
X179180860Y-91283125D01*
X179391324Y-91423753D01*
X179625179Y-91520619D01*
X179873439Y-91570000D01*
X180126561Y-91570000D01*
X180374821Y-91520619D01*
X180608676Y-91423753D01*
X180819140Y-91283125D01*
X180998125Y-91104140D01*
X181138753Y-90893676D01*
X181235619Y-90659821D01*
X181285000Y-90411561D01*
X181285000Y-90158439D01*
X181235619Y-89910179D01*
X181227968Y-89891707D01*
X181268682Y-89941318D01*
X181446838Y-90087526D01*
X181650094Y-90196169D01*
X181870640Y-90263071D01*
X182042523Y-90280000D01*
X182987477Y-90280000D01*
X183159360Y-90263071D01*
X183379906Y-90196169D01*
X183583162Y-90087526D01*
X183617000Y-90059756D01*
X183617000Y-95360244D01*
X183583162Y-95332474D01*
X183379906Y-95223831D01*
X183159360Y-95156929D01*
X182987477Y-95140000D01*
X182042523Y-95140000D01*
X181870640Y-95156929D01*
X181650094Y-95223831D01*
X181446838Y-95332474D01*
X181268682Y-95478682D01*
X181227968Y-95528293D01*
X181235619Y-95509821D01*
X181285000Y-95261561D01*
X181285000Y-95008439D01*
X181235619Y-94760179D01*
X181138753Y-94526324D01*
X180998125Y-94315860D01*
X180819140Y-94136875D01*
X180608676Y-93996247D01*
X180374821Y-93899381D01*
X180126561Y-93850000D01*
X179873439Y-93850000D01*
X179625179Y-93899381D01*
X179391324Y-93996247D01*
X179180860Y-94136875D01*
X179001875Y-94315860D01*
X178861247Y-94526324D01*
X178764381Y-94760179D01*
X178715000Y-95008439D01*
X178715000Y-95261561D01*
X178764381Y-95509821D01*
X178861247Y-95743676D01*
X179001875Y-95954140D01*
X179180860Y-96133125D01*
X179391324Y-96273753D01*
X179625179Y-96370619D01*
X179873439Y-96420000D01*
X180126561Y-96420000D01*
X180374821Y-96370619D01*
X180608676Y-96273753D01*
X180819140Y-96133125D01*
X180979719Y-95972546D01*
X180946929Y-96080640D01*
X180924339Y-96310000D01*
X180946929Y-96539360D01*
X181013831Y-96759906D01*
X181122474Y-96963162D01*
X181268682Y-97141318D01*
X181446838Y-97287526D01*
X181650094Y-97396169D01*
X181870640Y-97463071D01*
X182042523Y-97480000D01*
X182987477Y-97480000D01*
X183159360Y-97463071D01*
X183379906Y-97396169D01*
X183583162Y-97287526D01*
X183617001Y-97259756D01*
X183617001Y-99970106D01*
X183614511Y-99961899D01*
X183499833Y-99747351D01*
X183345502Y-99559298D01*
X183157449Y-99404967D01*
X182942901Y-99290289D01*
X182710102Y-99219670D01*
X182528665Y-99201800D01*
X181707335Y-99201800D01*
X181525898Y-99219670D01*
X181293099Y-99290289D01*
X181078551Y-99404967D01*
X180890498Y-99559298D01*
X180736167Y-99747351D01*
X180621489Y-99961899D01*
X180550870Y-100194698D01*
X180527025Y-100436800D01*
X180550870Y-100678902D01*
X180553883Y-100688835D01*
X180474381Y-100569851D01*
X180284949Y-100380419D01*
X180062201Y-100231584D01*
X179814697Y-100129064D01*
X179551948Y-100076800D01*
X179284052Y-100076800D01*
X179021303Y-100129064D01*
X178773799Y-100231584D01*
X178551051Y-100380419D01*
X178361619Y-100569851D01*
X178212784Y-100792599D01*
X178110264Y-101040103D01*
X178058000Y-101302852D01*
X178058000Y-101570748D01*
X178110264Y-101833497D01*
X178212784Y-102081001D01*
X178361619Y-102303749D01*
X178551051Y-102493181D01*
X178773799Y-102642016D01*
X179021303Y-102744536D01*
X179284052Y-102796800D01*
X179551948Y-102796800D01*
X179814697Y-102744536D01*
X180062201Y-102642016D01*
X180284949Y-102493181D01*
X180474381Y-102303749D01*
X180623216Y-102081001D01*
X180725736Y-101833497D01*
X180778000Y-101570748D01*
X180778000Y-101302852D01*
X180745016Y-101137032D01*
X180890498Y-101314302D01*
X181078551Y-101468633D01*
X181293099Y-101583311D01*
X181525898Y-101653930D01*
X181707335Y-101671800D01*
X182528665Y-101671800D01*
X182710102Y-101653930D01*
X182942901Y-101583311D01*
X183157449Y-101468633D01*
X183345502Y-101314302D01*
X183499833Y-101126249D01*
X183614511Y-100911701D01*
X183617001Y-100903494D01*
X183617001Y-106970107D01*
X183614511Y-106961899D01*
X183499833Y-106747351D01*
X183345502Y-106559298D01*
X183157449Y-106404967D01*
X182942901Y-106290289D01*
X182710102Y-106219670D01*
X182528665Y-106201800D01*
X181707335Y-106201800D01*
X181525898Y-106219670D01*
X181293099Y-106290289D01*
X181078551Y-106404967D01*
X180890498Y-106559298D01*
X180745016Y-106736568D01*
X180778000Y-106570748D01*
X180778000Y-106302852D01*
X180725736Y-106040103D01*
X180623216Y-105792599D01*
X180474381Y-105569851D01*
X180284949Y-105380419D01*
X180062201Y-105231584D01*
X179814697Y-105129064D01*
X179551948Y-105076800D01*
X179284052Y-105076800D01*
X179021303Y-105129064D01*
X178773799Y-105231584D01*
X178551051Y-105380419D01*
X178361619Y-105569851D01*
X178212784Y-105792599D01*
X178110264Y-106040103D01*
X178058000Y-106302852D01*
X178058000Y-106570748D01*
X178110264Y-106833497D01*
X178212784Y-107081001D01*
X178361619Y-107303749D01*
X178551051Y-107493181D01*
X178773799Y-107642016D01*
X179021303Y-107744536D01*
X179284052Y-107796800D01*
X179551948Y-107796800D01*
X179814697Y-107744536D01*
X180062201Y-107642016D01*
X180284949Y-107493181D01*
X180474381Y-107303749D01*
X180553883Y-107184765D01*
X180550870Y-107194698D01*
X180527025Y-107436800D01*
X180550870Y-107678902D01*
X180621489Y-107911701D01*
X180736167Y-108126249D01*
X180890498Y-108314302D01*
X181078551Y-108468633D01*
X181293099Y-108583311D01*
X181525898Y-108653930D01*
X181707335Y-108671800D01*
X182528665Y-108671800D01*
X182710102Y-108653930D01*
X182942901Y-108583311D01*
X183157449Y-108468633D01*
X183345502Y-108314302D01*
X183499833Y-108126249D01*
X183614511Y-107911701D01*
X183617001Y-107903493D01*
X183617001Y-112628238D01*
X183541790Y-113823684D01*
X183321240Y-114979849D01*
X182957526Y-116099244D01*
X182456380Y-117164235D01*
X181825706Y-118158018D01*
X181075451Y-119064920D01*
X180217453Y-119870634D01*
X179265235Y-120562462D01*
X178233816Y-121129489D01*
X177139465Y-121562774D01*
X175999429Y-121855486D01*
X174823456Y-122004046D01*
X174107915Y-122022000D01*
X97302754Y-122022803D01*
X96107317Y-121947593D01*
X94951152Y-121727043D01*
X93831757Y-121363329D01*
X92766766Y-120862183D01*
X91772983Y-120231509D01*
X90876999Y-119490286D01*
X116604123Y-119490286D01*
X116660231Y-119781392D01*
X116772053Y-120055958D01*
X116935292Y-120303433D01*
X117143674Y-120514306D01*
X117389191Y-120680474D01*
X117662409Y-120795551D01*
X117749969Y-120812302D01*
X117983000Y-120691246D01*
X117983000Y-119253000D01*
X116759624Y-119253000D01*
X116604123Y-119490286D01*
X90876999Y-119490286D01*
X90866081Y-119481254D01*
X90190388Y-118761714D01*
X116604123Y-118761714D01*
X116759624Y-118999000D01*
X117983000Y-118999000D01*
X117983000Y-117560754D01*
X118237000Y-117560754D01*
X118237000Y-118999000D01*
X118257000Y-118999000D01*
X118257000Y-119253000D01*
X118237000Y-119253000D01*
X118237000Y-120691246D01*
X118470031Y-120812302D01*
X118557591Y-120795551D01*
X118830809Y-120680474D01*
X119076326Y-120514306D01*
X119284708Y-120303433D01*
X119377440Y-120162848D01*
X119392583Y-120191178D01*
X119580655Y-120420345D01*
X119809821Y-120608417D01*
X120071275Y-120748166D01*
X120354968Y-120834224D01*
X120650000Y-120863282D01*
X120945031Y-120834224D01*
X121228724Y-120748166D01*
X121490178Y-120608417D01*
X121719345Y-120420345D01*
X121773066Y-120354886D01*
X121831595Y-120464387D01*
X121942038Y-120598962D01*
X122076613Y-120709405D01*
X122230149Y-120791472D01*
X122396745Y-120842008D01*
X122569999Y-120859072D01*
X123810001Y-120859072D01*
X123983255Y-120842008D01*
X124149851Y-120791472D01*
X124303387Y-120709405D01*
X124437962Y-120598962D01*
X124548405Y-120464387D01*
X124630472Y-120310851D01*
X124681008Y-120144255D01*
X124698072Y-119971001D01*
X124698072Y-118280999D01*
X124695118Y-118251000D01*
X132496928Y-118251000D01*
X132496928Y-119951000D01*
X132509188Y-120075482D01*
X132545498Y-120195180D01*
X132604463Y-120305494D01*
X132683815Y-120402185D01*
X132780506Y-120481537D01*
X132890820Y-120540502D01*
X133010518Y-120576812D01*
X133135000Y-120589072D01*
X134835000Y-120589072D01*
X134959482Y-120576812D01*
X135079180Y-120540502D01*
X135189494Y-120481537D01*
X135286185Y-120402185D01*
X135365537Y-120305494D01*
X135424502Y-120195180D01*
X135446513Y-120122620D01*
X135578368Y-120254475D01*
X135821589Y-120416990D01*
X136091842Y-120528932D01*
X136378740Y-120586000D01*
X136671260Y-120586000D01*
X136958158Y-120528932D01*
X137228411Y-120416990D01*
X137471632Y-120254475D01*
X137678475Y-120047632D01*
X137840990Y-119804411D01*
X137952932Y-119534158D01*
X138010000Y-119247260D01*
X138010000Y-118954740D01*
X137952932Y-118667842D01*
X137840990Y-118397589D01*
X137678475Y-118154368D01*
X137471632Y-117947525D01*
X137228411Y-117785010D01*
X136958158Y-117673068D01*
X136671260Y-117616000D01*
X136378740Y-117616000D01*
X136091842Y-117673068D01*
X135821589Y-117785010D01*
X135578368Y-117947525D01*
X135446513Y-118079380D01*
X135424502Y-118006820D01*
X135365537Y-117896506D01*
X135286185Y-117799815D01*
X135189494Y-117720463D01*
X135079180Y-117661498D01*
X134959482Y-117625188D01*
X134835000Y-117612928D01*
X133135000Y-117612928D01*
X133010518Y-117625188D01*
X132890820Y-117661498D01*
X132780506Y-117720463D01*
X132683815Y-117799815D01*
X132604463Y-117896506D01*
X132545498Y-118006820D01*
X132509188Y-118126518D01*
X132496928Y-118251000D01*
X124695118Y-118251000D01*
X124681008Y-118107745D01*
X124630472Y-117941149D01*
X124548405Y-117787613D01*
X124437962Y-117653038D01*
X124303387Y-117542595D01*
X124149851Y-117460528D01*
X123983255Y-117409992D01*
X123844000Y-117396277D01*
X123844000Y-116746881D01*
X175621924Y-116746881D01*
X175982112Y-117236548D01*
X176646082Y-117596849D01*
X177367585Y-117820694D01*
X178118895Y-117899480D01*
X178871138Y-117830178D01*
X179595408Y-117615452D01*
X180263870Y-117263555D01*
X180304288Y-117236548D01*
X180664476Y-116746881D01*
X178143200Y-114225605D01*
X175621924Y-116746881D01*
X123844000Y-116746881D01*
X123844000Y-115214061D01*
X123834031Y-115163943D01*
X123829024Y-115113105D01*
X123814196Y-115064223D01*
X123804226Y-115014102D01*
X123784669Y-114966887D01*
X123769841Y-114918007D01*
X123745762Y-114872958D01*
X123726205Y-114825744D01*
X123697814Y-114783254D01*
X123673734Y-114738203D01*
X123641328Y-114698716D01*
X123612937Y-114656226D01*
X123576803Y-114620092D01*
X123544396Y-114580604D01*
X123504908Y-114548197D01*
X123468774Y-114512063D01*
X123426284Y-114483672D01*
X123386797Y-114451266D01*
X123341747Y-114427186D01*
X123299256Y-114398795D01*
X123252039Y-114379237D01*
X123206992Y-114355159D01*
X123158116Y-114340332D01*
X123110898Y-114320774D01*
X123060774Y-114310804D01*
X123011894Y-114295976D01*
X122961058Y-114290969D01*
X122910939Y-114281000D01*
X122859838Y-114281000D01*
X122809000Y-114275993D01*
X122758162Y-114281000D01*
X122707061Y-114281000D01*
X122656943Y-114290969D01*
X122606105Y-114295976D01*
X122557223Y-114310804D01*
X122507102Y-114320774D01*
X122459887Y-114340331D01*
X122411007Y-114355159D01*
X122365958Y-114379238D01*
X122318744Y-114398795D01*
X122276254Y-114427186D01*
X122231203Y-114451266D01*
X122191716Y-114483672D01*
X122149226Y-114512063D01*
X122113092Y-114548197D01*
X122073604Y-114580604D01*
X122041197Y-114620092D01*
X122005063Y-114656226D01*
X121976672Y-114698716D01*
X121944266Y-114738203D01*
X121920186Y-114783253D01*
X121891795Y-114825744D01*
X121872237Y-114872961D01*
X121848159Y-114918008D01*
X121833332Y-114966884D01*
X121813774Y-115014102D01*
X121803804Y-115064226D01*
X121788976Y-115113106D01*
X121783969Y-115163942D01*
X121774000Y-115214061D01*
X121774000Y-115265163D01*
X121774001Y-117895364D01*
X121773066Y-117897114D01*
X121719345Y-117831655D01*
X121490179Y-117643583D01*
X121228725Y-117503834D01*
X120945032Y-117417776D01*
X120650000Y-117388718D01*
X120354969Y-117417776D01*
X120071276Y-117503834D01*
X119809822Y-117643583D01*
X119580655Y-117831655D01*
X119392583Y-118060821D01*
X119377440Y-118089152D01*
X119284708Y-117948567D01*
X119076326Y-117737694D01*
X118830809Y-117571526D01*
X118557591Y-117456449D01*
X118470031Y-117439698D01*
X118237000Y-117560754D01*
X117983000Y-117560754D01*
X117749969Y-117439698D01*
X117662409Y-117456449D01*
X117389191Y-117571526D01*
X117143674Y-117737694D01*
X116935292Y-117948567D01*
X116772053Y-118196042D01*
X116660231Y-118470608D01*
X116604123Y-118761714D01*
X90190388Y-118761714D01*
X90060367Y-118623256D01*
X89368539Y-117671038D01*
X88860480Y-116746881D01*
X90493524Y-116746881D01*
X90853712Y-117236548D01*
X91517682Y-117596849D01*
X92239185Y-117820694D01*
X92990495Y-117899480D01*
X93742738Y-117830178D01*
X94467008Y-117615452D01*
X95135470Y-117263555D01*
X95175888Y-117236548D01*
X95536076Y-116746881D01*
X93014800Y-114225605D01*
X90493524Y-116746881D01*
X88860480Y-116746881D01*
X88801512Y-116639619D01*
X88368227Y-115545268D01*
X88075515Y-114405232D01*
X88027063Y-114021695D01*
X89161320Y-114021695D01*
X89230622Y-114773938D01*
X89445348Y-115498208D01*
X89797245Y-116166670D01*
X89824252Y-116207088D01*
X90313919Y-116567276D01*
X92835195Y-114046000D01*
X93194405Y-114046000D01*
X95715681Y-116567276D01*
X96205348Y-116207088D01*
X96565649Y-115543118D01*
X96789494Y-114821615D01*
X96868280Y-114070305D01*
X96798978Y-113318062D01*
X96584252Y-112593792D01*
X96232355Y-111925330D01*
X96205348Y-111884912D01*
X95715681Y-111524724D01*
X93194405Y-114046000D01*
X92835195Y-114046000D01*
X90313919Y-111524724D01*
X89824252Y-111884912D01*
X89463951Y-112548882D01*
X89240106Y-113270385D01*
X89161320Y-114021695D01*
X88027063Y-114021695D01*
X87926955Y-113229259D01*
X87909000Y-112513676D01*
X87908986Y-111345119D01*
X90493524Y-111345119D01*
X93014800Y-113866395D01*
X95536076Y-111345119D01*
X95175888Y-110855452D01*
X94511918Y-110495151D01*
X93790415Y-110271306D01*
X93039105Y-110192520D01*
X92286862Y-110261822D01*
X91562592Y-110476548D01*
X90894130Y-110828445D01*
X90853712Y-110855452D01*
X90493524Y-111345119D01*
X87908986Y-111345119D01*
X87908841Y-99544007D01*
X87944414Y-99629889D01*
X88046738Y-99783028D01*
X88176972Y-99913262D01*
X88330111Y-100015586D01*
X88500271Y-100086068D01*
X88680911Y-100122000D01*
X88865089Y-100122000D01*
X89045729Y-100086068D01*
X89215889Y-100015586D01*
X89369028Y-99913262D01*
X89499262Y-99783028D01*
X89601586Y-99629889D01*
X89672068Y-99459729D01*
X89708000Y-99279089D01*
X89708000Y-99094911D01*
X89672068Y-98914271D01*
X89608000Y-98759596D01*
X89608000Y-85694777D01*
X89705271Y-85735068D01*
X89781636Y-85750258D01*
X89849414Y-85913889D01*
X89951738Y-86067028D01*
X90081972Y-86197262D01*
X90235111Y-86299586D01*
X90405271Y-86370068D01*
X90585911Y-86406000D01*
X90770089Y-86406000D01*
X90950729Y-86370068D01*
X91120889Y-86299586D01*
X91274028Y-86197262D01*
X91404262Y-86067028D01*
X91432344Y-86025000D01*
X91532089Y-86025000D01*
X91712729Y-85989068D01*
X91882889Y-85918586D01*
X92036028Y-85816262D01*
X92166262Y-85686028D01*
X92268586Y-85532889D01*
X92339068Y-85362729D01*
X92375000Y-85182089D01*
X92375000Y-84997911D01*
X92339068Y-84817271D01*
X92275000Y-84662596D01*
X92275000Y-84300890D01*
X92317172Y-84343062D01*
X92470311Y-84445386D01*
X92640471Y-84515868D01*
X92821111Y-84551800D01*
X93005289Y-84551800D01*
X93185929Y-84515868D01*
X93340604Y-84451800D01*
X94474843Y-84451800D01*
X94442000Y-84616911D01*
X94442000Y-84801089D01*
X94477932Y-84981729D01*
X94542001Y-85136406D01*
X94542001Y-85679000D01*
X94522911Y-85679000D01*
X94342271Y-85714932D01*
X94172111Y-85785414D01*
X94018972Y-85887738D01*
X93888738Y-86017972D01*
X93786414Y-86171111D01*
X93715932Y-86341271D01*
X93680000Y-86521911D01*
X93680000Y-86706089D01*
X93715932Y-86886729D01*
X93786414Y-87056889D01*
X93842001Y-87140081D01*
X93842000Y-94637909D01*
X93777932Y-94792584D01*
X93742000Y-94973224D01*
X93742000Y-95157402D01*
X93777932Y-95338042D01*
X93848414Y-95508202D01*
X93950738Y-95661341D01*
X94080972Y-95791575D01*
X94234111Y-95893899D01*
X94404271Y-95964381D01*
X94511925Y-95985795D01*
X94548414Y-96073889D01*
X94650738Y-96227028D01*
X94780972Y-96357262D01*
X94934111Y-96459586D01*
X95104271Y-96530068D01*
X95284911Y-96566000D01*
X95469089Y-96566000D01*
X95649729Y-96530068D01*
X95819889Y-96459586D01*
X95973028Y-96357262D01*
X96103262Y-96227028D01*
X96205586Y-96073889D01*
X96276068Y-95903729D01*
X96312000Y-95723089D01*
X96312000Y-95538911D01*
X96276068Y-95358271D01*
X96212000Y-95203596D01*
X96212000Y-85136404D01*
X96276068Y-84981729D01*
X96312000Y-84801089D01*
X96312000Y-84616911D01*
X96279157Y-84451800D01*
X98200796Y-84451800D01*
X98355471Y-84515868D01*
X98536111Y-84551800D01*
X98720289Y-84551800D01*
X98900929Y-84515868D01*
X99055604Y-84451800D01*
X100038536Y-84451800D01*
X100065932Y-84589529D01*
X100136414Y-84759689D01*
X100238738Y-84912828D01*
X100368972Y-85043062D01*
X100522111Y-85145386D01*
X100676788Y-85209455D01*
X105337001Y-89869669D01*
X105337000Y-95412131D01*
X104048133Y-96701000D01*
X100224016Y-96701000D01*
X100182998Y-96696960D01*
X100141980Y-96701000D01*
X100141979Y-96701000D01*
X100019309Y-96713082D01*
X99861911Y-96760828D01*
X99716852Y-96838364D01*
X99589707Y-96942709D01*
X99563561Y-96974569D01*
X98879574Y-97658557D01*
X98847710Y-97684707D01*
X98799050Y-97744000D01*
X98743364Y-97811853D01*
X98665828Y-97956912D01*
X98618082Y-98114310D01*
X98601960Y-98277998D01*
X98606001Y-98319026D01*
X98606000Y-102061596D01*
X98541932Y-102216271D01*
X98506000Y-102396911D01*
X98506000Y-102581089D01*
X98541932Y-102761729D01*
X98612414Y-102931889D01*
X98714738Y-103085028D01*
X98844972Y-103215262D01*
X98998111Y-103317586D01*
X99168271Y-103388068D01*
X99348911Y-103424000D01*
X99533089Y-103424000D01*
X99713729Y-103388068D01*
X99883889Y-103317586D01*
X100037028Y-103215262D01*
X100167262Y-103085028D01*
X100269586Y-102931889D01*
X100340068Y-102761729D01*
X100376000Y-102581089D01*
X100376000Y-102396911D01*
X100340068Y-102216271D01*
X100276000Y-102061596D01*
X100276000Y-100249000D01*
X100422089Y-100249000D01*
X100602729Y-100213068D01*
X100772889Y-100142586D01*
X100926028Y-100040262D01*
X101056262Y-99910028D01*
X101158586Y-99756889D01*
X101229068Y-99586729D01*
X101233191Y-99566000D01*
X116525199Y-99566000D01*
X118306005Y-101346807D01*
X118329803Y-101375805D01*
X118445528Y-101470778D01*
X118577557Y-101541350D01*
X118720818Y-101584807D01*
X118832471Y-101595804D01*
X118832480Y-101595804D01*
X118869803Y-101599480D01*
X118907126Y-101595804D01*
X120983465Y-101595804D01*
X121086111Y-101664390D01*
X121256271Y-101734872D01*
X121364695Y-101756439D01*
X118419135Y-104702000D01*
X110790404Y-104702000D01*
X110635729Y-104637932D01*
X110455089Y-104602000D01*
X110270911Y-104602000D01*
X110090271Y-104637932D01*
X109920111Y-104708414D01*
X109766972Y-104810738D01*
X109636738Y-104940972D01*
X109534414Y-105094111D01*
X109463932Y-105264271D01*
X109428000Y-105444911D01*
X109428000Y-105629089D01*
X109463932Y-105809729D01*
X109534414Y-105979889D01*
X109636738Y-106133028D01*
X109766972Y-106263262D01*
X109920111Y-106365586D01*
X110090271Y-106436068D01*
X110270911Y-106472000D01*
X110455089Y-106472000D01*
X110635729Y-106436068D01*
X110790404Y-106372000D01*
X117745133Y-106372000D01*
X117313788Y-106803345D01*
X117159111Y-106867414D01*
X117005972Y-106969738D01*
X116875738Y-107099972D01*
X116773414Y-107253111D01*
X116702932Y-107423271D01*
X116667000Y-107603911D01*
X116667000Y-107788089D01*
X116702932Y-107968729D01*
X116773414Y-108138889D01*
X116875738Y-108292028D01*
X117005972Y-108422262D01*
X117159111Y-108524586D01*
X117329271Y-108595068D01*
X117509911Y-108631000D01*
X117694089Y-108631000D01*
X117874729Y-108595068D01*
X118044889Y-108524586D01*
X118198028Y-108422262D01*
X118328262Y-108292028D01*
X118430586Y-108138889D01*
X118494655Y-107984212D01*
X121668956Y-104809911D01*
X125557000Y-104809911D01*
X125557000Y-104994089D01*
X125592932Y-105174729D01*
X125663414Y-105344889D01*
X125732001Y-105447537D01*
X125732000Y-112738464D01*
X125663414Y-112841111D01*
X125592932Y-113011271D01*
X125557000Y-113191911D01*
X125557000Y-113376089D01*
X125592932Y-113556729D01*
X125663414Y-113726889D01*
X125765738Y-113880028D01*
X125895972Y-114010262D01*
X126049111Y-114112586D01*
X126219271Y-114183068D01*
X126399911Y-114219000D01*
X126584089Y-114219000D01*
X126764729Y-114183068D01*
X126934889Y-114112586D01*
X127070917Y-114021695D01*
X174289720Y-114021695D01*
X174359022Y-114773938D01*
X174573748Y-115498208D01*
X174925645Y-116166670D01*
X174952652Y-116207088D01*
X175442319Y-116567276D01*
X177963595Y-114046000D01*
X178322805Y-114046000D01*
X180844081Y-116567276D01*
X181333748Y-116207088D01*
X181694049Y-115543118D01*
X181917894Y-114821615D01*
X181996680Y-114070305D01*
X181927378Y-113318062D01*
X181712652Y-112593792D01*
X181360755Y-111925330D01*
X181333748Y-111884912D01*
X180844081Y-111524724D01*
X178322805Y-114046000D01*
X177963595Y-114046000D01*
X175442319Y-111524724D01*
X174952652Y-111884912D01*
X174592351Y-112548882D01*
X174368506Y-113270385D01*
X174289720Y-114021695D01*
X127070917Y-114021695D01*
X127088028Y-114010262D01*
X127218262Y-113880028D01*
X127320586Y-113726889D01*
X127391068Y-113556729D01*
X127427000Y-113376089D01*
X127427000Y-113191911D01*
X127391068Y-113011271D01*
X127320586Y-112841111D01*
X127252000Y-112738465D01*
X127252000Y-111345119D01*
X175621924Y-111345119D01*
X178143200Y-113866395D01*
X180664476Y-111345119D01*
X180304288Y-110855452D01*
X179640318Y-110495151D01*
X178918815Y-110271306D01*
X178167505Y-110192520D01*
X177415262Y-110261822D01*
X176690992Y-110476548D01*
X176022530Y-110828445D01*
X175982112Y-110855452D01*
X175621924Y-111345119D01*
X127252000Y-111345119D01*
X127252000Y-105447535D01*
X127320586Y-105344889D01*
X127391068Y-105174729D01*
X127427000Y-104994089D01*
X127427000Y-104809911D01*
X127391068Y-104629271D01*
X127320586Y-104459111D01*
X127218262Y-104305972D01*
X127088028Y-104175738D01*
X126934889Y-104073414D01*
X126764729Y-104002932D01*
X126584089Y-103967000D01*
X126399911Y-103967000D01*
X126219271Y-104002932D01*
X126049111Y-104073414D01*
X125895972Y-104175738D01*
X125765738Y-104305972D01*
X125663414Y-104459111D01*
X125592932Y-104629271D01*
X125557000Y-104809911D01*
X121668956Y-104809911D01*
X124081956Y-102396911D01*
X140797000Y-102396911D01*
X140797000Y-102581089D01*
X140832932Y-102761729D01*
X140903414Y-102931889D01*
X141005738Y-103085028D01*
X141135972Y-103215262D01*
X141289111Y-103317586D01*
X141459271Y-103388068D01*
X141639911Y-103424000D01*
X141824089Y-103424000D01*
X142004729Y-103388068D01*
X142033864Y-103376000D01*
X152235465Y-103376000D01*
X152338111Y-103444586D01*
X152508271Y-103515068D01*
X152688911Y-103551000D01*
X152873089Y-103551000D01*
X153053729Y-103515068D01*
X153223889Y-103444586D01*
X153377028Y-103342262D01*
X153507262Y-103212028D01*
X153609586Y-103058889D01*
X153616166Y-103043001D01*
X159266323Y-103043001D01*
X159269999Y-103080323D01*
X159269999Y-103477677D01*
X159266323Y-103514999D01*
X159269999Y-103552321D01*
X159269999Y-103552331D01*
X159280996Y-103663984D01*
X159304137Y-103740271D01*
X159324453Y-103807245D01*
X159395025Y-103939275D01*
X159417779Y-103967000D01*
X159489998Y-104055000D01*
X159519002Y-104078803D01*
X159604847Y-104164648D01*
X159628932Y-104285729D01*
X159699414Y-104455889D01*
X159801738Y-104609028D01*
X159931972Y-104739262D01*
X160085111Y-104841586D01*
X160255271Y-104912068D01*
X160435911Y-104948000D01*
X160620089Y-104948000D01*
X160800729Y-104912068D01*
X160817371Y-104905175D01*
X162468199Y-106556003D01*
X162491997Y-106585001D01*
X162607722Y-106679974D01*
X162739751Y-106750546D01*
X162883012Y-106794003D01*
X162994665Y-106805000D01*
X162994673Y-106805000D01*
X163031998Y-106808676D01*
X163069323Y-106805000D01*
X166459465Y-106805000D01*
X166562111Y-106873586D01*
X166732271Y-106944068D01*
X166912911Y-106980000D01*
X167097089Y-106980000D01*
X167277729Y-106944068D01*
X167447889Y-106873586D01*
X167601028Y-106771262D01*
X167731262Y-106641028D01*
X167833586Y-106487889D01*
X167904068Y-106317729D01*
X167940000Y-106137089D01*
X167940000Y-106079911D01*
X169245000Y-106079911D01*
X169245000Y-106264089D01*
X169280932Y-106444729D01*
X169351414Y-106614889D01*
X169453738Y-106768028D01*
X169583972Y-106898262D01*
X169737111Y-107000586D01*
X169907271Y-107071068D01*
X170087911Y-107107000D01*
X170272089Y-107107000D01*
X170452729Y-107071068D01*
X170622889Y-107000586D01*
X170681526Y-106961406D01*
X170748414Y-107122889D01*
X170850738Y-107276028D01*
X170980972Y-107406262D01*
X171134111Y-107508586D01*
X171304271Y-107579068D01*
X171484911Y-107615000D01*
X171669089Y-107615000D01*
X171849729Y-107579068D01*
X172019889Y-107508586D01*
X172173028Y-107406262D01*
X172303262Y-107276028D01*
X172405586Y-107122889D01*
X172476068Y-106952729D01*
X172512000Y-106772089D01*
X172512000Y-106587911D01*
X172476068Y-106407271D01*
X172405586Y-106237111D01*
X172303262Y-106083972D01*
X172173028Y-105953738D01*
X172019889Y-105851414D01*
X171849729Y-105780932D01*
X171728649Y-105756847D01*
X171632803Y-105661002D01*
X171609001Y-105631999D01*
X171493276Y-105537026D01*
X171361247Y-105466454D01*
X171217986Y-105422997D01*
X171106333Y-105412000D01*
X171106322Y-105412000D01*
X171069000Y-105408324D01*
X171031678Y-105412000D01*
X170725535Y-105412000D01*
X170622889Y-105343414D01*
X170452729Y-105272932D01*
X170272089Y-105237000D01*
X170087911Y-105237000D01*
X169907271Y-105272932D01*
X169737111Y-105343414D01*
X169583972Y-105445738D01*
X169453738Y-105575972D01*
X169351414Y-105729111D01*
X169280932Y-105899271D01*
X169245000Y-106079911D01*
X167940000Y-106079911D01*
X167940000Y-105952911D01*
X167904068Y-105772271D01*
X167833586Y-105602111D01*
X167731262Y-105448972D01*
X167601028Y-105318738D01*
X167447889Y-105216414D01*
X167277729Y-105145932D01*
X167097089Y-105110000D01*
X166912911Y-105110000D01*
X166732271Y-105145932D01*
X166562111Y-105216414D01*
X166459465Y-105285000D01*
X163346800Y-105285000D01*
X162453800Y-104392000D01*
X166967465Y-104392000D01*
X167070111Y-104460586D01*
X167240271Y-104531068D01*
X167420911Y-104567000D01*
X167605089Y-104567000D01*
X167785729Y-104531068D01*
X167955889Y-104460586D01*
X168109028Y-104358262D01*
X168239262Y-104228028D01*
X168341586Y-104074889D01*
X168412068Y-103904729D01*
X168448000Y-103724089D01*
X168448000Y-103539911D01*
X168412068Y-103359271D01*
X168341586Y-103189111D01*
X168239262Y-103035972D01*
X168109028Y-102905738D01*
X167955889Y-102803414D01*
X167785729Y-102732932D01*
X167605089Y-102697000D01*
X167420911Y-102697000D01*
X167240271Y-102732932D01*
X167070111Y-102803414D01*
X166967465Y-102872000D01*
X161858802Y-102872000D01*
X161578153Y-102591351D01*
X161554068Y-102470271D01*
X161483586Y-102300111D01*
X161381262Y-102146972D01*
X161251028Y-102016738D01*
X161097889Y-101914414D01*
X160927729Y-101843932D01*
X160747089Y-101808000D01*
X160562911Y-101808000D01*
X160382271Y-101843932D01*
X160212111Y-101914414D01*
X160058972Y-102016738D01*
X159928738Y-102146972D01*
X159826414Y-102300111D01*
X159821464Y-102312062D01*
X159737753Y-102337455D01*
X159605723Y-102408027D01*
X159489998Y-102503000D01*
X159425912Y-102581089D01*
X159395025Y-102618725D01*
X159324453Y-102750754D01*
X159280996Y-102894015D01*
X159269999Y-103005668D01*
X159269999Y-103005679D01*
X159266323Y-103043001D01*
X153616166Y-103043001D01*
X153680068Y-102888729D01*
X153716000Y-102708089D01*
X153716000Y-102523911D01*
X153680068Y-102343271D01*
X153609586Y-102173111D01*
X153507262Y-102019972D01*
X153377028Y-101889738D01*
X153223889Y-101787414D01*
X153053729Y-101716932D01*
X152873089Y-101681000D01*
X152688911Y-101681000D01*
X152508271Y-101716932D01*
X152338111Y-101787414D01*
X152235465Y-101856000D01*
X142421290Y-101856000D01*
X142328028Y-101762738D01*
X142174889Y-101660414D01*
X142004729Y-101589932D01*
X141824089Y-101554000D01*
X141639911Y-101554000D01*
X141459271Y-101589932D01*
X141289111Y-101660414D01*
X141135972Y-101762738D01*
X141005738Y-101892972D01*
X140903414Y-102046111D01*
X140832932Y-102216271D01*
X140797000Y-102396911D01*
X124081956Y-102396911D01*
X126988427Y-99490441D01*
X127020290Y-99464292D01*
X127124635Y-99337147D01*
X127202171Y-99192088D01*
X127249917Y-99034690D01*
X127261999Y-98912020D01*
X127261999Y-98912010D01*
X127266038Y-98871002D01*
X127261999Y-98829994D01*
X127261999Y-96382956D01*
X127343667Y-96391000D01*
X127343676Y-96391000D01*
X127380999Y-96394676D01*
X127418322Y-96391000D01*
X147409465Y-96391000D01*
X147512111Y-96459586D01*
X147682271Y-96530068D01*
X147862911Y-96566000D01*
X148047089Y-96566000D01*
X148227729Y-96530068D01*
X148397889Y-96459586D01*
X148539299Y-96365099D01*
X149608001Y-97433802D01*
X149608000Y-99149667D01*
X149608000Y-99149668D01*
X149608001Y-100282464D01*
X149539414Y-100385111D01*
X149468932Y-100555271D01*
X149433000Y-100735911D01*
X149433000Y-100920089D01*
X149468932Y-101100729D01*
X149539414Y-101270889D01*
X149641738Y-101424028D01*
X149771972Y-101554262D01*
X149925111Y-101656586D01*
X150095271Y-101727068D01*
X150275911Y-101763000D01*
X150460089Y-101763000D01*
X150640729Y-101727068D01*
X150810889Y-101656586D01*
X150964028Y-101554262D01*
X151094262Y-101424028D01*
X151196586Y-101270889D01*
X151267068Y-101100729D01*
X151303000Y-100920089D01*
X151303000Y-100735911D01*
X151267068Y-100555271D01*
X151196586Y-100385111D01*
X151128000Y-100282465D01*
X151128000Y-97156320D01*
X151131676Y-97118997D01*
X151128000Y-97081674D01*
X151128000Y-97081665D01*
X151117003Y-96970012D01*
X151073546Y-96826751D01*
X151002974Y-96694722D01*
X150963831Y-96647026D01*
X150931799Y-96607994D01*
X150931795Y-96607990D01*
X150908001Y-96578997D01*
X150879008Y-96555203D01*
X148449803Y-94126000D01*
X157200939Y-94126000D01*
X157251057Y-94116031D01*
X157301895Y-94111024D01*
X157350777Y-94096196D01*
X157400898Y-94086226D01*
X157448113Y-94066669D01*
X157496993Y-94051841D01*
X157542042Y-94027762D01*
X157589256Y-94008205D01*
X157631746Y-93979814D01*
X157676797Y-93955734D01*
X157716284Y-93923328D01*
X157758774Y-93894937D01*
X157794908Y-93858803D01*
X157834396Y-93826396D01*
X157866804Y-93786907D01*
X157902937Y-93750774D01*
X157931328Y-93708284D01*
X157963734Y-93668797D01*
X157987814Y-93623746D01*
X158016205Y-93581256D01*
X158035762Y-93534042D01*
X158059841Y-93488993D01*
X158074669Y-93440113D01*
X158094226Y-93392898D01*
X158104196Y-93342777D01*
X158119024Y-93293895D01*
X158124031Y-93243057D01*
X158134000Y-93192939D01*
X158134000Y-93141837D01*
X158139007Y-93091000D01*
X158134000Y-93040162D01*
X158134000Y-92989061D01*
X158124031Y-92938943D01*
X158119024Y-92888105D01*
X158104196Y-92839223D01*
X158094226Y-92789102D01*
X158074669Y-92741887D01*
X158059841Y-92693007D01*
X158035762Y-92647958D01*
X158016205Y-92600744D01*
X157987814Y-92558254D01*
X157963734Y-92513203D01*
X157931328Y-92473716D01*
X157902937Y-92431226D01*
X157866803Y-92395092D01*
X157834396Y-92355604D01*
X157794908Y-92323197D01*
X157758774Y-92287063D01*
X157716284Y-92258672D01*
X157676797Y-92226266D01*
X157631746Y-92202186D01*
X157589256Y-92173795D01*
X157542042Y-92154238D01*
X157496993Y-92130159D01*
X157448113Y-92115331D01*
X157400898Y-92095774D01*
X157350777Y-92085804D01*
X157301895Y-92070976D01*
X157251057Y-92065969D01*
X157200939Y-92056000D01*
X144689584Y-92056000D01*
X144706475Y-91884500D01*
X144682630Y-91642398D01*
X144612011Y-91409599D01*
X144497333Y-91195051D01*
X144343002Y-91006998D01*
X144154949Y-90852667D01*
X143940401Y-90737989D01*
X143707602Y-90667370D01*
X143526165Y-90649500D01*
X142604835Y-90649500D01*
X142423398Y-90667370D01*
X142190599Y-90737989D01*
X141976051Y-90852667D01*
X141787998Y-91006998D01*
X141633667Y-91195051D01*
X141518989Y-91409599D01*
X141448370Y-91642398D01*
X141424525Y-91884500D01*
X141441416Y-92056000D01*
X135932733Y-92056000D01*
X134493829Y-90617097D01*
X134461418Y-90577604D01*
X134303819Y-90448266D01*
X134124015Y-90352159D01*
X133928917Y-90292976D01*
X133776860Y-90278000D01*
X133776850Y-90278000D01*
X133726022Y-90272994D01*
X133675194Y-90278000D01*
X129946061Y-90278000D01*
X129895943Y-90287969D01*
X129845105Y-90292976D01*
X129796223Y-90307804D01*
X129746102Y-90317774D01*
X129698887Y-90337331D01*
X129650007Y-90352159D01*
X129604958Y-90376238D01*
X129557744Y-90395795D01*
X129515254Y-90424186D01*
X129470203Y-90448266D01*
X129430716Y-90480672D01*
X129388226Y-90509063D01*
X129352092Y-90545197D01*
X129312604Y-90577604D01*
X129280197Y-90617092D01*
X129244063Y-90653226D01*
X129215672Y-90695716D01*
X129183266Y-90735203D01*
X129159186Y-90780254D01*
X129130795Y-90822744D01*
X129111238Y-90869958D01*
X129087159Y-90915007D01*
X129072331Y-90963887D01*
X129052774Y-91011102D01*
X129042804Y-91061223D01*
X129027976Y-91110105D01*
X129022969Y-91160943D01*
X129013000Y-91211061D01*
X129013000Y-91262162D01*
X129007993Y-91313000D01*
X129013000Y-91363838D01*
X129013000Y-91414939D01*
X129022969Y-91465057D01*
X129027976Y-91515895D01*
X129042804Y-91564777D01*
X129052774Y-91614898D01*
X129072331Y-91662113D01*
X129087159Y-91710993D01*
X129111238Y-91756042D01*
X129130795Y-91803256D01*
X129159186Y-91845746D01*
X129183266Y-91890797D01*
X129215672Y-91930284D01*
X129244063Y-91972774D01*
X129280196Y-92008907D01*
X129312604Y-92048396D01*
X129321870Y-92056000D01*
X127279881Y-92056000D01*
X127261999Y-92054239D01*
X127261999Y-88929868D01*
X130590214Y-85601654D01*
X130664105Y-85571048D01*
X129867574Y-86367579D01*
X129835710Y-86393729D01*
X129809562Y-86425591D01*
X129731364Y-86520875D01*
X129653828Y-86665934D01*
X129606082Y-86823332D01*
X129589960Y-86987020D01*
X129594001Y-87028048D01*
X129594000Y-88089615D01*
X129529932Y-88244291D01*
X129494000Y-88424931D01*
X129494000Y-88609109D01*
X129529932Y-88789749D01*
X129600414Y-88959909D01*
X129702738Y-89113048D01*
X129832972Y-89243282D01*
X129986111Y-89345606D01*
X130156271Y-89416088D01*
X130336911Y-89452020D01*
X130521089Y-89452020D01*
X130701729Y-89416088D01*
X130871889Y-89345606D01*
X131025028Y-89243282D01*
X131155262Y-89113048D01*
X131257586Y-88959909D01*
X131328068Y-88789749D01*
X131364000Y-88609109D01*
X131364000Y-88424931D01*
X131328068Y-88244291D01*
X131264000Y-88089616D01*
X131264000Y-87332887D01*
X131987214Y-86609674D01*
X132141889Y-86545606D01*
X132295028Y-86443282D01*
X132425262Y-86313048D01*
X132527586Y-86159909D01*
X132598068Y-85989749D01*
X132634000Y-85809109D01*
X132634000Y-85624931D01*
X132598068Y-85444291D01*
X132527586Y-85274131D01*
X132425262Y-85120992D01*
X132295028Y-84990758D01*
X132141889Y-84888434D01*
X131971729Y-84817952D01*
X131791089Y-84782020D01*
X131606911Y-84782020D01*
X131426271Y-84817952D01*
X131256111Y-84888434D01*
X131214033Y-84916549D01*
X131237000Y-84801089D01*
X131237000Y-84616911D01*
X131204157Y-84451800D01*
X133125796Y-84451800D01*
X133280471Y-84515868D01*
X133461111Y-84551800D01*
X133645289Y-84551800D01*
X133825929Y-84515868D01*
X133980604Y-84451800D01*
X137251690Y-84451800D01*
X137098111Y-84515414D01*
X136944972Y-84617738D01*
X136814738Y-84747972D01*
X136712414Y-84901111D01*
X136648347Y-85055785D01*
X135328574Y-86375559D01*
X135296710Y-86401709D01*
X135270562Y-86433571D01*
X135192364Y-86528855D01*
X135114828Y-86673914D01*
X135067082Y-86831312D01*
X135050960Y-86995000D01*
X135055000Y-87036018D01*
X135055000Y-87389616D01*
X134990932Y-87544291D01*
X134955000Y-87724931D01*
X134955000Y-87909109D01*
X134990932Y-88089749D01*
X135061414Y-88259909D01*
X135163738Y-88413048D01*
X135293972Y-88543282D01*
X135447111Y-88645606D01*
X135617271Y-88716088D01*
X135797911Y-88752020D01*
X135982089Y-88752020D01*
X136162729Y-88716088D01*
X136332889Y-88645606D01*
X136486028Y-88543282D01*
X136616262Y-88413048D01*
X136718586Y-88259909D01*
X136789068Y-88089749D01*
X136825000Y-87909109D01*
X136825000Y-87724931D01*
X136789068Y-87544291D01*
X136725000Y-87389616D01*
X136725000Y-87340867D01*
X137829215Y-86236653D01*
X137983889Y-86172586D01*
X138137028Y-86070262D01*
X138267262Y-85940028D01*
X138369586Y-85786889D01*
X138440068Y-85616729D01*
X138476000Y-85436089D01*
X138476000Y-85251911D01*
X138440068Y-85071271D01*
X138369586Y-84901111D01*
X138267262Y-84747972D01*
X138137028Y-84617738D01*
X137983889Y-84515414D01*
X137830310Y-84451800D01*
X138967796Y-84451800D01*
X139122471Y-84515868D01*
X139303111Y-84551800D01*
X139487289Y-84551800D01*
X139667929Y-84515868D01*
X139822604Y-84451800D01*
X142464247Y-84451800D01*
X142405972Y-84490738D01*
X142275738Y-84620972D01*
X142173414Y-84774111D01*
X142102932Y-84944271D01*
X142067000Y-85124911D01*
X142067000Y-85309089D01*
X142094386Y-85446766D01*
X141316787Y-86224366D01*
X141162111Y-86288434D01*
X141008972Y-86390758D01*
X140878738Y-86520992D01*
X140776414Y-86674131D01*
X140705932Y-86844291D01*
X140670000Y-87024931D01*
X140670000Y-87209109D01*
X140705932Y-87389749D01*
X140776414Y-87559909D01*
X140878738Y-87713048D01*
X141008972Y-87843282D01*
X141162111Y-87945606D01*
X141332271Y-88016088D01*
X141512911Y-88052020D01*
X141697089Y-88052020D01*
X141877729Y-88016088D01*
X142047889Y-87945606D01*
X142201028Y-87843282D01*
X142331262Y-87713048D01*
X142433586Y-87559909D01*
X142497654Y-87405233D01*
X143558453Y-86344436D01*
X143590311Y-86318291D01*
X143622557Y-86279000D01*
X143671117Y-86219828D01*
X143694656Y-86191146D01*
X143772192Y-86046087D01*
X143819938Y-85888689D01*
X143832020Y-85766019D01*
X143832020Y-85766018D01*
X143836060Y-85725000D01*
X143832020Y-85683982D01*
X143832020Y-85656427D01*
X143901068Y-85489729D01*
X143937000Y-85309089D01*
X143937000Y-85124911D01*
X143901068Y-84944271D01*
X143830586Y-84774111D01*
X143728262Y-84620972D01*
X143598028Y-84490738D01*
X143539753Y-84451800D01*
X144809796Y-84451800D01*
X144964471Y-84515868D01*
X145145111Y-84551800D01*
X145329289Y-84551800D01*
X145509929Y-84515868D01*
X145664604Y-84451800D01*
X150524796Y-84451800D01*
X150679471Y-84515868D01*
X150860111Y-84551800D01*
X151044289Y-84551800D01*
X151224929Y-84515868D01*
X151379604Y-84451800D01*
X156366796Y-84451800D01*
X156521471Y-84515868D01*
X156702111Y-84551800D01*
X156886289Y-84551800D01*
X157066929Y-84515868D01*
X157221604Y-84451800D01*
X162208796Y-84451800D01*
X162363471Y-84515868D01*
X162544111Y-84551800D01*
X162728289Y-84551800D01*
X162908929Y-84515868D01*
X163063604Y-84451800D01*
X168050796Y-84451800D01*
X168205471Y-84515868D01*
X168386111Y-84551800D01*
X168570289Y-84551800D01*
X168750929Y-84515868D01*
X168905604Y-84451800D01*
X173765796Y-84451800D01*
X173920471Y-84515868D01*
X174101111Y-84551800D01*
X174285289Y-84551800D01*
X174465929Y-84515868D01*
X174620604Y-84451800D01*
X179607796Y-84451800D01*
X179762471Y-84515868D01*
X179943111Y-84551800D01*
X180127289Y-84551800D01*
X180307929Y-84515868D01*
X180462604Y-84451800D01*
X181270019Y-84451800D01*
X181392689Y-84439718D01*
X181550087Y-84391972D01*
X181695146Y-84314436D01*
X181822291Y-84210091D01*
X181926636Y-84082946D01*
X182004172Y-83937887D01*
X182051918Y-83780489D01*
X182068040Y-83616800D01*
X182051918Y-83453111D01*
X182004172Y-83295713D01*
X181926636Y-83150654D01*
X181822291Y-83023509D01*
X181695146Y-82919164D01*
X181550087Y-82841628D01*
X181392689Y-82793882D01*
X181270019Y-82781800D01*
X180462604Y-82781800D01*
X180307929Y-82717732D01*
X180127289Y-82681800D01*
X179943111Y-82681800D01*
X179762471Y-82717732D01*
X179607796Y-82781800D01*
X178345914Y-82781800D01*
X178374586Y-82738889D01*
X178445068Y-82568729D01*
X178481000Y-82388089D01*
X178481000Y-82203911D01*
X178445068Y-82023271D01*
X178374586Y-81853111D01*
X178272262Y-81699972D01*
X178142028Y-81569738D01*
X177988889Y-81467414D01*
X177834214Y-81403346D01*
X176303409Y-79872542D01*
X179615054Y-79872542D01*
X179769729Y-79936610D01*
X179950369Y-79972542D01*
X180134547Y-79972542D01*
X180315187Y-79936610D01*
X180469862Y-79872542D01*
X181270019Y-79872542D01*
X181392689Y-79860460D01*
X181550087Y-79812714D01*
X181695146Y-79735178D01*
X181822291Y-79630833D01*
X181926636Y-79503688D01*
X182004172Y-79358629D01*
X182051918Y-79201231D01*
X182068040Y-79037542D01*
X182051918Y-78873853D01*
X182004172Y-78716455D01*
X181926636Y-78571396D01*
X181822291Y-78444251D01*
X181695146Y-78339906D01*
X181550087Y-78262370D01*
X181392689Y-78214624D01*
X181270019Y-78202542D01*
X180469862Y-78202542D01*
X180315187Y-78138474D01*
X180134547Y-78102542D01*
X179950369Y-78102542D01*
X179769729Y-78138474D01*
X179615054Y-78202542D01*
X174500862Y-78202542D01*
X174346187Y-78138474D01*
X174165547Y-78102542D01*
X173981369Y-78102542D01*
X173800729Y-78138474D01*
X173646054Y-78202542D01*
X168912862Y-78202542D01*
X168758187Y-78138474D01*
X168577547Y-78102542D01*
X168393369Y-78102542D01*
X168212729Y-78138474D01*
X168058054Y-78202542D01*
X163070862Y-78202542D01*
X162916187Y-78138474D01*
X162735547Y-78102542D01*
X162551369Y-78102542D01*
X162370729Y-78138474D01*
X162216054Y-78202542D01*
X157228862Y-78202542D01*
X157074187Y-78138474D01*
X156893547Y-78102542D01*
X156709369Y-78102542D01*
X156528729Y-78138474D01*
X156374054Y-78202542D01*
X151386862Y-78202542D01*
X151232187Y-78138474D01*
X151051547Y-78102542D01*
X150867369Y-78102542D01*
X150686729Y-78138474D01*
X150532054Y-78202542D01*
X145671862Y-78202542D01*
X145517187Y-78138474D01*
X145336547Y-78102542D01*
X145152369Y-78102542D01*
X144971729Y-78138474D01*
X144817054Y-78202542D01*
X139829862Y-78202542D01*
X139675187Y-78138474D01*
X139494547Y-78102542D01*
X139310369Y-78102542D01*
X139129729Y-78138474D01*
X138975054Y-78202542D01*
X133987862Y-78202542D01*
X133833187Y-78138474D01*
X133652547Y-78102542D01*
X133468369Y-78102542D01*
X133287729Y-78138474D01*
X133133054Y-78202542D01*
X128145862Y-78202542D01*
X127991187Y-78138474D01*
X127810547Y-78102542D01*
X127626369Y-78102542D01*
X127445729Y-78138474D01*
X127291054Y-78202542D01*
X122303862Y-78202542D01*
X122149187Y-78138474D01*
X121968547Y-78102542D01*
X121784369Y-78102542D01*
X121603729Y-78138474D01*
X121449054Y-78202542D01*
X116461862Y-78202542D01*
X116307187Y-78138474D01*
X116126547Y-78102542D01*
X115942369Y-78102542D01*
X115761729Y-78138474D01*
X115607054Y-78202542D01*
X110746862Y-78202542D01*
X110592187Y-78138474D01*
X110411547Y-78102542D01*
X110227369Y-78102542D01*
X110046729Y-78138474D01*
X109892054Y-78202542D01*
X104904862Y-78202542D01*
X104750187Y-78138474D01*
X104569547Y-78102542D01*
X104385369Y-78102542D01*
X104204729Y-78138474D01*
X104050054Y-78202542D01*
X99062862Y-78202542D01*
X98908187Y-78138474D01*
X98727547Y-78102542D01*
X98543369Y-78102542D01*
X98362729Y-78138474D01*
X98208054Y-78202542D01*
X93347862Y-78202542D01*
X93193187Y-78138474D01*
X93012547Y-78102542D01*
X92828369Y-78102542D01*
X92647729Y-78138474D01*
X92477569Y-78208956D01*
X92324430Y-78311280D01*
X92194196Y-78441514D01*
X92091872Y-78594653D01*
X92021390Y-78764813D01*
X91985458Y-78945453D01*
X91985458Y-79129631D01*
X92021390Y-79310271D01*
X92087124Y-79468969D01*
X91089609Y-79468969D01*
X91055178Y-79465032D01*
X91007568Y-79468969D01*
X91001009Y-79468969D01*
X90966679Y-79472350D01*
X90891258Y-79478587D01*
X90884914Y-79480403D01*
X90878339Y-79481051D01*
X90805873Y-79503033D01*
X90733130Y-79523860D01*
X90727260Y-79526880D01*
X90720941Y-79528797D01*
X90654185Y-79564479D01*
X90586874Y-79599112D01*
X90581704Y-79603221D01*
X90575882Y-79606333D01*
X90517364Y-79654357D01*
X90490376Y-79675807D01*
X90485669Y-79680369D01*
X90448737Y-79710678D01*
X90426751Y-79737468D01*
X90025041Y-80126779D01*
X90024271Y-80126932D01*
X89854111Y-80197414D01*
X89700972Y-80299738D01*
X89608000Y-80392710D01*
X89608000Y-78958867D01*
X93215929Y-75350939D01*
X93355119Y-75293285D01*
X98215311Y-75293285D01*
X98369986Y-75357353D01*
X98550626Y-75393285D01*
X98734804Y-75393285D01*
X98915444Y-75357353D01*
X99070119Y-75293285D01*
X104057311Y-75293285D01*
X104211986Y-75357353D01*
X104392626Y-75393285D01*
X104576804Y-75393285D01*
X104757444Y-75357353D01*
X104912119Y-75293285D01*
X109899311Y-75293285D01*
X110053986Y-75357353D01*
X110234626Y-75393285D01*
X110418804Y-75393285D01*
X110599444Y-75357353D01*
X110754119Y-75293285D01*
X115614311Y-75293285D01*
X115768986Y-75357353D01*
X115949626Y-75393285D01*
X116133804Y-75393285D01*
X116314444Y-75357353D01*
X116469119Y-75293285D01*
X121456311Y-75293285D01*
X121610986Y-75357353D01*
X121791626Y-75393285D01*
X121975804Y-75393285D01*
X122156444Y-75357353D01*
X122311119Y-75293285D01*
X127298311Y-75293285D01*
X127452986Y-75357353D01*
X127633626Y-75393285D01*
X127817804Y-75393285D01*
X127998444Y-75357353D01*
X128153119Y-75293285D01*
X133140311Y-75293285D01*
X133294986Y-75357353D01*
X133475626Y-75393285D01*
X133659804Y-75393285D01*
X133840444Y-75357353D01*
X133995119Y-75293285D01*
X138982311Y-75293285D01*
X139136986Y-75357353D01*
X139317626Y-75393285D01*
X139501804Y-75393285D01*
X139682444Y-75357353D01*
X139837119Y-75293285D01*
X144824311Y-75293285D01*
X144978986Y-75357353D01*
X145159626Y-75393285D01*
X145343804Y-75393285D01*
X145524444Y-75357353D01*
X145679119Y-75293285D01*
X150539311Y-75293285D01*
X150693986Y-75357353D01*
X150874626Y-75393285D01*
X151058804Y-75393285D01*
X151239444Y-75357353D01*
X151394119Y-75293285D01*
X156381311Y-75293285D01*
X156535986Y-75357353D01*
X156716626Y-75393285D01*
X156900804Y-75393285D01*
X157081444Y-75357353D01*
X157236119Y-75293285D01*
X162223311Y-75293285D01*
X162377986Y-75357353D01*
X162558626Y-75393285D01*
X162742804Y-75393285D01*
X162923444Y-75357353D01*
X163078119Y-75293285D01*
X168065311Y-75293285D01*
X168219986Y-75357353D01*
X168400626Y-75393285D01*
X168584804Y-75393285D01*
X168765444Y-75357353D01*
X168920119Y-75293285D01*
X173780311Y-75293285D01*
X173934986Y-75357353D01*
X174115626Y-75393285D01*
X174299804Y-75393285D01*
X174480444Y-75357353D01*
X174635119Y-75293285D01*
X179622311Y-75293285D01*
X179776986Y-75357353D01*
X179957626Y-75393285D01*
X180141804Y-75393285D01*
X180322444Y-75357353D01*
X180477119Y-75293285D01*
X181270019Y-75293285D01*
X181392689Y-75281203D01*
X181550087Y-75233457D01*
X181695146Y-75155921D01*
X181822291Y-75051576D01*
X181926636Y-74924431D01*
X182004172Y-74779372D01*
X182051918Y-74621974D01*
X182068040Y-74458285D01*
X182051918Y-74294596D01*
X182004172Y-74137198D01*
X181926636Y-73992139D01*
X181822291Y-73864994D01*
X181695146Y-73760649D01*
X181550087Y-73683113D01*
X181392689Y-73635367D01*
X181270019Y-73623285D01*
X180477119Y-73623285D01*
X180322444Y-73559217D01*
X180141804Y-73523285D01*
X179957626Y-73523285D01*
X179776986Y-73559217D01*
X179622311Y-73623285D01*
X174635119Y-73623285D01*
X174480444Y-73559217D01*
X174299804Y-73523285D01*
X174115626Y-73523285D01*
X173934986Y-73559217D01*
X173780311Y-73623285D01*
X168920119Y-73623285D01*
X168765444Y-73559217D01*
X168584804Y-73523285D01*
X168400626Y-73523285D01*
X168219986Y-73559217D01*
X168065311Y-73623285D01*
X163078119Y-73623285D01*
X162923444Y-73559217D01*
X162742804Y-73523285D01*
X162558626Y-73523285D01*
X162377986Y-73559217D01*
X162223311Y-73623285D01*
X157236119Y-73623285D01*
X157081444Y-73559217D01*
X156900804Y-73523285D01*
X156716626Y-73523285D01*
X156535986Y-73559217D01*
X156381311Y-73623285D01*
X151394119Y-73623285D01*
X151239444Y-73559217D01*
X151058804Y-73523285D01*
X150874626Y-73523285D01*
X150693986Y-73559217D01*
X150539311Y-73623285D01*
X145679119Y-73623285D01*
X145524444Y-73559217D01*
X145343804Y-73523285D01*
X145159626Y-73523285D01*
X144978986Y-73559217D01*
X144824311Y-73623285D01*
X139837119Y-73623285D01*
X139682444Y-73559217D01*
X139501804Y-73523285D01*
X139317626Y-73523285D01*
X139136986Y-73559217D01*
X138982311Y-73623285D01*
X133995119Y-73623285D01*
X133840444Y-73559217D01*
X133659804Y-73523285D01*
X133475626Y-73523285D01*
X133294986Y-73559217D01*
X133140311Y-73623285D01*
X128153119Y-73623285D01*
X127998444Y-73559217D01*
X127817804Y-73523285D01*
X127633626Y-73523285D01*
X127452986Y-73559217D01*
X127298311Y-73623285D01*
X122311119Y-73623285D01*
X122156444Y-73559217D01*
X121975804Y-73523285D01*
X121791626Y-73523285D01*
X121610986Y-73559217D01*
X121456311Y-73623285D01*
X116469119Y-73623285D01*
X116314444Y-73559217D01*
X116133804Y-73523285D01*
X115949626Y-73523285D01*
X115768986Y-73559217D01*
X115614311Y-73623285D01*
X110754119Y-73623285D01*
X110599444Y-73559217D01*
X110418804Y-73523285D01*
X110234626Y-73523285D01*
X110053986Y-73559217D01*
X109899311Y-73623285D01*
X104912119Y-73623285D01*
X104757444Y-73559217D01*
X104576804Y-73523285D01*
X104392626Y-73523285D01*
X104211986Y-73559217D01*
X104057311Y-73623285D01*
X99070119Y-73623285D01*
X98915444Y-73559217D01*
X98734804Y-73523285D01*
X98550626Y-73523285D01*
X98369986Y-73559217D01*
X98215311Y-73623285D01*
X93355119Y-73623285D01*
X93200444Y-73559217D01*
X93019804Y-73523285D01*
X92835626Y-73523285D01*
X92654986Y-73559217D01*
X92484826Y-73629699D01*
X92331687Y-73732023D01*
X92201453Y-73862257D01*
X92099129Y-74015396D01*
X92035061Y-74170071D01*
X88846000Y-77359133D01*
X88846000Y-72227867D01*
X90359840Y-70714028D01*
X92507568Y-70714028D01*
X92662243Y-70778096D01*
X92842883Y-70814028D01*
X93027061Y-70814028D01*
X93207701Y-70778096D01*
X93362376Y-70714028D01*
X98222568Y-70714028D01*
X98377243Y-70778096D01*
X98557883Y-70814028D01*
X98742061Y-70814028D01*
X98922701Y-70778096D01*
X99077376Y-70714028D01*
X104064568Y-70714028D01*
X104219243Y-70778096D01*
X104399883Y-70814028D01*
X104584061Y-70814028D01*
X104764701Y-70778096D01*
X104919376Y-70714028D01*
X109906568Y-70714028D01*
X110061243Y-70778096D01*
X110241883Y-70814028D01*
X110426061Y-70814028D01*
X110606701Y-70778096D01*
X110761376Y-70714028D01*
X115621568Y-70714028D01*
X115776243Y-70778096D01*
X115956883Y-70814028D01*
X116141061Y-70814028D01*
X116321701Y-70778096D01*
X116476376Y-70714028D01*
X121463568Y-70714028D01*
X121618243Y-70778096D01*
X121798883Y-70814028D01*
X121983061Y-70814028D01*
X122163701Y-70778096D01*
X122318376Y-70714028D01*
X127305568Y-70714028D01*
X127460243Y-70778096D01*
X127640883Y-70814028D01*
X127825061Y-70814028D01*
X128005701Y-70778096D01*
X128160376Y-70714028D01*
X133147568Y-70714028D01*
X133302243Y-70778096D01*
X133482883Y-70814028D01*
X133667061Y-70814028D01*
X133847701Y-70778096D01*
X134002376Y-70714028D01*
X138989568Y-70714028D01*
X139144243Y-70778096D01*
X139324883Y-70814028D01*
X139509061Y-70814028D01*
X139689701Y-70778096D01*
X139844376Y-70714028D01*
X144831568Y-70714028D01*
X144986243Y-70778096D01*
X145166883Y-70814028D01*
X145351061Y-70814028D01*
X145531701Y-70778096D01*
X145686376Y-70714028D01*
X150546568Y-70714028D01*
X150701243Y-70778096D01*
X150881883Y-70814028D01*
X151066061Y-70814028D01*
X151246701Y-70778096D01*
X151401376Y-70714028D01*
X156388568Y-70714028D01*
X156543243Y-70778096D01*
X156723883Y-70814028D01*
X156908061Y-70814028D01*
X157088701Y-70778096D01*
X157243376Y-70714028D01*
X162230568Y-70714028D01*
X162385243Y-70778096D01*
X162565883Y-70814028D01*
X162750061Y-70814028D01*
X162930701Y-70778096D01*
X163085376Y-70714028D01*
X168072568Y-70714028D01*
X168227243Y-70778096D01*
X168407883Y-70814028D01*
X168592061Y-70814028D01*
X168772701Y-70778096D01*
X168927376Y-70714028D01*
X173787568Y-70714028D01*
X173942243Y-70778096D01*
X174122883Y-70814028D01*
X174307061Y-70814028D01*
X174487701Y-70778096D01*
X174642376Y-70714028D01*
X179629568Y-70714028D01*
X179784243Y-70778096D01*
X179964883Y-70814028D01*
X180149061Y-70814028D01*
X180329701Y-70778096D01*
X180484376Y-70714028D01*
X181270019Y-70714028D01*
X181392689Y-70701946D01*
X181550087Y-70654200D01*
X181695146Y-70576664D01*
X181822291Y-70472319D01*
X181926636Y-70345174D01*
X182004172Y-70200115D01*
X182051918Y-70042717D01*
X182068040Y-69879028D01*
X182051918Y-69715339D01*
X182004172Y-69557941D01*
X181926636Y-69412882D01*
X181822291Y-69285737D01*
X181695146Y-69181392D01*
X181550087Y-69103856D01*
X181392689Y-69056110D01*
X181270019Y-69044028D01*
X180484376Y-69044028D01*
X180329701Y-68979960D01*
X180149061Y-68944028D01*
X179964883Y-68944028D01*
X179784243Y-68979960D01*
X179629568Y-69044028D01*
X174642376Y-69044028D01*
X174487701Y-68979960D01*
X174307061Y-68944028D01*
X174122883Y-68944028D01*
X173942243Y-68979960D01*
X173787568Y-69044028D01*
X168927376Y-69044028D01*
X168772701Y-68979960D01*
X168592061Y-68944028D01*
X168407883Y-68944028D01*
X168227243Y-68979960D01*
X168072568Y-69044028D01*
X163085376Y-69044028D01*
X162930701Y-68979960D01*
X162750061Y-68944028D01*
X162565883Y-68944028D01*
X162385243Y-68979960D01*
X162230568Y-69044028D01*
X157243376Y-69044028D01*
X157088701Y-68979960D01*
X156908061Y-68944028D01*
X156723883Y-68944028D01*
X156543243Y-68979960D01*
X156388568Y-69044028D01*
X151401376Y-69044028D01*
X151246701Y-68979960D01*
X151066061Y-68944028D01*
X150881883Y-68944028D01*
X150701243Y-68979960D01*
X150546568Y-69044028D01*
X145686376Y-69044028D01*
X145531701Y-68979960D01*
X145351061Y-68944028D01*
X145166883Y-68944028D01*
X144986243Y-68979960D01*
X144831568Y-69044028D01*
X139844376Y-69044028D01*
X139689701Y-68979960D01*
X139509061Y-68944028D01*
X139324883Y-68944028D01*
X139144243Y-68979960D01*
X138989568Y-69044028D01*
X134002376Y-69044028D01*
X133847701Y-68979960D01*
X133667061Y-68944028D01*
X133482883Y-68944028D01*
X133302243Y-68979960D01*
X133147568Y-69044028D01*
X128160376Y-69044028D01*
X128005701Y-68979960D01*
X127825061Y-68944028D01*
X127640883Y-68944028D01*
X127460243Y-68979960D01*
X127305568Y-69044028D01*
X122318376Y-69044028D01*
X122163701Y-68979960D01*
X121983061Y-68944028D01*
X121798883Y-68944028D01*
X121618243Y-68979960D01*
X121463568Y-69044028D01*
X116476376Y-69044028D01*
X116321701Y-68979960D01*
X116141061Y-68944028D01*
X115956883Y-68944028D01*
X115776243Y-68979960D01*
X115621568Y-69044028D01*
X110761376Y-69044028D01*
X110606701Y-68979960D01*
X110426061Y-68944028D01*
X110241883Y-68944028D01*
X110061243Y-68979960D01*
X109906568Y-69044028D01*
X104919376Y-69044028D01*
X104764701Y-68979960D01*
X104584061Y-68944028D01*
X104399883Y-68944028D01*
X104219243Y-68979960D01*
X104064568Y-69044028D01*
X99077376Y-69044028D01*
X98922701Y-68979960D01*
X98742061Y-68944028D01*
X98557883Y-68944028D01*
X98377243Y-68979960D01*
X98222568Y-69044028D01*
X93362376Y-69044028D01*
X93207701Y-68979960D01*
X93027061Y-68944028D01*
X92842883Y-68944028D01*
X92662243Y-68979960D01*
X92507568Y-69044028D01*
X90054990Y-69044028D01*
X90013971Y-69039988D01*
X89972953Y-69044028D01*
X89850283Y-69056110D01*
X89692885Y-69103856D01*
X89547826Y-69181392D01*
X89420681Y-69285737D01*
X89394531Y-69317601D01*
X87908489Y-70803643D01*
X87908440Y-66746119D01*
X87919738Y-66763028D01*
X88049972Y-66893262D01*
X88203111Y-66995586D01*
X88373271Y-67066068D01*
X88553911Y-67102000D01*
X88738089Y-67102000D01*
X88918729Y-67066068D01*
X89088889Y-66995586D01*
X89242028Y-66893262D01*
X89372262Y-66763028D01*
X89474586Y-66609889D01*
X89538654Y-66455213D01*
X89859097Y-66134771D01*
X92514825Y-66134771D01*
X92669500Y-66198839D01*
X92850140Y-66234771D01*
X93034318Y-66234771D01*
X93214958Y-66198839D01*
X93369633Y-66134771D01*
X98229825Y-66134771D01*
X98384500Y-66198839D01*
X98565140Y-66234771D01*
X98749318Y-66234771D01*
X98929958Y-66198839D01*
X99084633Y-66134771D01*
X104071825Y-66134771D01*
X104226500Y-66198839D01*
X104407140Y-66234771D01*
X104591318Y-66234771D01*
X104771958Y-66198839D01*
X104926633Y-66134771D01*
X109913825Y-66134771D01*
X110068500Y-66198839D01*
X110249140Y-66234771D01*
X110433318Y-66234771D01*
X110613958Y-66198839D01*
X110768633Y-66134771D01*
X115628825Y-66134771D01*
X115783500Y-66198839D01*
X115964140Y-66234771D01*
X116148318Y-66234771D01*
X116328958Y-66198839D01*
X116483633Y-66134771D01*
X121470825Y-66134771D01*
X121625500Y-66198839D01*
X121806140Y-66234771D01*
X121990318Y-66234771D01*
X122170958Y-66198839D01*
X122325633Y-66134771D01*
X127312825Y-66134771D01*
X127467500Y-66198839D01*
X127648140Y-66234771D01*
X127832318Y-66234771D01*
X128012958Y-66198839D01*
X128167633Y-66134771D01*
X133154825Y-66134771D01*
X133309500Y-66198839D01*
X133490140Y-66234771D01*
X133674318Y-66234771D01*
X133854958Y-66198839D01*
X134009633Y-66134771D01*
X138996825Y-66134771D01*
X139151500Y-66198839D01*
X139332140Y-66234771D01*
X139516318Y-66234771D01*
X139696958Y-66198839D01*
X139851633Y-66134771D01*
X144838825Y-66134771D01*
X144993500Y-66198839D01*
X145174140Y-66234771D01*
X145358318Y-66234771D01*
X145538958Y-66198839D01*
X145693633Y-66134771D01*
X150553825Y-66134771D01*
X150708500Y-66198839D01*
X150889140Y-66234771D01*
X151073318Y-66234771D01*
X151253958Y-66198839D01*
X151408633Y-66134771D01*
X156395825Y-66134771D01*
X156550500Y-66198839D01*
X156731140Y-66234771D01*
X156915318Y-66234771D01*
X157095958Y-66198839D01*
X157250633Y-66134771D01*
X162237825Y-66134771D01*
X162392500Y-66198839D01*
X162573140Y-66234771D01*
X162757318Y-66234771D01*
X162937958Y-66198839D01*
X163092633Y-66134771D01*
X168079825Y-66134771D01*
X168234500Y-66198839D01*
X168415140Y-66234771D01*
X168599318Y-66234771D01*
X168779958Y-66198839D01*
X168934633Y-66134771D01*
X173794825Y-66134771D01*
X173949500Y-66198839D01*
X174130140Y-66234771D01*
X174314318Y-66234771D01*
X174494958Y-66198839D01*
X174649633Y-66134771D01*
X179636825Y-66134771D01*
X179791500Y-66198839D01*
X179972140Y-66234771D01*
X180156318Y-66234771D01*
X180336958Y-66198839D01*
X180491633Y-66134771D01*
X181270019Y-66134771D01*
X181392689Y-66122689D01*
X181550087Y-66074943D01*
X181695146Y-65997407D01*
X181822291Y-65893062D01*
X181926636Y-65765917D01*
X182004172Y-65620858D01*
X182051918Y-65463460D01*
X182068040Y-65299771D01*
X182051918Y-65136082D01*
X182004172Y-64978684D01*
X181926636Y-64833625D01*
X181822291Y-64706480D01*
X181695146Y-64602135D01*
X181550087Y-64524599D01*
X181392689Y-64476853D01*
X181270019Y-64464771D01*
X180491633Y-64464771D01*
X180336958Y-64400703D01*
X180156318Y-64364771D01*
X179972140Y-64364771D01*
X179791500Y-64400703D01*
X179636825Y-64464771D01*
X174649633Y-64464771D01*
X174494958Y-64400703D01*
X174314318Y-64364771D01*
X174130140Y-64364771D01*
X173949500Y-64400703D01*
X173794825Y-64464771D01*
X168934633Y-64464771D01*
X168779958Y-64400703D01*
X168599318Y-64364771D01*
X168415140Y-64364771D01*
X168234500Y-64400703D01*
X168079825Y-64464771D01*
X163092633Y-64464771D01*
X162937958Y-64400703D01*
X162757318Y-64364771D01*
X162573140Y-64364771D01*
X162392500Y-64400703D01*
X162237825Y-64464771D01*
X157250633Y-64464771D01*
X157095958Y-64400703D01*
X156915318Y-64364771D01*
X156731140Y-64364771D01*
X156550500Y-64400703D01*
X156395825Y-64464771D01*
X151408633Y-64464771D01*
X151253958Y-64400703D01*
X151073318Y-64364771D01*
X150889140Y-64364771D01*
X150708500Y-64400703D01*
X150553825Y-64464771D01*
X145693633Y-64464771D01*
X145538958Y-64400703D01*
X145358318Y-64364771D01*
X145174140Y-64364771D01*
X144993500Y-64400703D01*
X144838825Y-64464771D01*
X139851633Y-64464771D01*
X139696958Y-64400703D01*
X139516318Y-64364771D01*
X139332140Y-64364771D01*
X139151500Y-64400703D01*
X138996825Y-64464771D01*
X134009633Y-64464771D01*
X133854958Y-64400703D01*
X133674318Y-64364771D01*
X133490140Y-64364771D01*
X133309500Y-64400703D01*
X133154825Y-64464771D01*
X128167633Y-64464771D01*
X128012958Y-64400703D01*
X127832318Y-64364771D01*
X127648140Y-64364771D01*
X127467500Y-64400703D01*
X127312825Y-64464771D01*
X122325633Y-64464771D01*
X122170958Y-64400703D01*
X121990318Y-64364771D01*
X121806140Y-64364771D01*
X121625500Y-64400703D01*
X121470825Y-64464771D01*
X116483633Y-64464771D01*
X116328958Y-64400703D01*
X116148318Y-64364771D01*
X115964140Y-64364771D01*
X115783500Y-64400703D01*
X115628825Y-64464771D01*
X110768633Y-64464771D01*
X110613958Y-64400703D01*
X110433318Y-64364771D01*
X110249140Y-64364771D01*
X110068500Y-64400703D01*
X109913825Y-64464771D01*
X104926633Y-64464771D01*
X104771958Y-64400703D01*
X104591318Y-64364771D01*
X104407140Y-64364771D01*
X104226500Y-64400703D01*
X104071825Y-64464771D01*
X99084633Y-64464771D01*
X98929958Y-64400703D01*
X98749318Y-64364771D01*
X98565140Y-64364771D01*
X98384500Y-64400703D01*
X98229825Y-64464771D01*
X93369633Y-64464771D01*
X93214958Y-64400703D01*
X93034318Y-64364771D01*
X92850140Y-64364771D01*
X92669500Y-64400703D01*
X92514825Y-64464771D01*
X89554247Y-64464771D01*
X89513228Y-64460731D01*
X89472210Y-64464771D01*
X89349540Y-64476853D01*
X89192142Y-64524599D01*
X89047083Y-64602135D01*
X88919938Y-64706480D01*
X88893787Y-64738345D01*
X88357787Y-65274346D01*
X88203111Y-65338414D01*
X88049972Y-65440738D01*
X87919738Y-65570972D01*
X87908425Y-65587902D01*
X87908365Y-60628425D01*
X92014486Y-60628425D01*
X92014486Y-60812603D01*
X92050418Y-60993243D01*
X92120900Y-61163403D01*
X92223224Y-61316542D01*
X92353458Y-61446776D01*
X92506597Y-61549100D01*
X92676757Y-61619582D01*
X92857397Y-61655514D01*
X93041575Y-61655514D01*
X93222215Y-61619582D01*
X93376890Y-61555514D01*
X98237082Y-61555514D01*
X98391757Y-61619582D01*
X98572397Y-61655514D01*
X98756575Y-61655514D01*
X98937215Y-61619582D01*
X99091890Y-61555514D01*
X104079082Y-61555514D01*
X104233757Y-61619582D01*
X104414397Y-61655514D01*
X104598575Y-61655514D01*
X104779215Y-61619582D01*
X104933890Y-61555514D01*
X109921082Y-61555514D01*
X110075757Y-61619582D01*
X110256397Y-61655514D01*
X110440575Y-61655514D01*
X110621215Y-61619582D01*
X110775890Y-61555514D01*
X115636082Y-61555514D01*
X115790757Y-61619582D01*
X115971397Y-61655514D01*
X116155575Y-61655514D01*
X116336215Y-61619582D01*
X116490890Y-61555514D01*
X121478082Y-61555514D01*
X121632757Y-61619582D01*
X121813397Y-61655514D01*
X121997575Y-61655514D01*
X122178215Y-61619582D01*
X122332890Y-61555514D01*
X127320082Y-61555514D01*
X127474757Y-61619582D01*
X127655397Y-61655514D01*
X127839575Y-61655514D01*
X128020215Y-61619582D01*
X128174890Y-61555514D01*
X133162082Y-61555514D01*
X133316757Y-61619582D01*
X133497397Y-61655514D01*
X133681575Y-61655514D01*
X133862215Y-61619582D01*
X134016890Y-61555514D01*
X139004082Y-61555514D01*
X139158757Y-61619582D01*
X139339397Y-61655514D01*
X139523575Y-61655514D01*
X139704215Y-61619582D01*
X139858890Y-61555514D01*
X144846082Y-61555514D01*
X145000757Y-61619582D01*
X145181397Y-61655514D01*
X145365575Y-61655514D01*
X145546215Y-61619582D01*
X145700890Y-61555514D01*
X150561082Y-61555514D01*
X150715757Y-61619582D01*
X150896397Y-61655514D01*
X151080575Y-61655514D01*
X151261215Y-61619582D01*
X151415890Y-61555514D01*
X156403082Y-61555514D01*
X156557757Y-61619582D01*
X156738397Y-61655514D01*
X156922575Y-61655514D01*
X157103215Y-61619582D01*
X157257890Y-61555514D01*
X162245082Y-61555514D01*
X162399757Y-61619582D01*
X162580397Y-61655514D01*
X162764575Y-61655514D01*
X162945215Y-61619582D01*
X163099890Y-61555514D01*
X168087082Y-61555514D01*
X168241757Y-61619582D01*
X168422397Y-61655514D01*
X168606575Y-61655514D01*
X168787215Y-61619582D01*
X168941890Y-61555514D01*
X173802082Y-61555514D01*
X173956757Y-61619582D01*
X174137397Y-61655514D01*
X174321575Y-61655514D01*
X174502215Y-61619582D01*
X174656890Y-61555514D01*
X179644082Y-61555514D01*
X179798757Y-61619582D01*
X179979397Y-61655514D01*
X180163575Y-61655514D01*
X180344215Y-61619582D01*
X180498890Y-61555514D01*
X181270019Y-61555514D01*
X181392689Y-61543432D01*
X181550087Y-61495686D01*
X181695146Y-61418150D01*
X181822291Y-61313805D01*
X181926636Y-61186660D01*
X182004172Y-61041601D01*
X182051918Y-60884203D01*
X182068040Y-60720514D01*
X182051918Y-60556825D01*
X182004172Y-60399427D01*
X181926636Y-60254368D01*
X181822291Y-60127223D01*
X181695146Y-60022878D01*
X181550087Y-59945342D01*
X181392689Y-59897596D01*
X181270019Y-59885514D01*
X180498890Y-59885514D01*
X180344215Y-59821446D01*
X180163575Y-59785514D01*
X179979397Y-59785514D01*
X179798757Y-59821446D01*
X179644082Y-59885514D01*
X174656890Y-59885514D01*
X174502215Y-59821446D01*
X174321575Y-59785514D01*
X174137397Y-59785514D01*
X173956757Y-59821446D01*
X173802082Y-59885514D01*
X168941890Y-59885514D01*
X168787215Y-59821446D01*
X168606575Y-59785514D01*
X168422397Y-59785514D01*
X168241757Y-59821446D01*
X168087082Y-59885514D01*
X163099890Y-59885514D01*
X162945215Y-59821446D01*
X162764575Y-59785514D01*
X162580397Y-59785514D01*
X162399757Y-59821446D01*
X162245082Y-59885514D01*
X157257890Y-59885514D01*
X157103215Y-59821446D01*
X156922575Y-59785514D01*
X156738397Y-59785514D01*
X156557757Y-59821446D01*
X156403082Y-59885514D01*
X151415890Y-59885514D01*
X151261215Y-59821446D01*
X151080575Y-59785514D01*
X150896397Y-59785514D01*
X150715757Y-59821446D01*
X150561082Y-59885514D01*
X145700890Y-59885514D01*
X145546215Y-59821446D01*
X145365575Y-59785514D01*
X145181397Y-59785514D01*
X145000757Y-59821446D01*
X144846082Y-59885514D01*
X139858890Y-59885514D01*
X139704215Y-59821446D01*
X139523575Y-59785514D01*
X139339397Y-59785514D01*
X139158757Y-59821446D01*
X139004082Y-59885514D01*
X134016890Y-59885514D01*
X133862215Y-59821446D01*
X133681575Y-59785514D01*
X133497397Y-59785514D01*
X133316757Y-59821446D01*
X133162082Y-59885514D01*
X128174890Y-59885514D01*
X128020215Y-59821446D01*
X127839575Y-59785514D01*
X127655397Y-59785514D01*
X127474757Y-59821446D01*
X127320082Y-59885514D01*
X122332890Y-59885514D01*
X122178215Y-59821446D01*
X121997575Y-59785514D01*
X121813397Y-59785514D01*
X121632757Y-59821446D01*
X121478082Y-59885514D01*
X116490890Y-59885514D01*
X116336215Y-59821446D01*
X116155575Y-59785514D01*
X115971397Y-59785514D01*
X115790757Y-59821446D01*
X115636082Y-59885514D01*
X110775890Y-59885514D01*
X110621215Y-59821446D01*
X110440575Y-59785514D01*
X110256397Y-59785514D01*
X110075757Y-59821446D01*
X109921082Y-59885514D01*
X104933890Y-59885514D01*
X104779215Y-59821446D01*
X104598575Y-59785514D01*
X104414397Y-59785514D01*
X104233757Y-59821446D01*
X104079082Y-59885514D01*
X99091890Y-59885514D01*
X98937215Y-59821446D01*
X98756575Y-59785514D01*
X98572397Y-59785514D01*
X98391757Y-59821446D01*
X98237082Y-59885514D01*
X93376890Y-59885514D01*
X93222215Y-59821446D01*
X93041575Y-59785514D01*
X92857397Y-59785514D01*
X92676757Y-59821446D01*
X92506597Y-59891928D01*
X92353458Y-59994252D01*
X92223224Y-60124486D01*
X92120900Y-60277625D01*
X92050418Y-60447785D01*
X92014486Y-60628425D01*
X87908365Y-60628425D01*
X87908310Y-56049168D01*
X92021743Y-56049168D01*
X92021743Y-56233346D01*
X92057675Y-56413986D01*
X92128157Y-56584146D01*
X92230481Y-56737285D01*
X92360715Y-56867519D01*
X92513854Y-56969843D01*
X92684014Y-57040325D01*
X92864654Y-57076257D01*
X93048832Y-57076257D01*
X93229472Y-57040325D01*
X93384147Y-56976257D01*
X98244339Y-56976257D01*
X98399014Y-57040325D01*
X98579654Y-57076257D01*
X98763832Y-57076257D01*
X98944472Y-57040325D01*
X99099147Y-56976257D01*
X104086339Y-56976257D01*
X104241014Y-57040325D01*
X104421654Y-57076257D01*
X104605832Y-57076257D01*
X104786472Y-57040325D01*
X104941147Y-56976257D01*
X109928339Y-56976257D01*
X110083014Y-57040325D01*
X110263654Y-57076257D01*
X110447832Y-57076257D01*
X110628472Y-57040325D01*
X110783147Y-56976257D01*
X115643339Y-56976257D01*
X115798014Y-57040325D01*
X115978654Y-57076257D01*
X116162832Y-57076257D01*
X116343472Y-57040325D01*
X116498147Y-56976257D01*
X121485339Y-56976257D01*
X121640014Y-57040325D01*
X121820654Y-57076257D01*
X122004832Y-57076257D01*
X122185472Y-57040325D01*
X122340147Y-56976257D01*
X127327339Y-56976257D01*
X127482014Y-57040325D01*
X127662654Y-57076257D01*
X127846832Y-57076257D01*
X128027472Y-57040325D01*
X128182147Y-56976257D01*
X133169339Y-56976257D01*
X133324014Y-57040325D01*
X133504654Y-57076257D01*
X133688832Y-57076257D01*
X133869472Y-57040325D01*
X134024147Y-56976257D01*
X139011339Y-56976257D01*
X139166014Y-57040325D01*
X139346654Y-57076257D01*
X139530832Y-57076257D01*
X139711472Y-57040325D01*
X139866147Y-56976257D01*
X144853339Y-56976257D01*
X145008014Y-57040325D01*
X145188654Y-57076257D01*
X145372832Y-57076257D01*
X145553472Y-57040325D01*
X145708147Y-56976257D01*
X150568339Y-56976257D01*
X150723014Y-57040325D01*
X150903654Y-57076257D01*
X151087832Y-57076257D01*
X151268472Y-57040325D01*
X151423147Y-56976257D01*
X156410339Y-56976257D01*
X156565014Y-57040325D01*
X156745654Y-57076257D01*
X156929832Y-57076257D01*
X157110472Y-57040325D01*
X157265147Y-56976257D01*
X162252339Y-56976257D01*
X162407014Y-57040325D01*
X162587654Y-57076257D01*
X162771832Y-57076257D01*
X162952472Y-57040325D01*
X163107147Y-56976257D01*
X168094339Y-56976257D01*
X168249014Y-57040325D01*
X168429654Y-57076257D01*
X168613832Y-57076257D01*
X168794472Y-57040325D01*
X168949147Y-56976257D01*
X173809339Y-56976257D01*
X173964014Y-57040325D01*
X174144654Y-57076257D01*
X174328832Y-57076257D01*
X174509472Y-57040325D01*
X174664147Y-56976257D01*
X179651339Y-56976257D01*
X179806014Y-57040325D01*
X179986654Y-57076257D01*
X180170832Y-57076257D01*
X180351472Y-57040325D01*
X180506147Y-56976257D01*
X181270019Y-56976257D01*
X181392689Y-56964175D01*
X181550087Y-56916429D01*
X181695146Y-56838893D01*
X181822291Y-56734548D01*
X181926636Y-56607403D01*
X182004172Y-56462344D01*
X182051918Y-56304946D01*
X182068040Y-56141257D01*
X182051918Y-55977568D01*
X182004172Y-55820170D01*
X181926636Y-55675111D01*
X181822291Y-55547966D01*
X181695146Y-55443621D01*
X181550087Y-55366085D01*
X181392689Y-55318339D01*
X181270019Y-55306257D01*
X180506147Y-55306257D01*
X180351472Y-55242189D01*
X180170832Y-55206257D01*
X179986654Y-55206257D01*
X179806014Y-55242189D01*
X179651339Y-55306257D01*
X174664147Y-55306257D01*
X174509472Y-55242189D01*
X174328832Y-55206257D01*
X174144654Y-55206257D01*
X173964014Y-55242189D01*
X173809339Y-55306257D01*
X168949147Y-55306257D01*
X168794472Y-55242189D01*
X168613832Y-55206257D01*
X168429654Y-55206257D01*
X168249014Y-55242189D01*
X168094339Y-55306257D01*
X163107147Y-55306257D01*
X162952472Y-55242189D01*
X162771832Y-55206257D01*
X162587654Y-55206257D01*
X162407014Y-55242189D01*
X162252339Y-55306257D01*
X157265147Y-55306257D01*
X157110472Y-55242189D01*
X156929832Y-55206257D01*
X156745654Y-55206257D01*
X156565014Y-55242189D01*
X156410339Y-55306257D01*
X151423147Y-55306257D01*
X151268472Y-55242189D01*
X151087832Y-55206257D01*
X150903654Y-55206257D01*
X150723014Y-55242189D01*
X150568339Y-55306257D01*
X145708147Y-55306257D01*
X145553472Y-55242189D01*
X145372832Y-55206257D01*
X145188654Y-55206257D01*
X145008014Y-55242189D01*
X144853339Y-55306257D01*
X139866147Y-55306257D01*
X139711472Y-55242189D01*
X139530832Y-55206257D01*
X139346654Y-55206257D01*
X139166014Y-55242189D01*
X139011339Y-55306257D01*
X134024147Y-55306257D01*
X133869472Y-55242189D01*
X133688832Y-55206257D01*
X133504654Y-55206257D01*
X133324014Y-55242189D01*
X133169339Y-55306257D01*
X128182147Y-55306257D01*
X128027472Y-55242189D01*
X127846832Y-55206257D01*
X127662654Y-55206257D01*
X127482014Y-55242189D01*
X127327339Y-55306257D01*
X122340147Y-55306257D01*
X122185472Y-55242189D01*
X122004832Y-55206257D01*
X121820654Y-55206257D01*
X121640014Y-55242189D01*
X121485339Y-55306257D01*
X116498147Y-55306257D01*
X116343472Y-55242189D01*
X116162832Y-55206257D01*
X115978654Y-55206257D01*
X115798014Y-55242189D01*
X115643339Y-55306257D01*
X110783147Y-55306257D01*
X110628472Y-55242189D01*
X110447832Y-55206257D01*
X110263654Y-55206257D01*
X110083014Y-55242189D01*
X109928339Y-55306257D01*
X104941147Y-55306257D01*
X104786472Y-55242189D01*
X104605832Y-55206257D01*
X104421654Y-55206257D01*
X104241014Y-55242189D01*
X104086339Y-55306257D01*
X99099147Y-55306257D01*
X98944472Y-55242189D01*
X98763832Y-55206257D01*
X98579654Y-55206257D01*
X98399014Y-55242189D01*
X98244339Y-55306257D01*
X93384147Y-55306257D01*
X93229472Y-55242189D01*
X93048832Y-55206257D01*
X92864654Y-55206257D01*
X92684014Y-55242189D01*
X92513854Y-55312671D01*
X92360715Y-55414995D01*
X92230481Y-55545229D01*
X92128157Y-55698368D01*
X92057675Y-55868528D01*
X92021743Y-56049168D01*
X87908310Y-56049168D01*
X87908254Y-51469911D01*
X92029000Y-51469911D01*
X92029000Y-51654089D01*
X92064932Y-51834729D01*
X92135414Y-52004889D01*
X92237738Y-52158028D01*
X92367972Y-52288262D01*
X92521111Y-52390586D01*
X92691271Y-52461068D01*
X92871911Y-52497000D01*
X93056089Y-52497000D01*
X93236729Y-52461068D01*
X93391404Y-52397000D01*
X98251596Y-52397000D01*
X98406271Y-52461068D01*
X98586911Y-52497000D01*
X98771089Y-52497000D01*
X98951729Y-52461068D01*
X99106404Y-52397000D01*
X104093596Y-52397000D01*
X104248271Y-52461068D01*
X104428911Y-52497000D01*
X104613089Y-52497000D01*
X104793729Y-52461068D01*
X104948404Y-52397000D01*
X109935596Y-52397000D01*
X110090271Y-52461068D01*
X110270911Y-52497000D01*
X110455089Y-52497000D01*
X110635729Y-52461068D01*
X110790404Y-52397000D01*
X115650596Y-52397000D01*
X115805271Y-52461068D01*
X115985911Y-52497000D01*
X116170089Y-52497000D01*
X116350729Y-52461068D01*
X116505404Y-52397000D01*
X121492596Y-52397000D01*
X121647271Y-52461068D01*
X121827911Y-52497000D01*
X122012089Y-52497000D01*
X122192729Y-52461068D01*
X122347404Y-52397000D01*
X127334596Y-52397000D01*
X127489271Y-52461068D01*
X127669911Y-52497000D01*
X127854089Y-52497000D01*
X128034729Y-52461068D01*
X128189404Y-52397000D01*
X133176596Y-52397000D01*
X133331271Y-52461068D01*
X133511911Y-52497000D01*
X133696089Y-52497000D01*
X133876729Y-52461068D01*
X134031404Y-52397000D01*
X139018596Y-52397000D01*
X139173271Y-52461068D01*
X139353911Y-52497000D01*
X139538089Y-52497000D01*
X139718729Y-52461068D01*
X139873404Y-52397000D01*
X144860596Y-52397000D01*
X145015271Y-52461068D01*
X145195911Y-52497000D01*
X145380089Y-52497000D01*
X145560729Y-52461068D01*
X145715404Y-52397000D01*
X150575596Y-52397000D01*
X150730271Y-52461068D01*
X150910911Y-52497000D01*
X151095089Y-52497000D01*
X151275729Y-52461068D01*
X151430404Y-52397000D01*
X156417596Y-52397000D01*
X156572271Y-52461068D01*
X156752911Y-52497000D01*
X156937089Y-52497000D01*
X157117729Y-52461068D01*
X157272404Y-52397000D01*
X162259596Y-52397000D01*
X162414271Y-52461068D01*
X162594911Y-52497000D01*
X162779089Y-52497000D01*
X162959729Y-52461068D01*
X163114404Y-52397000D01*
X168101596Y-52397000D01*
X168256271Y-52461068D01*
X168436911Y-52497000D01*
X168621089Y-52497000D01*
X168801729Y-52461068D01*
X168956404Y-52397000D01*
X173816596Y-52397000D01*
X173971271Y-52461068D01*
X174151911Y-52497000D01*
X174336089Y-52497000D01*
X174516729Y-52461068D01*
X174671404Y-52397000D01*
X179658596Y-52397000D01*
X179813271Y-52461068D01*
X179993911Y-52497000D01*
X180178089Y-52497000D01*
X180358729Y-52461068D01*
X180513404Y-52397000D01*
X181270019Y-52397000D01*
X181392689Y-52384918D01*
X181550087Y-52337172D01*
X181695146Y-52259636D01*
X181822291Y-52155291D01*
X181926636Y-52028146D01*
X182004172Y-51883087D01*
X182051918Y-51725689D01*
X182068040Y-51562000D01*
X182051918Y-51398311D01*
X182004172Y-51240913D01*
X181926636Y-51095854D01*
X181822291Y-50968709D01*
X181695146Y-50864364D01*
X181550087Y-50786828D01*
X181392689Y-50739082D01*
X181270019Y-50727000D01*
X180513404Y-50727000D01*
X180358729Y-50662932D01*
X180178089Y-50627000D01*
X179993911Y-50627000D01*
X179813271Y-50662932D01*
X179658596Y-50727000D01*
X174671404Y-50727000D01*
X174516729Y-50662932D01*
X174336089Y-50627000D01*
X174151911Y-50627000D01*
X173971271Y-50662932D01*
X173816596Y-50727000D01*
X168956404Y-50727000D01*
X168801729Y-50662932D01*
X168621089Y-50627000D01*
X168436911Y-50627000D01*
X168256271Y-50662932D01*
X168101596Y-50727000D01*
X163114404Y-50727000D01*
X162959729Y-50662932D01*
X162779089Y-50627000D01*
X162594911Y-50627000D01*
X162414271Y-50662932D01*
X162259596Y-50727000D01*
X157272404Y-50727000D01*
X157117729Y-50662932D01*
X156937089Y-50627000D01*
X156752911Y-50627000D01*
X156572271Y-50662932D01*
X156417596Y-50727000D01*
X151430404Y-50727000D01*
X151275729Y-50662932D01*
X151095089Y-50627000D01*
X150910911Y-50627000D01*
X150730271Y-50662932D01*
X150575596Y-50727000D01*
X145715404Y-50727000D01*
X145560729Y-50662932D01*
X145380089Y-50627000D01*
X145195911Y-50627000D01*
X145015271Y-50662932D01*
X144860596Y-50727000D01*
X139873404Y-50727000D01*
X139718729Y-50662932D01*
X139538089Y-50627000D01*
X139353911Y-50627000D01*
X139173271Y-50662932D01*
X139018596Y-50727000D01*
X134031404Y-50727000D01*
X133876729Y-50662932D01*
X133696089Y-50627000D01*
X133511911Y-50627000D01*
X133331271Y-50662932D01*
X133176596Y-50727000D01*
X128189404Y-50727000D01*
X128034729Y-50662932D01*
X127854089Y-50627000D01*
X127669911Y-50627000D01*
X127489271Y-50662932D01*
X127334596Y-50727000D01*
X122347404Y-50727000D01*
X122192729Y-50662932D01*
X122012089Y-50627000D01*
X121827911Y-50627000D01*
X121647271Y-50662932D01*
X121492596Y-50727000D01*
X116505404Y-50727000D01*
X116350729Y-50662932D01*
X116170089Y-50627000D01*
X115985911Y-50627000D01*
X115805271Y-50662932D01*
X115650596Y-50727000D01*
X110790404Y-50727000D01*
X110635729Y-50662932D01*
X110455089Y-50627000D01*
X110270911Y-50627000D01*
X110090271Y-50662932D01*
X109935596Y-50727000D01*
X104948404Y-50727000D01*
X104793729Y-50662932D01*
X104613089Y-50627000D01*
X104428911Y-50627000D01*
X104248271Y-50662932D01*
X104093596Y-50727000D01*
X99106404Y-50727000D01*
X98951729Y-50662932D01*
X98771089Y-50627000D01*
X98586911Y-50627000D01*
X98406271Y-50662932D01*
X98251596Y-50727000D01*
X93391404Y-50727000D01*
X93236729Y-50662932D01*
X93056089Y-50627000D01*
X92871911Y-50627000D01*
X92691271Y-50662932D01*
X92521111Y-50733414D01*
X92367972Y-50835738D01*
X92237738Y-50965972D01*
X92135414Y-51119111D01*
X92064932Y-51289271D01*
X92029000Y-51469911D01*
X87908254Y-51469911D01*
X87908197Y-46883753D01*
X87926547Y-46592081D01*
X90493524Y-46592081D01*
X90853712Y-47081748D01*
X91517682Y-47442049D01*
X92239185Y-47665894D01*
X92990495Y-47744680D01*
X93742738Y-47675378D01*
X94467008Y-47460652D01*
X95135470Y-47108755D01*
X95175888Y-47081748D01*
X95536076Y-46592081D01*
X175621924Y-46592081D01*
X175982112Y-47081748D01*
X176646082Y-47442049D01*
X177367585Y-47665894D01*
X178118895Y-47744680D01*
X178871138Y-47675378D01*
X179595408Y-47460652D01*
X180263870Y-47108755D01*
X180304288Y-47081748D01*
X180664476Y-46592081D01*
X178143200Y-44070805D01*
X175621924Y-46592081D01*
X95536076Y-46592081D01*
X93014800Y-44070805D01*
X90493524Y-46592081D01*
X87926547Y-46592081D01*
X87983407Y-45688316D01*
X88203957Y-44532150D01*
X88420112Y-43866895D01*
X89161320Y-43866895D01*
X89230622Y-44619138D01*
X89445348Y-45343408D01*
X89797245Y-46011870D01*
X89824252Y-46052288D01*
X90313919Y-46412476D01*
X92835195Y-43891200D01*
X93194405Y-43891200D01*
X95715681Y-46412476D01*
X96205348Y-46052288D01*
X96565649Y-45388318D01*
X96789494Y-44666815D01*
X96868280Y-43915505D01*
X96863802Y-43866895D01*
X174289720Y-43866895D01*
X174359022Y-44619138D01*
X174573748Y-45343408D01*
X174925645Y-46011870D01*
X174952652Y-46052288D01*
X175442319Y-46412476D01*
X177963595Y-43891200D01*
X178322805Y-43891200D01*
X180844081Y-46412476D01*
X181333748Y-46052288D01*
X181694049Y-45388318D01*
X181917894Y-44666815D01*
X181996680Y-43915505D01*
X181927378Y-43163262D01*
X181712652Y-42438992D01*
X181360755Y-41770530D01*
X181333748Y-41730112D01*
X180844081Y-41369924D01*
X178322805Y-43891200D01*
X177963595Y-43891200D01*
X175442319Y-41369924D01*
X174952652Y-41730112D01*
X174592351Y-42394082D01*
X174368506Y-43115585D01*
X174289720Y-43866895D01*
X96863802Y-43866895D01*
X96798978Y-43163262D01*
X96584252Y-42438992D01*
X96232355Y-41770530D01*
X96205348Y-41730112D01*
X95715681Y-41369924D01*
X93194405Y-43891200D01*
X92835195Y-43891200D01*
X90313919Y-41369924D01*
X89824252Y-41730112D01*
X89463951Y-42394082D01*
X89240106Y-43115585D01*
X89161320Y-43866895D01*
X88420112Y-43866895D01*
X88567671Y-43412757D01*
X89068815Y-42347769D01*
X89699487Y-41353987D01*
X89834884Y-41190319D01*
X90493524Y-41190319D01*
X93014800Y-43711595D01*
X95536076Y-41190319D01*
X175621924Y-41190319D01*
X178143200Y-43711595D01*
X180664476Y-41190319D01*
X180304288Y-40700652D01*
X179640318Y-40340351D01*
X178918815Y-40116506D01*
X178167505Y-40037720D01*
X177415262Y-40107022D01*
X176690992Y-40321748D01*
X176022530Y-40673645D01*
X175982112Y-40700652D01*
X175621924Y-41190319D01*
X95536076Y-41190319D01*
X95175888Y-40700652D01*
X94511918Y-40340351D01*
X93790415Y-40116506D01*
X93039105Y-40037720D01*
X92286862Y-40107022D01*
X91562592Y-40321748D01*
X90894130Y-40673645D01*
X90853712Y-40700652D01*
X90493524Y-41190319D01*
X89834884Y-41190319D01*
X90449741Y-40447085D01*
X91307748Y-39641364D01*
X92259969Y-38949535D01*
X93291389Y-38382508D01*
X94385739Y-37949225D01*
X95525768Y-37656515D01*
X96701741Y-37507955D01*
X97417281Y-37490001D01*
X174223246Y-37489197D01*
X175418684Y-37564407D01*
G04 #@! TA.AperFunction,Conductor*
D26*
G36*
X175418684Y-37564407D02*
G01*
X176574850Y-37784957D01*
X177694243Y-38148671D01*
X178759231Y-38649815D01*
X179753013Y-39280487D01*
X180659915Y-40030741D01*
X181465636Y-40888748D01*
X182157465Y-41840969D01*
X182724492Y-42872389D01*
X183157775Y-43966739D01*
X183450485Y-45106768D01*
X183599045Y-46282741D01*
X183616999Y-46998264D01*
X183617000Y-88160244D01*
X183583162Y-88132474D01*
X183379906Y-88023831D01*
X183159360Y-87956929D01*
X182987477Y-87940000D01*
X182042523Y-87940000D01*
X181870640Y-87956929D01*
X181650094Y-88023831D01*
X181446838Y-88132474D01*
X181268682Y-88278682D01*
X181122474Y-88456838D01*
X181013831Y-88660094D01*
X180946929Y-88880640D01*
X180924339Y-89110000D01*
X180946929Y-89339360D01*
X180979719Y-89447454D01*
X180819140Y-89286875D01*
X180608676Y-89146247D01*
X180374821Y-89049381D01*
X180126561Y-89000000D01*
X179873439Y-89000000D01*
X179625179Y-89049381D01*
X179391324Y-89146247D01*
X179180860Y-89286875D01*
X179001875Y-89465860D01*
X178861247Y-89676324D01*
X178764381Y-89910179D01*
X178715000Y-90158439D01*
X178715000Y-90411561D01*
X178764381Y-90659821D01*
X178861247Y-90893676D01*
X179001875Y-91104140D01*
X179180860Y-91283125D01*
X179391324Y-91423753D01*
X179625179Y-91520619D01*
X179873439Y-91570000D01*
X180126561Y-91570000D01*
X180374821Y-91520619D01*
X180608676Y-91423753D01*
X180819140Y-91283125D01*
X180998125Y-91104140D01*
X181138753Y-90893676D01*
X181235619Y-90659821D01*
X181285000Y-90411561D01*
X181285000Y-90158439D01*
X181235619Y-89910179D01*
X181227968Y-89891707D01*
X181268682Y-89941318D01*
X181446838Y-90087526D01*
X181650094Y-90196169D01*
X181870640Y-90263071D01*
X182042523Y-90280000D01*
X182987477Y-90280000D01*
X183159360Y-90263071D01*
X183379906Y-90196169D01*
X183583162Y-90087526D01*
X183617000Y-90059756D01*
X183617000Y-95360244D01*
X183583162Y-95332474D01*
X183379906Y-95223831D01*
X183159360Y-95156929D01*
X182987477Y-95140000D01*
X182042523Y-95140000D01*
X181870640Y-95156929D01*
X181650094Y-95223831D01*
X181446838Y-95332474D01*
X181268682Y-95478682D01*
X181227968Y-95528293D01*
X181235619Y-95509821D01*
X181285000Y-95261561D01*
X181285000Y-95008439D01*
X181235619Y-94760179D01*
X181138753Y-94526324D01*
X180998125Y-94315860D01*
X180819140Y-94136875D01*
X180608676Y-93996247D01*
X180374821Y-93899381D01*
X180126561Y-93850000D01*
X179873439Y-93850000D01*
X179625179Y-93899381D01*
X179391324Y-93996247D01*
X179180860Y-94136875D01*
X179001875Y-94315860D01*
X178861247Y-94526324D01*
X178764381Y-94760179D01*
X178715000Y-95008439D01*
X178715000Y-95261561D01*
X178764381Y-95509821D01*
X178861247Y-95743676D01*
X179001875Y-95954140D01*
X179180860Y-96133125D01*
X179391324Y-96273753D01*
X179625179Y-96370619D01*
X179873439Y-96420000D01*
X180126561Y-96420000D01*
X180374821Y-96370619D01*
X180608676Y-96273753D01*
X180819140Y-96133125D01*
X180979719Y-95972546D01*
X180946929Y-96080640D01*
X180924339Y-96310000D01*
X180946929Y-96539360D01*
X181013831Y-96759906D01*
X181122474Y-96963162D01*
X181268682Y-97141318D01*
X181446838Y-97287526D01*
X181650094Y-97396169D01*
X181870640Y-97463071D01*
X182042523Y-97480000D01*
X182987477Y-97480000D01*
X183159360Y-97463071D01*
X183379906Y-97396169D01*
X183583162Y-97287526D01*
X183617001Y-97259756D01*
X183617001Y-99970106D01*
X183614511Y-99961899D01*
X183499833Y-99747351D01*
X183345502Y-99559298D01*
X183157449Y-99404967D01*
X182942901Y-99290289D01*
X182710102Y-99219670D01*
X182528665Y-99201800D01*
X181707335Y-99201800D01*
X181525898Y-99219670D01*
X181293099Y-99290289D01*
X181078551Y-99404967D01*
X180890498Y-99559298D01*
X180736167Y-99747351D01*
X180621489Y-99961899D01*
X180550870Y-100194698D01*
X180527025Y-100436800D01*
X180550870Y-100678902D01*
X180553883Y-100688835D01*
X180474381Y-100569851D01*
X180284949Y-100380419D01*
X180062201Y-100231584D01*
X179814697Y-100129064D01*
X179551948Y-100076800D01*
X179284052Y-100076800D01*
X179021303Y-100129064D01*
X178773799Y-100231584D01*
X178551051Y-100380419D01*
X178361619Y-100569851D01*
X178212784Y-100792599D01*
X178110264Y-101040103D01*
X178058000Y-101302852D01*
X178058000Y-101570748D01*
X178110264Y-101833497D01*
X178212784Y-102081001D01*
X178361619Y-102303749D01*
X178551051Y-102493181D01*
X178773799Y-102642016D01*
X179021303Y-102744536D01*
X179284052Y-102796800D01*
X179551948Y-102796800D01*
X179814697Y-102744536D01*
X180062201Y-102642016D01*
X180284949Y-102493181D01*
X180474381Y-102303749D01*
X180623216Y-102081001D01*
X180725736Y-101833497D01*
X180778000Y-101570748D01*
X180778000Y-101302852D01*
X180745016Y-101137032D01*
X180890498Y-101314302D01*
X181078551Y-101468633D01*
X181293099Y-101583311D01*
X181525898Y-101653930D01*
X181707335Y-101671800D01*
X182528665Y-101671800D01*
X182710102Y-101653930D01*
X182942901Y-101583311D01*
X183157449Y-101468633D01*
X183345502Y-101314302D01*
X183499833Y-101126249D01*
X183614511Y-100911701D01*
X183617001Y-100903494D01*
X183617001Y-106970107D01*
X183614511Y-106961899D01*
X183499833Y-106747351D01*
X183345502Y-106559298D01*
X183157449Y-106404967D01*
X182942901Y-106290289D01*
X182710102Y-106219670D01*
X182528665Y-106201800D01*
X181707335Y-106201800D01*
X181525898Y-106219670D01*
X181293099Y-106290289D01*
X181078551Y-106404967D01*
X180890498Y-106559298D01*
X180745016Y-106736568D01*
X180778000Y-106570748D01*
X180778000Y-106302852D01*
X180725736Y-106040103D01*
X180623216Y-105792599D01*
X180474381Y-105569851D01*
X180284949Y-105380419D01*
X180062201Y-105231584D01*
X179814697Y-105129064D01*
X179551948Y-105076800D01*
X179284052Y-105076800D01*
X179021303Y-105129064D01*
X178773799Y-105231584D01*
X178551051Y-105380419D01*
X178361619Y-105569851D01*
X178212784Y-105792599D01*
X178110264Y-106040103D01*
X178058000Y-106302852D01*
X178058000Y-106570748D01*
X178110264Y-106833497D01*
X178212784Y-107081001D01*
X178361619Y-107303749D01*
X178551051Y-107493181D01*
X178773799Y-107642016D01*
X179021303Y-107744536D01*
X179284052Y-107796800D01*
X179551948Y-107796800D01*
X179814697Y-107744536D01*
X180062201Y-107642016D01*
X180284949Y-107493181D01*
X180474381Y-107303749D01*
X180553883Y-107184765D01*
X180550870Y-107194698D01*
X180527025Y-107436800D01*
X180550870Y-107678902D01*
X180621489Y-107911701D01*
X180736167Y-108126249D01*
X180890498Y-108314302D01*
X181078551Y-108468633D01*
X181293099Y-108583311D01*
X181525898Y-108653930D01*
X181707335Y-108671800D01*
X182528665Y-108671800D01*
X182710102Y-108653930D01*
X182942901Y-108583311D01*
X183157449Y-108468633D01*
X183345502Y-108314302D01*
X183499833Y-108126249D01*
X183614511Y-107911701D01*
X183617001Y-107903493D01*
X183617001Y-112628238D01*
X183541790Y-113823684D01*
X183321240Y-114979849D01*
X182957526Y-116099244D01*
X182456380Y-117164235D01*
X181825706Y-118158018D01*
X181075451Y-119064920D01*
X180217453Y-119870634D01*
X179265235Y-120562462D01*
X178233816Y-121129489D01*
X177139465Y-121562774D01*
X175999429Y-121855486D01*
X174823456Y-122004046D01*
X174107915Y-122022000D01*
X97302754Y-122022803D01*
X96107317Y-121947593D01*
X94951152Y-121727043D01*
X93831757Y-121363329D01*
X92766766Y-120862183D01*
X91772983Y-120231509D01*
X90876999Y-119490286D01*
X116604123Y-119490286D01*
X116660231Y-119781392D01*
X116772053Y-120055958D01*
X116935292Y-120303433D01*
X117143674Y-120514306D01*
X117389191Y-120680474D01*
X117662409Y-120795551D01*
X117749969Y-120812302D01*
X117983000Y-120691246D01*
X117983000Y-119253000D01*
X116759624Y-119253000D01*
X116604123Y-119490286D01*
X90876999Y-119490286D01*
X90866081Y-119481254D01*
X90190388Y-118761714D01*
X116604123Y-118761714D01*
X116759624Y-118999000D01*
X117983000Y-118999000D01*
X117983000Y-117560754D01*
X118237000Y-117560754D01*
X118237000Y-118999000D01*
X118257000Y-118999000D01*
X118257000Y-119253000D01*
X118237000Y-119253000D01*
X118237000Y-120691246D01*
X118470031Y-120812302D01*
X118557591Y-120795551D01*
X118830809Y-120680474D01*
X119076326Y-120514306D01*
X119284708Y-120303433D01*
X119377440Y-120162848D01*
X119392583Y-120191178D01*
X119580655Y-120420345D01*
X119809821Y-120608417D01*
X120071275Y-120748166D01*
X120354968Y-120834224D01*
X120650000Y-120863282D01*
X120945031Y-120834224D01*
X121228724Y-120748166D01*
X121490178Y-120608417D01*
X121719345Y-120420345D01*
X121773066Y-120354886D01*
X121831595Y-120464387D01*
X121942038Y-120598962D01*
X122076613Y-120709405D01*
X122230149Y-120791472D01*
X122396745Y-120842008D01*
X122569999Y-120859072D01*
X123810001Y-120859072D01*
X123983255Y-120842008D01*
X124149851Y-120791472D01*
X124303387Y-120709405D01*
X124437962Y-120598962D01*
X124548405Y-120464387D01*
X124630472Y-120310851D01*
X124681008Y-120144255D01*
X124698072Y-119971001D01*
X124698072Y-118280999D01*
X124695118Y-118251000D01*
X132496928Y-118251000D01*
X132496928Y-119951000D01*
X132509188Y-120075482D01*
X132545498Y-120195180D01*
X132604463Y-120305494D01*
X132683815Y-120402185D01*
X132780506Y-120481537D01*
X132890820Y-120540502D01*
X133010518Y-120576812D01*
X133135000Y-120589072D01*
X134835000Y-120589072D01*
X134959482Y-120576812D01*
X135079180Y-120540502D01*
X135189494Y-120481537D01*
X135286185Y-120402185D01*
X135365537Y-120305494D01*
X135424502Y-120195180D01*
X135446513Y-120122620D01*
X135578368Y-120254475D01*
X135821589Y-120416990D01*
X136091842Y-120528932D01*
X136378740Y-120586000D01*
X136671260Y-120586000D01*
X136958158Y-120528932D01*
X137228411Y-120416990D01*
X137471632Y-120254475D01*
X137678475Y-120047632D01*
X137840990Y-119804411D01*
X137952932Y-119534158D01*
X138010000Y-119247260D01*
X138010000Y-118954740D01*
X137952932Y-118667842D01*
X137840990Y-118397589D01*
X137678475Y-118154368D01*
X137471632Y-117947525D01*
X137228411Y-117785010D01*
X136958158Y-117673068D01*
X136671260Y-117616000D01*
X136378740Y-117616000D01*
X136091842Y-117673068D01*
X135821589Y-117785010D01*
X135578368Y-117947525D01*
X135446513Y-118079380D01*
X135424502Y-118006820D01*
X135365537Y-117896506D01*
X135286185Y-117799815D01*
X135189494Y-117720463D01*
X135079180Y-117661498D01*
X134959482Y-117625188D01*
X134835000Y-117612928D01*
X133135000Y-117612928D01*
X133010518Y-117625188D01*
X132890820Y-117661498D01*
X132780506Y-117720463D01*
X132683815Y-117799815D01*
X132604463Y-117896506D01*
X132545498Y-118006820D01*
X132509188Y-118126518D01*
X132496928Y-118251000D01*
X124695118Y-118251000D01*
X124681008Y-118107745D01*
X124630472Y-117941149D01*
X124548405Y-117787613D01*
X124437962Y-117653038D01*
X124303387Y-117542595D01*
X124149851Y-117460528D01*
X123983255Y-117409992D01*
X123844000Y-117396277D01*
X123844000Y-116746881D01*
X175621924Y-116746881D01*
X175982112Y-117236548D01*
X176646082Y-117596849D01*
X177367585Y-117820694D01*
X178118895Y-117899480D01*
X178871138Y-117830178D01*
X179595408Y-117615452D01*
X180263870Y-117263555D01*
X180304288Y-117236548D01*
X180664476Y-116746881D01*
X178143200Y-114225605D01*
X175621924Y-116746881D01*
X123844000Y-116746881D01*
X123844000Y-115214061D01*
X123834031Y-115163943D01*
X123829024Y-115113105D01*
X123814196Y-115064223D01*
X123804226Y-115014102D01*
X123784669Y-114966887D01*
X123769841Y-114918007D01*
X123745762Y-114872958D01*
X123726205Y-114825744D01*
X123697814Y-114783254D01*
X123673734Y-114738203D01*
X123641328Y-114698716D01*
X123612937Y-114656226D01*
X123576803Y-114620092D01*
X123544396Y-114580604D01*
X123504908Y-114548197D01*
X123468774Y-114512063D01*
X123426284Y-114483672D01*
X123386797Y-114451266D01*
X123341747Y-114427186D01*
X123299256Y-114398795D01*
X123252039Y-114379237D01*
X123206992Y-114355159D01*
X123158116Y-114340332D01*
X123110898Y-114320774D01*
X123060774Y-114310804D01*
X123011894Y-114295976D01*
X122961058Y-114290969D01*
X122910939Y-114281000D01*
X122859838Y-114281000D01*
X122809000Y-114275993D01*
X122758162Y-114281000D01*
X122707061Y-114281000D01*
X122656943Y-114290969D01*
X122606105Y-114295976D01*
X122557223Y-114310804D01*
X122507102Y-114320774D01*
X122459887Y-114340331D01*
X122411007Y-114355159D01*
X122365958Y-114379238D01*
X122318744Y-114398795D01*
X122276254Y-114427186D01*
X122231203Y-114451266D01*
X122191716Y-114483672D01*
X122149226Y-114512063D01*
X122113092Y-114548197D01*
X122073604Y-114580604D01*
X122041197Y-114620092D01*
X122005063Y-114656226D01*
X121976672Y-114698716D01*
X121944266Y-114738203D01*
X121920186Y-114783253D01*
X121891795Y-114825744D01*
X121872237Y-114872961D01*
X121848159Y-114918008D01*
X121833332Y-114966884D01*
X121813774Y-115014102D01*
X121803804Y-115064226D01*
X121788976Y-115113106D01*
X121783969Y-115163942D01*
X121774000Y-115214061D01*
X121774000Y-115265163D01*
X121774001Y-117895364D01*
X121773066Y-117897114D01*
X121719345Y-117831655D01*
X121490179Y-117643583D01*
X121228725Y-117503834D01*
X120945032Y-117417776D01*
X120650000Y-117388718D01*
X120354969Y-117417776D01*
X120071276Y-117503834D01*
X119809822Y-117643583D01*
X119580655Y-117831655D01*
X119392583Y-118060821D01*
X119377440Y-118089152D01*
X119284708Y-117948567D01*
X119076326Y-117737694D01*
X118830809Y-117571526D01*
X118557591Y-117456449D01*
X118470031Y-117439698D01*
X118237000Y-117560754D01*
X117983000Y-117560754D01*
X117749969Y-117439698D01*
X117662409Y-117456449D01*
X117389191Y-117571526D01*
X117143674Y-117737694D01*
X116935292Y-117948567D01*
X116772053Y-118196042D01*
X116660231Y-118470608D01*
X116604123Y-118761714D01*
X90190388Y-118761714D01*
X90060367Y-118623256D01*
X89368539Y-117671038D01*
X88860480Y-116746881D01*
X90493524Y-116746881D01*
X90853712Y-117236548D01*
X91517682Y-117596849D01*
X92239185Y-117820694D01*
X92990495Y-117899480D01*
X93742738Y-117830178D01*
X94467008Y-117615452D01*
X95135470Y-117263555D01*
X95175888Y-117236548D01*
X95536076Y-116746881D01*
X93014800Y-114225605D01*
X90493524Y-116746881D01*
X88860480Y-116746881D01*
X88801512Y-116639619D01*
X88368227Y-115545268D01*
X88075515Y-114405232D01*
X88027063Y-114021695D01*
X89161320Y-114021695D01*
X89230622Y-114773938D01*
X89445348Y-115498208D01*
X89797245Y-116166670D01*
X89824252Y-116207088D01*
X90313919Y-116567276D01*
X92835195Y-114046000D01*
X93194405Y-114046000D01*
X95715681Y-116567276D01*
X96205348Y-116207088D01*
X96565649Y-115543118D01*
X96789494Y-114821615D01*
X96868280Y-114070305D01*
X96798978Y-113318062D01*
X96584252Y-112593792D01*
X96232355Y-111925330D01*
X96205348Y-111884912D01*
X95715681Y-111524724D01*
X93194405Y-114046000D01*
X92835195Y-114046000D01*
X90313919Y-111524724D01*
X89824252Y-111884912D01*
X89463951Y-112548882D01*
X89240106Y-113270385D01*
X89161320Y-114021695D01*
X88027063Y-114021695D01*
X87926955Y-113229259D01*
X87909000Y-112513676D01*
X87908986Y-111345119D01*
X90493524Y-111345119D01*
X93014800Y-113866395D01*
X95536076Y-111345119D01*
X95175888Y-110855452D01*
X94511918Y-110495151D01*
X93790415Y-110271306D01*
X93039105Y-110192520D01*
X92286862Y-110261822D01*
X91562592Y-110476548D01*
X90894130Y-110828445D01*
X90853712Y-110855452D01*
X90493524Y-111345119D01*
X87908986Y-111345119D01*
X87908841Y-99544007D01*
X87944414Y-99629889D01*
X88046738Y-99783028D01*
X88176972Y-99913262D01*
X88330111Y-100015586D01*
X88500271Y-100086068D01*
X88680911Y-100122000D01*
X88865089Y-100122000D01*
X89045729Y-100086068D01*
X89215889Y-100015586D01*
X89369028Y-99913262D01*
X89499262Y-99783028D01*
X89601586Y-99629889D01*
X89672068Y-99459729D01*
X89708000Y-99279089D01*
X89708000Y-99094911D01*
X89672068Y-98914271D01*
X89608000Y-98759596D01*
X89608000Y-85694777D01*
X89705271Y-85735068D01*
X89781636Y-85750258D01*
X89849414Y-85913889D01*
X89951738Y-86067028D01*
X90081972Y-86197262D01*
X90235111Y-86299586D01*
X90405271Y-86370068D01*
X90585911Y-86406000D01*
X90770089Y-86406000D01*
X90950729Y-86370068D01*
X91120889Y-86299586D01*
X91274028Y-86197262D01*
X91404262Y-86067028D01*
X91432344Y-86025000D01*
X91532089Y-86025000D01*
X91712729Y-85989068D01*
X91882889Y-85918586D01*
X92036028Y-85816262D01*
X92166262Y-85686028D01*
X92268586Y-85532889D01*
X92339068Y-85362729D01*
X92375000Y-85182089D01*
X92375000Y-84997911D01*
X92339068Y-84817271D01*
X92275000Y-84662596D01*
X92275000Y-84300890D01*
X92317172Y-84343062D01*
X92470311Y-84445386D01*
X92640471Y-84515868D01*
X92821111Y-84551800D01*
X93005289Y-84551800D01*
X93185929Y-84515868D01*
X93340604Y-84451800D01*
X94474843Y-84451800D01*
X94442000Y-84616911D01*
X94442000Y-84801089D01*
X94477932Y-84981729D01*
X94542001Y-85136406D01*
X94542001Y-85679000D01*
X94522911Y-85679000D01*
X94342271Y-85714932D01*
X94172111Y-85785414D01*
X94018972Y-85887738D01*
X93888738Y-86017972D01*
X93786414Y-86171111D01*
X93715932Y-86341271D01*
X93680000Y-86521911D01*
X93680000Y-86706089D01*
X93715932Y-86886729D01*
X93786414Y-87056889D01*
X93842001Y-87140081D01*
X93842000Y-94637909D01*
X93777932Y-94792584D01*
X93742000Y-94973224D01*
X93742000Y-95157402D01*
X93777932Y-95338042D01*
X93848414Y-95508202D01*
X93950738Y-95661341D01*
X94080972Y-95791575D01*
X94234111Y-95893899D01*
X94404271Y-95964381D01*
X94511925Y-95985795D01*
X94548414Y-96073889D01*
X94650738Y-96227028D01*
X94780972Y-96357262D01*
X94934111Y-96459586D01*
X95104271Y-96530068D01*
X95284911Y-96566000D01*
X95469089Y-96566000D01*
X95649729Y-96530068D01*
X95819889Y-96459586D01*
X95973028Y-96357262D01*
X96103262Y-96227028D01*
X96205586Y-96073889D01*
X96276068Y-95903729D01*
X96312000Y-95723089D01*
X96312000Y-95538911D01*
X96276068Y-95358271D01*
X96212000Y-95203596D01*
X96212000Y-85136404D01*
X96276068Y-84981729D01*
X96312000Y-84801089D01*
X96312000Y-84616911D01*
X96279157Y-84451800D01*
X98200796Y-84451800D01*
X98355471Y-84515868D01*
X98536111Y-84551800D01*
X98720289Y-84551800D01*
X98900929Y-84515868D01*
X99055604Y-84451800D01*
X100038536Y-84451800D01*
X100065932Y-84589529D01*
X100136414Y-84759689D01*
X100238738Y-84912828D01*
X100368972Y-85043062D01*
X100522111Y-85145386D01*
X100676788Y-85209455D01*
X105337001Y-89869669D01*
X105337000Y-95412131D01*
X104048133Y-96701000D01*
X100224016Y-96701000D01*
X100182998Y-96696960D01*
X100141980Y-96701000D01*
X100141979Y-96701000D01*
X100019309Y-96713082D01*
X99861911Y-96760828D01*
X99716852Y-96838364D01*
X99589707Y-96942709D01*
X99563561Y-96974569D01*
X98879574Y-97658557D01*
X98847710Y-97684707D01*
X98799050Y-97744000D01*
X98743364Y-97811853D01*
X98665828Y-97956912D01*
X98618082Y-98114310D01*
X98601960Y-98277998D01*
X98606001Y-98319026D01*
X98606000Y-102061596D01*
X98541932Y-102216271D01*
X98506000Y-102396911D01*
X98506000Y-102581089D01*
X98541932Y-102761729D01*
X98612414Y-102931889D01*
X98714738Y-103085028D01*
X98844972Y-103215262D01*
X98998111Y-103317586D01*
X99168271Y-103388068D01*
X99348911Y-103424000D01*
X99533089Y-103424000D01*
X99713729Y-103388068D01*
X99883889Y-103317586D01*
X100037028Y-103215262D01*
X100167262Y-103085028D01*
X100269586Y-102931889D01*
X100340068Y-102761729D01*
X100376000Y-102581089D01*
X100376000Y-102396911D01*
X100340068Y-102216271D01*
X100276000Y-102061596D01*
X100276000Y-100249000D01*
X100422089Y-100249000D01*
X100602729Y-100213068D01*
X100772889Y-100142586D01*
X100926028Y-100040262D01*
X101056262Y-99910028D01*
X101158586Y-99756889D01*
X101229068Y-99586729D01*
X101233191Y-99566000D01*
X116525199Y-99566000D01*
X118306005Y-101346807D01*
X118329803Y-101375805D01*
X118445528Y-101470778D01*
X118577557Y-101541350D01*
X118720818Y-101584807D01*
X118832471Y-101595804D01*
X118832480Y-101595804D01*
X118869803Y-101599480D01*
X118907126Y-101595804D01*
X120983465Y-101595804D01*
X121086111Y-101664390D01*
X121256271Y-101734872D01*
X121364695Y-101756439D01*
X118419135Y-104702000D01*
X110790404Y-104702000D01*
X110635729Y-104637932D01*
X110455089Y-104602000D01*
X110270911Y-104602000D01*
X110090271Y-104637932D01*
X109920111Y-104708414D01*
X109766972Y-104810738D01*
X109636738Y-104940972D01*
X109534414Y-105094111D01*
X109463932Y-105264271D01*
X109428000Y-105444911D01*
X109428000Y-105629089D01*
X109463932Y-105809729D01*
X109534414Y-105979889D01*
X109636738Y-106133028D01*
X109766972Y-106263262D01*
X109920111Y-106365586D01*
X110090271Y-106436068D01*
X110270911Y-106472000D01*
X110455089Y-106472000D01*
X110635729Y-106436068D01*
X110790404Y-106372000D01*
X117745133Y-106372000D01*
X117313788Y-106803345D01*
X117159111Y-106867414D01*
X117005972Y-106969738D01*
X116875738Y-107099972D01*
X116773414Y-107253111D01*
X116702932Y-107423271D01*
X116667000Y-107603911D01*
X116667000Y-107788089D01*
X116702932Y-107968729D01*
X116773414Y-108138889D01*
X116875738Y-108292028D01*
X117005972Y-108422262D01*
X117159111Y-108524586D01*
X117329271Y-108595068D01*
X117509911Y-108631000D01*
X117694089Y-108631000D01*
X117874729Y-108595068D01*
X118044889Y-108524586D01*
X118198028Y-108422262D01*
X118328262Y-108292028D01*
X118430586Y-108138889D01*
X118494655Y-107984212D01*
X121668956Y-104809911D01*
X125557000Y-104809911D01*
X125557000Y-104994089D01*
X125592932Y-105174729D01*
X125663414Y-105344889D01*
X125732001Y-105447537D01*
X125732000Y-112738464D01*
X125663414Y-112841111D01*
X125592932Y-113011271D01*
X125557000Y-113191911D01*
X125557000Y-113376089D01*
X125592932Y-113556729D01*
X125663414Y-113726889D01*
X125765738Y-113880028D01*
X125895972Y-114010262D01*
X126049111Y-114112586D01*
X126219271Y-114183068D01*
X126399911Y-114219000D01*
X126584089Y-114219000D01*
X126764729Y-114183068D01*
X126934889Y-114112586D01*
X127070917Y-114021695D01*
X174289720Y-114021695D01*
X174359022Y-114773938D01*
X174573748Y-115498208D01*
X174925645Y-116166670D01*
X174952652Y-116207088D01*
X175442319Y-116567276D01*
X177963595Y-114046000D01*
X178322805Y-114046000D01*
X180844081Y-116567276D01*
X181333748Y-116207088D01*
X181694049Y-115543118D01*
X181917894Y-114821615D01*
X181996680Y-114070305D01*
X181927378Y-113318062D01*
X181712652Y-112593792D01*
X181360755Y-111925330D01*
X181333748Y-111884912D01*
X180844081Y-111524724D01*
X178322805Y-114046000D01*
X177963595Y-114046000D01*
X175442319Y-111524724D01*
X174952652Y-111884912D01*
X174592351Y-112548882D01*
X174368506Y-113270385D01*
X174289720Y-114021695D01*
X127070917Y-114021695D01*
X127088028Y-114010262D01*
X127218262Y-113880028D01*
X127320586Y-113726889D01*
X127391068Y-113556729D01*
X127427000Y-113376089D01*
X127427000Y-113191911D01*
X127391068Y-113011271D01*
X127320586Y-112841111D01*
X127252000Y-112738465D01*
X127252000Y-111345119D01*
X175621924Y-111345119D01*
X178143200Y-113866395D01*
X180664476Y-111345119D01*
X180304288Y-110855452D01*
X179640318Y-110495151D01*
X178918815Y-110271306D01*
X178167505Y-110192520D01*
X177415262Y-110261822D01*
X176690992Y-110476548D01*
X176022530Y-110828445D01*
X175982112Y-110855452D01*
X175621924Y-111345119D01*
X127252000Y-111345119D01*
X127252000Y-105447535D01*
X127320586Y-105344889D01*
X127391068Y-105174729D01*
X127427000Y-104994089D01*
X127427000Y-104809911D01*
X127391068Y-104629271D01*
X127320586Y-104459111D01*
X127218262Y-104305972D01*
X127088028Y-104175738D01*
X126934889Y-104073414D01*
X126764729Y-104002932D01*
X126584089Y-103967000D01*
X126399911Y-103967000D01*
X126219271Y-104002932D01*
X126049111Y-104073414D01*
X125895972Y-104175738D01*
X125765738Y-104305972D01*
X125663414Y-104459111D01*
X125592932Y-104629271D01*
X125557000Y-104809911D01*
X121668956Y-104809911D01*
X124081956Y-102396911D01*
X140797000Y-102396911D01*
X140797000Y-102581089D01*
X140832932Y-102761729D01*
X140903414Y-102931889D01*
X141005738Y-103085028D01*
X141135972Y-103215262D01*
X141289111Y-103317586D01*
X141459271Y-103388068D01*
X141639911Y-103424000D01*
X141824089Y-103424000D01*
X142004729Y-103388068D01*
X142033864Y-103376000D01*
X152235465Y-103376000D01*
X152338111Y-103444586D01*
X152508271Y-103515068D01*
X152688911Y-103551000D01*
X152873089Y-103551000D01*
X153053729Y-103515068D01*
X153223889Y-103444586D01*
X153377028Y-103342262D01*
X153507262Y-103212028D01*
X153609586Y-103058889D01*
X153616166Y-103043001D01*
X159266323Y-103043001D01*
X159269999Y-103080323D01*
X159269999Y-103477677D01*
X159266323Y-103514999D01*
X159269999Y-103552321D01*
X159269999Y-103552331D01*
X159280996Y-103663984D01*
X159304137Y-103740271D01*
X159324453Y-103807245D01*
X159395025Y-103939275D01*
X159417779Y-103967000D01*
X159489998Y-104055000D01*
X159519002Y-104078803D01*
X159604847Y-104164648D01*
X159628932Y-104285729D01*
X159699414Y-104455889D01*
X159801738Y-104609028D01*
X159931972Y-104739262D01*
X160085111Y-104841586D01*
X160255271Y-104912068D01*
X160435911Y-104948000D01*
X160620089Y-104948000D01*
X160800729Y-104912068D01*
X160817371Y-104905175D01*
X162468199Y-106556003D01*
X162491997Y-106585001D01*
X162607722Y-106679974D01*
X162739751Y-106750546D01*
X162883012Y-106794003D01*
X162994665Y-106805000D01*
X162994673Y-106805000D01*
X163031998Y-106808676D01*
X163069323Y-106805000D01*
X166459465Y-106805000D01*
X166562111Y-106873586D01*
X166732271Y-106944068D01*
X166912911Y-106980000D01*
X167097089Y-106980000D01*
X167277729Y-106944068D01*
X167447889Y-106873586D01*
X167601028Y-106771262D01*
X167731262Y-106641028D01*
X167833586Y-106487889D01*
X167904068Y-106317729D01*
X167940000Y-106137089D01*
X167940000Y-106079911D01*
X169245000Y-106079911D01*
X169245000Y-106264089D01*
X169280932Y-106444729D01*
X169351414Y-106614889D01*
X169453738Y-106768028D01*
X169583972Y-106898262D01*
X169737111Y-107000586D01*
X169907271Y-107071068D01*
X170087911Y-107107000D01*
X170272089Y-107107000D01*
X170452729Y-107071068D01*
X170622889Y-107000586D01*
X170681526Y-106961406D01*
X170748414Y-107122889D01*
X170850738Y-107276028D01*
X170980972Y-107406262D01*
X171134111Y-107508586D01*
X171304271Y-107579068D01*
X171484911Y-107615000D01*
X171669089Y-107615000D01*
X171849729Y-107579068D01*
X172019889Y-107508586D01*
X172173028Y-107406262D01*
X172303262Y-107276028D01*
X172405586Y-107122889D01*
X172476068Y-106952729D01*
X172512000Y-106772089D01*
X172512000Y-106587911D01*
X172476068Y-106407271D01*
X172405586Y-106237111D01*
X172303262Y-106083972D01*
X172173028Y-105953738D01*
X172019889Y-105851414D01*
X171849729Y-105780932D01*
X171728649Y-105756847D01*
X171632803Y-105661002D01*
X171609001Y-105631999D01*
X171493276Y-105537026D01*
X171361247Y-105466454D01*
X171217986Y-105422997D01*
X171106333Y-105412000D01*
X171106322Y-105412000D01*
X171069000Y-105408324D01*
X171031678Y-105412000D01*
X170725535Y-105412000D01*
X170622889Y-105343414D01*
X170452729Y-105272932D01*
X170272089Y-105237000D01*
X170087911Y-105237000D01*
X169907271Y-105272932D01*
X169737111Y-105343414D01*
X169583972Y-105445738D01*
X169453738Y-105575972D01*
X169351414Y-105729111D01*
X169280932Y-105899271D01*
X169245000Y-106079911D01*
X167940000Y-106079911D01*
X167940000Y-105952911D01*
X167904068Y-105772271D01*
X167833586Y-105602111D01*
X167731262Y-105448972D01*
X167601028Y-105318738D01*
X167447889Y-105216414D01*
X167277729Y-105145932D01*
X167097089Y-105110000D01*
X166912911Y-105110000D01*
X166732271Y-105145932D01*
X166562111Y-105216414D01*
X166459465Y-105285000D01*
X163346800Y-105285000D01*
X162453800Y-104392000D01*
X166967465Y-104392000D01*
X167070111Y-104460586D01*
X167240271Y-104531068D01*
X167420911Y-104567000D01*
X167605089Y-104567000D01*
X167785729Y-104531068D01*
X167955889Y-104460586D01*
X168109028Y-104358262D01*
X168239262Y-104228028D01*
X168341586Y-104074889D01*
X168412068Y-103904729D01*
X168448000Y-103724089D01*
X168448000Y-103539911D01*
X168412068Y-103359271D01*
X168341586Y-103189111D01*
X168239262Y-103035972D01*
X168109028Y-102905738D01*
X167955889Y-102803414D01*
X167785729Y-102732932D01*
X167605089Y-102697000D01*
X167420911Y-102697000D01*
X167240271Y-102732932D01*
X167070111Y-102803414D01*
X166967465Y-102872000D01*
X161858802Y-102872000D01*
X161578153Y-102591351D01*
X161554068Y-102470271D01*
X161483586Y-102300111D01*
X161381262Y-102146972D01*
X161251028Y-102016738D01*
X161097889Y-101914414D01*
X160927729Y-101843932D01*
X160747089Y-101808000D01*
X160562911Y-101808000D01*
X160382271Y-101843932D01*
X160212111Y-101914414D01*
X160058972Y-102016738D01*
X159928738Y-102146972D01*
X159826414Y-102300111D01*
X159821464Y-102312062D01*
X159737753Y-102337455D01*
X159605723Y-102408027D01*
X159489998Y-102503000D01*
X159425912Y-102581089D01*
X159395025Y-102618725D01*
X159324453Y-102750754D01*
X159280996Y-102894015D01*
X159269999Y-103005668D01*
X159269999Y-103005679D01*
X159266323Y-103043001D01*
X153616166Y-103043001D01*
X153680068Y-102888729D01*
X153716000Y-102708089D01*
X153716000Y-102523911D01*
X153680068Y-102343271D01*
X153609586Y-102173111D01*
X153507262Y-102019972D01*
X153377028Y-101889738D01*
X153223889Y-101787414D01*
X153053729Y-101716932D01*
X152873089Y-101681000D01*
X152688911Y-101681000D01*
X152508271Y-101716932D01*
X152338111Y-101787414D01*
X152235465Y-101856000D01*
X142421290Y-101856000D01*
X142328028Y-101762738D01*
X142174889Y-101660414D01*
X142004729Y-101589932D01*
X141824089Y-101554000D01*
X141639911Y-101554000D01*
X141459271Y-101589932D01*
X141289111Y-101660414D01*
X141135972Y-101762738D01*
X141005738Y-101892972D01*
X140903414Y-102046111D01*
X140832932Y-102216271D01*
X140797000Y-102396911D01*
X124081956Y-102396911D01*
X126988427Y-99490441D01*
X127020290Y-99464292D01*
X127124635Y-99337147D01*
X127202171Y-99192088D01*
X127249917Y-99034690D01*
X127261999Y-98912020D01*
X127261999Y-98912010D01*
X127266038Y-98871002D01*
X127261999Y-98829994D01*
X127261999Y-96382956D01*
X127343667Y-96391000D01*
X127343676Y-96391000D01*
X127380999Y-96394676D01*
X127418322Y-96391000D01*
X147409465Y-96391000D01*
X147512111Y-96459586D01*
X147682271Y-96530068D01*
X147862911Y-96566000D01*
X148047089Y-96566000D01*
X148227729Y-96530068D01*
X148397889Y-96459586D01*
X148539299Y-96365099D01*
X149608001Y-97433802D01*
X149608000Y-99149667D01*
X149608000Y-99149668D01*
X149608001Y-100282464D01*
X149539414Y-100385111D01*
X149468932Y-100555271D01*
X149433000Y-100735911D01*
X149433000Y-100920089D01*
X149468932Y-101100729D01*
X149539414Y-101270889D01*
X149641738Y-101424028D01*
X149771972Y-101554262D01*
X149925111Y-101656586D01*
X150095271Y-101727068D01*
X150275911Y-101763000D01*
X150460089Y-101763000D01*
X150640729Y-101727068D01*
X150810889Y-101656586D01*
X150964028Y-101554262D01*
X151094262Y-101424028D01*
X151196586Y-101270889D01*
X151267068Y-101100729D01*
X151303000Y-100920089D01*
X151303000Y-100735911D01*
X151267068Y-100555271D01*
X151196586Y-100385111D01*
X151128000Y-100282465D01*
X151128000Y-97156320D01*
X151131676Y-97118997D01*
X151128000Y-97081674D01*
X151128000Y-97081665D01*
X151117003Y-96970012D01*
X151073546Y-96826751D01*
X151002974Y-96694722D01*
X150963831Y-96647026D01*
X150931799Y-96607994D01*
X150931795Y-96607990D01*
X150908001Y-96578997D01*
X150879008Y-96555203D01*
X148449803Y-94126000D01*
X157200939Y-94126000D01*
X157251057Y-94116031D01*
X157301895Y-94111024D01*
X157350777Y-94096196D01*
X157400898Y-94086226D01*
X157448113Y-94066669D01*
X157496993Y-94051841D01*
X157542042Y-94027762D01*
X157589256Y-94008205D01*
X157631746Y-93979814D01*
X157676797Y-93955734D01*
X157716284Y-93923328D01*
X157758774Y-93894937D01*
X157794908Y-93858803D01*
X157834396Y-93826396D01*
X157866804Y-93786907D01*
X157902937Y-93750774D01*
X157931328Y-93708284D01*
X157963734Y-93668797D01*
X157987814Y-93623746D01*
X158016205Y-93581256D01*
X158035762Y-93534042D01*
X158059841Y-93488993D01*
X158074669Y-93440113D01*
X158094226Y-93392898D01*
X158104196Y-93342777D01*
X158119024Y-93293895D01*
X158124031Y-93243057D01*
X158134000Y-93192939D01*
X158134000Y-93141837D01*
X158139007Y-93091000D01*
X158134000Y-93040162D01*
X158134000Y-92989061D01*
X158124031Y-92938943D01*
X158119024Y-92888105D01*
X158104196Y-92839223D01*
X158094226Y-92789102D01*
X158074669Y-92741887D01*
X158059841Y-92693007D01*
X158035762Y-92647958D01*
X158016205Y-92600744D01*
X157987814Y-92558254D01*
X157963734Y-92513203D01*
X157931328Y-92473716D01*
X157902937Y-92431226D01*
X157866803Y-92395092D01*
X157834396Y-92355604D01*
X157794908Y-92323197D01*
X157758774Y-92287063D01*
X157716284Y-92258672D01*
X157676797Y-92226266D01*
X157631746Y-92202186D01*
X157589256Y-92173795D01*
X157542042Y-92154238D01*
X157496993Y-92130159D01*
X157448113Y-92115331D01*
X157400898Y-92095774D01*
X157350777Y-92085804D01*
X157301895Y-92070976D01*
X157251057Y-92065969D01*
X157200939Y-92056000D01*
X144689584Y-92056000D01*
X144706475Y-91884500D01*
X144682630Y-91642398D01*
X144612011Y-91409599D01*
X144497333Y-91195051D01*
X144343002Y-91006998D01*
X144154949Y-90852667D01*
X143940401Y-90737989D01*
X143707602Y-90667370D01*
X143526165Y-90649500D01*
X142604835Y-90649500D01*
X142423398Y-90667370D01*
X142190599Y-90737989D01*
X141976051Y-90852667D01*
X141787998Y-91006998D01*
X141633667Y-91195051D01*
X141518989Y-91409599D01*
X141448370Y-91642398D01*
X141424525Y-91884500D01*
X141441416Y-92056000D01*
X135932733Y-92056000D01*
X134493829Y-90617097D01*
X134461418Y-90577604D01*
X134303819Y-90448266D01*
X134124015Y-90352159D01*
X133928917Y-90292976D01*
X133776860Y-90278000D01*
X133776850Y-90278000D01*
X133726022Y-90272994D01*
X133675194Y-90278000D01*
X129946061Y-90278000D01*
X129895943Y-90287969D01*
X129845105Y-90292976D01*
X129796223Y-90307804D01*
X129746102Y-90317774D01*
X129698887Y-90337331D01*
X129650007Y-90352159D01*
X129604958Y-90376238D01*
X129557744Y-90395795D01*
X129515254Y-90424186D01*
X129470203Y-90448266D01*
X129430716Y-90480672D01*
X129388226Y-90509063D01*
X129352092Y-90545197D01*
X129312604Y-90577604D01*
X129280197Y-90617092D01*
X129244063Y-90653226D01*
X129215672Y-90695716D01*
X129183266Y-90735203D01*
X129159186Y-90780254D01*
X129130795Y-90822744D01*
X129111238Y-90869958D01*
X129087159Y-90915007D01*
X129072331Y-90963887D01*
X129052774Y-91011102D01*
X129042804Y-91061223D01*
X129027976Y-91110105D01*
X129022969Y-91160943D01*
X129013000Y-91211061D01*
X129013000Y-91262162D01*
X129007993Y-91313000D01*
X129013000Y-91363838D01*
X129013000Y-91414939D01*
X129022969Y-91465057D01*
X129027976Y-91515895D01*
X129042804Y-91564777D01*
X129052774Y-91614898D01*
X129072331Y-91662113D01*
X129087159Y-91710993D01*
X129111238Y-91756042D01*
X129130795Y-91803256D01*
X129159186Y-91845746D01*
X129183266Y-91890797D01*
X129215672Y-91930284D01*
X129244063Y-91972774D01*
X129280196Y-92008907D01*
X129312604Y-92048396D01*
X129321870Y-92056000D01*
X127279881Y-92056000D01*
X127261999Y-92054239D01*
X127261999Y-88929868D01*
X130590214Y-85601654D01*
X130664105Y-85571048D01*
X129867574Y-86367579D01*
X129835710Y-86393729D01*
X129809562Y-86425591D01*
X129731364Y-86520875D01*
X129653828Y-86665934D01*
X129606082Y-86823332D01*
X129589960Y-86987020D01*
X129594001Y-87028048D01*
X129594000Y-88089615D01*
X129529932Y-88244291D01*
X129494000Y-88424931D01*
X129494000Y-88609109D01*
X129529932Y-88789749D01*
X129600414Y-88959909D01*
X129702738Y-89113048D01*
X129832972Y-89243282D01*
X129986111Y-89345606D01*
X130156271Y-89416088D01*
X130336911Y-89452020D01*
X130521089Y-89452020D01*
X130701729Y-89416088D01*
X130871889Y-89345606D01*
X131025028Y-89243282D01*
X131155262Y-89113048D01*
X131257586Y-88959909D01*
X131328068Y-88789749D01*
X131364000Y-88609109D01*
X131364000Y-88424931D01*
X131328068Y-88244291D01*
X131264000Y-88089616D01*
X131264000Y-87332887D01*
X131987214Y-86609674D01*
X132141889Y-86545606D01*
X132295028Y-86443282D01*
X132425262Y-86313048D01*
X132527586Y-86159909D01*
X132598068Y-85989749D01*
X132634000Y-85809109D01*
X132634000Y-85624931D01*
X132598068Y-85444291D01*
X132527586Y-85274131D01*
X132425262Y-85120992D01*
X132295028Y-84990758D01*
X132141889Y-84888434D01*
X131971729Y-84817952D01*
X131791089Y-84782020D01*
X131606911Y-84782020D01*
X131426271Y-84817952D01*
X131256111Y-84888434D01*
X131214033Y-84916549D01*
X131237000Y-84801089D01*
X131237000Y-84616911D01*
X131204157Y-84451800D01*
X133125796Y-84451800D01*
X133280471Y-84515868D01*
X133461111Y-84551800D01*
X133645289Y-84551800D01*
X133825929Y-84515868D01*
X133980604Y-84451800D01*
X137251690Y-84451800D01*
X137098111Y-84515414D01*
X136944972Y-84617738D01*
X136814738Y-84747972D01*
X136712414Y-84901111D01*
X136648347Y-85055785D01*
X135328574Y-86375559D01*
X135296710Y-86401709D01*
X135270562Y-86433571D01*
X135192364Y-86528855D01*
X135114828Y-86673914D01*
X135067082Y-86831312D01*
X135050960Y-86995000D01*
X135055000Y-87036018D01*
X135055000Y-87389616D01*
X134990932Y-87544291D01*
X134955000Y-87724931D01*
X134955000Y-87909109D01*
X134990932Y-88089749D01*
X135061414Y-88259909D01*
X135163738Y-88413048D01*
X135293972Y-88543282D01*
X135447111Y-88645606D01*
X135617271Y-88716088D01*
X135797911Y-88752020D01*
X135982089Y-88752020D01*
X136162729Y-88716088D01*
X136332889Y-88645606D01*
X136486028Y-88543282D01*
X136616262Y-88413048D01*
X136718586Y-88259909D01*
X136789068Y-88089749D01*
X136825000Y-87909109D01*
X136825000Y-87724931D01*
X136789068Y-87544291D01*
X136725000Y-87389616D01*
X136725000Y-87340867D01*
X137829215Y-86236653D01*
X137983889Y-86172586D01*
X138137028Y-86070262D01*
X138267262Y-85940028D01*
X138369586Y-85786889D01*
X138440068Y-85616729D01*
X138476000Y-85436089D01*
X138476000Y-85251911D01*
X138440068Y-85071271D01*
X138369586Y-84901111D01*
X138267262Y-84747972D01*
X138137028Y-84617738D01*
X137983889Y-84515414D01*
X137830310Y-84451800D01*
X138967796Y-84451800D01*
X139122471Y-84515868D01*
X139303111Y-84551800D01*
X139487289Y-84551800D01*
X139667929Y-84515868D01*
X139822604Y-84451800D01*
X142464247Y-84451800D01*
X142405972Y-84490738D01*
X142275738Y-84620972D01*
X142173414Y-84774111D01*
X142102932Y-84944271D01*
X142067000Y-85124911D01*
X142067000Y-85309089D01*
X142094386Y-85446766D01*
X141316787Y-86224366D01*
X141162111Y-86288434D01*
X141008972Y-86390758D01*
X140878738Y-86520992D01*
X140776414Y-86674131D01*
X140705932Y-86844291D01*
X140670000Y-87024931D01*
X140670000Y-87209109D01*
X140705932Y-87389749D01*
X140776414Y-87559909D01*
X140878738Y-87713048D01*
X141008972Y-87843282D01*
X141162111Y-87945606D01*
X141332271Y-88016088D01*
X141512911Y-88052020D01*
X141697089Y-88052020D01*
X141877729Y-88016088D01*
X142047889Y-87945606D01*
X142201028Y-87843282D01*
X142331262Y-87713048D01*
X142433586Y-87559909D01*
X142497654Y-87405233D01*
X143558453Y-86344436D01*
X143590311Y-86318291D01*
X143622557Y-86279000D01*
X143671117Y-86219828D01*
X143694656Y-86191146D01*
X143772192Y-86046087D01*
X143819938Y-85888689D01*
X143832020Y-85766019D01*
X143832020Y-85766018D01*
X143836060Y-85725000D01*
X143832020Y-85683982D01*
X143832020Y-85656427D01*
X143901068Y-85489729D01*
X143937000Y-85309089D01*
X143937000Y-85124911D01*
X143901068Y-84944271D01*
X143830586Y-84774111D01*
X143728262Y-84620972D01*
X143598028Y-84490738D01*
X143539753Y-84451800D01*
X144809796Y-84451800D01*
X144964471Y-84515868D01*
X145145111Y-84551800D01*
X145329289Y-84551800D01*
X145509929Y-84515868D01*
X145664604Y-84451800D01*
X150524796Y-84451800D01*
X150679471Y-84515868D01*
X150860111Y-84551800D01*
X151044289Y-84551800D01*
X151224929Y-84515868D01*
X151379604Y-84451800D01*
X156366796Y-84451800D01*
X156521471Y-84515868D01*
X156702111Y-84551800D01*
X156886289Y-84551800D01*
X157066929Y-84515868D01*
X157221604Y-84451800D01*
X162208796Y-84451800D01*
X162363471Y-84515868D01*
X162544111Y-84551800D01*
X162728289Y-84551800D01*
X162908929Y-84515868D01*
X163063604Y-84451800D01*
X168050796Y-84451800D01*
X168205471Y-84515868D01*
X168386111Y-84551800D01*
X168570289Y-84551800D01*
X168750929Y-84515868D01*
X168905604Y-84451800D01*
X173765796Y-84451800D01*
X173920471Y-84515868D01*
X174101111Y-84551800D01*
X174285289Y-84551800D01*
X174465929Y-84515868D01*
X174620604Y-84451800D01*
X179607796Y-84451800D01*
X179762471Y-84515868D01*
X179943111Y-84551800D01*
X180127289Y-84551800D01*
X180307929Y-84515868D01*
X180462604Y-84451800D01*
X181270019Y-84451800D01*
X181392689Y-84439718D01*
X181550087Y-84391972D01*
X181695146Y-84314436D01*
X181822291Y-84210091D01*
X181926636Y-84082946D01*
X182004172Y-83937887D01*
X182051918Y-83780489D01*
X182068040Y-83616800D01*
X182051918Y-83453111D01*
X182004172Y-83295713D01*
X181926636Y-83150654D01*
X181822291Y-83023509D01*
X181695146Y-82919164D01*
X181550087Y-82841628D01*
X181392689Y-82793882D01*
X181270019Y-82781800D01*
X180462604Y-82781800D01*
X180307929Y-82717732D01*
X180127289Y-82681800D01*
X179943111Y-82681800D01*
X179762471Y-82717732D01*
X179607796Y-82781800D01*
X178345914Y-82781800D01*
X178374586Y-82738889D01*
X178445068Y-82568729D01*
X178481000Y-82388089D01*
X178481000Y-82203911D01*
X178445068Y-82023271D01*
X178374586Y-81853111D01*
X178272262Y-81699972D01*
X178142028Y-81569738D01*
X177988889Y-81467414D01*
X177834214Y-81403346D01*
X176303409Y-79872542D01*
X179615054Y-79872542D01*
X179769729Y-79936610D01*
X179950369Y-79972542D01*
X180134547Y-79972542D01*
X180315187Y-79936610D01*
X180469862Y-79872542D01*
X181270019Y-79872542D01*
X181392689Y-79860460D01*
X181550087Y-79812714D01*
X181695146Y-79735178D01*
X181822291Y-79630833D01*
X181926636Y-79503688D01*
X182004172Y-79358629D01*
X182051918Y-79201231D01*
X182068040Y-79037542D01*
X182051918Y-78873853D01*
X182004172Y-78716455D01*
X181926636Y-78571396D01*
X181822291Y-78444251D01*
X181695146Y-78339906D01*
X181550087Y-78262370D01*
X181392689Y-78214624D01*
X181270019Y-78202542D01*
X180469862Y-78202542D01*
X180315187Y-78138474D01*
X180134547Y-78102542D01*
X179950369Y-78102542D01*
X179769729Y-78138474D01*
X179615054Y-78202542D01*
X174500862Y-78202542D01*
X174346187Y-78138474D01*
X174165547Y-78102542D01*
X173981369Y-78102542D01*
X173800729Y-78138474D01*
X173646054Y-78202542D01*
X168912862Y-78202542D01*
X168758187Y-78138474D01*
X168577547Y-78102542D01*
X168393369Y-78102542D01*
X168212729Y-78138474D01*
X168058054Y-78202542D01*
X163070862Y-78202542D01*
X162916187Y-78138474D01*
X162735547Y-78102542D01*
X162551369Y-78102542D01*
X162370729Y-78138474D01*
X162216054Y-78202542D01*
X157228862Y-78202542D01*
X157074187Y-78138474D01*
X156893547Y-78102542D01*
X156709369Y-78102542D01*
X156528729Y-78138474D01*
X156374054Y-78202542D01*
X151386862Y-78202542D01*
X151232187Y-78138474D01*
X151051547Y-78102542D01*
X150867369Y-78102542D01*
X150686729Y-78138474D01*
X150532054Y-78202542D01*
X145671862Y-78202542D01*
X145517187Y-78138474D01*
X145336547Y-78102542D01*
X145152369Y-78102542D01*
X144971729Y-78138474D01*
X144817054Y-78202542D01*
X139829862Y-78202542D01*
X139675187Y-78138474D01*
X139494547Y-78102542D01*
X139310369Y-78102542D01*
X139129729Y-78138474D01*
X138975054Y-78202542D01*
X133987862Y-78202542D01*
X133833187Y-78138474D01*
X133652547Y-78102542D01*
X133468369Y-78102542D01*
X133287729Y-78138474D01*
X133133054Y-78202542D01*
X128145862Y-78202542D01*
X127991187Y-78138474D01*
X127810547Y-78102542D01*
X127626369Y-78102542D01*
X127445729Y-78138474D01*
X127291054Y-78202542D01*
X122303862Y-78202542D01*
X122149187Y-78138474D01*
X121968547Y-78102542D01*
X121784369Y-78102542D01*
X121603729Y-78138474D01*
X121449054Y-78202542D01*
X116461862Y-78202542D01*
X116307187Y-78138474D01*
X116126547Y-78102542D01*
X115942369Y-78102542D01*
X115761729Y-78138474D01*
X115607054Y-78202542D01*
X110746862Y-78202542D01*
X110592187Y-78138474D01*
X110411547Y-78102542D01*
X110227369Y-78102542D01*
X110046729Y-78138474D01*
X109892054Y-78202542D01*
X104904862Y-78202542D01*
X104750187Y-78138474D01*
X104569547Y-78102542D01*
X104385369Y-78102542D01*
X104204729Y-78138474D01*
X104050054Y-78202542D01*
X99062862Y-78202542D01*
X98908187Y-78138474D01*
X98727547Y-78102542D01*
X98543369Y-78102542D01*
X98362729Y-78138474D01*
X98208054Y-78202542D01*
X93347862Y-78202542D01*
X93193187Y-78138474D01*
X93012547Y-78102542D01*
X92828369Y-78102542D01*
X92647729Y-78138474D01*
X92477569Y-78208956D01*
X92324430Y-78311280D01*
X92194196Y-78441514D01*
X92091872Y-78594653D01*
X92021390Y-78764813D01*
X91985458Y-78945453D01*
X91985458Y-79129631D01*
X92021390Y-79310271D01*
X92087124Y-79468969D01*
X91089609Y-79468969D01*
X91055178Y-79465032D01*
X91007568Y-79468969D01*
X91001009Y-79468969D01*
X90966679Y-79472350D01*
X90891258Y-79478587D01*
X90884914Y-79480403D01*
X90878339Y-79481051D01*
X90805873Y-79503033D01*
X90733130Y-79523860D01*
X90727260Y-79526880D01*
X90720941Y-79528797D01*
X90654185Y-79564479D01*
X90586874Y-79599112D01*
X90581704Y-79603221D01*
X90575882Y-79606333D01*
X90517364Y-79654357D01*
X90490376Y-79675807D01*
X90485669Y-79680369D01*
X90448737Y-79710678D01*
X90426751Y-79737468D01*
X90025041Y-80126779D01*
X90024271Y-80126932D01*
X89854111Y-80197414D01*
X89700972Y-80299738D01*
X89608000Y-80392710D01*
X89608000Y-78958867D01*
X93215929Y-75350939D01*
X93355119Y-75293285D01*
X98215311Y-75293285D01*
X98369986Y-75357353D01*
X98550626Y-75393285D01*
X98734804Y-75393285D01*
X98915444Y-75357353D01*
X99070119Y-75293285D01*
X104057311Y-75293285D01*
X104211986Y-75357353D01*
X104392626Y-75393285D01*
X104576804Y-75393285D01*
X104757444Y-75357353D01*
X104912119Y-75293285D01*
X109899311Y-75293285D01*
X110053986Y-75357353D01*
X110234626Y-75393285D01*
X110418804Y-75393285D01*
X110599444Y-75357353D01*
X110754119Y-75293285D01*
X115614311Y-75293285D01*
X115768986Y-75357353D01*
X115949626Y-75393285D01*
X116133804Y-75393285D01*
X116314444Y-75357353D01*
X116469119Y-75293285D01*
X121456311Y-75293285D01*
X121610986Y-75357353D01*
X121791626Y-75393285D01*
X121975804Y-75393285D01*
X122156444Y-75357353D01*
X122311119Y-75293285D01*
X127298311Y-75293285D01*
X127452986Y-75357353D01*
X127633626Y-75393285D01*
X127817804Y-75393285D01*
X127998444Y-75357353D01*
X128153119Y-75293285D01*
X133140311Y-75293285D01*
X133294986Y-75357353D01*
X133475626Y-75393285D01*
X133659804Y-75393285D01*
X133840444Y-75357353D01*
X133995119Y-75293285D01*
X138982311Y-75293285D01*
X139136986Y-75357353D01*
X139317626Y-75393285D01*
X139501804Y-75393285D01*
X139682444Y-75357353D01*
X139837119Y-75293285D01*
X144824311Y-75293285D01*
X144978986Y-75357353D01*
X145159626Y-75393285D01*
X145343804Y-75393285D01*
X145524444Y-75357353D01*
X145679119Y-75293285D01*
X150539311Y-75293285D01*
X150693986Y-75357353D01*
X150874626Y-75393285D01*
X151058804Y-75393285D01*
X151239444Y-75357353D01*
X151394119Y-75293285D01*
X156381311Y-75293285D01*
X156535986Y-75357353D01*
X156716626Y-75393285D01*
X156900804Y-75393285D01*
X157081444Y-75357353D01*
X157236119Y-75293285D01*
X162223311Y-75293285D01*
X162377986Y-75357353D01*
X162558626Y-75393285D01*
X162742804Y-75393285D01*
X162923444Y-75357353D01*
X163078119Y-75293285D01*
X168065311Y-75293285D01*
X168219986Y-75357353D01*
X168400626Y-75393285D01*
X168584804Y-75393285D01*
X168765444Y-75357353D01*
X168920119Y-75293285D01*
X173780311Y-75293285D01*
X173934986Y-75357353D01*
X174115626Y-75393285D01*
X174299804Y-75393285D01*
X174480444Y-75357353D01*
X174635119Y-75293285D01*
X179622311Y-75293285D01*
X179776986Y-75357353D01*
X179957626Y-75393285D01*
X180141804Y-75393285D01*
X180322444Y-75357353D01*
X180477119Y-75293285D01*
X181270019Y-75293285D01*
X181392689Y-75281203D01*
X181550087Y-75233457D01*
X181695146Y-75155921D01*
X181822291Y-75051576D01*
X181926636Y-74924431D01*
X182004172Y-74779372D01*
X182051918Y-74621974D01*
X182068040Y-74458285D01*
X182051918Y-74294596D01*
X182004172Y-74137198D01*
X181926636Y-73992139D01*
X181822291Y-73864994D01*
X181695146Y-73760649D01*
X181550087Y-73683113D01*
X181392689Y-73635367D01*
X181270019Y-73623285D01*
X180477119Y-73623285D01*
X180322444Y-73559217D01*
X180141804Y-73523285D01*
X179957626Y-73523285D01*
X179776986Y-73559217D01*
X179622311Y-73623285D01*
X174635119Y-73623285D01*
X174480444Y-73559217D01*
X174299804Y-73523285D01*
X174115626Y-73523285D01*
X173934986Y-73559217D01*
X173780311Y-73623285D01*
X168920119Y-73623285D01*
X168765444Y-73559217D01*
X168584804Y-73523285D01*
X168400626Y-73523285D01*
X168219986Y-73559217D01*
X168065311Y-73623285D01*
X163078119Y-73623285D01*
X162923444Y-73559217D01*
X162742804Y-73523285D01*
X162558626Y-73523285D01*
X162377986Y-73559217D01*
X162223311Y-73623285D01*
X157236119Y-73623285D01*
X157081444Y-73559217D01*
X156900804Y-73523285D01*
X156716626Y-73523285D01*
X156535986Y-73559217D01*
X156381311Y-73623285D01*
X151394119Y-73623285D01*
X151239444Y-73559217D01*
X151058804Y-73523285D01*
X150874626Y-73523285D01*
X150693986Y-73559217D01*
X150539311Y-73623285D01*
X145679119Y-73623285D01*
X145524444Y-73559217D01*
X145343804Y-73523285D01*
X145159626Y-73523285D01*
X144978986Y-73559217D01*
X144824311Y-73623285D01*
X139837119Y-73623285D01*
X139682444Y-73559217D01*
X139501804Y-73523285D01*
X139317626Y-73523285D01*
X139136986Y-73559217D01*
X138982311Y-73623285D01*
X133995119Y-73623285D01*
X133840444Y-73559217D01*
X133659804Y-73523285D01*
X133475626Y-73523285D01*
X133294986Y-73559217D01*
X133140311Y-73623285D01*
X128153119Y-73623285D01*
X127998444Y-73559217D01*
X127817804Y-73523285D01*
X127633626Y-73523285D01*
X127452986Y-73559217D01*
X127298311Y-73623285D01*
X122311119Y-73623285D01*
X122156444Y-73559217D01*
X121975804Y-73523285D01*
X121791626Y-73523285D01*
X121610986Y-73559217D01*
X121456311Y-73623285D01*
X116469119Y-73623285D01*
X116314444Y-73559217D01*
X116133804Y-73523285D01*
X115949626Y-73523285D01*
X115768986Y-73559217D01*
X115614311Y-73623285D01*
X110754119Y-73623285D01*
X110599444Y-73559217D01*
X110418804Y-73523285D01*
X110234626Y-73523285D01*
X110053986Y-73559217D01*
X109899311Y-73623285D01*
X104912119Y-73623285D01*
X104757444Y-73559217D01*
X104576804Y-73523285D01*
X104392626Y-73523285D01*
X104211986Y-73559217D01*
X104057311Y-73623285D01*
X99070119Y-73623285D01*
X98915444Y-73559217D01*
X98734804Y-73523285D01*
X98550626Y-73523285D01*
X98369986Y-73559217D01*
X98215311Y-73623285D01*
X93355119Y-73623285D01*
X93200444Y-73559217D01*
X93019804Y-73523285D01*
X92835626Y-73523285D01*
X92654986Y-73559217D01*
X92484826Y-73629699D01*
X92331687Y-73732023D01*
X92201453Y-73862257D01*
X92099129Y-74015396D01*
X92035061Y-74170071D01*
X88846000Y-77359133D01*
X88846000Y-72227867D01*
X90359840Y-70714028D01*
X92507568Y-70714028D01*
X92662243Y-70778096D01*
X92842883Y-70814028D01*
X93027061Y-70814028D01*
X93207701Y-70778096D01*
X93362376Y-70714028D01*
X98222568Y-70714028D01*
X98377243Y-70778096D01*
X98557883Y-70814028D01*
X98742061Y-70814028D01*
X98922701Y-70778096D01*
X99077376Y-70714028D01*
X104064568Y-70714028D01*
X104219243Y-70778096D01*
X104399883Y-70814028D01*
X104584061Y-70814028D01*
X104764701Y-70778096D01*
X104919376Y-70714028D01*
X109906568Y-70714028D01*
X110061243Y-70778096D01*
X110241883Y-70814028D01*
X110426061Y-70814028D01*
X110606701Y-70778096D01*
X110761376Y-70714028D01*
X115621568Y-70714028D01*
X115776243Y-70778096D01*
X115956883Y-70814028D01*
X116141061Y-70814028D01*
X116321701Y-70778096D01*
X116476376Y-70714028D01*
X121463568Y-70714028D01*
X121618243Y-70778096D01*
X121798883Y-70814028D01*
X121983061Y-70814028D01*
X122163701Y-70778096D01*
X122318376Y-70714028D01*
X127305568Y-70714028D01*
X127460243Y-70778096D01*
X127640883Y-70814028D01*
X127825061Y-70814028D01*
X128005701Y-70778096D01*
X128160376Y-70714028D01*
X133147568Y-70714028D01*
X133302243Y-70778096D01*
X133482883Y-70814028D01*
X133667061Y-70814028D01*
X133847701Y-70778096D01*
X134002376Y-70714028D01*
X138989568Y-70714028D01*
X139144243Y-70778096D01*
X139324883Y-70814028D01*
X139509061Y-70814028D01*
X139689701Y-70778096D01*
X139844376Y-70714028D01*
X144831568Y-70714028D01*
X144986243Y-70778096D01*
X145166883Y-70814028D01*
X145351061Y-70814028D01*
X145531701Y-70778096D01*
X145686376Y-70714028D01*
X150546568Y-70714028D01*
X150701243Y-70778096D01*
X150881883Y-70814028D01*
X151066061Y-70814028D01*
X151246701Y-70778096D01*
X151401376Y-70714028D01*
X156388568Y-70714028D01*
X156543243Y-70778096D01*
X156723883Y-70814028D01*
X156908061Y-70814028D01*
X157088701Y-70778096D01*
X157243376Y-70714028D01*
X162230568Y-70714028D01*
X162385243Y-70778096D01*
X162565883Y-70814028D01*
X162750061Y-70814028D01*
X162930701Y-70778096D01*
X163085376Y-70714028D01*
X168072568Y-70714028D01*
X168227243Y-70778096D01*
X168407883Y-70814028D01*
X168592061Y-70814028D01*
X168772701Y-70778096D01*
X168927376Y-70714028D01*
X173787568Y-70714028D01*
X173942243Y-70778096D01*
X174122883Y-70814028D01*
X174307061Y-70814028D01*
X174487701Y-70778096D01*
X174642376Y-70714028D01*
X179629568Y-70714028D01*
X179784243Y-70778096D01*
X179964883Y-70814028D01*
X180149061Y-70814028D01*
X180329701Y-70778096D01*
X180484376Y-70714028D01*
X181270019Y-70714028D01*
X181392689Y-70701946D01*
X181550087Y-70654200D01*
X181695146Y-70576664D01*
X181822291Y-70472319D01*
X181926636Y-70345174D01*
X182004172Y-70200115D01*
X182051918Y-70042717D01*
X182068040Y-69879028D01*
X182051918Y-69715339D01*
X182004172Y-69557941D01*
X181926636Y-69412882D01*
X181822291Y-69285737D01*
X181695146Y-69181392D01*
X181550087Y-69103856D01*
X181392689Y-69056110D01*
X181270019Y-69044028D01*
X180484376Y-69044028D01*
X180329701Y-68979960D01*
X180149061Y-68944028D01*
X179964883Y-68944028D01*
X179784243Y-68979960D01*
X179629568Y-69044028D01*
X174642376Y-69044028D01*
X174487701Y-68979960D01*
X174307061Y-68944028D01*
X174122883Y-68944028D01*
X173942243Y-68979960D01*
X173787568Y-69044028D01*
X168927376Y-69044028D01*
X168772701Y-68979960D01*
X168592061Y-68944028D01*
X168407883Y-68944028D01*
X168227243Y-68979960D01*
X168072568Y-69044028D01*
X163085376Y-69044028D01*
X162930701Y-68979960D01*
X162750061Y-68944028D01*
X162565883Y-68944028D01*
X162385243Y-68979960D01*
X162230568Y-69044028D01*
X157243376Y-69044028D01*
X157088701Y-68979960D01*
X156908061Y-68944028D01*
X156723883Y-68944028D01*
X156543243Y-68979960D01*
X156388568Y-69044028D01*
X151401376Y-69044028D01*
X151246701Y-68979960D01*
X151066061Y-68944028D01*
X150881883Y-68944028D01*
X150701243Y-68979960D01*
X150546568Y-69044028D01*
X145686376Y-69044028D01*
X145531701Y-68979960D01*
X145351061Y-68944028D01*
X145166883Y-68944028D01*
X144986243Y-68979960D01*
X144831568Y-69044028D01*
X139844376Y-69044028D01*
X139689701Y-68979960D01*
X139509061Y-68944028D01*
X139324883Y-68944028D01*
X139144243Y-68979960D01*
X138989568Y-69044028D01*
X134002376Y-69044028D01*
X133847701Y-68979960D01*
X133667061Y-68944028D01*
X133482883Y-68944028D01*
X133302243Y-68979960D01*
X133147568Y-69044028D01*
X128160376Y-69044028D01*
X128005701Y-68979960D01*
X127825061Y-68944028D01*
X127640883Y-68944028D01*
X127460243Y-68979960D01*
X127305568Y-69044028D01*
X122318376Y-69044028D01*
X122163701Y-68979960D01*
X121983061Y-68944028D01*
X121798883Y-68944028D01*
X121618243Y-68979960D01*
X121463568Y-69044028D01*
X116476376Y-69044028D01*
X116321701Y-68979960D01*
X116141061Y-68944028D01*
X115956883Y-68944028D01*
X115776243Y-68979960D01*
X115621568Y-69044028D01*
X110761376Y-69044028D01*
X110606701Y-68979960D01*
X110426061Y-68944028D01*
X110241883Y-68944028D01*
X110061243Y-68979960D01*
X109906568Y-69044028D01*
X104919376Y-69044028D01*
X104764701Y-68979960D01*
X104584061Y-68944028D01*
X104399883Y-68944028D01*
X104219243Y-68979960D01*
X104064568Y-69044028D01*
X99077376Y-69044028D01*
X98922701Y-68979960D01*
X98742061Y-68944028D01*
X98557883Y-68944028D01*
X98377243Y-68979960D01*
X98222568Y-69044028D01*
X93362376Y-69044028D01*
X93207701Y-68979960D01*
X93027061Y-68944028D01*
X92842883Y-68944028D01*
X92662243Y-68979960D01*
X92507568Y-69044028D01*
X90054990Y-69044028D01*
X90013971Y-69039988D01*
X89972953Y-69044028D01*
X89850283Y-69056110D01*
X89692885Y-69103856D01*
X89547826Y-69181392D01*
X89420681Y-69285737D01*
X89394531Y-69317601D01*
X87908489Y-70803643D01*
X87908440Y-66746119D01*
X87919738Y-66763028D01*
X88049972Y-66893262D01*
X88203111Y-66995586D01*
X88373271Y-67066068D01*
X88553911Y-67102000D01*
X88738089Y-67102000D01*
X88918729Y-67066068D01*
X89088889Y-66995586D01*
X89242028Y-66893262D01*
X89372262Y-66763028D01*
X89474586Y-66609889D01*
X89538654Y-66455213D01*
X89859097Y-66134771D01*
X92514825Y-66134771D01*
X92669500Y-66198839D01*
X92850140Y-66234771D01*
X93034318Y-66234771D01*
X93214958Y-66198839D01*
X93369633Y-66134771D01*
X98229825Y-66134771D01*
X98384500Y-66198839D01*
X98565140Y-66234771D01*
X98749318Y-66234771D01*
X98929958Y-66198839D01*
X99084633Y-66134771D01*
X104071825Y-66134771D01*
X104226500Y-66198839D01*
X104407140Y-66234771D01*
X104591318Y-66234771D01*
X104771958Y-66198839D01*
X104926633Y-66134771D01*
X109913825Y-66134771D01*
X110068500Y-66198839D01*
X110249140Y-66234771D01*
X110433318Y-66234771D01*
X110613958Y-66198839D01*
X110768633Y-66134771D01*
X115628825Y-66134771D01*
X115783500Y-66198839D01*
X115964140Y-66234771D01*
X116148318Y-66234771D01*
X116328958Y-66198839D01*
X116483633Y-66134771D01*
X121470825Y-66134771D01*
X121625500Y-66198839D01*
X121806140Y-66234771D01*
X121990318Y-66234771D01*
X122170958Y-66198839D01*
X122325633Y-66134771D01*
X127312825Y-66134771D01*
X127467500Y-66198839D01*
X127648140Y-66234771D01*
X127832318Y-66234771D01*
X128012958Y-66198839D01*
X128167633Y-66134771D01*
X133154825Y-66134771D01*
X133309500Y-66198839D01*
X133490140Y-66234771D01*
X133674318Y-66234771D01*
X133854958Y-66198839D01*
X134009633Y-66134771D01*
X138996825Y-66134771D01*
X139151500Y-66198839D01*
X139332140Y-66234771D01*
X139516318Y-66234771D01*
X139696958Y-66198839D01*
X139851633Y-66134771D01*
X144838825Y-66134771D01*
X144993500Y-66198839D01*
X145174140Y-66234771D01*
X145358318Y-66234771D01*
X145538958Y-66198839D01*
X145693633Y-66134771D01*
X150553825Y-66134771D01*
X150708500Y-66198839D01*
X150889140Y-66234771D01*
X151073318Y-66234771D01*
X151253958Y-66198839D01*
X151408633Y-66134771D01*
X156395825Y-66134771D01*
X156550500Y-66198839D01*
X156731140Y-66234771D01*
X156915318Y-66234771D01*
X157095958Y-66198839D01*
X157250633Y-66134771D01*
X162237825Y-66134771D01*
X162392500Y-66198839D01*
X162573140Y-66234771D01*
X162757318Y-66234771D01*
X162937958Y-66198839D01*
X163092633Y-66134771D01*
X168079825Y-66134771D01*
X168234500Y-66198839D01*
X168415140Y-66234771D01*
X168599318Y-66234771D01*
X168779958Y-66198839D01*
X168934633Y-66134771D01*
X173794825Y-66134771D01*
X173949500Y-66198839D01*
X174130140Y-66234771D01*
X174314318Y-66234771D01*
X174494958Y-66198839D01*
X174649633Y-66134771D01*
X179636825Y-66134771D01*
X179791500Y-66198839D01*
X179972140Y-66234771D01*
X180156318Y-66234771D01*
X180336958Y-66198839D01*
X180491633Y-66134771D01*
X181270019Y-66134771D01*
X181392689Y-66122689D01*
X181550087Y-66074943D01*
X181695146Y-65997407D01*
X181822291Y-65893062D01*
X181926636Y-65765917D01*
X182004172Y-65620858D01*
X182051918Y-65463460D01*
X182068040Y-65299771D01*
X182051918Y-65136082D01*
X182004172Y-64978684D01*
X181926636Y-64833625D01*
X181822291Y-64706480D01*
X181695146Y-64602135D01*
X181550087Y-64524599D01*
X181392689Y-64476853D01*
X181270019Y-64464771D01*
X180491633Y-64464771D01*
X180336958Y-64400703D01*
X180156318Y-64364771D01*
X179972140Y-64364771D01*
X179791500Y-64400703D01*
X179636825Y-64464771D01*
X174649633Y-64464771D01*
X174494958Y-64400703D01*
X174314318Y-64364771D01*
X174130140Y-64364771D01*
X173949500Y-64400703D01*
X173794825Y-64464771D01*
X168934633Y-64464771D01*
X168779958Y-64400703D01*
X168599318Y-64364771D01*
X168415140Y-64364771D01*
X168234500Y-64400703D01*
X168079825Y-64464771D01*
X163092633Y-64464771D01*
X162937958Y-64400703D01*
X162757318Y-64364771D01*
X162573140Y-64364771D01*
X162392500Y-64400703D01*
X162237825Y-64464771D01*
X157250633Y-64464771D01*
X157095958Y-64400703D01*
X156915318Y-64364771D01*
X156731140Y-64364771D01*
X156550500Y-64400703D01*
X156395825Y-64464771D01*
X151408633Y-64464771D01*
X151253958Y-64400703D01*
X151073318Y-64364771D01*
X150889140Y-64364771D01*
X150708500Y-64400703D01*
X150553825Y-64464771D01*
X145693633Y-64464771D01*
X145538958Y-64400703D01*
X145358318Y-64364771D01*
X145174140Y-64364771D01*
X144993500Y-64400703D01*
X144838825Y-64464771D01*
X139851633Y-64464771D01*
X139696958Y-64400703D01*
X139516318Y-64364771D01*
X139332140Y-64364771D01*
X139151500Y-64400703D01*
X138996825Y-64464771D01*
X134009633Y-64464771D01*
X133854958Y-64400703D01*
X133674318Y-64364771D01*
X133490140Y-64364771D01*
X133309500Y-64400703D01*
X133154825Y-64464771D01*
X128167633Y-64464771D01*
X128012958Y-64400703D01*
X127832318Y-64364771D01*
X127648140Y-64364771D01*
X127467500Y-64400703D01*
X127312825Y-64464771D01*
X122325633Y-64464771D01*
X122170958Y-64400703D01*
X121990318Y-64364771D01*
X121806140Y-64364771D01*
X121625500Y-64400703D01*
X121470825Y-64464771D01*
X116483633Y-64464771D01*
X116328958Y-64400703D01*
X116148318Y-64364771D01*
X115964140Y-64364771D01*
X115783500Y-64400703D01*
X115628825Y-64464771D01*
X110768633Y-64464771D01*
X110613958Y-64400703D01*
X110433318Y-64364771D01*
X110249140Y-64364771D01*
X110068500Y-64400703D01*
X109913825Y-64464771D01*
X104926633Y-64464771D01*
X104771958Y-64400703D01*
X104591318Y-64364771D01*
X104407140Y-64364771D01*
X104226500Y-64400703D01*
X104071825Y-64464771D01*
X99084633Y-64464771D01*
X98929958Y-64400703D01*
X98749318Y-64364771D01*
X98565140Y-64364771D01*
X98384500Y-64400703D01*
X98229825Y-64464771D01*
X93369633Y-64464771D01*
X93214958Y-64400703D01*
X93034318Y-64364771D01*
X92850140Y-64364771D01*
X92669500Y-64400703D01*
X92514825Y-64464771D01*
X89554247Y-64464771D01*
X89513228Y-64460731D01*
X89472210Y-64464771D01*
X89349540Y-64476853D01*
X89192142Y-64524599D01*
X89047083Y-64602135D01*
X88919938Y-64706480D01*
X88893787Y-64738345D01*
X88357787Y-65274346D01*
X88203111Y-65338414D01*
X88049972Y-65440738D01*
X87919738Y-65570972D01*
X87908425Y-65587902D01*
X87908365Y-60628425D01*
X92014486Y-60628425D01*
X92014486Y-60812603D01*
X92050418Y-60993243D01*
X92120900Y-61163403D01*
X92223224Y-61316542D01*
X92353458Y-61446776D01*
X92506597Y-61549100D01*
X92676757Y-61619582D01*
X92857397Y-61655514D01*
X93041575Y-61655514D01*
X93222215Y-61619582D01*
X93376890Y-61555514D01*
X98237082Y-61555514D01*
X98391757Y-61619582D01*
X98572397Y-61655514D01*
X98756575Y-61655514D01*
X98937215Y-61619582D01*
X99091890Y-61555514D01*
X104079082Y-61555514D01*
X104233757Y-61619582D01*
X104414397Y-61655514D01*
X104598575Y-61655514D01*
X104779215Y-61619582D01*
X104933890Y-61555514D01*
X109921082Y-61555514D01*
X110075757Y-61619582D01*
X110256397Y-61655514D01*
X110440575Y-61655514D01*
X110621215Y-61619582D01*
X110775890Y-61555514D01*
X115636082Y-61555514D01*
X115790757Y-61619582D01*
X115971397Y-61655514D01*
X116155575Y-61655514D01*
X116336215Y-61619582D01*
X116490890Y-61555514D01*
X121478082Y-61555514D01*
X121632757Y-61619582D01*
X121813397Y-61655514D01*
X121997575Y-61655514D01*
X122178215Y-61619582D01*
X122332890Y-61555514D01*
X127320082Y-61555514D01*
X127474757Y-61619582D01*
X127655397Y-61655514D01*
X127839575Y-61655514D01*
X128020215Y-61619582D01*
X128174890Y-61555514D01*
X133162082Y-61555514D01*
X133316757Y-61619582D01*
X133497397Y-61655514D01*
X133681575Y-61655514D01*
X133862215Y-61619582D01*
X134016890Y-61555514D01*
X139004082Y-61555514D01*
X139158757Y-61619582D01*
X139339397Y-61655514D01*
X139523575Y-61655514D01*
X139704215Y-61619582D01*
X139858890Y-61555514D01*
X144846082Y-61555514D01*
X145000757Y-61619582D01*
X145181397Y-61655514D01*
X145365575Y-61655514D01*
X145546215Y-61619582D01*
X145700890Y-61555514D01*
X150561082Y-61555514D01*
X150715757Y-61619582D01*
X150896397Y-61655514D01*
X151080575Y-61655514D01*
X151261215Y-61619582D01*
X151415890Y-61555514D01*
X156403082Y-61555514D01*
X156557757Y-61619582D01*
X156738397Y-61655514D01*
X156922575Y-61655514D01*
X157103215Y-61619582D01*
X157257890Y-61555514D01*
X162245082Y-61555514D01*
X162399757Y-61619582D01*
X162580397Y-61655514D01*
X162764575Y-61655514D01*
X162945215Y-61619582D01*
X163099890Y-61555514D01*
X168087082Y-61555514D01*
X168241757Y-61619582D01*
X168422397Y-61655514D01*
X168606575Y-61655514D01*
X168787215Y-61619582D01*
X168941890Y-61555514D01*
X173802082Y-61555514D01*
X173956757Y-61619582D01*
X174137397Y-61655514D01*
X174321575Y-61655514D01*
X174502215Y-61619582D01*
X174656890Y-61555514D01*
X179644082Y-61555514D01*
X179798757Y-61619582D01*
X179979397Y-61655514D01*
X180163575Y-61655514D01*
X180344215Y-61619582D01*
X180498890Y-61555514D01*
X181270019Y-61555514D01*
X181392689Y-61543432D01*
X181550087Y-61495686D01*
X181695146Y-61418150D01*
X181822291Y-61313805D01*
X181926636Y-61186660D01*
X182004172Y-61041601D01*
X182051918Y-60884203D01*
X182068040Y-60720514D01*
X182051918Y-60556825D01*
X182004172Y-60399427D01*
X181926636Y-60254368D01*
X181822291Y-60127223D01*
X181695146Y-60022878D01*
X181550087Y-59945342D01*
X181392689Y-59897596D01*
X181270019Y-59885514D01*
X180498890Y-59885514D01*
X180344215Y-59821446D01*
X180163575Y-59785514D01*
X179979397Y-59785514D01*
X179798757Y-59821446D01*
X179644082Y-59885514D01*
X174656890Y-59885514D01*
X174502215Y-59821446D01*
X174321575Y-59785514D01*
X174137397Y-59785514D01*
X173956757Y-59821446D01*
X173802082Y-59885514D01*
X168941890Y-59885514D01*
X168787215Y-59821446D01*
X168606575Y-59785514D01*
X168422397Y-59785514D01*
X168241757Y-59821446D01*
X168087082Y-59885514D01*
X163099890Y-59885514D01*
X162945215Y-59821446D01*
X162764575Y-59785514D01*
X162580397Y-59785514D01*
X162399757Y-59821446D01*
X162245082Y-59885514D01*
X157257890Y-59885514D01*
X157103215Y-59821446D01*
X156922575Y-59785514D01*
X156738397Y-59785514D01*
X156557757Y-59821446D01*
X156403082Y-59885514D01*
X151415890Y-59885514D01*
X151261215Y-59821446D01*
X151080575Y-59785514D01*
X150896397Y-59785514D01*
X150715757Y-59821446D01*
X150561082Y-59885514D01*
X145700890Y-59885514D01*
X145546215Y-59821446D01*
X145365575Y-59785514D01*
X145181397Y-59785514D01*
X145000757Y-59821446D01*
X144846082Y-59885514D01*
X139858890Y-59885514D01*
X139704215Y-59821446D01*
X139523575Y-59785514D01*
X139339397Y-59785514D01*
X139158757Y-59821446D01*
X139004082Y-59885514D01*
X134016890Y-59885514D01*
X133862215Y-59821446D01*
X133681575Y-59785514D01*
X133497397Y-59785514D01*
X133316757Y-59821446D01*
X133162082Y-59885514D01*
X128174890Y-59885514D01*
X128020215Y-59821446D01*
X127839575Y-59785514D01*
X127655397Y-59785514D01*
X127474757Y-59821446D01*
X127320082Y-59885514D01*
X122332890Y-59885514D01*
X122178215Y-59821446D01*
X121997575Y-59785514D01*
X121813397Y-59785514D01*
X121632757Y-59821446D01*
X121478082Y-59885514D01*
X116490890Y-59885514D01*
X116336215Y-59821446D01*
X116155575Y-59785514D01*
X115971397Y-59785514D01*
X115790757Y-59821446D01*
X115636082Y-59885514D01*
X110775890Y-59885514D01*
X110621215Y-59821446D01*
X110440575Y-59785514D01*
X110256397Y-59785514D01*
X110075757Y-59821446D01*
X109921082Y-59885514D01*
X104933890Y-59885514D01*
X104779215Y-59821446D01*
X104598575Y-59785514D01*
X104414397Y-59785514D01*
X104233757Y-59821446D01*
X104079082Y-59885514D01*
X99091890Y-59885514D01*
X98937215Y-59821446D01*
X98756575Y-59785514D01*
X98572397Y-59785514D01*
X98391757Y-59821446D01*
X98237082Y-59885514D01*
X93376890Y-59885514D01*
X93222215Y-59821446D01*
X93041575Y-59785514D01*
X92857397Y-59785514D01*
X92676757Y-59821446D01*
X92506597Y-59891928D01*
X92353458Y-59994252D01*
X92223224Y-60124486D01*
X92120900Y-60277625D01*
X92050418Y-60447785D01*
X92014486Y-60628425D01*
X87908365Y-60628425D01*
X87908310Y-56049168D01*
X92021743Y-56049168D01*
X92021743Y-56233346D01*
X92057675Y-56413986D01*
X92128157Y-56584146D01*
X92230481Y-56737285D01*
X92360715Y-56867519D01*
X92513854Y-56969843D01*
X92684014Y-57040325D01*
X92864654Y-57076257D01*
X93048832Y-57076257D01*
X93229472Y-57040325D01*
X93384147Y-56976257D01*
X98244339Y-56976257D01*
X98399014Y-57040325D01*
X98579654Y-57076257D01*
X98763832Y-57076257D01*
X98944472Y-57040325D01*
X99099147Y-56976257D01*
X104086339Y-56976257D01*
X104241014Y-57040325D01*
X104421654Y-57076257D01*
X104605832Y-57076257D01*
X104786472Y-57040325D01*
X104941147Y-56976257D01*
X109928339Y-56976257D01*
X110083014Y-57040325D01*
X110263654Y-57076257D01*
X110447832Y-57076257D01*
X110628472Y-57040325D01*
X110783147Y-56976257D01*
X115643339Y-56976257D01*
X115798014Y-57040325D01*
X115978654Y-57076257D01*
X116162832Y-57076257D01*
X116343472Y-57040325D01*
X116498147Y-56976257D01*
X121485339Y-56976257D01*
X121640014Y-57040325D01*
X121820654Y-57076257D01*
X122004832Y-57076257D01*
X122185472Y-57040325D01*
X122340147Y-56976257D01*
X127327339Y-56976257D01*
X127482014Y-57040325D01*
X127662654Y-57076257D01*
X127846832Y-57076257D01*
X128027472Y-57040325D01*
X128182147Y-56976257D01*
X133169339Y-56976257D01*
X133324014Y-57040325D01*
X133504654Y-57076257D01*
X133688832Y-57076257D01*
X133869472Y-57040325D01*
X134024147Y-56976257D01*
X139011339Y-56976257D01*
X139166014Y-57040325D01*
X139346654Y-57076257D01*
X139530832Y-57076257D01*
X139711472Y-57040325D01*
X139866147Y-56976257D01*
X144853339Y-56976257D01*
X145008014Y-57040325D01*
X145188654Y-57076257D01*
X145372832Y-57076257D01*
X145553472Y-57040325D01*
X145708147Y-56976257D01*
X150568339Y-56976257D01*
X150723014Y-57040325D01*
X150903654Y-57076257D01*
X151087832Y-57076257D01*
X151268472Y-57040325D01*
X151423147Y-56976257D01*
X156410339Y-56976257D01*
X156565014Y-57040325D01*
X156745654Y-57076257D01*
X156929832Y-57076257D01*
X157110472Y-57040325D01*
X157265147Y-56976257D01*
X162252339Y-56976257D01*
X162407014Y-57040325D01*
X162587654Y-57076257D01*
X162771832Y-57076257D01*
X162952472Y-57040325D01*
X163107147Y-56976257D01*
X168094339Y-56976257D01*
X168249014Y-57040325D01*
X168429654Y-57076257D01*
X168613832Y-57076257D01*
X168794472Y-57040325D01*
X168949147Y-56976257D01*
X173809339Y-56976257D01*
X173964014Y-57040325D01*
X174144654Y-57076257D01*
X174328832Y-57076257D01*
X174509472Y-57040325D01*
X174664147Y-56976257D01*
X179651339Y-56976257D01*
X179806014Y-57040325D01*
X179986654Y-57076257D01*
X180170832Y-57076257D01*
X180351472Y-57040325D01*
X180506147Y-56976257D01*
X181270019Y-56976257D01*
X181392689Y-56964175D01*
X181550087Y-56916429D01*
X181695146Y-56838893D01*
X181822291Y-56734548D01*
X181926636Y-56607403D01*
X182004172Y-56462344D01*
X182051918Y-56304946D01*
X182068040Y-56141257D01*
X182051918Y-55977568D01*
X182004172Y-55820170D01*
X181926636Y-55675111D01*
X181822291Y-55547966D01*
X181695146Y-55443621D01*
X181550087Y-55366085D01*
X181392689Y-55318339D01*
X181270019Y-55306257D01*
X180506147Y-55306257D01*
X180351472Y-55242189D01*
X180170832Y-55206257D01*
X179986654Y-55206257D01*
X179806014Y-55242189D01*
X179651339Y-55306257D01*
X174664147Y-55306257D01*
X174509472Y-55242189D01*
X174328832Y-55206257D01*
X174144654Y-55206257D01*
X173964014Y-55242189D01*
X173809339Y-55306257D01*
X168949147Y-55306257D01*
X168794472Y-55242189D01*
X168613832Y-55206257D01*
X168429654Y-55206257D01*
X168249014Y-55242189D01*
X168094339Y-55306257D01*
X163107147Y-55306257D01*
X162952472Y-55242189D01*
X162771832Y-55206257D01*
X162587654Y-55206257D01*
X162407014Y-55242189D01*
X162252339Y-55306257D01*
X157265147Y-55306257D01*
X157110472Y-55242189D01*
X156929832Y-55206257D01*
X156745654Y-55206257D01*
X156565014Y-55242189D01*
X156410339Y-55306257D01*
X151423147Y-55306257D01*
X151268472Y-55242189D01*
X151087832Y-55206257D01*
X150903654Y-55206257D01*
X150723014Y-55242189D01*
X150568339Y-55306257D01*
X145708147Y-55306257D01*
X145553472Y-55242189D01*
X145372832Y-55206257D01*
X145188654Y-55206257D01*
X145008014Y-55242189D01*
X144853339Y-55306257D01*
X139866147Y-55306257D01*
X139711472Y-55242189D01*
X139530832Y-55206257D01*
X139346654Y-55206257D01*
X139166014Y-55242189D01*
X139011339Y-55306257D01*
X134024147Y-55306257D01*
X133869472Y-55242189D01*
X133688832Y-55206257D01*
X133504654Y-55206257D01*
X133324014Y-55242189D01*
X133169339Y-55306257D01*
X128182147Y-55306257D01*
X128027472Y-55242189D01*
X127846832Y-55206257D01*
X127662654Y-55206257D01*
X127482014Y-55242189D01*
X127327339Y-55306257D01*
X122340147Y-55306257D01*
X122185472Y-55242189D01*
X122004832Y-55206257D01*
X121820654Y-55206257D01*
X121640014Y-55242189D01*
X121485339Y-55306257D01*
X116498147Y-55306257D01*
X116343472Y-55242189D01*
X116162832Y-55206257D01*
X115978654Y-55206257D01*
X115798014Y-55242189D01*
X115643339Y-55306257D01*
X110783147Y-55306257D01*
X110628472Y-55242189D01*
X110447832Y-55206257D01*
X110263654Y-55206257D01*
X110083014Y-55242189D01*
X109928339Y-55306257D01*
X104941147Y-55306257D01*
X104786472Y-55242189D01*
X104605832Y-55206257D01*
X104421654Y-55206257D01*
X104241014Y-55242189D01*
X104086339Y-55306257D01*
X99099147Y-55306257D01*
X98944472Y-55242189D01*
X98763832Y-55206257D01*
X98579654Y-55206257D01*
X98399014Y-55242189D01*
X98244339Y-55306257D01*
X93384147Y-55306257D01*
X93229472Y-55242189D01*
X93048832Y-55206257D01*
X92864654Y-55206257D01*
X92684014Y-55242189D01*
X92513854Y-55312671D01*
X92360715Y-55414995D01*
X92230481Y-55545229D01*
X92128157Y-55698368D01*
X92057675Y-55868528D01*
X92021743Y-56049168D01*
X87908310Y-56049168D01*
X87908254Y-51469911D01*
X92029000Y-51469911D01*
X92029000Y-51654089D01*
X92064932Y-51834729D01*
X92135414Y-52004889D01*
X92237738Y-52158028D01*
X92367972Y-52288262D01*
X92521111Y-52390586D01*
X92691271Y-52461068D01*
X92871911Y-52497000D01*
X93056089Y-52497000D01*
X93236729Y-52461068D01*
X93391404Y-52397000D01*
X98251596Y-52397000D01*
X98406271Y-52461068D01*
X98586911Y-52497000D01*
X98771089Y-52497000D01*
X98951729Y-52461068D01*
X99106404Y-52397000D01*
X104093596Y-52397000D01*
X104248271Y-52461068D01*
X104428911Y-52497000D01*
X104613089Y-52497000D01*
X104793729Y-52461068D01*
X104948404Y-52397000D01*
X109935596Y-52397000D01*
X110090271Y-52461068D01*
X110270911Y-52497000D01*
X110455089Y-52497000D01*
X110635729Y-52461068D01*
X110790404Y-52397000D01*
X115650596Y-52397000D01*
X115805271Y-52461068D01*
X115985911Y-52497000D01*
X116170089Y-52497000D01*
X116350729Y-52461068D01*
X116505404Y-52397000D01*
X121492596Y-52397000D01*
X121647271Y-52461068D01*
X121827911Y-52497000D01*
X122012089Y-52497000D01*
X122192729Y-52461068D01*
X122347404Y-52397000D01*
X127334596Y-52397000D01*
X127489271Y-52461068D01*
X127669911Y-52497000D01*
X127854089Y-52497000D01*
X128034729Y-52461068D01*
X128189404Y-52397000D01*
X133176596Y-52397000D01*
X133331271Y-52461068D01*
X133511911Y-52497000D01*
X133696089Y-52497000D01*
X133876729Y-52461068D01*
X134031404Y-52397000D01*
X139018596Y-52397000D01*
X139173271Y-52461068D01*
X139353911Y-52497000D01*
X139538089Y-52497000D01*
X139718729Y-52461068D01*
X139873404Y-52397000D01*
X144860596Y-52397000D01*
X145015271Y-52461068D01*
X145195911Y-52497000D01*
X145380089Y-52497000D01*
X145560729Y-52461068D01*
X145715404Y-52397000D01*
X150575596Y-52397000D01*
X150730271Y-52461068D01*
X150910911Y-52497000D01*
X151095089Y-52497000D01*
X151275729Y-52461068D01*
X151430404Y-52397000D01*
X156417596Y-52397000D01*
X156572271Y-52461068D01*
X156752911Y-52497000D01*
X156937089Y-52497000D01*
X157117729Y-52461068D01*
X157272404Y-52397000D01*
X162259596Y-52397000D01*
X162414271Y-52461068D01*
X162594911Y-52497000D01*
X162779089Y-52497000D01*
X162959729Y-52461068D01*
X163114404Y-52397000D01*
X168101596Y-52397000D01*
X168256271Y-52461068D01*
X168436911Y-52497000D01*
X168621089Y-52497000D01*
X168801729Y-52461068D01*
X168956404Y-52397000D01*
X173816596Y-52397000D01*
X173971271Y-52461068D01*
X174151911Y-52497000D01*
X174336089Y-52497000D01*
X174516729Y-52461068D01*
X174671404Y-52397000D01*
X179658596Y-52397000D01*
X179813271Y-52461068D01*
X179993911Y-52497000D01*
X180178089Y-52497000D01*
X180358729Y-52461068D01*
X180513404Y-52397000D01*
X181270019Y-52397000D01*
X181392689Y-52384918D01*
X181550087Y-52337172D01*
X181695146Y-52259636D01*
X181822291Y-52155291D01*
X181926636Y-52028146D01*
X182004172Y-51883087D01*
X182051918Y-51725689D01*
X182068040Y-51562000D01*
X182051918Y-51398311D01*
X182004172Y-51240913D01*
X181926636Y-51095854D01*
X181822291Y-50968709D01*
X181695146Y-50864364D01*
X181550087Y-50786828D01*
X181392689Y-50739082D01*
X181270019Y-50727000D01*
X180513404Y-50727000D01*
X180358729Y-50662932D01*
X180178089Y-50627000D01*
X179993911Y-50627000D01*
X179813271Y-50662932D01*
X179658596Y-50727000D01*
X174671404Y-50727000D01*
X174516729Y-50662932D01*
X174336089Y-50627000D01*
X174151911Y-50627000D01*
X173971271Y-50662932D01*
X173816596Y-50727000D01*
X168956404Y-50727000D01*
X168801729Y-50662932D01*
X168621089Y-50627000D01*
X168436911Y-50627000D01*
X168256271Y-50662932D01*
X168101596Y-50727000D01*
X163114404Y-50727000D01*
X162959729Y-50662932D01*
X162779089Y-50627000D01*
X162594911Y-50627000D01*
X162414271Y-50662932D01*
X162259596Y-50727000D01*
X157272404Y-50727000D01*
X157117729Y-50662932D01*
X156937089Y-50627000D01*
X156752911Y-50627000D01*
X156572271Y-50662932D01*
X156417596Y-50727000D01*
X151430404Y-50727000D01*
X151275729Y-50662932D01*
X151095089Y-50627000D01*
X150910911Y-50627000D01*
X150730271Y-50662932D01*
X150575596Y-50727000D01*
X145715404Y-50727000D01*
X145560729Y-50662932D01*
X145380089Y-50627000D01*
X145195911Y-50627000D01*
X145015271Y-50662932D01*
X144860596Y-50727000D01*
X139873404Y-50727000D01*
X139718729Y-50662932D01*
X139538089Y-50627000D01*
X139353911Y-50627000D01*
X139173271Y-50662932D01*
X139018596Y-50727000D01*
X134031404Y-50727000D01*
X133876729Y-50662932D01*
X133696089Y-50627000D01*
X133511911Y-50627000D01*
X133331271Y-50662932D01*
X133176596Y-50727000D01*
X128189404Y-50727000D01*
X128034729Y-50662932D01*
X127854089Y-50627000D01*
X127669911Y-50627000D01*
X127489271Y-50662932D01*
X127334596Y-50727000D01*
X122347404Y-50727000D01*
X122192729Y-50662932D01*
X122012089Y-50627000D01*
X121827911Y-50627000D01*
X121647271Y-50662932D01*
X121492596Y-50727000D01*
X116505404Y-50727000D01*
X116350729Y-50662932D01*
X116170089Y-50627000D01*
X115985911Y-50627000D01*
X115805271Y-50662932D01*
X115650596Y-50727000D01*
X110790404Y-50727000D01*
X110635729Y-50662932D01*
X110455089Y-50627000D01*
X110270911Y-50627000D01*
X110090271Y-50662932D01*
X109935596Y-50727000D01*
X104948404Y-50727000D01*
X104793729Y-50662932D01*
X104613089Y-50627000D01*
X104428911Y-50627000D01*
X104248271Y-50662932D01*
X104093596Y-50727000D01*
X99106404Y-50727000D01*
X98951729Y-50662932D01*
X98771089Y-50627000D01*
X98586911Y-50627000D01*
X98406271Y-50662932D01*
X98251596Y-50727000D01*
X93391404Y-50727000D01*
X93236729Y-50662932D01*
X93056089Y-50627000D01*
X92871911Y-50627000D01*
X92691271Y-50662932D01*
X92521111Y-50733414D01*
X92367972Y-50835738D01*
X92237738Y-50965972D01*
X92135414Y-51119111D01*
X92064932Y-51289271D01*
X92029000Y-51469911D01*
X87908254Y-51469911D01*
X87908197Y-46883753D01*
X87926547Y-46592081D01*
X90493524Y-46592081D01*
X90853712Y-47081748D01*
X91517682Y-47442049D01*
X92239185Y-47665894D01*
X92990495Y-47744680D01*
X93742738Y-47675378D01*
X94467008Y-47460652D01*
X95135470Y-47108755D01*
X95175888Y-47081748D01*
X95536076Y-46592081D01*
X175621924Y-46592081D01*
X175982112Y-47081748D01*
X176646082Y-47442049D01*
X177367585Y-47665894D01*
X178118895Y-47744680D01*
X178871138Y-47675378D01*
X179595408Y-47460652D01*
X180263870Y-47108755D01*
X180304288Y-47081748D01*
X180664476Y-46592081D01*
X178143200Y-44070805D01*
X175621924Y-46592081D01*
X95536076Y-46592081D01*
X93014800Y-44070805D01*
X90493524Y-46592081D01*
X87926547Y-46592081D01*
X87983407Y-45688316D01*
X88203957Y-44532150D01*
X88420112Y-43866895D01*
X89161320Y-43866895D01*
X89230622Y-44619138D01*
X89445348Y-45343408D01*
X89797245Y-46011870D01*
X89824252Y-46052288D01*
X90313919Y-46412476D01*
X92835195Y-43891200D01*
X93194405Y-43891200D01*
X95715681Y-46412476D01*
X96205348Y-46052288D01*
X96565649Y-45388318D01*
X96789494Y-44666815D01*
X96868280Y-43915505D01*
X96863802Y-43866895D01*
X174289720Y-43866895D01*
X174359022Y-44619138D01*
X174573748Y-45343408D01*
X174925645Y-46011870D01*
X174952652Y-46052288D01*
X175442319Y-46412476D01*
X177963595Y-43891200D01*
X178322805Y-43891200D01*
X180844081Y-46412476D01*
X181333748Y-46052288D01*
X181694049Y-45388318D01*
X181917894Y-44666815D01*
X181996680Y-43915505D01*
X181927378Y-43163262D01*
X181712652Y-42438992D01*
X181360755Y-41770530D01*
X181333748Y-41730112D01*
X180844081Y-41369924D01*
X178322805Y-43891200D01*
X177963595Y-43891200D01*
X175442319Y-41369924D01*
X174952652Y-41730112D01*
X174592351Y-42394082D01*
X174368506Y-43115585D01*
X174289720Y-43866895D01*
X96863802Y-43866895D01*
X96798978Y-43163262D01*
X96584252Y-42438992D01*
X96232355Y-41770530D01*
X96205348Y-41730112D01*
X95715681Y-41369924D01*
X93194405Y-43891200D01*
X92835195Y-43891200D01*
X90313919Y-41369924D01*
X89824252Y-41730112D01*
X89463951Y-42394082D01*
X89240106Y-43115585D01*
X89161320Y-43866895D01*
X88420112Y-43866895D01*
X88567671Y-43412757D01*
X89068815Y-42347769D01*
X89699487Y-41353987D01*
X89834884Y-41190319D01*
X90493524Y-41190319D01*
X93014800Y-43711595D01*
X95536076Y-41190319D01*
X175621924Y-41190319D01*
X178143200Y-43711595D01*
X180664476Y-41190319D01*
X180304288Y-40700652D01*
X179640318Y-40340351D01*
X178918815Y-40116506D01*
X178167505Y-40037720D01*
X177415262Y-40107022D01*
X176690992Y-40321748D01*
X176022530Y-40673645D01*
X175982112Y-40700652D01*
X175621924Y-41190319D01*
X95536076Y-41190319D01*
X95175888Y-40700652D01*
X94511918Y-40340351D01*
X93790415Y-40116506D01*
X93039105Y-40037720D01*
X92286862Y-40107022D01*
X91562592Y-40321748D01*
X90894130Y-40673645D01*
X90853712Y-40700652D01*
X90493524Y-41190319D01*
X89834884Y-41190319D01*
X90449741Y-40447085D01*
X91307748Y-39641364D01*
X92259969Y-38949535D01*
X93291389Y-38382508D01*
X94385739Y-37949225D01*
X95525768Y-37656515D01*
X96701741Y-37507955D01*
X97417281Y-37490001D01*
X174223246Y-37489197D01*
X175418684Y-37564407D01*
G37*
G04 #@! TD.AperFunction*
D25*
X104197471Y-84515868D02*
X104378111Y-84551800D01*
X104562289Y-84551800D01*
X104742929Y-84515868D01*
X104897604Y-84451800D01*
X109884796Y-84451800D01*
X110039471Y-84515868D01*
X110220111Y-84551800D01*
X110404289Y-84551800D01*
X110584929Y-84515868D01*
X110739604Y-84451800D01*
X115599796Y-84451800D01*
X115754471Y-84515868D01*
X115935111Y-84551800D01*
X116119289Y-84551800D01*
X116299929Y-84515868D01*
X116454604Y-84451800D01*
X121441796Y-84451800D01*
X121596471Y-84515868D01*
X121777111Y-84551800D01*
X121961289Y-84551800D01*
X122141929Y-84515868D01*
X122296604Y-84451800D01*
X125187332Y-84451800D01*
X124659050Y-84980082D01*
X124521889Y-84888434D01*
X124351729Y-84817952D01*
X124171089Y-84782020D01*
X123986911Y-84782020D01*
X123806271Y-84817952D01*
X123636111Y-84888434D01*
X123482972Y-84990758D01*
X123352738Y-85120992D01*
X123250414Y-85274131D01*
X123186346Y-85428806D01*
X113819153Y-94796000D01*
X109266404Y-94796000D01*
X109111729Y-94731932D01*
X108931089Y-94696000D01*
X108746911Y-94696000D01*
X108566271Y-94731932D01*
X108396111Y-94802414D01*
X108242972Y-94904738D01*
X108112738Y-95034972D01*
X108010414Y-95188111D01*
X107939932Y-95358271D01*
X107904000Y-95538911D01*
X107904000Y-95723089D01*
X107939932Y-95903729D01*
X108010414Y-96073889D01*
X108112738Y-96227028D01*
X108242972Y-96357262D01*
X108396111Y-96459586D01*
X108566271Y-96530068D01*
X108746911Y-96566000D01*
X108931089Y-96566000D01*
X109111729Y-96530068D01*
X109266404Y-96466000D01*
X114124002Y-96466000D01*
X114165020Y-96470040D01*
X114206038Y-96466000D01*
X114206039Y-96466000D01*
X114328709Y-96453918D01*
X114486107Y-96406172D01*
X114631166Y-96328636D01*
X114758311Y-96224291D01*
X114784466Y-96192421D01*
X121466001Y-89510887D01*
X121466000Y-96347000D01*
X121446911Y-96347000D01*
X121266271Y-96382932D01*
X121096111Y-96453414D01*
X120942972Y-96555738D01*
X120812738Y-96685972D01*
X120710414Y-96839111D01*
X120639932Y-97009271D01*
X120615847Y-97130351D01*
X119319199Y-98427000D01*
X118909535Y-98427000D01*
X118806889Y-98358414D01*
X118636729Y-98287932D01*
X118515649Y-98263847D01*
X118038803Y-97787002D01*
X118015001Y-97757999D01*
X117899276Y-97663026D01*
X117767247Y-97592454D01*
X117623986Y-97548997D01*
X117512333Y-97538000D01*
X117512322Y-97538000D01*
X117475000Y-97534324D01*
X117437678Y-97538000D01*
X105572868Y-97538000D01*
X106733433Y-96377436D01*
X106765291Y-96351291D01*
X106797537Y-96312000D01*
X106869636Y-96224146D01*
X106947172Y-96079087D01*
X106971068Y-96000313D01*
X106994918Y-95921689D01*
X107007000Y-95799019D01*
X107007000Y-95799018D01*
X107011040Y-95758000D01*
X107007000Y-95716982D01*
X107007000Y-89564818D01*
X107011040Y-89523799D01*
X106994918Y-89360111D01*
X106947172Y-89202713D01*
X106869636Y-89057654D01*
X106863474Y-89050146D01*
X106765291Y-88930509D01*
X106733427Y-88904359D01*
X102280867Y-84451800D01*
X104042796Y-84451800D01*
X104197471Y-84515868D01*
G04 #@! TA.AperFunction,Conductor*
D26*
G36*
X104197471Y-84515868D02*
G01*
X104378111Y-84551800D01*
X104562289Y-84551800D01*
X104742929Y-84515868D01*
X104897604Y-84451800D01*
X109884796Y-84451800D01*
X110039471Y-84515868D01*
X110220111Y-84551800D01*
X110404289Y-84551800D01*
X110584929Y-84515868D01*
X110739604Y-84451800D01*
X115599796Y-84451800D01*
X115754471Y-84515868D01*
X115935111Y-84551800D01*
X116119289Y-84551800D01*
X116299929Y-84515868D01*
X116454604Y-84451800D01*
X121441796Y-84451800D01*
X121596471Y-84515868D01*
X121777111Y-84551800D01*
X121961289Y-84551800D01*
X122141929Y-84515868D01*
X122296604Y-84451800D01*
X125187332Y-84451800D01*
X124659050Y-84980082D01*
X124521889Y-84888434D01*
X124351729Y-84817952D01*
X124171089Y-84782020D01*
X123986911Y-84782020D01*
X123806271Y-84817952D01*
X123636111Y-84888434D01*
X123482972Y-84990758D01*
X123352738Y-85120992D01*
X123250414Y-85274131D01*
X123186346Y-85428806D01*
X113819153Y-94796000D01*
X109266404Y-94796000D01*
X109111729Y-94731932D01*
X108931089Y-94696000D01*
X108746911Y-94696000D01*
X108566271Y-94731932D01*
X108396111Y-94802414D01*
X108242972Y-94904738D01*
X108112738Y-95034972D01*
X108010414Y-95188111D01*
X107939932Y-95358271D01*
X107904000Y-95538911D01*
X107904000Y-95723089D01*
X107939932Y-95903729D01*
X108010414Y-96073889D01*
X108112738Y-96227028D01*
X108242972Y-96357262D01*
X108396111Y-96459586D01*
X108566271Y-96530068D01*
X108746911Y-96566000D01*
X108931089Y-96566000D01*
X109111729Y-96530068D01*
X109266404Y-96466000D01*
X114124002Y-96466000D01*
X114165020Y-96470040D01*
X114206038Y-96466000D01*
X114206039Y-96466000D01*
X114328709Y-96453918D01*
X114486107Y-96406172D01*
X114631166Y-96328636D01*
X114758311Y-96224291D01*
X114784466Y-96192421D01*
X121466001Y-89510887D01*
X121466000Y-96347000D01*
X121446911Y-96347000D01*
X121266271Y-96382932D01*
X121096111Y-96453414D01*
X120942972Y-96555738D01*
X120812738Y-96685972D01*
X120710414Y-96839111D01*
X120639932Y-97009271D01*
X120615847Y-97130351D01*
X119319199Y-98427000D01*
X118909535Y-98427000D01*
X118806889Y-98358414D01*
X118636729Y-98287932D01*
X118515649Y-98263847D01*
X118038803Y-97787002D01*
X118015001Y-97757999D01*
X117899276Y-97663026D01*
X117767247Y-97592454D01*
X117623986Y-97548997D01*
X117512333Y-97538000D01*
X117512322Y-97538000D01*
X117475000Y-97534324D01*
X117437678Y-97538000D01*
X105572868Y-97538000D01*
X106733433Y-96377436D01*
X106765291Y-96351291D01*
X106797537Y-96312000D01*
X106869636Y-96224146D01*
X106947172Y-96079087D01*
X106971068Y-96000313D01*
X106994918Y-95921689D01*
X107007000Y-95799019D01*
X107007000Y-95799018D01*
X107011040Y-95758000D01*
X107007000Y-95716982D01*
X107007000Y-89564818D01*
X107011040Y-89523799D01*
X106994918Y-89360111D01*
X106947172Y-89202713D01*
X106869636Y-89057654D01*
X106863474Y-89050146D01*
X106765291Y-88930509D01*
X106733427Y-88904359D01*
X102280867Y-84451800D01*
X104042796Y-84451800D01*
X104197471Y-84515868D01*
G37*
G04 #@! TD.AperFunction*
G04 #@! TD*
M02*
