G04 #@! TF.GenerationSoftware,KiCad,Pcbnew,(5.1.9)-1*
G04 #@! TF.CreationDate,2021-03-27T19:24:17-07:00*
G04 #@! TF.ProjectId,attiny_audio_spectrum_bar_graph,61747469-6e79-45f6-9175-64696f5f7370,rev?*
G04 #@! TF.SameCoordinates,Original*
G04 #@! TF.FileFunction,Legend,Top*
G04 #@! TF.FilePolarity,Positive*
%FSLAX46Y46*%
G04 Gerber Fmt 4.6, Leading zero omitted, Abs format (unit mm)*
G04 Created by KiCad (PCBNEW (5.1.9)-1) date 2021-03-27 19:24:17*
%MOMM*%
%LPD*%
G01*
G04 APERTURE LIST*
%ADD10C,0.150000*%
%ADD11C,0.010000*%
%ADD12C,0.120000*%
G04 APERTURE END LIST*
D10*
X168124297Y-110689000D02*
X168029059Y-110641380D01*
X167886202Y-110641380D01*
X167743345Y-110689000D01*
X167648107Y-110784238D01*
X167600488Y-110879476D01*
X167552869Y-111069952D01*
X167552869Y-111212809D01*
X167600488Y-111403285D01*
X167648107Y-111498523D01*
X167743345Y-111593761D01*
X167886202Y-111641380D01*
X167981440Y-111641380D01*
X168124297Y-111593761D01*
X168171916Y-111546142D01*
X168171916Y-111212809D01*
X167981440Y-111212809D01*
X169029059Y-111641380D02*
X169029059Y-111117571D01*
X168981440Y-111022333D01*
X168886202Y-110974714D01*
X168695726Y-110974714D01*
X168600488Y-111022333D01*
X169029059Y-111593761D02*
X168933821Y-111641380D01*
X168695726Y-111641380D01*
X168600488Y-111593761D01*
X168552869Y-111498523D01*
X168552869Y-111403285D01*
X168600488Y-111308047D01*
X168695726Y-111260428D01*
X168933821Y-111260428D01*
X169029059Y-111212809D01*
X169505250Y-111641380D02*
X169505250Y-110974714D01*
X169505250Y-110641380D02*
X169457630Y-110689000D01*
X169505250Y-110736619D01*
X169552869Y-110689000D01*
X169505250Y-110641380D01*
X169505250Y-110736619D01*
X169981440Y-110974714D02*
X169981440Y-111641380D01*
X169981440Y-111069952D02*
X170029059Y-111022333D01*
X170124297Y-110974714D01*
X170267154Y-110974714D01*
X170362392Y-111022333D01*
X170410011Y-111117571D01*
X170410011Y-111641380D01*
X166933821Y-113005666D02*
X167410011Y-113005666D01*
X166838583Y-113291380D02*
X167171916Y-112291380D01*
X167505250Y-113291380D01*
X168267154Y-113291380D02*
X168267154Y-112291380D01*
X168267154Y-113243761D02*
X168171916Y-113291380D01*
X167981440Y-113291380D01*
X167886202Y-113243761D01*
X167838583Y-113196142D01*
X167790964Y-113100904D01*
X167790964Y-112815190D01*
X167838583Y-112719952D01*
X167886202Y-112672333D01*
X167981440Y-112624714D01*
X168171916Y-112624714D01*
X168267154Y-112672333D01*
X168743345Y-112624714D02*
X168743345Y-113481857D01*
X168695726Y-113577095D01*
X168600488Y-113624714D01*
X168552869Y-113624714D01*
X168743345Y-112291380D02*
X168695726Y-112339000D01*
X168743345Y-112386619D01*
X168790964Y-112339000D01*
X168743345Y-112291380D01*
X168743345Y-112386619D01*
X169648107Y-112624714D02*
X169648107Y-113291380D01*
X169219535Y-112624714D02*
X169219535Y-113148523D01*
X169267154Y-113243761D01*
X169362392Y-113291380D01*
X169505250Y-113291380D01*
X169600488Y-113243761D01*
X169648107Y-113196142D01*
X170076678Y-113243761D02*
X170171916Y-113291380D01*
X170362392Y-113291380D01*
X170457630Y-113243761D01*
X170505250Y-113148523D01*
X170505250Y-113100904D01*
X170457630Y-113005666D01*
X170362392Y-112958047D01*
X170219535Y-112958047D01*
X170124297Y-112910428D01*
X170076678Y-112815190D01*
X170076678Y-112767571D01*
X170124297Y-112672333D01*
X170219535Y-112624714D01*
X170362392Y-112624714D01*
X170457630Y-112672333D01*
X170790964Y-112624714D02*
X171171916Y-112624714D01*
X170933821Y-112291380D02*
X170933821Y-113148523D01*
X170981440Y-113243761D01*
X171076678Y-113291380D01*
X171171916Y-113291380D01*
X138850904Y-118660880D02*
X138850904Y-117660880D01*
X139184238Y-118375166D01*
X139517571Y-117660880D01*
X139517571Y-118660880D01*
X140565190Y-118565642D02*
X140517571Y-118613261D01*
X140374714Y-118660880D01*
X140279476Y-118660880D01*
X140136619Y-118613261D01*
X140041380Y-118518023D01*
X139993761Y-118422785D01*
X139946142Y-118232309D01*
X139946142Y-118089452D01*
X139993761Y-117898976D01*
X140041380Y-117803738D01*
X140136619Y-117708500D01*
X140279476Y-117660880D01*
X140374714Y-117660880D01*
X140517571Y-117708500D01*
X140565190Y-117756119D01*
X140993761Y-117660880D02*
X140993761Y-118470404D01*
X141041380Y-118565642D01*
X141089000Y-118613261D01*
X141184238Y-118660880D01*
X141374714Y-118660880D01*
X141469952Y-118613261D01*
X141517571Y-118565642D01*
X141565190Y-118470404D01*
X141565190Y-117660880D01*
X140422333Y-120310880D02*
X140089000Y-119834690D01*
X139850904Y-120310880D02*
X139850904Y-119310880D01*
X140231857Y-119310880D01*
X140327095Y-119358500D01*
X140374714Y-119406119D01*
X140422333Y-119501357D01*
X140422333Y-119644214D01*
X140374714Y-119739452D01*
X140327095Y-119787071D01*
X140231857Y-119834690D01*
X139850904Y-119834690D01*
X140755666Y-119310880D02*
X141422333Y-120310880D01*
X141422333Y-119310880D02*
X140755666Y-120310880D01*
X128690904Y-118660880D02*
X128690904Y-117660880D01*
X129024238Y-118375166D01*
X129357571Y-117660880D01*
X129357571Y-118660880D01*
X130405190Y-118565642D02*
X130357571Y-118613261D01*
X130214714Y-118660880D01*
X130119476Y-118660880D01*
X129976619Y-118613261D01*
X129881380Y-118518023D01*
X129833761Y-118422785D01*
X129786142Y-118232309D01*
X129786142Y-118089452D01*
X129833761Y-117898976D01*
X129881380Y-117803738D01*
X129976619Y-117708500D01*
X130119476Y-117660880D01*
X130214714Y-117660880D01*
X130357571Y-117708500D01*
X130405190Y-117756119D01*
X130833761Y-117660880D02*
X130833761Y-118470404D01*
X130881380Y-118565642D01*
X130929000Y-118613261D01*
X131024238Y-118660880D01*
X131214714Y-118660880D01*
X131309952Y-118613261D01*
X131357571Y-118565642D01*
X131405190Y-118470404D01*
X131405190Y-117660880D01*
X129667095Y-119310880D02*
X130238523Y-119310880D01*
X129952809Y-120310880D02*
X129952809Y-119310880D01*
X130476619Y-119310880D02*
X131143285Y-120310880D01*
X131143285Y-119310880D02*
X130476619Y-120310880D01*
X102500180Y-103501247D02*
X103214466Y-103501247D01*
X103357323Y-103548866D01*
X103452561Y-103644104D01*
X103500180Y-103786961D01*
X103500180Y-103882200D01*
X103500180Y-102548866D02*
X103500180Y-103025057D01*
X102500180Y-103025057D01*
X103404942Y-101644104D02*
X103452561Y-101691723D01*
X103500180Y-101834580D01*
X103500180Y-101929819D01*
X103452561Y-102072676D01*
X103357323Y-102167914D01*
X103262085Y-102215533D01*
X103071609Y-102263152D01*
X102928752Y-102263152D01*
X102738276Y-102215533D01*
X102643038Y-102167914D01*
X102547800Y-102072676D01*
X102500180Y-101929819D01*
X102500180Y-101834580D01*
X102547800Y-101691723D01*
X102595419Y-101644104D01*
X102500180Y-100929819D02*
X103214466Y-100929819D01*
X103357323Y-100977438D01*
X103452561Y-101072676D01*
X103500180Y-101215533D01*
X103500180Y-101310771D01*
X103500180Y-99977438D02*
X103500180Y-100453628D01*
X102500180Y-100453628D01*
X103404942Y-99072676D02*
X103452561Y-99120295D01*
X103500180Y-99263152D01*
X103500180Y-99358390D01*
X103452561Y-99501247D01*
X103357323Y-99596485D01*
X103262085Y-99644104D01*
X103071609Y-99691723D01*
X102928752Y-99691723D01*
X102738276Y-99644104D01*
X102643038Y-99596485D01*
X102547800Y-99501247D01*
X102500180Y-99358390D01*
X102500180Y-99263152D01*
X102547800Y-99120295D01*
X102595419Y-99072676D01*
X102500180Y-98358390D02*
X103214466Y-98358390D01*
X103357323Y-98406009D01*
X103452561Y-98501247D01*
X103500180Y-98644104D01*
X103500180Y-98739342D01*
X103500180Y-97406009D02*
X103500180Y-97882200D01*
X102500180Y-97882200D01*
X103404942Y-96501247D02*
X103452561Y-96548866D01*
X103500180Y-96691723D01*
X103500180Y-96786961D01*
X103452561Y-96929819D01*
X103357323Y-97025057D01*
X103262085Y-97072676D01*
X103071609Y-97120295D01*
X102928752Y-97120295D01*
X102738276Y-97072676D01*
X102643038Y-97025057D01*
X102547800Y-96929819D01*
X102500180Y-96786961D01*
X102500180Y-96691723D01*
X102547800Y-96548866D01*
X102595419Y-96501247D01*
X102500180Y-95786961D02*
X103214466Y-95786961D01*
X103357323Y-95834580D01*
X103452561Y-95929819D01*
X103500180Y-96072676D01*
X103500180Y-96167914D01*
X103500180Y-94834580D02*
X103500180Y-95310771D01*
X102500180Y-95310771D01*
X103404942Y-93929819D02*
X103452561Y-93977438D01*
X103500180Y-94120295D01*
X103500180Y-94215533D01*
X103452561Y-94358390D01*
X103357323Y-94453628D01*
X103262085Y-94501247D01*
X103071609Y-94548866D01*
X102928752Y-94548866D01*
X102738276Y-94501247D01*
X102643038Y-94453628D01*
X102547800Y-94358390D01*
X102500180Y-94215533D01*
X102500180Y-94120295D01*
X102547800Y-93977438D01*
X102595419Y-93929819D01*
X148247143Y-47129000D02*
X148104286Y-47057571D01*
X147890000Y-47057571D01*
X147675714Y-47129000D01*
X147532857Y-47271857D01*
X147461428Y-47414714D01*
X147390000Y-47700428D01*
X147390000Y-47914714D01*
X147461428Y-48200428D01*
X147532857Y-48343285D01*
X147675714Y-48486142D01*
X147890000Y-48557571D01*
X148032857Y-48557571D01*
X148247143Y-48486142D01*
X148318571Y-48414714D01*
X148318571Y-47914714D01*
X148032857Y-47914714D01*
X149604286Y-48557571D02*
X149604286Y-47771857D01*
X149532857Y-47629000D01*
X149390000Y-47557571D01*
X149104286Y-47557571D01*
X148961428Y-47629000D01*
X149604286Y-48486142D02*
X149461428Y-48557571D01*
X149104286Y-48557571D01*
X148961428Y-48486142D01*
X148890000Y-48343285D01*
X148890000Y-48200428D01*
X148961428Y-48057571D01*
X149104286Y-47986142D01*
X149461428Y-47986142D01*
X149604286Y-47914714D01*
X150318571Y-48557571D02*
X150318571Y-47057571D01*
X150318571Y-47629000D02*
X150461428Y-47557571D01*
X150747143Y-47557571D01*
X150890000Y-47629000D01*
X150961428Y-47700428D01*
X151032857Y-47843285D01*
X151032857Y-48271857D01*
X150961428Y-48414714D01*
X150890000Y-48486142D01*
X150747143Y-48557571D01*
X150461428Y-48557571D01*
X150318571Y-48486142D01*
X152247143Y-48486142D02*
X152104286Y-48557571D01*
X151818571Y-48557571D01*
X151675714Y-48486142D01*
X151604286Y-48343285D01*
X151604286Y-47771857D01*
X151675714Y-47629000D01*
X151818571Y-47557571D01*
X152104286Y-47557571D01*
X152247143Y-47629000D01*
X152318571Y-47771857D01*
X152318571Y-47914714D01*
X151604286Y-48057571D01*
X154104286Y-48557571D02*
X154104286Y-47057571D01*
X154961428Y-48557571D02*
X154318571Y-47700428D01*
X154961428Y-47057571D02*
X154104286Y-47914714D01*
X155604286Y-48557571D02*
X155604286Y-47557571D01*
X155604286Y-47843285D02*
X155675714Y-47700428D01*
X155747143Y-47629000D01*
X155890000Y-47557571D01*
X156032857Y-47557571D01*
X157175714Y-47557571D02*
X157175714Y-48557571D01*
X156532857Y-47557571D02*
X156532857Y-48343285D01*
X156604286Y-48486142D01*
X156747143Y-48557571D01*
X156961428Y-48557571D01*
X157104286Y-48486142D01*
X157175714Y-48414714D01*
X158532857Y-47557571D02*
X158532857Y-48771857D01*
X158461428Y-48914714D01*
X158390000Y-48986142D01*
X158247143Y-49057571D01*
X158032857Y-49057571D01*
X157890000Y-48986142D01*
X158532857Y-48486142D02*
X158390000Y-48557571D01*
X158104286Y-48557571D01*
X157961428Y-48486142D01*
X157890000Y-48414714D01*
X157818571Y-48271857D01*
X157818571Y-47843285D01*
X157890000Y-47700428D01*
X157961428Y-47629000D01*
X158104286Y-47557571D01*
X158390000Y-47557571D01*
X158532857Y-47629000D01*
X159461428Y-48557571D02*
X159318571Y-48486142D01*
X159247143Y-48343285D01*
X159247143Y-47057571D01*
X160032857Y-48557571D02*
X160032857Y-47557571D01*
X160032857Y-47057571D02*
X159961428Y-47129000D01*
X160032857Y-47200428D01*
X160104286Y-47129000D01*
X160032857Y-47057571D01*
X160032857Y-47200428D01*
X160747143Y-48557571D02*
X160747143Y-47057571D01*
X160890000Y-47986142D02*
X161318571Y-48557571D01*
X161318571Y-47557571D02*
X160747143Y-48129000D01*
X162175714Y-48557571D02*
X162032857Y-48486142D01*
X161961428Y-48414714D01*
X161890000Y-48271857D01*
X161890000Y-47843285D01*
X161961428Y-47700428D01*
X162032857Y-47629000D01*
X162175714Y-47557571D01*
X162390000Y-47557571D01*
X162532857Y-47629000D01*
X162604286Y-47700428D01*
X162675714Y-47843285D01*
X162675714Y-48271857D01*
X162604286Y-48414714D01*
X162532857Y-48486142D01*
X162390000Y-48557571D01*
X162175714Y-48557571D01*
X163175714Y-47557571D02*
X163532857Y-48557571D01*
X163890000Y-47557571D01*
X107476499Y-42868000D02*
X108762213Y-42868000D01*
X107219356Y-43639428D02*
X108119356Y-40939428D01*
X109019356Y-43639428D01*
X111076499Y-41839428D02*
X111076499Y-43639428D01*
X109919356Y-41839428D02*
X109919356Y-43253714D01*
X110047927Y-43510857D01*
X110305070Y-43639428D01*
X110690784Y-43639428D01*
X110947927Y-43510857D01*
X111076499Y-43382285D01*
X113519356Y-43639428D02*
X113519356Y-40939428D01*
X113519356Y-43510857D02*
X113262213Y-43639428D01*
X112747927Y-43639428D01*
X112490784Y-43510857D01*
X112362213Y-43382285D01*
X112233641Y-43125142D01*
X112233641Y-42353714D01*
X112362213Y-42096571D01*
X112490784Y-41968000D01*
X112747927Y-41839428D01*
X113262213Y-41839428D01*
X113519356Y-41968000D01*
X114805070Y-43639428D02*
X114805070Y-41839428D01*
X114805070Y-40939428D02*
X114676499Y-41068000D01*
X114805070Y-41196571D01*
X114933641Y-41068000D01*
X114805070Y-40939428D01*
X114805070Y-41196571D01*
X116476499Y-43639428D02*
X116219356Y-43510857D01*
X116090784Y-43382285D01*
X115962213Y-43125142D01*
X115962213Y-42353714D01*
X116090784Y-42096571D01*
X116219356Y-41968000D01*
X116476499Y-41839428D01*
X116862213Y-41839428D01*
X117119356Y-41968000D01*
X117247927Y-42096571D01*
X117376499Y-42353714D01*
X117376499Y-43125142D01*
X117247927Y-43382285D01*
X117119356Y-43510857D01*
X116862213Y-43639428D01*
X116476499Y-43639428D01*
X120462213Y-43510857D02*
X120847927Y-43639428D01*
X121490784Y-43639428D01*
X121747927Y-43510857D01*
X121876499Y-43382285D01*
X122005070Y-43125142D01*
X122005070Y-42868000D01*
X121876499Y-42610857D01*
X121747927Y-42482285D01*
X121490784Y-42353714D01*
X120976499Y-42225142D01*
X120719356Y-42096571D01*
X120590784Y-41968000D01*
X120462213Y-41710857D01*
X120462213Y-41453714D01*
X120590784Y-41196571D01*
X120719356Y-41068000D01*
X120976499Y-40939428D01*
X121619356Y-40939428D01*
X122005070Y-41068000D01*
X123162213Y-41839428D02*
X123162213Y-44539428D01*
X123162213Y-41968000D02*
X123419356Y-41839428D01*
X123933641Y-41839428D01*
X124190784Y-41968000D01*
X124319356Y-42096571D01*
X124447927Y-42353714D01*
X124447927Y-43125142D01*
X124319356Y-43382285D01*
X124190784Y-43510857D01*
X123933641Y-43639428D01*
X123419356Y-43639428D01*
X123162213Y-43510857D01*
X126633641Y-43510857D02*
X126376499Y-43639428D01*
X125862213Y-43639428D01*
X125605070Y-43510857D01*
X125476499Y-43253714D01*
X125476499Y-42225142D01*
X125605070Y-41968000D01*
X125862213Y-41839428D01*
X126376499Y-41839428D01*
X126633641Y-41968000D01*
X126762213Y-42225142D01*
X126762213Y-42482285D01*
X125476499Y-42739428D01*
X129076499Y-43510857D02*
X128819356Y-43639428D01*
X128305070Y-43639428D01*
X128047927Y-43510857D01*
X127919356Y-43382285D01*
X127790784Y-43125142D01*
X127790784Y-42353714D01*
X127919356Y-42096571D01*
X128047927Y-41968000D01*
X128305070Y-41839428D01*
X128819356Y-41839428D01*
X129076499Y-41968000D01*
X129847927Y-41839428D02*
X130876499Y-41839428D01*
X130233641Y-40939428D02*
X130233641Y-43253714D01*
X130362213Y-43510857D01*
X130619356Y-43639428D01*
X130876499Y-43639428D01*
X131776499Y-43639428D02*
X131776499Y-41839428D01*
X131776499Y-42353714D02*
X131905070Y-42096571D01*
X132033641Y-41968000D01*
X132290784Y-41839428D01*
X132547927Y-41839428D01*
X134605070Y-41839428D02*
X134605070Y-43639428D01*
X133447927Y-41839428D02*
X133447927Y-43253714D01*
X133576499Y-43510857D01*
X133833641Y-43639428D01*
X134219356Y-43639428D01*
X134476499Y-43510857D01*
X134605070Y-43382285D01*
X135890784Y-43639428D02*
X135890784Y-41839428D01*
X135890784Y-42096571D02*
X136019356Y-41968000D01*
X136276499Y-41839428D01*
X136662213Y-41839428D01*
X136919356Y-41968000D01*
X137047927Y-42225142D01*
X137047927Y-43639428D01*
X137047927Y-42225142D02*
X137176499Y-41968000D01*
X137433641Y-41839428D01*
X137819356Y-41839428D01*
X138076499Y-41968000D01*
X138205070Y-42225142D01*
X138205070Y-43639428D01*
X141419356Y-42868000D02*
X142705070Y-42868000D01*
X141162213Y-43639428D02*
X142062213Y-40939428D01*
X142962213Y-43639428D01*
X143862213Y-41839428D02*
X143862213Y-43639428D01*
X143862213Y-42096571D02*
X143990784Y-41968000D01*
X144247927Y-41839428D01*
X144633641Y-41839428D01*
X144890784Y-41968000D01*
X145019356Y-42225142D01*
X145019356Y-43639428D01*
X147462213Y-43639428D02*
X147462213Y-42225142D01*
X147333641Y-41968000D01*
X147076499Y-41839428D01*
X146562213Y-41839428D01*
X146305070Y-41968000D01*
X147462213Y-43510857D02*
X147205070Y-43639428D01*
X146562213Y-43639428D01*
X146305070Y-43510857D01*
X146176499Y-43253714D01*
X146176499Y-42996571D01*
X146305070Y-42739428D01*
X146562213Y-42610857D01*
X147205070Y-42610857D01*
X147462213Y-42482285D01*
X149133641Y-43639428D02*
X148876499Y-43510857D01*
X148747927Y-43253714D01*
X148747927Y-40939428D01*
X149905070Y-41839428D02*
X150547927Y-43639428D01*
X151190784Y-41839428D02*
X150547927Y-43639428D01*
X150290784Y-44282285D01*
X150162213Y-44410857D01*
X149905070Y-44539428D01*
X151962213Y-41839428D02*
X153376499Y-41839428D01*
X151962213Y-43639428D01*
X153376499Y-43639428D01*
X155433641Y-43510857D02*
X155176499Y-43639428D01*
X154662213Y-43639428D01*
X154405070Y-43510857D01*
X154276499Y-43253714D01*
X154276499Y-42225142D01*
X154405070Y-41968000D01*
X154662213Y-41839428D01*
X155176499Y-41839428D01*
X155433641Y-41968000D01*
X155562213Y-42225142D01*
X155562213Y-42482285D01*
X154276499Y-42739428D01*
X156719356Y-43639428D02*
X156719356Y-41839428D01*
X156719356Y-42353714D02*
X156847927Y-42096571D01*
X156976499Y-41968000D01*
X157233641Y-41839428D01*
X157490784Y-41839428D01*
X160062213Y-40939428D02*
X160962213Y-43639428D01*
X161862213Y-40939428D01*
X162633641Y-41196571D02*
X162762213Y-41068000D01*
X163019356Y-40939428D01*
X163662213Y-40939428D01*
X163919356Y-41068000D01*
X164047927Y-41196571D01*
X164176499Y-41453714D01*
X164176499Y-41710857D01*
X164047927Y-42096571D01*
X162505070Y-43639428D01*
X164176499Y-43639428D01*
X122574880Y-114236476D02*
X122574880Y-114712666D01*
X123051071Y-114760285D01*
X123003452Y-114712666D01*
X122955833Y-114617428D01*
X122955833Y-114379333D01*
X123003452Y-114284095D01*
X123051071Y-114236476D01*
X123146309Y-114188857D01*
X123384404Y-114188857D01*
X123479642Y-114236476D01*
X123527261Y-114284095D01*
X123574880Y-114379333D01*
X123574880Y-114617428D01*
X123527261Y-114712666D01*
X123479642Y-114760285D01*
X122574880Y-113903142D02*
X123574880Y-113569809D01*
X122574880Y-113236476D01*
X120034880Y-115823809D02*
X120844404Y-115823809D01*
X120939642Y-115776190D01*
X120987261Y-115728571D01*
X121034880Y-115633333D01*
X121034880Y-115442857D01*
X120987261Y-115347619D01*
X120939642Y-115300000D01*
X120844404Y-115252380D01*
X120034880Y-115252380D01*
X121034880Y-114776190D02*
X120034880Y-114776190D01*
X120034880Y-114395238D01*
X120082500Y-114300000D01*
X120130119Y-114252380D01*
X120225357Y-114204761D01*
X120368214Y-114204761D01*
X120463452Y-114252380D01*
X120511071Y-114300000D01*
X120558690Y-114395238D01*
X120558690Y-114776190D01*
X121034880Y-113776190D02*
X120034880Y-113776190D01*
X120034880Y-113538095D01*
X120082500Y-113395238D01*
X120177738Y-113300000D01*
X120272976Y-113252380D01*
X120463452Y-113204761D01*
X120606309Y-113204761D01*
X120796785Y-113252380D01*
X120892023Y-113300000D01*
X120987261Y-113395238D01*
X121034880Y-113538095D01*
X121034880Y-113776190D01*
X121034880Y-112776190D02*
X120034880Y-112776190D01*
X117542500Y-115188904D02*
X117494880Y-115284142D01*
X117494880Y-115427000D01*
X117542500Y-115569857D01*
X117637738Y-115665095D01*
X117732976Y-115712714D01*
X117923452Y-115760333D01*
X118066309Y-115760333D01*
X118256785Y-115712714D01*
X118352023Y-115665095D01*
X118447261Y-115569857D01*
X118494880Y-115427000D01*
X118494880Y-115331761D01*
X118447261Y-115188904D01*
X118399642Y-115141285D01*
X118066309Y-115141285D01*
X118066309Y-115331761D01*
X118494880Y-114712714D02*
X117494880Y-114712714D01*
X118494880Y-114141285D01*
X117494880Y-114141285D01*
X118494880Y-113665095D02*
X117494880Y-113665095D01*
X117494880Y-113427000D01*
X117542500Y-113284142D01*
X117637738Y-113188904D01*
X117732976Y-113141285D01*
X117923452Y-113093666D01*
X118066309Y-113093666D01*
X118256785Y-113141285D01*
X118352023Y-113188904D01*
X118447261Y-113284142D01*
X118494880Y-113427000D01*
X118494880Y-113665095D01*
D11*
G04 #@! TO.C,G\u002A\u002A\u002A*
G36*
X151740849Y-116754915D02*
G01*
X151892654Y-116896210D01*
X151982422Y-117140966D01*
X151989962Y-117185202D01*
X152002468Y-117483216D01*
X151954497Y-117738835D01*
X151859174Y-117937105D01*
X151729627Y-118063070D01*
X151578983Y-118101774D01*
X151420367Y-118038262D01*
X151325108Y-117942686D01*
X151237460Y-117783563D01*
X151198856Y-117570845D01*
X151194436Y-117418811D01*
X151199942Y-117350575D01*
X151388471Y-117350575D01*
X151391380Y-117593912D01*
X151420819Y-117803723D01*
X151478167Y-117940314D01*
X151485777Y-117948706D01*
X151576155Y-118020284D01*
X151649835Y-117995616D01*
X151694696Y-117953517D01*
X151753575Y-117852045D01*
X151786058Y-117677760D01*
X151796704Y-117405070D01*
X151796750Y-117380657D01*
X151782106Y-117064969D01*
X151736440Y-116867657D01*
X151657151Y-116783313D01*
X151541637Y-116806536D01*
X151525127Y-116816351D01*
X151456724Y-116922101D01*
X151410712Y-117113407D01*
X151388471Y-117350575D01*
X151199942Y-117350575D01*
X151221091Y-117088515D01*
X151301450Y-116867485D01*
X151439155Y-116748268D01*
X151533961Y-116724115D01*
X151740849Y-116754915D01*
G37*
X151740849Y-116754915D02*
X151892654Y-116896210D01*
X151982422Y-117140966D01*
X151989962Y-117185202D01*
X152002468Y-117483216D01*
X151954497Y-117738835D01*
X151859174Y-117937105D01*
X151729627Y-118063070D01*
X151578983Y-118101774D01*
X151420367Y-118038262D01*
X151325108Y-117942686D01*
X151237460Y-117783563D01*
X151198856Y-117570845D01*
X151194436Y-117418811D01*
X151199942Y-117350575D01*
X151388471Y-117350575D01*
X151391380Y-117593912D01*
X151420819Y-117803723D01*
X151478167Y-117940314D01*
X151485777Y-117948706D01*
X151576155Y-118020284D01*
X151649835Y-117995616D01*
X151694696Y-117953517D01*
X151753575Y-117852045D01*
X151786058Y-117677760D01*
X151796704Y-117405070D01*
X151796750Y-117380657D01*
X151782106Y-117064969D01*
X151736440Y-116867657D01*
X151657151Y-116783313D01*
X151541637Y-116806536D01*
X151525127Y-116816351D01*
X151456724Y-116922101D01*
X151410712Y-117113407D01*
X151388471Y-117350575D01*
X151199942Y-117350575D01*
X151221091Y-117088515D01*
X151301450Y-116867485D01*
X151439155Y-116748268D01*
X151533961Y-116724115D01*
X151740849Y-116754915D01*
G36*
X149311353Y-117180515D02*
G01*
X149465149Y-117225089D01*
X149522767Y-117327473D01*
X149498595Y-117505221D01*
X149447490Y-117664817D01*
X149396263Y-117859432D01*
X149399447Y-117966235D01*
X149443729Y-117974311D01*
X149515792Y-117872748D01*
X149564524Y-117760750D01*
X149618294Y-117729273D01*
X149634201Y-117739436D01*
X149654727Y-117827693D01*
X149593135Y-117933351D01*
X149481638Y-118018517D01*
X149373154Y-118046500D01*
X149267472Y-118036247D01*
X149229940Y-117981207D01*
X149241280Y-117844957D01*
X149247125Y-117808375D01*
X149284977Y-117596504D01*
X149324089Y-117405667D01*
X149326389Y-117395625D01*
X149338958Y-117265765D01*
X149286199Y-117221914D01*
X149268761Y-117221000D01*
X149143018Y-117277853D01*
X149018597Y-117425688D01*
X148918880Y-117630419D01*
X148875434Y-117794369D01*
X148820412Y-117979829D01*
X148739607Y-118046393D01*
X148735762Y-118046500D01*
X148668961Y-118010813D01*
X148678704Y-117903625D01*
X148711384Y-117751123D01*
X148744476Y-117543453D01*
X148753367Y-117475000D01*
X148772130Y-117304319D01*
X148767206Y-117244701D01*
X148730869Y-117281217D01*
X148687650Y-117348000D01*
X148587287Y-117506750D01*
X148604518Y-117348000D01*
X148622197Y-117263192D01*
X148671726Y-117214247D01*
X148782543Y-117189735D01*
X148984085Y-117178225D01*
X149046991Y-117176197D01*
X149311353Y-117180515D01*
G37*
X149311353Y-117180515D02*
X149465149Y-117225089D01*
X149522767Y-117327473D01*
X149498595Y-117505221D01*
X149447490Y-117664817D01*
X149396263Y-117859432D01*
X149399447Y-117966235D01*
X149443729Y-117974311D01*
X149515792Y-117872748D01*
X149564524Y-117760750D01*
X149618294Y-117729273D01*
X149634201Y-117739436D01*
X149654727Y-117827693D01*
X149593135Y-117933351D01*
X149481638Y-118018517D01*
X149373154Y-118046500D01*
X149267472Y-118036247D01*
X149229940Y-117981207D01*
X149241280Y-117844957D01*
X149247125Y-117808375D01*
X149284977Y-117596504D01*
X149324089Y-117405667D01*
X149326389Y-117395625D01*
X149338958Y-117265765D01*
X149286199Y-117221914D01*
X149268761Y-117221000D01*
X149143018Y-117277853D01*
X149018597Y-117425688D01*
X148918880Y-117630419D01*
X148875434Y-117794369D01*
X148820412Y-117979829D01*
X148739607Y-118046393D01*
X148735762Y-118046500D01*
X148668961Y-118010813D01*
X148678704Y-117903625D01*
X148711384Y-117751123D01*
X148744476Y-117543453D01*
X148753367Y-117475000D01*
X148772130Y-117304319D01*
X148767206Y-117244701D01*
X148730869Y-117281217D01*
X148687650Y-117348000D01*
X148587287Y-117506750D01*
X148604518Y-117348000D01*
X148622197Y-117263192D01*
X148671726Y-117214247D01*
X148782543Y-117189735D01*
X148984085Y-117178225D01*
X149046991Y-117176197D01*
X149311353Y-117180515D01*
G36*
X150722969Y-117671089D02*
G01*
X150935826Y-117687414D01*
X151031680Y-117713811D01*
X151034750Y-117729000D01*
X150957844Y-117756725D01*
X150783965Y-117778282D01*
X150543099Y-117790674D01*
X150399750Y-117792500D01*
X150135696Y-117786129D01*
X149922866Y-117769015D01*
X149791248Y-117744158D01*
X149764750Y-117729000D01*
X149805083Y-117698234D01*
X149965447Y-117677237D01*
X150239199Y-117666673D01*
X150399750Y-117665500D01*
X150722969Y-117671089D01*
G37*
X150722969Y-117671089D02*
X150935826Y-117687414D01*
X151031680Y-117713811D01*
X151034750Y-117729000D01*
X150957844Y-117756725D01*
X150783965Y-117778282D01*
X150543099Y-117790674D01*
X150399750Y-117792500D01*
X150135696Y-117786129D01*
X149922866Y-117769015D01*
X149791248Y-117744158D01*
X149764750Y-117729000D01*
X149805083Y-117698234D01*
X149965447Y-117677237D01*
X150239199Y-117666673D01*
X150399750Y-117665500D01*
X150722969Y-117671089D01*
G36*
X150722969Y-117290089D02*
G01*
X150935826Y-117306414D01*
X151031680Y-117332811D01*
X151034750Y-117348000D01*
X150957844Y-117375725D01*
X150783965Y-117397282D01*
X150543099Y-117409674D01*
X150399750Y-117411500D01*
X150135696Y-117405129D01*
X149922866Y-117388015D01*
X149791248Y-117363158D01*
X149764750Y-117348000D01*
X149805083Y-117317234D01*
X149965447Y-117296237D01*
X150239199Y-117285673D01*
X150399750Y-117284500D01*
X150722969Y-117290089D01*
G37*
X150722969Y-117290089D02*
X150935826Y-117306414D01*
X151031680Y-117332811D01*
X151034750Y-117348000D01*
X150957844Y-117375725D01*
X150783965Y-117397282D01*
X150543099Y-117409674D01*
X150399750Y-117411500D01*
X150135696Y-117405129D01*
X149922866Y-117388015D01*
X149791248Y-117363158D01*
X149764750Y-117348000D01*
X149805083Y-117317234D01*
X149965447Y-117296237D01*
X150239199Y-117285673D01*
X150399750Y-117284500D01*
X150722969Y-117290089D01*
G36*
X151729839Y-113109375D02*
G01*
X151805932Y-113293345D01*
X151849795Y-113425019D01*
X151853875Y-113468577D01*
X151800236Y-113444229D01*
X151697895Y-113351364D01*
X151670428Y-113322482D01*
X151526537Y-113188593D01*
X151363460Y-113088552D01*
X151159659Y-113016822D01*
X150893592Y-112967869D01*
X150543720Y-112936158D01*
X150089367Y-112916180D01*
X149720631Y-112906344D01*
X149462501Y-112904247D01*
X149298759Y-112910943D01*
X149213185Y-112927487D01*
X149189561Y-112954935D01*
X149196614Y-112974268D01*
X149252273Y-113056390D01*
X149367099Y-113218828D01*
X149525266Y-113439403D01*
X149710947Y-113695936D01*
X149745122Y-113742916D01*
X149928500Y-113997364D01*
X150081245Y-114214164D01*
X150189465Y-114373229D01*
X150239263Y-114454470D01*
X150241000Y-114459851D01*
X150201930Y-114518399D01*
X150094635Y-114654688D01*
X149933982Y-114850415D01*
X149734838Y-115087276D01*
X149659501Y-115175684D01*
X149078003Y-115855750D01*
X149979558Y-115873384D01*
X150447262Y-115876179D01*
X150809268Y-115861096D01*
X151086147Y-115823874D01*
X151298470Y-115760257D01*
X151466805Y-115665986D01*
X151611724Y-115536803D01*
X151613241Y-115535197D01*
X151737990Y-115415871D01*
X151825941Y-115355448D01*
X151846174Y-115354840D01*
X151842120Y-115426251D01*
X151799053Y-115579429D01*
X151738607Y-115748463D01*
X151598703Y-116109750D01*
X150126101Y-116126795D01*
X149709074Y-116129617D01*
X149338045Y-116128287D01*
X149030630Y-116123185D01*
X148804446Y-116114691D01*
X148677112Y-116103187D01*
X148655485Y-116095045D01*
X148695525Y-116031995D01*
X148804287Y-115891635D01*
X148966966Y-115692318D01*
X149168754Y-115452399D01*
X149258328Y-115347750D01*
X149471462Y-115097406D01*
X149651386Y-114881165D01*
X149783374Y-114717111D01*
X149852701Y-114623326D01*
X149859593Y-114609390D01*
X149824174Y-114547142D01*
X149726021Y-114400758D01*
X149577721Y-114188358D01*
X149391859Y-113928060D01*
X149256750Y-113741600D01*
X149052693Y-113457464D01*
X148878151Y-113206647D01*
X148745817Y-113008017D01*
X148668383Y-112880442D01*
X148653500Y-112844834D01*
X148706266Y-112819981D01*
X148867543Y-112800884D01*
X149141793Y-112787334D01*
X149533481Y-112779121D01*
X150047072Y-112776035D01*
X150117593Y-112776000D01*
X151581687Y-112776000D01*
X151729839Y-113109375D01*
G37*
X151729839Y-113109375D02*
X151805932Y-113293345D01*
X151849795Y-113425019D01*
X151853875Y-113468577D01*
X151800236Y-113444229D01*
X151697895Y-113351364D01*
X151670428Y-113322482D01*
X151526537Y-113188593D01*
X151363460Y-113088552D01*
X151159659Y-113016822D01*
X150893592Y-112967869D01*
X150543720Y-112936158D01*
X150089367Y-112916180D01*
X149720631Y-112906344D01*
X149462501Y-112904247D01*
X149298759Y-112910943D01*
X149213185Y-112927487D01*
X149189561Y-112954935D01*
X149196614Y-112974268D01*
X149252273Y-113056390D01*
X149367099Y-113218828D01*
X149525266Y-113439403D01*
X149710947Y-113695936D01*
X149745122Y-113742916D01*
X149928500Y-113997364D01*
X150081245Y-114214164D01*
X150189465Y-114373229D01*
X150239263Y-114454470D01*
X150241000Y-114459851D01*
X150201930Y-114518399D01*
X150094635Y-114654688D01*
X149933982Y-114850415D01*
X149734838Y-115087276D01*
X149659501Y-115175684D01*
X149078003Y-115855750D01*
X149979558Y-115873384D01*
X150447262Y-115876179D01*
X150809268Y-115861096D01*
X151086147Y-115823874D01*
X151298470Y-115760257D01*
X151466805Y-115665986D01*
X151611724Y-115536803D01*
X151613241Y-115535197D01*
X151737990Y-115415871D01*
X151825941Y-115355448D01*
X151846174Y-115354840D01*
X151842120Y-115426251D01*
X151799053Y-115579429D01*
X151738607Y-115748463D01*
X151598703Y-116109750D01*
X150126101Y-116126795D01*
X149709074Y-116129617D01*
X149338045Y-116128287D01*
X149030630Y-116123185D01*
X148804446Y-116114691D01*
X148677112Y-116103187D01*
X148655485Y-116095045D01*
X148695525Y-116031995D01*
X148804287Y-115891635D01*
X148966966Y-115692318D01*
X149168754Y-115452399D01*
X149258328Y-115347750D01*
X149471462Y-115097406D01*
X149651386Y-114881165D01*
X149783374Y-114717111D01*
X149852701Y-114623326D01*
X149859593Y-114609390D01*
X149824174Y-114547142D01*
X149726021Y-114400758D01*
X149577721Y-114188358D01*
X149391859Y-113928060D01*
X149256750Y-113741600D01*
X149052693Y-113457464D01*
X148878151Y-113206647D01*
X148745817Y-113008017D01*
X148668383Y-112880442D01*
X148653500Y-112844834D01*
X148706266Y-112819981D01*
X148867543Y-112800884D01*
X149141793Y-112787334D01*
X149533481Y-112779121D01*
X150047072Y-112776035D01*
X150117593Y-112776000D01*
X151581687Y-112776000D01*
X151729839Y-113109375D01*
G36*
X143097928Y-113190120D02*
G01*
X143129000Y-113252250D01*
X143078170Y-113336436D01*
X143033750Y-113347500D01*
X142998455Y-113363928D01*
X142972892Y-113424341D01*
X142955588Y-113545427D01*
X142945070Y-113743877D01*
X142939865Y-114036380D01*
X142938500Y-114427000D01*
X142939949Y-114827000D01*
X142945280Y-115116714D01*
X142955964Y-115312830D01*
X142973474Y-115432038D01*
X142999283Y-115491028D01*
X143033750Y-115506500D01*
X143117936Y-115557329D01*
X143129000Y-115601750D01*
X143073799Y-115678357D01*
X142970250Y-115697000D01*
X142811500Y-115697000D01*
X142811500Y-113157000D01*
X142970250Y-113157000D01*
X143097928Y-113190120D01*
G37*
X143097928Y-113190120D02*
X143129000Y-113252250D01*
X143078170Y-113336436D01*
X143033750Y-113347500D01*
X142998455Y-113363928D01*
X142972892Y-113424341D01*
X142955588Y-113545427D01*
X142945070Y-113743877D01*
X142939865Y-114036380D01*
X142938500Y-114427000D01*
X142939949Y-114827000D01*
X142945280Y-115116714D01*
X142955964Y-115312830D01*
X142973474Y-115432038D01*
X142999283Y-115491028D01*
X143033750Y-115506500D01*
X143117936Y-115557329D01*
X143129000Y-115601750D01*
X143073799Y-115678357D01*
X142970250Y-115697000D01*
X142811500Y-115697000D01*
X142811500Y-113157000D01*
X142970250Y-113157000D01*
X143097928Y-113190120D01*
G36*
X144846184Y-115697000D02*
G01*
X144654342Y-115697000D01*
X144520034Y-115677024D01*
X144462532Y-115628843D01*
X144462500Y-115627555D01*
X144515512Y-115557336D01*
X144589500Y-115524899D01*
X144635970Y-115506259D01*
X144669480Y-115466159D01*
X144692141Y-115386236D01*
X144706061Y-115248128D01*
X144713351Y-115033472D01*
X144716120Y-114723905D01*
X144716500Y-114419593D01*
X144715917Y-114028038D01*
X144712702Y-113745657D01*
X144704656Y-113554626D01*
X144689578Y-113437121D01*
X144665271Y-113375315D01*
X144629533Y-113351386D01*
X144584208Y-113347500D01*
X144487435Y-113317167D01*
X144478375Y-113268125D01*
X144554774Y-113206929D01*
X144658291Y-113188750D01*
X144811750Y-113188750D01*
X144846184Y-115697000D01*
G37*
X144846184Y-115697000D02*
X144654342Y-115697000D01*
X144520034Y-115677024D01*
X144462532Y-115628843D01*
X144462500Y-115627555D01*
X144515512Y-115557336D01*
X144589500Y-115524899D01*
X144635970Y-115506259D01*
X144669480Y-115466159D01*
X144692141Y-115386236D01*
X144706061Y-115248128D01*
X144713351Y-115033472D01*
X144716120Y-114723905D01*
X144716500Y-114419593D01*
X144715917Y-114028038D01*
X144712702Y-113745657D01*
X144704656Y-113554626D01*
X144689578Y-113437121D01*
X144665271Y-113375315D01*
X144629533Y-113351386D01*
X144584208Y-113347500D01*
X144487435Y-113317167D01*
X144478375Y-113268125D01*
X144554774Y-113206929D01*
X144658291Y-113188750D01*
X144811750Y-113188750D01*
X144846184Y-115697000D01*
G36*
X154654928Y-113190120D02*
G01*
X154686000Y-113252250D01*
X154635170Y-113336436D01*
X154590750Y-113347500D01*
X154555455Y-113363928D01*
X154529892Y-113424341D01*
X154512588Y-113545427D01*
X154502070Y-113743877D01*
X154496865Y-114036380D01*
X154495500Y-114427000D01*
X154496949Y-114827000D01*
X154502280Y-115116714D01*
X154512964Y-115312830D01*
X154530474Y-115432038D01*
X154556283Y-115491028D01*
X154590750Y-115506500D01*
X154674936Y-115557329D01*
X154686000Y-115601750D01*
X154630799Y-115678357D01*
X154527250Y-115697000D01*
X154368500Y-115697000D01*
X154368500Y-113157000D01*
X154527250Y-113157000D01*
X154654928Y-113190120D01*
G37*
X154654928Y-113190120D02*
X154686000Y-113252250D01*
X154635170Y-113336436D01*
X154590750Y-113347500D01*
X154555455Y-113363928D01*
X154529892Y-113424341D01*
X154512588Y-113545427D01*
X154502070Y-113743877D01*
X154496865Y-114036380D01*
X154495500Y-114427000D01*
X154496949Y-114827000D01*
X154502280Y-115116714D01*
X154512964Y-115312830D01*
X154530474Y-115432038D01*
X154556283Y-115491028D01*
X154590750Y-115506500D01*
X154674936Y-115557329D01*
X154686000Y-115601750D01*
X154630799Y-115678357D01*
X154527250Y-115697000D01*
X154368500Y-115697000D01*
X154368500Y-113157000D01*
X154527250Y-113157000D01*
X154654928Y-113190120D01*
G36*
X156466684Y-115697000D02*
G01*
X156274842Y-115697000D01*
X156140534Y-115677024D01*
X156083032Y-115628843D01*
X156083000Y-115627555D01*
X156136012Y-115557336D01*
X156210000Y-115524899D01*
X156256470Y-115506259D01*
X156289980Y-115466159D01*
X156312641Y-115386236D01*
X156326561Y-115248128D01*
X156333851Y-115033472D01*
X156336620Y-114723905D01*
X156337000Y-114419593D01*
X156336417Y-114028038D01*
X156333202Y-113745657D01*
X156325156Y-113554626D01*
X156310078Y-113437121D01*
X156285771Y-113375315D01*
X156250033Y-113351386D01*
X156204708Y-113347500D01*
X156107935Y-113317167D01*
X156098875Y-113268125D01*
X156175274Y-113206929D01*
X156278791Y-113188750D01*
X156432250Y-113188750D01*
X156466684Y-115697000D01*
G37*
X156466684Y-115697000D02*
X156274842Y-115697000D01*
X156140534Y-115677024D01*
X156083032Y-115628843D01*
X156083000Y-115627555D01*
X156136012Y-115557336D01*
X156210000Y-115524899D01*
X156256470Y-115506259D01*
X156289980Y-115466159D01*
X156312641Y-115386236D01*
X156326561Y-115248128D01*
X156333851Y-115033472D01*
X156336620Y-114723905D01*
X156337000Y-114419593D01*
X156336417Y-114028038D01*
X156333202Y-113745657D01*
X156325156Y-113554626D01*
X156310078Y-113437121D01*
X156285771Y-113375315D01*
X156250033Y-113351386D01*
X156204708Y-113347500D01*
X156107935Y-113317167D01*
X156098875Y-113268125D01*
X156175274Y-113206929D01*
X156278791Y-113188750D01*
X156432250Y-113188750D01*
X156466684Y-115697000D01*
G36*
X141873801Y-113989083D02*
G01*
X141956155Y-114049083D01*
X142026733Y-114078785D01*
X142083408Y-114044208D01*
X142218452Y-113988238D01*
X142356794Y-114005916D01*
X142448948Y-114084564D01*
X142462250Y-114141250D01*
X142422545Y-114244678D01*
X142367000Y-114268250D01*
X142290977Y-114217103D01*
X142280569Y-114157125D01*
X142265228Y-114063109D01*
X142240719Y-114046000D01*
X142141605Y-114108367D01*
X142049049Y-114291007D01*
X141976204Y-114544345D01*
X141936058Y-114754144D01*
X141937670Y-114879023D01*
X141979497Y-114952332D01*
X142049747Y-114983856D01*
X142135707Y-114927749D01*
X142210179Y-114842231D01*
X142314914Y-114730424D01*
X142387179Y-114686358D01*
X142396829Y-114689662D01*
X142386021Y-114757546D01*
X142312732Y-114876695D01*
X142299780Y-114893555D01*
X142179983Y-114993585D01*
X142031674Y-115054002D01*
X141894373Y-115067577D01*
X141807600Y-115027082D01*
X141795500Y-114985800D01*
X141776757Y-114941621D01*
X141719299Y-114985800D01*
X141591206Y-115050938D01*
X141441494Y-115052787D01*
X141328362Y-114994653D01*
X141308825Y-114962481D01*
X141309989Y-114840443D01*
X141337035Y-114796564D01*
X141433419Y-114762405D01*
X141510838Y-114812634D01*
X141517312Y-114906439D01*
X141525206Y-114965112D01*
X141575794Y-114956986D01*
X141630814Y-114912912D01*
X141682315Y-114811996D01*
X141738152Y-114632820D01*
X141806179Y-114353966D01*
X141821115Y-114288016D01*
X141826629Y-114129803D01*
X141763490Y-114069863D01*
X141650509Y-114114393D01*
X141559592Y-114201901D01*
X141437384Y-114317773D01*
X141371005Y-114333955D01*
X141376482Y-114258253D01*
X141439112Y-114143231D01*
X141561308Y-114035320D01*
X141722570Y-113980958D01*
X141873801Y-113989083D01*
G37*
X141873801Y-113989083D02*
X141956155Y-114049083D01*
X142026733Y-114078785D01*
X142083408Y-114044208D01*
X142218452Y-113988238D01*
X142356794Y-114005916D01*
X142448948Y-114084564D01*
X142462250Y-114141250D01*
X142422545Y-114244678D01*
X142367000Y-114268250D01*
X142290977Y-114217103D01*
X142280569Y-114157125D01*
X142265228Y-114063109D01*
X142240719Y-114046000D01*
X142141605Y-114108367D01*
X142049049Y-114291007D01*
X141976204Y-114544345D01*
X141936058Y-114754144D01*
X141937670Y-114879023D01*
X141979497Y-114952332D01*
X142049747Y-114983856D01*
X142135707Y-114927749D01*
X142210179Y-114842231D01*
X142314914Y-114730424D01*
X142387179Y-114686358D01*
X142396829Y-114689662D01*
X142386021Y-114757546D01*
X142312732Y-114876695D01*
X142299780Y-114893555D01*
X142179983Y-114993585D01*
X142031674Y-115054002D01*
X141894373Y-115067577D01*
X141807600Y-115027082D01*
X141795500Y-114985800D01*
X141776757Y-114941621D01*
X141719299Y-114985800D01*
X141591206Y-115050938D01*
X141441494Y-115052787D01*
X141328362Y-114994653D01*
X141308825Y-114962481D01*
X141309989Y-114840443D01*
X141337035Y-114796564D01*
X141433419Y-114762405D01*
X141510838Y-114812634D01*
X141517312Y-114906439D01*
X141525206Y-114965112D01*
X141575794Y-114956986D01*
X141630814Y-114912912D01*
X141682315Y-114811996D01*
X141738152Y-114632820D01*
X141806179Y-114353966D01*
X141821115Y-114288016D01*
X141826629Y-114129803D01*
X141763490Y-114069863D01*
X141650509Y-114114393D01*
X141559592Y-114201901D01*
X141437384Y-114317773D01*
X141371005Y-114333955D01*
X141376482Y-114258253D01*
X141439112Y-114143231D01*
X141561308Y-114035320D01*
X141722570Y-113980958D01*
X141873801Y-113989083D01*
G36*
X143742013Y-113349102D02*
G01*
X143799008Y-113371074D01*
X143813065Y-113439163D01*
X143789265Y-113579114D01*
X143732688Y-113816674D01*
X143730979Y-113823750D01*
X143672497Y-114072376D01*
X143648913Y-114213139D01*
X143665101Y-114261573D01*
X143725935Y-114233213D01*
X143832372Y-114146894D01*
X144013125Y-114028368D01*
X144172943Y-113980808D01*
X144285898Y-114005347D01*
X144326064Y-114103120D01*
X144324041Y-114125375D01*
X144272141Y-114237081D01*
X144208500Y-114268250D01*
X144136984Y-114219361D01*
X144134403Y-114146259D01*
X144133646Y-114083408D01*
X144084258Y-114095226D01*
X143966556Y-114188193D01*
X143941536Y-114209759D01*
X143727516Y-114395250D01*
X143872802Y-114511018D01*
X143979241Y-114641798D01*
X143981149Y-114773966D01*
X143976991Y-114912156D01*
X144029912Y-114964679D01*
X144105412Y-114916748D01*
X144143547Y-114843571D01*
X144207704Y-114730837D01*
X144272367Y-114682282D01*
X144306978Y-114708503D01*
X144291899Y-114792125D01*
X144190064Y-114977950D01*
X144045747Y-115056526D01*
X143979684Y-115062000D01*
X143856230Y-115025167D01*
X143793377Y-114895027D01*
X143791656Y-114887375D01*
X143753800Y-114727016D01*
X143726912Y-114628094D01*
X143671405Y-114560296D01*
X143597006Y-114595744D01*
X143524381Y-114717005D01*
X143489044Y-114828757D01*
X143431124Y-114971744D01*
X143354901Y-115054240D01*
X143287525Y-115060393D01*
X143256147Y-114974352D01*
X143256000Y-114964817D01*
X143270824Y-114866039D01*
X143310947Y-114674086D01*
X143369846Y-114418730D01*
X143425654Y-114190576D01*
X143502710Y-113862744D01*
X143541379Y-113643960D01*
X143543222Y-113522720D01*
X143520904Y-113488718D01*
X143445629Y-113435617D01*
X143475899Y-113381416D01*
X143592614Y-113349349D01*
X143637000Y-113347500D01*
X143742013Y-113349102D01*
G37*
X143742013Y-113349102D02*
X143799008Y-113371074D01*
X143813065Y-113439163D01*
X143789265Y-113579114D01*
X143732688Y-113816674D01*
X143730979Y-113823750D01*
X143672497Y-114072376D01*
X143648913Y-114213139D01*
X143665101Y-114261573D01*
X143725935Y-114233213D01*
X143832372Y-114146894D01*
X144013125Y-114028368D01*
X144172943Y-113980808D01*
X144285898Y-114005347D01*
X144326064Y-114103120D01*
X144324041Y-114125375D01*
X144272141Y-114237081D01*
X144208500Y-114268250D01*
X144136984Y-114219361D01*
X144134403Y-114146259D01*
X144133646Y-114083408D01*
X144084258Y-114095226D01*
X143966556Y-114188193D01*
X143941536Y-114209759D01*
X143727516Y-114395250D01*
X143872802Y-114511018D01*
X143979241Y-114641798D01*
X143981149Y-114773966D01*
X143976991Y-114912156D01*
X144029912Y-114964679D01*
X144105412Y-114916748D01*
X144143547Y-114843571D01*
X144207704Y-114730837D01*
X144272367Y-114682282D01*
X144306978Y-114708503D01*
X144291899Y-114792125D01*
X144190064Y-114977950D01*
X144045747Y-115056526D01*
X143979684Y-115062000D01*
X143856230Y-115025167D01*
X143793377Y-114895027D01*
X143791656Y-114887375D01*
X143753800Y-114727016D01*
X143726912Y-114628094D01*
X143671405Y-114560296D01*
X143597006Y-114595744D01*
X143524381Y-114717005D01*
X143489044Y-114828757D01*
X143431124Y-114971744D01*
X143354901Y-115054240D01*
X143287525Y-115060393D01*
X143256147Y-114974352D01*
X143256000Y-114964817D01*
X143270824Y-114866039D01*
X143310947Y-114674086D01*
X143369846Y-114418730D01*
X143425654Y-114190576D01*
X143502710Y-113862744D01*
X143541379Y-113643960D01*
X143543222Y-113522720D01*
X143520904Y-113488718D01*
X143445629Y-113435617D01*
X143475899Y-113381416D01*
X143592614Y-113349349D01*
X143637000Y-113347500D01*
X143742013Y-113349102D01*
G36*
X153430801Y-113989083D02*
G01*
X153513155Y-114049083D01*
X153583733Y-114078785D01*
X153640408Y-114044208D01*
X153775452Y-113988238D01*
X153913794Y-114005916D01*
X154005948Y-114084564D01*
X154019250Y-114141250D01*
X153979545Y-114244678D01*
X153924000Y-114268250D01*
X153847977Y-114217103D01*
X153837569Y-114157125D01*
X153822228Y-114063109D01*
X153797719Y-114046000D01*
X153698605Y-114108367D01*
X153606049Y-114291007D01*
X153533204Y-114544345D01*
X153493058Y-114754144D01*
X153494670Y-114879023D01*
X153536497Y-114952332D01*
X153606747Y-114983856D01*
X153692707Y-114927749D01*
X153767179Y-114842231D01*
X153871914Y-114730424D01*
X153944179Y-114686358D01*
X153953829Y-114689662D01*
X153943021Y-114757546D01*
X153869732Y-114876695D01*
X153856780Y-114893555D01*
X153736983Y-114993585D01*
X153588674Y-115054002D01*
X153451373Y-115067577D01*
X153364600Y-115027082D01*
X153352500Y-114985800D01*
X153333757Y-114941621D01*
X153276300Y-114985800D01*
X153148206Y-115050938D01*
X152998494Y-115052787D01*
X152885362Y-114994653D01*
X152865825Y-114962481D01*
X152866989Y-114840443D01*
X152894035Y-114796564D01*
X152990419Y-114762405D01*
X153067838Y-114812634D01*
X153074312Y-114906439D01*
X153082206Y-114965112D01*
X153132794Y-114956986D01*
X153187814Y-114912912D01*
X153239315Y-114811996D01*
X153295152Y-114632820D01*
X153363179Y-114353966D01*
X153378115Y-114288016D01*
X153383629Y-114129803D01*
X153320490Y-114069863D01*
X153207509Y-114114393D01*
X153116592Y-114201901D01*
X152994384Y-114317773D01*
X152928005Y-114333955D01*
X152933482Y-114258253D01*
X152996112Y-114143231D01*
X153118308Y-114035320D01*
X153279570Y-113980958D01*
X153430801Y-113989083D01*
G37*
X153430801Y-113989083D02*
X153513155Y-114049083D01*
X153583733Y-114078785D01*
X153640408Y-114044208D01*
X153775452Y-113988238D01*
X153913794Y-114005916D01*
X154005948Y-114084564D01*
X154019250Y-114141250D01*
X153979545Y-114244678D01*
X153924000Y-114268250D01*
X153847977Y-114217103D01*
X153837569Y-114157125D01*
X153822228Y-114063109D01*
X153797719Y-114046000D01*
X153698605Y-114108367D01*
X153606049Y-114291007D01*
X153533204Y-114544345D01*
X153493058Y-114754144D01*
X153494670Y-114879023D01*
X153536497Y-114952332D01*
X153606747Y-114983856D01*
X153692707Y-114927749D01*
X153767179Y-114842231D01*
X153871914Y-114730424D01*
X153944179Y-114686358D01*
X153953829Y-114689662D01*
X153943021Y-114757546D01*
X153869732Y-114876695D01*
X153856780Y-114893555D01*
X153736983Y-114993585D01*
X153588674Y-115054002D01*
X153451373Y-115067577D01*
X153364600Y-115027082D01*
X153352500Y-114985800D01*
X153333757Y-114941621D01*
X153276300Y-114985800D01*
X153148206Y-115050938D01*
X152998494Y-115052787D01*
X152885362Y-114994653D01*
X152865825Y-114962481D01*
X152866989Y-114840443D01*
X152894035Y-114796564D01*
X152990419Y-114762405D01*
X153067838Y-114812634D01*
X153074312Y-114906439D01*
X153082206Y-114965112D01*
X153132794Y-114956986D01*
X153187814Y-114912912D01*
X153239315Y-114811996D01*
X153295152Y-114632820D01*
X153363179Y-114353966D01*
X153378115Y-114288016D01*
X153383629Y-114129803D01*
X153320490Y-114069863D01*
X153207509Y-114114393D01*
X153116592Y-114201901D01*
X152994384Y-114317773D01*
X152928005Y-114333955D01*
X152933482Y-114258253D01*
X152996112Y-114143231D01*
X153118308Y-114035320D01*
X153279570Y-113980958D01*
X153430801Y-113989083D01*
G36*
X155705723Y-114007911D02*
G01*
X155828842Y-114109338D01*
X155831282Y-114113764D01*
X155865797Y-114237473D01*
X155842752Y-114404274D01*
X155801766Y-114537825D01*
X155725480Y-114789453D01*
X155706549Y-114928109D01*
X155744950Y-114953674D01*
X155840658Y-114866029D01*
X155862718Y-114839750D01*
X155964194Y-114735097D01*
X156014211Y-114726123D01*
X156017165Y-114744500D01*
X155971303Y-114891572D01*
X155863446Y-115001732D01*
X155729594Y-115058674D01*
X155605747Y-115046091D01*
X155533283Y-114963675D01*
X155528734Y-114850517D01*
X155557542Y-114665427D01*
X155591703Y-114527354D01*
X155648586Y-114266100D01*
X155640486Y-114112136D01*
X155567796Y-114066277D01*
X155430907Y-114129335D01*
X155407842Y-114146004D01*
X155268376Y-114304771D01*
X155160558Y-114558796D01*
X155134912Y-114647790D01*
X155065265Y-114856962D01*
X154992176Y-114998883D01*
X154928277Y-115059431D01*
X154886202Y-115024484D01*
X154876500Y-114936660D01*
X154891855Y-114790653D01*
X154930227Y-114590886D01*
X154945905Y-114525105D01*
X154982935Y-114328739D01*
X154992257Y-114168211D01*
X154987649Y-114131861D01*
X154960564Y-114071907D01*
X154919955Y-114115663D01*
X154878925Y-114204750D01*
X154817948Y-114311947D01*
X154773684Y-114327317D01*
X154769562Y-114319395D01*
X154770926Y-114188978D01*
X154847779Y-114073458D01*
X154964267Y-113997773D01*
X155084536Y-113986864D01*
X155162356Y-114046171D01*
X155246691Y-114075300D01*
X155320679Y-114046171D01*
X155522207Y-113984985D01*
X155705723Y-114007911D01*
G37*
X155705723Y-114007911D02*
X155828842Y-114109338D01*
X155831282Y-114113764D01*
X155865797Y-114237473D01*
X155842752Y-114404274D01*
X155801766Y-114537825D01*
X155725480Y-114789453D01*
X155706549Y-114928109D01*
X155744950Y-114953674D01*
X155840658Y-114866029D01*
X155862718Y-114839750D01*
X155964194Y-114735097D01*
X156014211Y-114726123D01*
X156017165Y-114744500D01*
X155971303Y-114891572D01*
X155863446Y-115001732D01*
X155729594Y-115058674D01*
X155605747Y-115046091D01*
X155533283Y-114963675D01*
X155528734Y-114850517D01*
X155557542Y-114665427D01*
X155591703Y-114527354D01*
X155648586Y-114266100D01*
X155640486Y-114112136D01*
X155567796Y-114066277D01*
X155430907Y-114129335D01*
X155407842Y-114146004D01*
X155268376Y-114304771D01*
X155160558Y-114558796D01*
X155134912Y-114647790D01*
X155065265Y-114856962D01*
X154992176Y-114998883D01*
X154928277Y-115059431D01*
X154886202Y-115024484D01*
X154876500Y-114936660D01*
X154891855Y-114790653D01*
X154930227Y-114590886D01*
X154945905Y-114525105D01*
X154982935Y-114328739D01*
X154992257Y-114168211D01*
X154987649Y-114131861D01*
X154960564Y-114071907D01*
X154919955Y-114115663D01*
X154878925Y-114204750D01*
X154817948Y-114311947D01*
X154773684Y-114327317D01*
X154769562Y-114319395D01*
X154770926Y-114188978D01*
X154847779Y-114073458D01*
X154964267Y-113997773D01*
X155084536Y-113986864D01*
X155162356Y-114046171D01*
X155246691Y-114075300D01*
X155320679Y-114046171D01*
X155522207Y-113984985D01*
X155705723Y-114007911D01*
G36*
X157431051Y-113994730D02*
G01*
X157617954Y-114049486D01*
X157706933Y-114149100D01*
X157705916Y-114268254D01*
X157622829Y-114381631D01*
X157465601Y-114463912D01*
X157275825Y-114490500D01*
X157116288Y-114496499D01*
X157049602Y-114538246D01*
X157041615Y-114651363D01*
X157047541Y-114728625D01*
X157069860Y-114884215D01*
X157122488Y-114947859D01*
X157236882Y-114954604D01*
X157249584Y-114953739D01*
X157429431Y-114906103D01*
X157551598Y-114832420D01*
X157656827Y-114767035D01*
X157717565Y-114770398D01*
X157705884Y-114835672D01*
X157614643Y-114931206D01*
X157606051Y-114937930D01*
X157422184Y-115026783D01*
X157208551Y-115057980D01*
X157014518Y-115030062D01*
X156901843Y-114958729D01*
X156845954Y-114829933D01*
X156817179Y-114643522D01*
X156816136Y-114602980D01*
X156868262Y-114370383D01*
X157099000Y-114370383D01*
X157148036Y-114408800D01*
X157265366Y-114399447D01*
X157406316Y-114352589D01*
X157526215Y-114278491D01*
X157535138Y-114270164D01*
X157586023Y-114158140D01*
X157532731Y-114068854D01*
X157444502Y-114046000D01*
X157330759Y-114091352D01*
X157204479Y-114196620D01*
X157114850Y-114315620D01*
X157099000Y-114370383D01*
X156868262Y-114370383D01*
X156869557Y-114364605D01*
X157009789Y-114163948D01*
X157206786Y-114030731D01*
X157430500Y-113994675D01*
X157431051Y-113994730D01*
G37*
X157431051Y-113994730D02*
X157617954Y-114049486D01*
X157706933Y-114149100D01*
X157705916Y-114268254D01*
X157622829Y-114381631D01*
X157465601Y-114463912D01*
X157275825Y-114490500D01*
X157116288Y-114496499D01*
X157049602Y-114538246D01*
X157041615Y-114651363D01*
X157047541Y-114728625D01*
X157069860Y-114884215D01*
X157122488Y-114947859D01*
X157236882Y-114954604D01*
X157249584Y-114953739D01*
X157429431Y-114906103D01*
X157551598Y-114832420D01*
X157656827Y-114767035D01*
X157717565Y-114770398D01*
X157705884Y-114835672D01*
X157614643Y-114931206D01*
X157606051Y-114937930D01*
X157422184Y-115026783D01*
X157208551Y-115057980D01*
X157014518Y-115030062D01*
X156901843Y-114958729D01*
X156845954Y-114829933D01*
X156817179Y-114643522D01*
X156816136Y-114602980D01*
X156868262Y-114370383D01*
X157099000Y-114370383D01*
X157148036Y-114408800D01*
X157265366Y-114399447D01*
X157406316Y-114352589D01*
X157526215Y-114278491D01*
X157535138Y-114270164D01*
X157586023Y-114158140D01*
X157532731Y-114068854D01*
X157444502Y-114046000D01*
X157330759Y-114091352D01*
X157204479Y-114196620D01*
X157114850Y-114315620D01*
X157099000Y-114370383D01*
X156868262Y-114370383D01*
X156869557Y-114364605D01*
X157009789Y-114163948D01*
X157206786Y-114030731D01*
X157430500Y-113994675D01*
X157431051Y-113994730D01*
G36*
X161604739Y-113475902D02*
G01*
X162250848Y-113480073D01*
X162781463Y-113486961D01*
X163194218Y-113496513D01*
X163486750Y-113508676D01*
X163656694Y-113523399D01*
X163703000Y-113538000D01*
X163641107Y-113562866D01*
X163461648Y-113582037D01*
X163173952Y-113594957D01*
X162787351Y-113601070D01*
X162635636Y-113601500D01*
X162189587Y-113604985D01*
X161858701Y-113615975D01*
X161631322Y-113635274D01*
X161495791Y-113663683D01*
X161457307Y-113682640D01*
X161376140Y-113792155D01*
X161303679Y-113971216D01*
X161283552Y-114047765D01*
X161199309Y-114408345D01*
X161131886Y-114650152D01*
X161079176Y-114779995D01*
X161048338Y-114808000D01*
X161007797Y-114752382D01*
X160938813Y-114603728D01*
X160853543Y-114389337D01*
X160815036Y-114284125D01*
X160628001Y-113760250D01*
X160516995Y-114234294D01*
X160462320Y-114491986D01*
X160444527Y-114651650D01*
X160462115Y-114736315D01*
X160482870Y-114757197D01*
X160483094Y-114789779D01*
X160376947Y-114806268D01*
X160341238Y-114807027D01*
X160204125Y-114801228D01*
X160176223Y-114774392D01*
X160222591Y-114728625D01*
X160285292Y-114630670D01*
X160358103Y-114445875D01*
X160426447Y-114211979D01*
X160433749Y-114182014D01*
X160488200Y-113936750D01*
X160508670Y-113785833D01*
X160496397Y-113701588D01*
X160457146Y-113659111D01*
X160373813Y-113642596D01*
X160782000Y-113642596D01*
X160803423Y-113723751D01*
X160859112Y-113885176D01*
X160923650Y-114057046D01*
X161013832Y-114259271D01*
X161082278Y-114339467D01*
X161131601Y-114296442D01*
X161164412Y-114129007D01*
X161178768Y-113940703D01*
X161184160Y-113756292D01*
X161161457Y-113663243D01*
X161090058Y-113626138D01*
X160988375Y-113613351D01*
X160848388Y-113612968D01*
X160782699Y-113638614D01*
X160782000Y-113642596D01*
X160373813Y-113642596D01*
X160368186Y-113641481D01*
X160173842Y-113626045D01*
X159895727Y-113613759D01*
X159555449Y-113605581D01*
X159178625Y-113602472D01*
X158730926Y-113598794D01*
X158381095Y-113588863D01*
X158137290Y-113573120D01*
X158007670Y-113552007D01*
X157988000Y-113538000D01*
X158051094Y-113521128D01*
X158238800Y-113506770D01*
X158548753Y-113494978D01*
X158978590Y-113485806D01*
X159525947Y-113479305D01*
X160188459Y-113475529D01*
X160845500Y-113474500D01*
X161604739Y-113475902D01*
G37*
X161604739Y-113475902D02*
X162250848Y-113480073D01*
X162781463Y-113486961D01*
X163194218Y-113496513D01*
X163486750Y-113508676D01*
X163656694Y-113523399D01*
X163703000Y-113538000D01*
X163641107Y-113562866D01*
X163461648Y-113582037D01*
X163173952Y-113594957D01*
X162787351Y-113601070D01*
X162635636Y-113601500D01*
X162189587Y-113604985D01*
X161858701Y-113615975D01*
X161631322Y-113635274D01*
X161495791Y-113663683D01*
X161457307Y-113682640D01*
X161376140Y-113792155D01*
X161303679Y-113971216D01*
X161283552Y-114047765D01*
X161199309Y-114408345D01*
X161131886Y-114650152D01*
X161079176Y-114779995D01*
X161048338Y-114808000D01*
X161007797Y-114752382D01*
X160938813Y-114603728D01*
X160853543Y-114389337D01*
X160815036Y-114284125D01*
X160628001Y-113760250D01*
X160516995Y-114234294D01*
X160462320Y-114491986D01*
X160444527Y-114651650D01*
X160462115Y-114736315D01*
X160482870Y-114757197D01*
X160483094Y-114789779D01*
X160376947Y-114806268D01*
X160341238Y-114807027D01*
X160204125Y-114801228D01*
X160176223Y-114774392D01*
X160222591Y-114728625D01*
X160285292Y-114630670D01*
X160358103Y-114445875D01*
X160426447Y-114211979D01*
X160433749Y-114182014D01*
X160488200Y-113936750D01*
X160508670Y-113785833D01*
X160496397Y-113701588D01*
X160457146Y-113659111D01*
X160373813Y-113642596D01*
X160782000Y-113642596D01*
X160803423Y-113723751D01*
X160859112Y-113885176D01*
X160923650Y-114057046D01*
X161013832Y-114259271D01*
X161082278Y-114339467D01*
X161131601Y-114296442D01*
X161164412Y-114129007D01*
X161178768Y-113940703D01*
X161184160Y-113756292D01*
X161161457Y-113663243D01*
X161090058Y-113626138D01*
X160988375Y-113613351D01*
X160848388Y-113612968D01*
X160782699Y-113638614D01*
X160782000Y-113642596D01*
X160373813Y-113642596D01*
X160368186Y-113641481D01*
X160173842Y-113626045D01*
X159895727Y-113613759D01*
X159555449Y-113605581D01*
X159178625Y-113602472D01*
X158730926Y-113598794D01*
X158381095Y-113588863D01*
X158137290Y-113573120D01*
X158007670Y-113552007D01*
X157988000Y-113538000D01*
X158051094Y-113521128D01*
X158238800Y-113506770D01*
X158548753Y-113494978D01*
X158978590Y-113485806D01*
X159525947Y-113479305D01*
X160188459Y-113475529D01*
X160845500Y-113474500D01*
X161604739Y-113475902D01*
G36*
X146946068Y-114559865D02*
G01*
X147186026Y-114578656D01*
X147319775Y-114612161D01*
X147357464Y-114662172D01*
X147347637Y-114687653D01*
X147272424Y-114711810D01*
X147101805Y-114729137D01*
X146867189Y-114739636D01*
X146599985Y-114743307D01*
X146331604Y-114740148D01*
X146093456Y-114730161D01*
X145916949Y-114713346D01*
X145833494Y-114689701D01*
X145831862Y-114687653D01*
X145833374Y-114630415D01*
X145926815Y-114590411D01*
X146122337Y-114565849D01*
X146430089Y-114554941D01*
X146589750Y-114554000D01*
X146946068Y-114559865D01*
G37*
X146946068Y-114559865D02*
X147186026Y-114578656D01*
X147319775Y-114612161D01*
X147357464Y-114662172D01*
X147347637Y-114687653D01*
X147272424Y-114711810D01*
X147101805Y-114729137D01*
X146867189Y-114739636D01*
X146599985Y-114743307D01*
X146331604Y-114740148D01*
X146093456Y-114730161D01*
X145916949Y-114713346D01*
X145833494Y-114689701D01*
X145831862Y-114687653D01*
X145833374Y-114630415D01*
X145926815Y-114590411D01*
X146122337Y-114565849D01*
X146430089Y-114554941D01*
X146589750Y-114554000D01*
X146946068Y-114559865D01*
G36*
X146946068Y-114115365D02*
G01*
X147186026Y-114134156D01*
X147319775Y-114167661D01*
X147357464Y-114217672D01*
X147347637Y-114243153D01*
X147272424Y-114267310D01*
X147101805Y-114284637D01*
X146867189Y-114295136D01*
X146599985Y-114298807D01*
X146331604Y-114295648D01*
X146093456Y-114285661D01*
X145916949Y-114268846D01*
X145833494Y-114245201D01*
X145831862Y-114243153D01*
X145833374Y-114185915D01*
X145926815Y-114145911D01*
X146122337Y-114121349D01*
X146430089Y-114110441D01*
X146589750Y-114109500D01*
X146946068Y-114115365D01*
G37*
X146946068Y-114115365D02*
X147186026Y-114134156D01*
X147319775Y-114167661D01*
X147357464Y-114217672D01*
X147347637Y-114243153D01*
X147272424Y-114267310D01*
X147101805Y-114284637D01*
X146867189Y-114295136D01*
X146599985Y-114298807D01*
X146331604Y-114295648D01*
X146093456Y-114285661D01*
X145916949Y-114268846D01*
X145833494Y-114245201D01*
X145831862Y-114243153D01*
X145833374Y-114185915D01*
X145926815Y-114145911D01*
X146122337Y-114121349D01*
X146430089Y-114110441D01*
X146589750Y-114109500D01*
X146946068Y-114115365D01*
G36*
X159847603Y-112375964D02*
G01*
X159859834Y-112392709D01*
X159864422Y-112484233D01*
X159837682Y-112655750D01*
X159789620Y-112867165D01*
X159730241Y-113078386D01*
X159669547Y-113249319D01*
X159625547Y-113331625D01*
X159516349Y-113393061D01*
X159369848Y-113408615D01*
X159251239Y-113374955D01*
X159228961Y-113351887D01*
X159238430Y-113271235D01*
X159264063Y-113248502D01*
X159353412Y-113253856D01*
X159389140Y-113290700D01*
X159442114Y-113301574D01*
X159508428Y-113212591D01*
X159577249Y-113048569D01*
X159637746Y-112834330D01*
X159673439Y-112639338D01*
X159711366Y-112363250D01*
X159579933Y-112513159D01*
X159485240Y-112599813D01*
X159448729Y-112580104D01*
X159448500Y-112573484D01*
X159495921Y-112447204D01*
X159608215Y-112359020D01*
X159740427Y-112328688D01*
X159847603Y-112375964D01*
G37*
X159847603Y-112375964D02*
X159859834Y-112392709D01*
X159864422Y-112484233D01*
X159837682Y-112655750D01*
X159789620Y-112867165D01*
X159730241Y-113078386D01*
X159669547Y-113249319D01*
X159625547Y-113331625D01*
X159516349Y-113393061D01*
X159369848Y-113408615D01*
X159251239Y-113374955D01*
X159228961Y-113351887D01*
X159238430Y-113271235D01*
X159264063Y-113248502D01*
X159353412Y-113253856D01*
X159389140Y-113290700D01*
X159442114Y-113301574D01*
X159508428Y-113212591D01*
X159577249Y-113048569D01*
X159637746Y-112834330D01*
X159673439Y-112639338D01*
X159711366Y-112363250D01*
X159579933Y-112513159D01*
X159485240Y-112599813D01*
X159448729Y-112580104D01*
X159448500Y-112573484D01*
X159495921Y-112447204D01*
X159608215Y-112359020D01*
X159740427Y-112328688D01*
X159847603Y-112375964D01*
G36*
X160563152Y-111980690D02*
G01*
X160682615Y-112080774D01*
X160718668Y-112242017D01*
X160667969Y-112444397D01*
X160527177Y-112667892D01*
X160488860Y-112712317D01*
X160259221Y-112966500D01*
X160452454Y-112966500D01*
X160616786Y-112932740D01*
X160674727Y-112855375D01*
X160697065Y-112819841D01*
X160710461Y-112904803D01*
X160711133Y-112918875D01*
X160707532Y-113022268D01*
X160664048Y-113073855D01*
X160548779Y-113091597D01*
X160401000Y-113093500D01*
X160219833Y-113086851D01*
X160104881Y-113069854D01*
X160083500Y-113056561D01*
X160120058Y-112990355D01*
X160213946Y-112859964D01*
X160295927Y-112754936D01*
X160464454Y-112526897D01*
X160548669Y-112358551D01*
X160558159Y-112224079D01*
X160525538Y-112136399D01*
X160416929Y-112027965D01*
X160288567Y-112039802D01*
X160215624Y-112103074D01*
X160175440Y-112184364D01*
X160223724Y-112222137D01*
X160273032Y-112266404D01*
X160228456Y-112334180D01*
X160158630Y-112377969D01*
X160109055Y-112306456D01*
X160107225Y-112301737D01*
X160102799Y-112142379D01*
X160202586Y-112018390D01*
X160363619Y-111961786D01*
X160563152Y-111980690D01*
G37*
X160563152Y-111980690D02*
X160682615Y-112080774D01*
X160718668Y-112242017D01*
X160667969Y-112444397D01*
X160527177Y-112667892D01*
X160488860Y-112712317D01*
X160259221Y-112966500D01*
X160452454Y-112966500D01*
X160616786Y-112932740D01*
X160674727Y-112855375D01*
X160697065Y-112819841D01*
X160710461Y-112904803D01*
X160711133Y-112918875D01*
X160707532Y-113022268D01*
X160664048Y-113073855D01*
X160548779Y-113091597D01*
X160401000Y-113093500D01*
X160219833Y-113086851D01*
X160104881Y-113069854D01*
X160083500Y-113056561D01*
X160120058Y-112990355D01*
X160213946Y-112859964D01*
X160295927Y-112754936D01*
X160464454Y-112526897D01*
X160548669Y-112358551D01*
X160558159Y-112224079D01*
X160525538Y-112136399D01*
X160416929Y-112027965D01*
X160288567Y-112039802D01*
X160215624Y-112103074D01*
X160175440Y-112184364D01*
X160223724Y-112222137D01*
X160273032Y-112266404D01*
X160228456Y-112334180D01*
X160158630Y-112377969D01*
X160109055Y-112306456D01*
X160107225Y-112301737D01*
X160102799Y-112142379D01*
X160202586Y-112018390D01*
X160363619Y-111961786D01*
X160563152Y-111980690D01*
G36*
X161546613Y-112342793D02*
G01*
X161687181Y-112371158D01*
X161743520Y-112408324D01*
X161700419Y-112446020D01*
X161591625Y-112469958D01*
X161506001Y-112495813D01*
X161466946Y-112564404D01*
X161460935Y-112710595D01*
X161464679Y-112797184D01*
X161464896Y-112989157D01*
X161436977Y-113072692D01*
X161401179Y-113076225D01*
X161348900Y-112993598D01*
X161331029Y-112805462D01*
X161332030Y-112753415D01*
X161327505Y-112579977D01*
X161304360Y-112473957D01*
X161287390Y-112458500D01*
X161240703Y-112513155D01*
X161184129Y-112646804D01*
X161133018Y-112813975D01*
X161102716Y-112969195D01*
X161099854Y-113014125D01*
X161047872Y-113083086D01*
X160997456Y-113093500D01*
X160927148Y-113060031D01*
X160940451Y-112982375D01*
X161038568Y-112714313D01*
X161081370Y-112535222D01*
X161068572Y-112452454D01*
X160999887Y-112473364D01*
X160958741Y-112510358D01*
X160859073Y-112581667D01*
X160820479Y-112557853D01*
X160860236Y-112458500D01*
X160927904Y-112386104D01*
X161038732Y-112347197D01*
X161227194Y-112332594D01*
X161337024Y-112331500D01*
X161546613Y-112342793D01*
G37*
X161546613Y-112342793D02*
X161687181Y-112371158D01*
X161743520Y-112408324D01*
X161700419Y-112446020D01*
X161591625Y-112469958D01*
X161506001Y-112495813D01*
X161466946Y-112564404D01*
X161460935Y-112710595D01*
X161464679Y-112797184D01*
X161464896Y-112989157D01*
X161436977Y-113072692D01*
X161401179Y-113076225D01*
X161348900Y-112993598D01*
X161331029Y-112805462D01*
X161332030Y-112753415D01*
X161327505Y-112579977D01*
X161304360Y-112473957D01*
X161287390Y-112458500D01*
X161240703Y-112513155D01*
X161184129Y-112646804D01*
X161133018Y-112813975D01*
X161102716Y-112969195D01*
X161099854Y-113014125D01*
X161047872Y-113083086D01*
X160997456Y-113093500D01*
X160927148Y-113060031D01*
X160940451Y-112982375D01*
X161038568Y-112714313D01*
X161081370Y-112535222D01*
X161068572Y-112452454D01*
X160999887Y-112473364D01*
X160958741Y-112510358D01*
X160859073Y-112581667D01*
X160820479Y-112557853D01*
X160860236Y-112458500D01*
X160927904Y-112386104D01*
X161038732Y-112347197D01*
X161227194Y-112332594D01*
X161337024Y-112331500D01*
X161546613Y-112342793D01*
G36*
X162257960Y-111892256D02*
G01*
X162305246Y-111902875D01*
X162289908Y-111967645D01*
X162251137Y-112118053D01*
X162213755Y-112259662D01*
X162123018Y-112600574D01*
X162266226Y-112466037D01*
X162412743Y-112364438D01*
X162539749Y-112335452D01*
X162615042Y-112382618D01*
X162623500Y-112426750D01*
X162589211Y-112511253D01*
X162560000Y-112522000D01*
X162499956Y-112472473D01*
X162496500Y-112448658D01*
X162458452Y-112430099D01*
X162368985Y-112490715D01*
X162284194Y-112584241D01*
X162294014Y-112658585D01*
X162338766Y-112713623D01*
X162400335Y-112840666D01*
X162395987Y-112925566D01*
X162390915Y-113012769D01*
X162418800Y-113030000D01*
X162482030Y-112976670D01*
X162518325Y-112889898D01*
X162560736Y-112797001D01*
X162595029Y-112789862D01*
X162609908Y-112874992D01*
X162592093Y-112965416D01*
X162511349Y-113067419D01*
X162394644Y-113079148D01*
X162288053Y-113007280D01*
X162245103Y-112915127D01*
X162186167Y-112791135D01*
X162113100Y-112785980D01*
X162052745Y-112900312D01*
X162050248Y-112910419D01*
X162002215Y-113010818D01*
X161931706Y-113082291D01*
X161874541Y-113096119D01*
X161861500Y-113061746D01*
X161876237Y-112984563D01*
X161915464Y-112816185D01*
X161971700Y-112588327D01*
X161992342Y-112506952D01*
X162055049Y-112244421D01*
X162081645Y-112078521D01*
X162074195Y-111984755D01*
X162039967Y-111941719D01*
X162019557Y-111902465D01*
X162122685Y-111888053D01*
X162131375Y-111887972D01*
X162257960Y-111892256D01*
G37*
X162257960Y-111892256D02*
X162305246Y-111902875D01*
X162289908Y-111967645D01*
X162251137Y-112118053D01*
X162213755Y-112259662D01*
X162123018Y-112600574D01*
X162266226Y-112466037D01*
X162412743Y-112364438D01*
X162539749Y-112335452D01*
X162615042Y-112382618D01*
X162623500Y-112426750D01*
X162589211Y-112511253D01*
X162560000Y-112522000D01*
X162499956Y-112472473D01*
X162496500Y-112448658D01*
X162458452Y-112430099D01*
X162368985Y-112490715D01*
X162284194Y-112584241D01*
X162294014Y-112658585D01*
X162338766Y-112713623D01*
X162400335Y-112840666D01*
X162395987Y-112925566D01*
X162390915Y-113012769D01*
X162418800Y-113030000D01*
X162482030Y-112976670D01*
X162518325Y-112889898D01*
X162560736Y-112797001D01*
X162595029Y-112789862D01*
X162609908Y-112874992D01*
X162592093Y-112965416D01*
X162511349Y-113067419D01*
X162394644Y-113079148D01*
X162288053Y-113007280D01*
X162245103Y-112915127D01*
X162186167Y-112791135D01*
X162113100Y-112785980D01*
X162052745Y-112900312D01*
X162050248Y-112910419D01*
X162002215Y-113010818D01*
X161931706Y-113082291D01*
X161874541Y-113096119D01*
X161861500Y-113061746D01*
X161876237Y-112984563D01*
X161915464Y-112816185D01*
X161971700Y-112588327D01*
X161992342Y-112506952D01*
X162055049Y-112244421D01*
X162081645Y-112078521D01*
X162074195Y-111984755D01*
X162039967Y-111941719D01*
X162019557Y-111902465D01*
X162122685Y-111888053D01*
X162131375Y-111887972D01*
X162257960Y-111892256D01*
G36*
X163340006Y-112363515D02*
G01*
X163439115Y-112389171D01*
X163474438Y-112450899D01*
X163477798Y-112553750D01*
X163458515Y-112753881D01*
X163426192Y-112903000D01*
X163377539Y-113061750D01*
X163507107Y-112903000D01*
X163603720Y-112804141D01*
X163636821Y-112812036D01*
X163599656Y-112919828D01*
X163573765Y-112970674D01*
X163464854Y-113070397D01*
X163375150Y-113093500D01*
X163307698Y-113081908D01*
X163273219Y-113032039D01*
X163270342Y-112921253D01*
X163297695Y-112726909D01*
X163339317Y-112501798D01*
X163302496Y-112435445D01*
X163260934Y-112426750D01*
X163161750Y-112484754D01*
X163064949Y-112638613D01*
X162988140Y-112858099D01*
X162974289Y-112918875D01*
X162923534Y-113064531D01*
X162869438Y-113096730D01*
X162832806Y-113026698D01*
X162834438Y-112865662D01*
X162837496Y-112845051D01*
X162874195Y-112654154D01*
X162913478Y-112503578D01*
X162919903Y-112485384D01*
X162931752Y-112409256D01*
X162888291Y-112420080D01*
X162820471Y-112518473D01*
X162814000Y-112561245D01*
X162782162Y-112623973D01*
X162750328Y-112617143D01*
X162721194Y-112532623D01*
X162748463Y-112462305D01*
X162816077Y-112391562D01*
X162942346Y-112359043D01*
X163145509Y-112355034D01*
X163340006Y-112363515D01*
G37*
X163340006Y-112363515D02*
X163439115Y-112389171D01*
X163474438Y-112450899D01*
X163477798Y-112553750D01*
X163458515Y-112753881D01*
X163426192Y-112903000D01*
X163377539Y-113061750D01*
X163507107Y-112903000D01*
X163603720Y-112804141D01*
X163636821Y-112812036D01*
X163599656Y-112919828D01*
X163573765Y-112970674D01*
X163464854Y-113070397D01*
X163375150Y-113093500D01*
X163307698Y-113081908D01*
X163273219Y-113032039D01*
X163270342Y-112921253D01*
X163297695Y-112726909D01*
X163339317Y-112501798D01*
X163302496Y-112435445D01*
X163260934Y-112426750D01*
X163161750Y-112484754D01*
X163064949Y-112638613D01*
X162988140Y-112858099D01*
X162974289Y-112918875D01*
X162923534Y-113064531D01*
X162869438Y-113096730D01*
X162832806Y-113026698D01*
X162834438Y-112865662D01*
X162837496Y-112845051D01*
X162874195Y-112654154D01*
X162913478Y-112503578D01*
X162919903Y-112485384D01*
X162931752Y-112409256D01*
X162888291Y-112420080D01*
X162820471Y-112518473D01*
X162814000Y-112561245D01*
X162782162Y-112623973D01*
X162750328Y-112617143D01*
X162721194Y-112532623D01*
X162748463Y-112462305D01*
X162816077Y-112391562D01*
X162942346Y-112359043D01*
X163145509Y-112355034D01*
X163340006Y-112363515D01*
G36*
X158887243Y-112593534D02*
G01*
X159066967Y-112614734D01*
X159159069Y-112644743D01*
X159162750Y-112649000D01*
X159124719Y-112682082D01*
X158968767Y-112703556D01*
X158703536Y-112712343D01*
X158654750Y-112712500D01*
X158373837Y-112705714D01*
X158200905Y-112686078D01*
X158144595Y-112654672D01*
X158146750Y-112649000D01*
X158225112Y-112618177D01*
X158395560Y-112595606D01*
X158623241Y-112585642D01*
X158654750Y-112585500D01*
X158887243Y-112593534D01*
G37*
X158887243Y-112593534D02*
X159066967Y-112614734D01*
X159159069Y-112644743D01*
X159162750Y-112649000D01*
X159124719Y-112682082D01*
X158968767Y-112703556D01*
X158703536Y-112712343D01*
X158654750Y-112712500D01*
X158373837Y-112705714D01*
X158200905Y-112686078D01*
X158144595Y-112654672D01*
X158146750Y-112649000D01*
X158225112Y-112618177D01*
X158395560Y-112595606D01*
X158623241Y-112585642D01*
X158654750Y-112585500D01*
X158887243Y-112593534D01*
G36*
X149131364Y-111155518D02*
G01*
X149217149Y-111372795D01*
X149291915Y-111530138D01*
X149342677Y-111601155D01*
X149350985Y-111601877D01*
X149387469Y-111529179D01*
X149436145Y-111368518D01*
X149479874Y-111184378D01*
X149521793Y-110964129D01*
X149529976Y-110834819D01*
X149503938Y-110764817D01*
X149473070Y-110738991D01*
X149455707Y-110701064D01*
X149558974Y-110683251D01*
X149634011Y-110681472D01*
X149785947Y-110686052D01*
X149828718Y-110707934D01*
X149779935Y-110756852D01*
X149775829Y-110759875D01*
X149707723Y-110862429D01*
X149628314Y-111067510D01*
X149546067Y-111352194D01*
X149523813Y-111442500D01*
X149457117Y-111699048D01*
X149393793Y-111901360D01*
X149342792Y-112022781D01*
X149321222Y-112045750D01*
X149273832Y-111990581D01*
X149195251Y-111842461D01*
X149098567Y-111627470D01*
X149042433Y-111490211D01*
X148945267Y-111253566D01*
X148864247Y-111072874D01*
X148810681Y-110972501D01*
X148796720Y-110960612D01*
X148769451Y-111030318D01*
X148721006Y-111190984D01*
X148661005Y-111410359D01*
X148649964Y-111452651D01*
X148590500Y-111691725D01*
X148564581Y-111838797D01*
X148571387Y-111924125D01*
X148610101Y-111977970D01*
X148635210Y-111998125D01*
X148683541Y-112047189D01*
X148643673Y-112070765D01*
X148497550Y-112077428D01*
X148468101Y-112077500D01*
X148301736Y-112074455D01*
X148243790Y-112055925D01*
X148275688Y-112007813D01*
X148321674Y-111966375D01*
X148406990Y-111839746D01*
X148493621Y-111623761D01*
X148553721Y-111410750D01*
X148610524Y-111174676D01*
X148659423Y-110977984D01*
X148690095Y-110862167D01*
X148690652Y-110860289D01*
X148669961Y-110757373D01*
X148608514Y-110724780D01*
X148588471Y-110704735D01*
X148676034Y-110690366D01*
X148726432Y-110687866D01*
X148958115Y-110680500D01*
X149131364Y-111155518D01*
G37*
X149131364Y-111155518D02*
X149217149Y-111372795D01*
X149291915Y-111530138D01*
X149342677Y-111601155D01*
X149350985Y-111601877D01*
X149387469Y-111529179D01*
X149436145Y-111368518D01*
X149479874Y-111184378D01*
X149521793Y-110964129D01*
X149529976Y-110834819D01*
X149503938Y-110764817D01*
X149473070Y-110738991D01*
X149455707Y-110701064D01*
X149558974Y-110683251D01*
X149634011Y-110681472D01*
X149785947Y-110686052D01*
X149828718Y-110707934D01*
X149779935Y-110756852D01*
X149775829Y-110759875D01*
X149707723Y-110862429D01*
X149628314Y-111067510D01*
X149546067Y-111352194D01*
X149523813Y-111442500D01*
X149457117Y-111699048D01*
X149393793Y-111901360D01*
X149342792Y-112022781D01*
X149321222Y-112045750D01*
X149273832Y-111990581D01*
X149195251Y-111842461D01*
X149098567Y-111627470D01*
X149042433Y-111490211D01*
X148945267Y-111253566D01*
X148864247Y-111072874D01*
X148810681Y-110972501D01*
X148796720Y-110960612D01*
X148769451Y-111030318D01*
X148721006Y-111190984D01*
X148661005Y-111410359D01*
X148649964Y-111452651D01*
X148590500Y-111691725D01*
X148564581Y-111838797D01*
X148571387Y-111924125D01*
X148610101Y-111977970D01*
X148635210Y-111998125D01*
X148683541Y-112047189D01*
X148643673Y-112070765D01*
X148497550Y-112077428D01*
X148468101Y-112077500D01*
X148301736Y-112074455D01*
X148243790Y-112055925D01*
X148275688Y-112007813D01*
X148321674Y-111966375D01*
X148406990Y-111839746D01*
X148493621Y-111623761D01*
X148553721Y-111410750D01*
X148610524Y-111174676D01*
X148659423Y-110977984D01*
X148690095Y-110862167D01*
X148690652Y-110860289D01*
X148669961Y-110757373D01*
X148608514Y-110724780D01*
X148588471Y-110704735D01*
X148676034Y-110690366D01*
X148726432Y-110687866D01*
X148958115Y-110680500D01*
X149131364Y-111155518D01*
G36*
X152045934Y-110779903D02*
G01*
X152069278Y-110849102D01*
X152079698Y-110992941D01*
X152082407Y-111232989D01*
X152082500Y-111370304D01*
X152084034Y-111659289D01*
X152092116Y-111845471D01*
X152111963Y-111953040D01*
X152148793Y-112006184D01*
X152207823Y-112029094D01*
X152225375Y-112032685D01*
X152244665Y-112046702D01*
X152156204Y-112056614D01*
X151987250Y-112060204D01*
X151813250Y-112056342D01*
X151728490Y-112046235D01*
X151749125Y-112032685D01*
X151818768Y-112010948D01*
X151861140Y-111961001D01*
X151882972Y-111856327D01*
X151890995Y-111670408D01*
X151892000Y-111469833D01*
X151890080Y-111209433D01*
X151879842Y-111050758D01*
X151854568Y-110968541D01*
X151807537Y-110937516D01*
X151749125Y-110932569D01*
X151658215Y-110921882D01*
X151684442Y-110886816D01*
X151701500Y-110876750D01*
X151839994Y-110814166D01*
X151939625Y-110779152D01*
X152004454Y-110763776D01*
X152045934Y-110779903D01*
G37*
X152045934Y-110779903D02*
X152069278Y-110849102D01*
X152079698Y-110992941D01*
X152082407Y-111232989D01*
X152082500Y-111370304D01*
X152084034Y-111659289D01*
X152092116Y-111845471D01*
X152111963Y-111953040D01*
X152148793Y-112006184D01*
X152207823Y-112029094D01*
X152225375Y-112032685D01*
X152244665Y-112046702D01*
X152156204Y-112056614D01*
X151987250Y-112060204D01*
X151813250Y-112056342D01*
X151728490Y-112046235D01*
X151749125Y-112032685D01*
X151818768Y-112010948D01*
X151861140Y-111961001D01*
X151882972Y-111856327D01*
X151890995Y-111670408D01*
X151892000Y-111469833D01*
X151890080Y-111209433D01*
X151879842Y-111050758D01*
X151854568Y-110968541D01*
X151807537Y-110937516D01*
X151749125Y-110932569D01*
X151658215Y-110921882D01*
X151684442Y-110886816D01*
X151701500Y-110876750D01*
X151839994Y-110814166D01*
X151939625Y-110779152D01*
X152004454Y-110763776D01*
X152045934Y-110779903D01*
G36*
X159888352Y-111966760D02*
G01*
X159897762Y-111996537D01*
X159853071Y-112055939D01*
X159826325Y-112067975D01*
X159772152Y-112048001D01*
X159775525Y-112017175D01*
X159831145Y-111951353D01*
X159888352Y-111966760D01*
G37*
X159888352Y-111966760D02*
X159897762Y-111996537D01*
X159853071Y-112055939D01*
X159826325Y-112067975D01*
X159772152Y-112048001D01*
X159775525Y-112017175D01*
X159831145Y-111951353D01*
X159888352Y-111966760D01*
G36*
X151004292Y-111512370D02*
G01*
X151207612Y-111530094D01*
X151311305Y-111557089D01*
X151320500Y-111569500D01*
X151260106Y-111598946D01*
X151091032Y-111620252D01*
X150831442Y-111631611D01*
X150681752Y-111633000D01*
X150369924Y-111627121D01*
X150167853Y-111609987D01*
X150082654Y-111582352D01*
X150082250Y-111569500D01*
X150159173Y-111541811D01*
X150333284Y-111520281D01*
X150574810Y-111507869D01*
X150720997Y-111506000D01*
X151004292Y-111512370D01*
G37*
X151004292Y-111512370D02*
X151207612Y-111530094D01*
X151311305Y-111557089D01*
X151320500Y-111569500D01*
X151260106Y-111598946D01*
X151091032Y-111620252D01*
X150831442Y-111631611D01*
X150681752Y-111633000D01*
X150369924Y-111627121D01*
X150167853Y-111609987D01*
X150082654Y-111582352D01*
X150082250Y-111569500D01*
X150159173Y-111541811D01*
X150333284Y-111520281D01*
X150574810Y-111507869D01*
X150720997Y-111506000D01*
X151004292Y-111512370D01*
D12*
G04 #@! TO.C,R17*
X137260000Y-113691936D02*
X137260000Y-114146064D01*
X135790000Y-113691936D02*
X135790000Y-114146064D01*
G04 #@! TO.C,R16*
X134720000Y-113691936D02*
X134720000Y-114146064D01*
X133250000Y-113691936D02*
X133250000Y-114146064D01*
G04 #@! TO.C,J4*
X135255000Y-120431000D02*
X135255000Y-117771000D01*
X135255000Y-120431000D02*
X137855000Y-120431000D01*
X137855000Y-120431000D02*
X137855000Y-117771000D01*
X135255000Y-117771000D02*
X137855000Y-117771000D01*
X132655000Y-117771000D02*
X133985000Y-117771000D01*
X132655000Y-119101000D02*
X132655000Y-117771000D01*
G04 #@! TO.C,J1*
X179150000Y-94488000D02*
G75*
G03*
X179150000Y-94488000I-80000J0D01*
G01*
X184150000Y-88900000D02*
X184150000Y-96520000D01*
G04 #@! TO.C,C4*
X175550800Y-94149999D02*
X175550800Y-89939999D01*
X172530800Y-94149999D02*
X175550800Y-94149999D01*
X172530800Y-89939999D02*
X172530800Y-94149999D01*
G04 #@! TO.C,RV1*
X167449500Y-108648500D02*
G75*
G03*
X167449500Y-108648500I-63500J0D01*
G01*
X170878500Y-110299500D02*
X167132000Y-110299500D01*
X170878500Y-105346500D02*
X170878500Y-110299500D01*
X167132000Y-105346500D02*
X170878500Y-105346500D01*
X167132000Y-110299500D02*
X167132000Y-105346500D01*
X169481500Y-107823000D02*
G75*
G03*
X169481500Y-107823000I-444500J0D01*
G01*
G04 #@! TO.C,J2*
X124570000Y-122156000D02*
X124570000Y-116136000D01*
X124570000Y-116136000D02*
X116730000Y-116136000D01*
X116730000Y-116136000D02*
X116730000Y-122156000D01*
X116730000Y-122156000D02*
X124570000Y-122156000D01*
X124860000Y-121126000D02*
X124860000Y-117126000D01*
X123190000Y-116136000D02*
X123190000Y-117136000D01*
X123190000Y-117136000D02*
X118110000Y-117136000D01*
X118110000Y-117136000D02*
X118110000Y-116136000D01*
X123190000Y-117136000D02*
X122940000Y-117666000D01*
X122940000Y-117666000D02*
X118360000Y-117666000D01*
X118360000Y-117666000D02*
X118110000Y-117136000D01*
X122940000Y-116136000D02*
X122940000Y-117136000D01*
X118360000Y-116136000D02*
X118360000Y-117136000D01*
X123990000Y-122156000D02*
X123990000Y-121556000D01*
X123990000Y-121556000D02*
X122390000Y-121556000D01*
X122390000Y-121556000D02*
X122390000Y-122156000D01*
X121450000Y-122156000D02*
X121450000Y-121556000D01*
X121450000Y-121556000D02*
X119850000Y-121556000D01*
X119850000Y-121556000D02*
X119850000Y-122156000D01*
X118910000Y-122156000D02*
X118910000Y-121556000D01*
X118910000Y-121556000D02*
X117310000Y-121556000D01*
X117310000Y-121556000D02*
X117310000Y-122156000D01*
G04 #@! TO.C,J3*
X178568000Y-105636800D02*
X179018000Y-105636800D01*
X178568000Y-105636800D02*
X178568000Y-105186800D01*
X179118000Y-100036800D02*
X179118000Y-100486800D01*
X180968000Y-100036800D02*
X179118000Y-100036800D01*
X183518000Y-107836800D02*
X183268000Y-107836800D01*
X183518000Y-100036800D02*
X183268000Y-100036800D01*
X180968000Y-107836800D02*
X179118000Y-107836800D01*
X179118000Y-107836800D02*
X179118000Y-107386800D01*
G04 #@! TO.C,U2*
X162605500Y-105227000D02*
X164065500Y-105227000D01*
X162605500Y-108387000D02*
X164765500Y-108387000D01*
X162605500Y-108387000D02*
X162605500Y-107457000D01*
X162605500Y-105227000D02*
X162605500Y-106157000D01*
G04 #@! TO.C,U4*
X98603600Y-90041800D02*
X96788600Y-90041800D01*
X98603600Y-89796800D02*
X98603600Y-90041800D01*
X102463600Y-89796800D02*
X98603600Y-89796800D01*
X106323600Y-89796800D02*
X106323600Y-90041800D01*
X102463600Y-89796800D02*
X106323600Y-89796800D01*
X98603600Y-107916800D02*
X98603600Y-107671800D01*
X102463600Y-107916800D02*
X98603600Y-107916800D01*
X106323600Y-107916800D02*
X106323600Y-107671800D01*
X102463600Y-107916800D02*
X106323600Y-107916800D01*
G04 #@! TO.C,U3*
X120674001Y-89751000D02*
X117224001Y-89751000D01*
X120674001Y-89751000D02*
X122624001Y-89751000D01*
X120674001Y-98621000D02*
X118724001Y-98621000D01*
X120674001Y-98621000D02*
X122624001Y-98621000D01*
G04 #@! TO.C,U1*
X156654500Y-100708399D02*
X153204500Y-100708399D01*
X156654500Y-100708399D02*
X158604500Y-100708399D01*
X156654500Y-105828399D02*
X154704500Y-105828399D01*
X156654500Y-105828399D02*
X158604500Y-105828399D01*
G04 #@! TO.C,R12*
X131375000Y-95703336D02*
X131375000Y-96157464D01*
X132845000Y-95703336D02*
X132845000Y-96157464D01*
G04 #@! TO.C,R11*
X134901000Y-95703336D02*
X134901000Y-96157464D01*
X136371000Y-95703336D02*
X136371000Y-96157464D01*
G04 #@! TO.C,R10*
X142147664Y-103100200D02*
X141693536Y-103100200D01*
X142147664Y-104570200D02*
X141693536Y-104570200D01*
G04 #@! TO.C,R9*
X141746236Y-102253399D02*
X142200364Y-102253399D01*
X141746236Y-100783399D02*
X142200364Y-100783399D01*
G04 #@! TO.C,R7*
X148730064Y-103100200D02*
X148275936Y-103100200D01*
X148730064Y-104570200D02*
X148275936Y-104570200D01*
G04 #@! TO.C,R6*
X148730064Y-100783399D02*
X148275936Y-100783399D01*
X148730064Y-102253399D02*
X148275936Y-102253399D01*
G04 #@! TO.C,R4*
X132800000Y-91513064D02*
X132800000Y-91058936D01*
X131330000Y-91513064D02*
X131330000Y-91058936D01*
G04 #@! TO.C,R15*
X125757000Y-102592136D02*
X125757000Y-103046264D01*
X127227000Y-102592136D02*
X127227000Y-103046264D01*
G04 #@! TO.C,R14*
X118441800Y-103608136D02*
X118441800Y-104062264D01*
X119911800Y-103608136D02*
X119911800Y-104062264D01*
G04 #@! TO.C,R13*
X122048600Y-102592136D02*
X122048600Y-103046264D01*
X123518600Y-102592136D02*
X123518600Y-103046264D01*
G04 #@! TO.C,R5*
X153643064Y-94808750D02*
X153188936Y-94808750D01*
X153643064Y-96278750D02*
X153188936Y-96278750D01*
G04 #@! TO.C,R8*
X169127436Y-104494000D02*
X169581564Y-104494000D01*
X169127436Y-103024000D02*
X169581564Y-103024000D01*
G04 #@! TO.C,R3*
X163612564Y-103024000D02*
X163158436Y-103024000D01*
X163612564Y-104494000D02*
X163158436Y-104494000D01*
G04 #@! TO.C,R2*
X163158436Y-102253399D02*
X163612564Y-102253399D01*
X163158436Y-100783399D02*
X163612564Y-100783399D01*
G04 #@! TO.C,R1*
X127789000Y-91058936D02*
X127789000Y-91513064D01*
X129259000Y-91058936D02*
X129259000Y-91513064D01*
G04 #@! TO.C,MK1*
X147365311Y-93136310D02*
G75*
G03*
X147365311Y-93136310I-3537811J0D01*
G01*
X143065500Y-89852500D02*
X143065500Y-90868500D01*
X143065500Y-90360500D02*
X143065500Y-89852500D01*
X143573500Y-90360500D02*
X143065500Y-90360500D01*
X142557500Y-90360500D02*
X143573500Y-90360500D01*
G04 #@! TO.C,JP1*
X154816000Y-93710000D02*
X152016000Y-93710000D01*
X152016000Y-93710000D02*
X152016000Y-91710000D01*
X152016000Y-91710000D02*
X154816000Y-91710000D01*
X154816000Y-91710000D02*
X154816000Y-93710000D01*
G04 #@! TO.C,D128*
X177417000Y-84751800D02*
X181302000Y-84751800D01*
X177417000Y-82481800D02*
X177417000Y-84751800D01*
X181302000Y-82481800D02*
X177417000Y-82481800D01*
G04 #@! TO.C,D127*
X171600400Y-84751800D02*
X175485400Y-84751800D01*
X171600400Y-82481800D02*
X171600400Y-84751800D01*
X175485400Y-82481800D02*
X171600400Y-82481800D01*
G04 #@! TO.C,D126*
X165783800Y-84751800D02*
X169668800Y-84751800D01*
X165783800Y-82481800D02*
X165783800Y-84751800D01*
X169668800Y-82481800D02*
X165783800Y-82481800D01*
G04 #@! TO.C,D125*
X159967200Y-84751800D02*
X163852200Y-84751800D01*
X159967200Y-82481800D02*
X159967200Y-84751800D01*
X163852200Y-82481800D02*
X159967200Y-82481800D01*
G04 #@! TO.C,D124*
X154150600Y-84751800D02*
X158035600Y-84751800D01*
X154150600Y-82481800D02*
X154150600Y-84751800D01*
X158035600Y-82481800D02*
X154150600Y-82481800D01*
G04 #@! TO.C,D123*
X148334000Y-84751800D02*
X152219000Y-84751800D01*
X148334000Y-82481800D02*
X148334000Y-84751800D01*
X152219000Y-82481800D02*
X148334000Y-82481800D01*
G04 #@! TO.C,D122*
X142517400Y-84751800D02*
X146402400Y-84751800D01*
X142517400Y-82481800D02*
X142517400Y-84751800D01*
X146402400Y-82481800D02*
X142517400Y-82481800D01*
G04 #@! TO.C,D121*
X136700800Y-84751800D02*
X140585800Y-84751800D01*
X136700800Y-82481800D02*
X136700800Y-84751800D01*
X140585800Y-82481800D02*
X136700800Y-82481800D01*
G04 #@! TO.C,D120*
X130884200Y-84751800D02*
X134769200Y-84751800D01*
X130884200Y-82481800D02*
X130884200Y-84751800D01*
X134769200Y-82481800D02*
X130884200Y-82481800D01*
G04 #@! TO.C,D119*
X125067600Y-84751800D02*
X128952600Y-84751800D01*
X125067600Y-82481800D02*
X125067600Y-84751800D01*
X128952600Y-82481800D02*
X125067600Y-82481800D01*
G04 #@! TO.C,D118*
X119251000Y-84751800D02*
X123136000Y-84751800D01*
X119251000Y-82481800D02*
X119251000Y-84751800D01*
X123136000Y-82481800D02*
X119251000Y-82481800D01*
G04 #@! TO.C,D117*
X113434400Y-84751800D02*
X117319400Y-84751800D01*
X113434400Y-82481800D02*
X113434400Y-84751800D01*
X117319400Y-82481800D02*
X113434400Y-82481800D01*
G04 #@! TO.C,D116*
X107617800Y-84751800D02*
X111502800Y-84751800D01*
X107617800Y-82481800D02*
X107617800Y-84751800D01*
X111502800Y-82481800D02*
X107617800Y-82481800D01*
G04 #@! TO.C,D115*
X101801200Y-84751800D02*
X105686200Y-84751800D01*
X101801200Y-82481800D02*
X101801200Y-84751800D01*
X105686200Y-82481800D02*
X101801200Y-82481800D01*
G04 #@! TO.C,D114*
X95984600Y-84751800D02*
X99869600Y-84751800D01*
X95984600Y-82481800D02*
X95984600Y-84751800D01*
X99869600Y-82481800D02*
X95984600Y-82481800D01*
G04 #@! TO.C,D113*
X90168000Y-84751800D02*
X94053000Y-84751800D01*
X90168000Y-82481800D02*
X90168000Y-84751800D01*
X94053000Y-82481800D02*
X90168000Y-82481800D01*
G04 #@! TO.C,D112*
X177417000Y-80172542D02*
X181302000Y-80172542D01*
X177417000Y-77902542D02*
X177417000Y-80172542D01*
X181302000Y-77902542D02*
X177417000Y-77902542D01*
G04 #@! TO.C,D111*
X171600400Y-80172542D02*
X175485400Y-80172542D01*
X171600400Y-77902542D02*
X171600400Y-80172542D01*
X175485400Y-77902542D02*
X171600400Y-77902542D01*
G04 #@! TO.C,D110*
X165783800Y-80172542D02*
X169668800Y-80172542D01*
X165783800Y-77902542D02*
X165783800Y-80172542D01*
X169668800Y-77902542D02*
X165783800Y-77902542D01*
G04 #@! TO.C,D109*
X159967200Y-80172542D02*
X163852200Y-80172542D01*
X159967200Y-77902542D02*
X159967200Y-80172542D01*
X163852200Y-77902542D02*
X159967200Y-77902542D01*
G04 #@! TO.C,D108*
X154150600Y-80172542D02*
X158035600Y-80172542D01*
X154150600Y-77902542D02*
X154150600Y-80172542D01*
X158035600Y-77902542D02*
X154150600Y-77902542D01*
G04 #@! TO.C,D107*
X148334000Y-80172542D02*
X152219000Y-80172542D01*
X148334000Y-77902542D02*
X148334000Y-80172542D01*
X152219000Y-77902542D02*
X148334000Y-77902542D01*
G04 #@! TO.C,D106*
X142517400Y-80172542D02*
X146402400Y-80172542D01*
X142517400Y-77902542D02*
X142517400Y-80172542D01*
X146402400Y-77902542D02*
X142517400Y-77902542D01*
G04 #@! TO.C,D105*
X136700800Y-80172542D02*
X140585800Y-80172542D01*
X136700800Y-77902542D02*
X136700800Y-80172542D01*
X140585800Y-77902542D02*
X136700800Y-77902542D01*
G04 #@! TO.C,D104*
X130884200Y-80172542D02*
X134769200Y-80172542D01*
X130884200Y-77902542D02*
X130884200Y-80172542D01*
X134769200Y-77902542D02*
X130884200Y-77902542D01*
G04 #@! TO.C,D103*
X125067600Y-80172542D02*
X128952600Y-80172542D01*
X125067600Y-77902542D02*
X125067600Y-80172542D01*
X128952600Y-77902542D02*
X125067600Y-77902542D01*
G04 #@! TO.C,D102*
X119251000Y-80172542D02*
X123136000Y-80172542D01*
X119251000Y-77902542D02*
X119251000Y-80172542D01*
X123136000Y-77902542D02*
X119251000Y-77902542D01*
G04 #@! TO.C,D101*
X113434400Y-80172542D02*
X117319400Y-80172542D01*
X113434400Y-77902542D02*
X113434400Y-80172542D01*
X117319400Y-77902542D02*
X113434400Y-77902542D01*
G04 #@! TO.C,D100*
X107617800Y-80172542D02*
X111502800Y-80172542D01*
X107617800Y-77902542D02*
X107617800Y-80172542D01*
X111502800Y-77902542D02*
X107617800Y-77902542D01*
G04 #@! TO.C,D99*
X101801200Y-80172542D02*
X105686200Y-80172542D01*
X101801200Y-77902542D02*
X101801200Y-80172542D01*
X105686200Y-77902542D02*
X101801200Y-77902542D01*
G04 #@! TO.C,D98*
X95984600Y-80172542D02*
X99869600Y-80172542D01*
X95984600Y-77902542D02*
X95984600Y-80172542D01*
X99869600Y-77902542D02*
X95984600Y-77902542D01*
G04 #@! TO.C,D97*
X90168000Y-80172542D02*
X94053000Y-80172542D01*
X90168000Y-77902542D02*
X90168000Y-80172542D01*
X94053000Y-77902542D02*
X90168000Y-77902542D01*
G04 #@! TO.C,D96*
X177417000Y-75593285D02*
X181302000Y-75593285D01*
X177417000Y-73323285D02*
X177417000Y-75593285D01*
X181302000Y-73323285D02*
X177417000Y-73323285D01*
G04 #@! TO.C,D95*
X171600400Y-75593285D02*
X175485400Y-75593285D01*
X171600400Y-73323285D02*
X171600400Y-75593285D01*
X175485400Y-73323285D02*
X171600400Y-73323285D01*
G04 #@! TO.C,D94*
X165783800Y-75593285D02*
X169668800Y-75593285D01*
X165783800Y-73323285D02*
X165783800Y-75593285D01*
X169668800Y-73323285D02*
X165783800Y-73323285D01*
G04 #@! TO.C,D93*
X159967200Y-75593285D02*
X163852200Y-75593285D01*
X159967200Y-73323285D02*
X159967200Y-75593285D01*
X163852200Y-73323285D02*
X159967200Y-73323285D01*
G04 #@! TO.C,D92*
X154150600Y-75593285D02*
X158035600Y-75593285D01*
X154150600Y-73323285D02*
X154150600Y-75593285D01*
X158035600Y-73323285D02*
X154150600Y-73323285D01*
G04 #@! TO.C,D91*
X148334000Y-75593285D02*
X152219000Y-75593285D01*
X148334000Y-73323285D02*
X148334000Y-75593285D01*
X152219000Y-73323285D02*
X148334000Y-73323285D01*
G04 #@! TO.C,D90*
X142517400Y-75593285D02*
X146402400Y-75593285D01*
X142517400Y-73323285D02*
X142517400Y-75593285D01*
X146402400Y-73323285D02*
X142517400Y-73323285D01*
G04 #@! TO.C,D89*
X136700800Y-75593285D02*
X140585800Y-75593285D01*
X136700800Y-73323285D02*
X136700800Y-75593285D01*
X140585800Y-73323285D02*
X136700800Y-73323285D01*
G04 #@! TO.C,D88*
X130884200Y-75593285D02*
X134769200Y-75593285D01*
X130884200Y-73323285D02*
X130884200Y-75593285D01*
X134769200Y-73323285D02*
X130884200Y-73323285D01*
G04 #@! TO.C,D87*
X125067600Y-75593285D02*
X128952600Y-75593285D01*
X125067600Y-73323285D02*
X125067600Y-75593285D01*
X128952600Y-73323285D02*
X125067600Y-73323285D01*
G04 #@! TO.C,D86*
X119251000Y-75593285D02*
X123136000Y-75593285D01*
X119251000Y-73323285D02*
X119251000Y-75593285D01*
X123136000Y-73323285D02*
X119251000Y-73323285D01*
G04 #@! TO.C,D85*
X113434400Y-75593285D02*
X117319400Y-75593285D01*
X113434400Y-73323285D02*
X113434400Y-75593285D01*
X117319400Y-73323285D02*
X113434400Y-73323285D01*
G04 #@! TO.C,D84*
X107617800Y-75593285D02*
X111502800Y-75593285D01*
X107617800Y-73323285D02*
X107617800Y-75593285D01*
X111502800Y-73323285D02*
X107617800Y-73323285D01*
G04 #@! TO.C,D83*
X101801200Y-75593285D02*
X105686200Y-75593285D01*
X101801200Y-73323285D02*
X101801200Y-75593285D01*
X105686200Y-73323285D02*
X101801200Y-73323285D01*
G04 #@! TO.C,D82*
X95984600Y-75593285D02*
X99869600Y-75593285D01*
X95984600Y-73323285D02*
X95984600Y-75593285D01*
X99869600Y-73323285D02*
X95984600Y-73323285D01*
G04 #@! TO.C,D81*
X90168000Y-75593285D02*
X94053000Y-75593285D01*
X90168000Y-73323285D02*
X90168000Y-75593285D01*
X94053000Y-73323285D02*
X90168000Y-73323285D01*
G04 #@! TO.C,D80*
X177417000Y-71014028D02*
X181302000Y-71014028D01*
X177417000Y-68744028D02*
X177417000Y-71014028D01*
X181302000Y-68744028D02*
X177417000Y-68744028D01*
G04 #@! TO.C,D79*
X171600400Y-71014028D02*
X175485400Y-71014028D01*
X171600400Y-68744028D02*
X171600400Y-71014028D01*
X175485400Y-68744028D02*
X171600400Y-68744028D01*
G04 #@! TO.C,D78*
X165783800Y-71014028D02*
X169668800Y-71014028D01*
X165783800Y-68744028D02*
X165783800Y-71014028D01*
X169668800Y-68744028D02*
X165783800Y-68744028D01*
G04 #@! TO.C,D77*
X159967200Y-71014028D02*
X163852200Y-71014028D01*
X159967200Y-68744028D02*
X159967200Y-71014028D01*
X163852200Y-68744028D02*
X159967200Y-68744028D01*
G04 #@! TO.C,D76*
X154150600Y-71014028D02*
X158035600Y-71014028D01*
X154150600Y-68744028D02*
X154150600Y-71014028D01*
X158035600Y-68744028D02*
X154150600Y-68744028D01*
G04 #@! TO.C,D75*
X148334000Y-71014028D02*
X152219000Y-71014028D01*
X148334000Y-68744028D02*
X148334000Y-71014028D01*
X152219000Y-68744028D02*
X148334000Y-68744028D01*
G04 #@! TO.C,D74*
X142517400Y-71014028D02*
X146402400Y-71014028D01*
X142517400Y-68744028D02*
X142517400Y-71014028D01*
X146402400Y-68744028D02*
X142517400Y-68744028D01*
G04 #@! TO.C,D73*
X136700800Y-71014028D02*
X140585800Y-71014028D01*
X136700800Y-68744028D02*
X136700800Y-71014028D01*
X140585800Y-68744028D02*
X136700800Y-68744028D01*
G04 #@! TO.C,D72*
X130884200Y-71014028D02*
X134769200Y-71014028D01*
X130884200Y-68744028D02*
X130884200Y-71014028D01*
X134769200Y-68744028D02*
X130884200Y-68744028D01*
G04 #@! TO.C,D71*
X125067600Y-71014028D02*
X128952600Y-71014028D01*
X125067600Y-68744028D02*
X125067600Y-71014028D01*
X128952600Y-68744028D02*
X125067600Y-68744028D01*
G04 #@! TO.C,D70*
X119251000Y-71014028D02*
X123136000Y-71014028D01*
X119251000Y-68744028D02*
X119251000Y-71014028D01*
X123136000Y-68744028D02*
X119251000Y-68744028D01*
G04 #@! TO.C,D69*
X113434400Y-71014028D02*
X117319400Y-71014028D01*
X113434400Y-68744028D02*
X113434400Y-71014028D01*
X117319400Y-68744028D02*
X113434400Y-68744028D01*
G04 #@! TO.C,D68*
X107617800Y-71014028D02*
X111502800Y-71014028D01*
X107617800Y-68744028D02*
X107617800Y-71014028D01*
X111502800Y-68744028D02*
X107617800Y-68744028D01*
G04 #@! TO.C,D67*
X101801200Y-71014028D02*
X105686200Y-71014028D01*
X101801200Y-68744028D02*
X101801200Y-71014028D01*
X105686200Y-68744028D02*
X101801200Y-68744028D01*
G04 #@! TO.C,D66*
X95984600Y-71014028D02*
X99869600Y-71014028D01*
X95984600Y-68744028D02*
X95984600Y-71014028D01*
X99869600Y-68744028D02*
X95984600Y-68744028D01*
G04 #@! TO.C,D65*
X90168000Y-71014028D02*
X94053000Y-71014028D01*
X90168000Y-68744028D02*
X90168000Y-71014028D01*
X94053000Y-68744028D02*
X90168000Y-68744028D01*
G04 #@! TO.C,D64*
X177417000Y-66434771D02*
X181302000Y-66434771D01*
X177417000Y-64164771D02*
X177417000Y-66434771D01*
X181302000Y-64164771D02*
X177417000Y-64164771D01*
G04 #@! TO.C,D63*
X171600400Y-66434771D02*
X175485400Y-66434771D01*
X171600400Y-64164771D02*
X171600400Y-66434771D01*
X175485400Y-64164771D02*
X171600400Y-64164771D01*
G04 #@! TO.C,D62*
X165783800Y-66434771D02*
X169668800Y-66434771D01*
X165783800Y-64164771D02*
X165783800Y-66434771D01*
X169668800Y-64164771D02*
X165783800Y-64164771D01*
G04 #@! TO.C,D61*
X159967200Y-66434771D02*
X163852200Y-66434771D01*
X159967200Y-64164771D02*
X159967200Y-66434771D01*
X163852200Y-64164771D02*
X159967200Y-64164771D01*
G04 #@! TO.C,D60*
X154150600Y-66434771D02*
X158035600Y-66434771D01*
X154150600Y-64164771D02*
X154150600Y-66434771D01*
X158035600Y-64164771D02*
X154150600Y-64164771D01*
G04 #@! TO.C,D59*
X148334000Y-66434771D02*
X152219000Y-66434771D01*
X148334000Y-64164771D02*
X148334000Y-66434771D01*
X152219000Y-64164771D02*
X148334000Y-64164771D01*
G04 #@! TO.C,D58*
X142517400Y-66434771D02*
X146402400Y-66434771D01*
X142517400Y-64164771D02*
X142517400Y-66434771D01*
X146402400Y-64164771D02*
X142517400Y-64164771D01*
G04 #@! TO.C,D57*
X136700800Y-66434771D02*
X140585800Y-66434771D01*
X136700800Y-64164771D02*
X136700800Y-66434771D01*
X140585800Y-64164771D02*
X136700800Y-64164771D01*
G04 #@! TO.C,D56*
X130884200Y-66434771D02*
X134769200Y-66434771D01*
X130884200Y-64164771D02*
X130884200Y-66434771D01*
X134769200Y-64164771D02*
X130884200Y-64164771D01*
G04 #@! TO.C,D55*
X125067600Y-66434771D02*
X128952600Y-66434771D01*
X125067600Y-64164771D02*
X125067600Y-66434771D01*
X128952600Y-64164771D02*
X125067600Y-64164771D01*
G04 #@! TO.C,D54*
X119251000Y-66434771D02*
X123136000Y-66434771D01*
X119251000Y-64164771D02*
X119251000Y-66434771D01*
X123136000Y-64164771D02*
X119251000Y-64164771D01*
G04 #@! TO.C,D53*
X113434400Y-66434771D02*
X117319400Y-66434771D01*
X113434400Y-64164771D02*
X113434400Y-66434771D01*
X117319400Y-64164771D02*
X113434400Y-64164771D01*
G04 #@! TO.C,D52*
X107617800Y-66434771D02*
X111502800Y-66434771D01*
X107617800Y-64164771D02*
X107617800Y-66434771D01*
X111502800Y-64164771D02*
X107617800Y-64164771D01*
G04 #@! TO.C,D51*
X101801200Y-66434771D02*
X105686200Y-66434771D01*
X101801200Y-64164771D02*
X101801200Y-66434771D01*
X105686200Y-64164771D02*
X101801200Y-64164771D01*
G04 #@! TO.C,D50*
X95984600Y-66434771D02*
X99869600Y-66434771D01*
X95984600Y-64164771D02*
X95984600Y-66434771D01*
X99869600Y-64164771D02*
X95984600Y-64164771D01*
G04 #@! TO.C,D49*
X90168000Y-66434771D02*
X94053000Y-66434771D01*
X90168000Y-64164771D02*
X90168000Y-66434771D01*
X94053000Y-64164771D02*
X90168000Y-64164771D01*
G04 #@! TO.C,D48*
X177417000Y-61855514D02*
X181302000Y-61855514D01*
X177417000Y-59585514D02*
X177417000Y-61855514D01*
X181302000Y-59585514D02*
X177417000Y-59585514D01*
G04 #@! TO.C,D47*
X171600400Y-61855514D02*
X175485400Y-61855514D01*
X171600400Y-59585514D02*
X171600400Y-61855514D01*
X175485400Y-59585514D02*
X171600400Y-59585514D01*
G04 #@! TO.C,D46*
X165783800Y-61855514D02*
X169668800Y-61855514D01*
X165783800Y-59585514D02*
X165783800Y-61855514D01*
X169668800Y-59585514D02*
X165783800Y-59585514D01*
G04 #@! TO.C,D45*
X159967200Y-61855514D02*
X163852200Y-61855514D01*
X159967200Y-59585514D02*
X159967200Y-61855514D01*
X163852200Y-59585514D02*
X159967200Y-59585514D01*
G04 #@! TO.C,D44*
X154150600Y-61855514D02*
X158035600Y-61855514D01*
X154150600Y-59585514D02*
X154150600Y-61855514D01*
X158035600Y-59585514D02*
X154150600Y-59585514D01*
G04 #@! TO.C,D43*
X148334000Y-61855514D02*
X152219000Y-61855514D01*
X148334000Y-59585514D02*
X148334000Y-61855514D01*
X152219000Y-59585514D02*
X148334000Y-59585514D01*
G04 #@! TO.C,D42*
X142517400Y-61855514D02*
X146402400Y-61855514D01*
X142517400Y-59585514D02*
X142517400Y-61855514D01*
X146402400Y-59585514D02*
X142517400Y-59585514D01*
G04 #@! TO.C,D41*
X136700800Y-61855514D02*
X140585800Y-61855514D01*
X136700800Y-59585514D02*
X136700800Y-61855514D01*
X140585800Y-59585514D02*
X136700800Y-59585514D01*
G04 #@! TO.C,D40*
X130884200Y-61855514D02*
X134769200Y-61855514D01*
X130884200Y-59585514D02*
X130884200Y-61855514D01*
X134769200Y-59585514D02*
X130884200Y-59585514D01*
G04 #@! TO.C,D39*
X125067600Y-61855514D02*
X128952600Y-61855514D01*
X125067600Y-59585514D02*
X125067600Y-61855514D01*
X128952600Y-59585514D02*
X125067600Y-59585514D01*
G04 #@! TO.C,D38*
X119251000Y-61855514D02*
X123136000Y-61855514D01*
X119251000Y-59585514D02*
X119251000Y-61855514D01*
X123136000Y-59585514D02*
X119251000Y-59585514D01*
G04 #@! TO.C,D37*
X113434400Y-61855514D02*
X117319400Y-61855514D01*
X113434400Y-59585514D02*
X113434400Y-61855514D01*
X117319400Y-59585514D02*
X113434400Y-59585514D01*
G04 #@! TO.C,D36*
X107617800Y-61855514D02*
X111502800Y-61855514D01*
X107617800Y-59585514D02*
X107617800Y-61855514D01*
X111502800Y-59585514D02*
X107617800Y-59585514D01*
G04 #@! TO.C,D35*
X101801200Y-61855514D02*
X105686200Y-61855514D01*
X101801200Y-59585514D02*
X101801200Y-61855514D01*
X105686200Y-59585514D02*
X101801200Y-59585514D01*
G04 #@! TO.C,D34*
X95984600Y-61855514D02*
X99869600Y-61855514D01*
X95984600Y-59585514D02*
X95984600Y-61855514D01*
X99869600Y-59585514D02*
X95984600Y-59585514D01*
G04 #@! TO.C,D33*
X90168000Y-61855514D02*
X94053000Y-61855514D01*
X90168000Y-59585514D02*
X90168000Y-61855514D01*
X94053000Y-59585514D02*
X90168000Y-59585514D01*
G04 #@! TO.C,D32*
X177417000Y-57276257D02*
X181302000Y-57276257D01*
X177417000Y-55006257D02*
X177417000Y-57276257D01*
X181302000Y-55006257D02*
X177417000Y-55006257D01*
G04 #@! TO.C,D31*
X171600400Y-57276257D02*
X175485400Y-57276257D01*
X171600400Y-55006257D02*
X171600400Y-57276257D01*
X175485400Y-55006257D02*
X171600400Y-55006257D01*
G04 #@! TO.C,D30*
X165783800Y-57276257D02*
X169668800Y-57276257D01*
X165783800Y-55006257D02*
X165783800Y-57276257D01*
X169668800Y-55006257D02*
X165783800Y-55006257D01*
G04 #@! TO.C,D29*
X159967200Y-57276257D02*
X163852200Y-57276257D01*
X159967200Y-55006257D02*
X159967200Y-57276257D01*
X163852200Y-55006257D02*
X159967200Y-55006257D01*
G04 #@! TO.C,D28*
X154150600Y-57276257D02*
X158035600Y-57276257D01*
X154150600Y-55006257D02*
X154150600Y-57276257D01*
X158035600Y-55006257D02*
X154150600Y-55006257D01*
G04 #@! TO.C,D27*
X148334000Y-57276257D02*
X152219000Y-57276257D01*
X148334000Y-55006257D02*
X148334000Y-57276257D01*
X152219000Y-55006257D02*
X148334000Y-55006257D01*
G04 #@! TO.C,D26*
X142517400Y-57276257D02*
X146402400Y-57276257D01*
X142517400Y-55006257D02*
X142517400Y-57276257D01*
X146402400Y-55006257D02*
X142517400Y-55006257D01*
G04 #@! TO.C,D25*
X136700800Y-57276257D02*
X140585800Y-57276257D01*
X136700800Y-55006257D02*
X136700800Y-57276257D01*
X140585800Y-55006257D02*
X136700800Y-55006257D01*
G04 #@! TO.C,D24*
X130884200Y-57276257D02*
X134769200Y-57276257D01*
X130884200Y-55006257D02*
X130884200Y-57276257D01*
X134769200Y-55006257D02*
X130884200Y-55006257D01*
G04 #@! TO.C,D23*
X125067600Y-57276257D02*
X128952600Y-57276257D01*
X125067600Y-55006257D02*
X125067600Y-57276257D01*
X128952600Y-55006257D02*
X125067600Y-55006257D01*
G04 #@! TO.C,D22*
X119251000Y-57276257D02*
X123136000Y-57276257D01*
X119251000Y-55006257D02*
X119251000Y-57276257D01*
X123136000Y-55006257D02*
X119251000Y-55006257D01*
G04 #@! TO.C,D21*
X113434400Y-57276257D02*
X117319400Y-57276257D01*
X113434400Y-55006257D02*
X113434400Y-57276257D01*
X117319400Y-55006257D02*
X113434400Y-55006257D01*
G04 #@! TO.C,D20*
X107617800Y-57276257D02*
X111502800Y-57276257D01*
X107617800Y-55006257D02*
X107617800Y-57276257D01*
X111502800Y-55006257D02*
X107617800Y-55006257D01*
G04 #@! TO.C,D19*
X101801200Y-57276257D02*
X105686200Y-57276257D01*
X101801200Y-55006257D02*
X101801200Y-57276257D01*
X105686200Y-55006257D02*
X101801200Y-55006257D01*
G04 #@! TO.C,D18*
X95984600Y-57276257D02*
X99869600Y-57276257D01*
X95984600Y-55006257D02*
X95984600Y-57276257D01*
X99869600Y-55006257D02*
X95984600Y-55006257D01*
G04 #@! TO.C,D17*
X90168000Y-57276257D02*
X94053000Y-57276257D01*
X90168000Y-55006257D02*
X90168000Y-57276257D01*
X94053000Y-55006257D02*
X90168000Y-55006257D01*
G04 #@! TO.C,D16*
X177417000Y-52697000D02*
X181302000Y-52697000D01*
X177417000Y-50427000D02*
X177417000Y-52697000D01*
X181302000Y-50427000D02*
X177417000Y-50427000D01*
G04 #@! TO.C,D15*
X171600400Y-52697000D02*
X175485400Y-52697000D01*
X171600400Y-50427000D02*
X171600400Y-52697000D01*
X175485400Y-50427000D02*
X171600400Y-50427000D01*
G04 #@! TO.C,D14*
X165783800Y-52697000D02*
X169668800Y-52697000D01*
X165783800Y-50427000D02*
X165783800Y-52697000D01*
X169668800Y-50427000D02*
X165783800Y-50427000D01*
G04 #@! TO.C,D13*
X159967200Y-52697000D02*
X163852200Y-52697000D01*
X159967200Y-50427000D02*
X159967200Y-52697000D01*
X163852200Y-50427000D02*
X159967200Y-50427000D01*
G04 #@! TO.C,D12*
X154150600Y-52697000D02*
X158035600Y-52697000D01*
X154150600Y-50427000D02*
X154150600Y-52697000D01*
X158035600Y-50427000D02*
X154150600Y-50427000D01*
G04 #@! TO.C,D11*
X148334000Y-52697000D02*
X152219000Y-52697000D01*
X148334000Y-50427000D02*
X148334000Y-52697000D01*
X152219000Y-50427000D02*
X148334000Y-50427000D01*
G04 #@! TO.C,D10*
X142517400Y-52697000D02*
X146402400Y-52697000D01*
X142517400Y-50427000D02*
X142517400Y-52697000D01*
X146402400Y-50427000D02*
X142517400Y-50427000D01*
G04 #@! TO.C,D9*
X136700800Y-52697000D02*
X140585800Y-52697000D01*
X136700800Y-50427000D02*
X136700800Y-52697000D01*
X140585800Y-50427000D02*
X136700800Y-50427000D01*
G04 #@! TO.C,D8*
X130884200Y-52697000D02*
X134769200Y-52697000D01*
X130884200Y-50427000D02*
X130884200Y-52697000D01*
X134769200Y-50427000D02*
X130884200Y-50427000D01*
G04 #@! TO.C,D7*
X125067600Y-52697000D02*
X128952600Y-52697000D01*
X125067600Y-50427000D02*
X125067600Y-52697000D01*
X128952600Y-50427000D02*
X125067600Y-50427000D01*
G04 #@! TO.C,D6*
X119251000Y-52697000D02*
X123136000Y-52697000D01*
X119251000Y-50427000D02*
X119251000Y-52697000D01*
X123136000Y-50427000D02*
X119251000Y-50427000D01*
G04 #@! TO.C,D5*
X113434400Y-52697000D02*
X117319400Y-52697000D01*
X113434400Y-50427000D02*
X113434400Y-52697000D01*
X117319400Y-50427000D02*
X113434400Y-50427000D01*
G04 #@! TO.C,D4*
X107617800Y-52697000D02*
X111502800Y-52697000D01*
X107617800Y-50427000D02*
X107617800Y-52697000D01*
X111502800Y-50427000D02*
X107617800Y-50427000D01*
G04 #@! TO.C,D3*
X101801200Y-52697000D02*
X105686200Y-52697000D01*
X101801200Y-50427000D02*
X101801200Y-52697000D01*
X105686200Y-50427000D02*
X101801200Y-50427000D01*
G04 #@! TO.C,D2*
X95984600Y-52697000D02*
X99869600Y-52697000D01*
X95984600Y-50427000D02*
X95984600Y-52697000D01*
X99869600Y-50427000D02*
X95984600Y-50427000D01*
G04 #@! TO.C,D1*
X90168000Y-52697000D02*
X94053000Y-52697000D01*
X90168000Y-50427000D02*
X90168000Y-52697000D01*
X94053000Y-50427000D02*
X90168000Y-50427000D01*
G04 #@! TO.C,C11*
X127819000Y-95689148D02*
X127819000Y-96211652D01*
X129289000Y-95689148D02*
X129289000Y-96211652D01*
G04 #@! TO.C,C9*
X148201748Y-106907000D02*
X148724252Y-106907000D01*
X148201748Y-105437000D02*
X148724252Y-105437000D01*
G04 #@! TO.C,C8*
X158361748Y-108312000D02*
X158884252Y-108312000D01*
X158361748Y-106842000D02*
X158884252Y-106842000D01*
G04 #@! TO.C,C7*
X153154748Y-98842500D02*
X153677252Y-98842500D01*
X153154748Y-97372500D02*
X153677252Y-97372500D01*
G04 #@! TO.C,C17*
X114673600Y-105460548D02*
X114673600Y-105983052D01*
X116143600Y-105460548D02*
X116143600Y-105983052D01*
G04 #@! TO.C,C16*
X111126600Y-105460548D02*
X111126600Y-105983052D01*
X112596600Y-105460548D02*
X112596600Y-105983052D01*
G04 #@! TO.C,C15*
X115791600Y-98524800D02*
X111581600Y-98524800D01*
X115791600Y-101544800D02*
X115791600Y-98524800D01*
X111581600Y-101544800D02*
X115791600Y-101544800D01*
G04 #@! TO.C,C14*
X115791600Y-93486000D02*
X111581600Y-93486000D01*
X115791600Y-96506000D02*
X115791600Y-93486000D01*
X111581600Y-96506000D02*
X115791600Y-96506000D01*
G04 #@! TO.C,C13*
X114387852Y-89892200D02*
X113865348Y-89892200D01*
X114387852Y-91362200D02*
X113865348Y-91362200D01*
G04 #@! TO.C,C12*
X171985000Y-107307248D02*
X171985000Y-107829752D01*
X173455000Y-107307248D02*
X173455000Y-107829752D01*
G04 #@! TO.C,C10*
X169113248Y-101890500D02*
X169635752Y-101890500D01*
X169113248Y-100420500D02*
X169635752Y-100420500D01*
G04 #@! TO.C,C3*
X170247466Y-94149999D02*
X170247466Y-89939999D01*
X167227466Y-94149999D02*
X170247466Y-94149999D01*
X167227466Y-89939999D02*
X167227466Y-94149999D01*
G04 #@! TO.C,C2*
X164944133Y-94149999D02*
X164944133Y-89939999D01*
X161924133Y-94149999D02*
X164944133Y-94149999D01*
X161924133Y-89939999D02*
X161924133Y-94149999D01*
G04 #@! TO.C,C1*
X159535800Y-92746251D02*
X159535800Y-92223747D01*
X158065800Y-92746251D02*
X158065800Y-92223747D01*
G04 #@! TO.C,C6*
X136371000Y-91567252D02*
X136371000Y-91044748D01*
X134901000Y-91567252D02*
X134901000Y-91044748D01*
G04 #@! TO.C,C5*
X163124248Y-99922000D02*
X163646752Y-99922000D01*
X163124248Y-98452000D02*
X163646752Y-98452000D01*
G04 #@! TO.C,C4*
D10*
X172047942Y-91856665D02*
X172095561Y-91904284D01*
X172143180Y-92047141D01*
X172143180Y-92142379D01*
X172095561Y-92285237D01*
X172000323Y-92380475D01*
X171905085Y-92428094D01*
X171714609Y-92475713D01*
X171571752Y-92475713D01*
X171381276Y-92428094D01*
X171286038Y-92380475D01*
X171190800Y-92285237D01*
X171143180Y-92142379D01*
X171143180Y-92047141D01*
X171190800Y-91904284D01*
X171238419Y-91856665D01*
X171476514Y-90999522D02*
X172143180Y-90999522D01*
X171095561Y-91237618D02*
X171809847Y-91475713D01*
X171809847Y-90856665D01*
G04 #@! TO.C,J3*
X177220380Y-104270133D02*
X177934666Y-104270133D01*
X178077523Y-104317752D01*
X178172761Y-104412990D01*
X178220380Y-104555847D01*
X178220380Y-104651085D01*
X177220380Y-103889180D02*
X177220380Y-103270133D01*
X177601333Y-103603466D01*
X177601333Y-103460609D01*
X177648952Y-103365371D01*
X177696571Y-103317752D01*
X177791809Y-103270133D01*
X178029904Y-103270133D01*
X178125142Y-103317752D01*
X178172761Y-103365371D01*
X178220380Y-103460609D01*
X178220380Y-103746323D01*
X178172761Y-103841561D01*
X178125142Y-103889180D01*
G04 #@! TO.C,U2*
X162603595Y-108759380D02*
X162603595Y-109568904D01*
X162651214Y-109664142D01*
X162698833Y-109711761D01*
X162794071Y-109759380D01*
X162984547Y-109759380D01*
X163079785Y-109711761D01*
X163127404Y-109664142D01*
X163175023Y-109568904D01*
X163175023Y-108759380D01*
X163603595Y-108854619D02*
X163651214Y-108807000D01*
X163746452Y-108759380D01*
X163984547Y-108759380D01*
X164079785Y-108807000D01*
X164127404Y-108854619D01*
X164175023Y-108949857D01*
X164175023Y-109045095D01*
X164127404Y-109187952D01*
X163555976Y-109759380D01*
X164175023Y-109759380D01*
G04 #@! TO.C,U4*
X101701695Y-88409180D02*
X101701695Y-89218704D01*
X101749314Y-89313942D01*
X101796933Y-89361561D01*
X101892171Y-89409180D01*
X102082647Y-89409180D01*
X102177885Y-89361561D01*
X102225504Y-89313942D01*
X102273123Y-89218704D01*
X102273123Y-88409180D01*
X103177885Y-88742514D02*
X103177885Y-89409180D01*
X102939790Y-88361561D02*
X102701695Y-89075847D01*
X103320742Y-89075847D01*
G04 #@! TO.C,U3*
X119912096Y-88358380D02*
X119912096Y-89167904D01*
X119959715Y-89263142D01*
X120007334Y-89310761D01*
X120102572Y-89358380D01*
X120293048Y-89358380D01*
X120388286Y-89310761D01*
X120435905Y-89263142D01*
X120483524Y-89167904D01*
X120483524Y-88358380D01*
X120864477Y-88358380D02*
X121483524Y-88358380D01*
X121150191Y-88739333D01*
X121293048Y-88739333D01*
X121388286Y-88786952D01*
X121435905Y-88834571D01*
X121483524Y-88929809D01*
X121483524Y-89167904D01*
X121435905Y-89263142D01*
X121388286Y-89310761D01*
X121293048Y-89358380D01*
X121007334Y-89358380D01*
X120912096Y-89310761D01*
X120864477Y-89263142D01*
G04 #@! TO.C,U1*
X155892595Y-99320779D02*
X155892595Y-100130303D01*
X155940214Y-100225541D01*
X155987833Y-100273160D01*
X156083071Y-100320779D01*
X156273547Y-100320779D01*
X156368785Y-100273160D01*
X156416404Y-100225541D01*
X156464023Y-100130303D01*
X156464023Y-99320779D01*
X157464023Y-100320779D02*
X156892595Y-100320779D01*
X157178309Y-100320779D02*
X157178309Y-99320779D01*
X157083071Y-99463637D01*
X156987833Y-99558875D01*
X156892595Y-99606494D01*
G04 #@! TO.C,R12*
X134212380Y-96573257D02*
X133736190Y-96906590D01*
X134212380Y-97144685D02*
X133212380Y-97144685D01*
X133212380Y-96763733D01*
X133260000Y-96668495D01*
X133307619Y-96620876D01*
X133402857Y-96573257D01*
X133545714Y-96573257D01*
X133640952Y-96620876D01*
X133688571Y-96668495D01*
X133736190Y-96763733D01*
X133736190Y-97144685D01*
X134212380Y-95620876D02*
X134212380Y-96192304D01*
X134212380Y-95906590D02*
X133212380Y-95906590D01*
X133355238Y-96001828D01*
X133450476Y-96097066D01*
X133498095Y-96192304D01*
X133307619Y-95239923D02*
X133260000Y-95192304D01*
X133212380Y-95097066D01*
X133212380Y-94858971D01*
X133260000Y-94763733D01*
X133307619Y-94716114D01*
X133402857Y-94668495D01*
X133498095Y-94668495D01*
X133640952Y-94716114D01*
X134212380Y-95287542D01*
X134212380Y-94668495D01*
G04 #@! TO.C,R11*
X137738380Y-96573257D02*
X137262190Y-96906590D01*
X137738380Y-97144685D02*
X136738380Y-97144685D01*
X136738380Y-96763733D01*
X136786000Y-96668495D01*
X136833619Y-96620876D01*
X136928857Y-96573257D01*
X137071714Y-96573257D01*
X137166952Y-96620876D01*
X137214571Y-96668495D01*
X137262190Y-96763733D01*
X137262190Y-97144685D01*
X137738380Y-95620876D02*
X137738380Y-96192304D01*
X137738380Y-95906590D02*
X136738380Y-95906590D01*
X136881238Y-96001828D01*
X136976476Y-96097066D01*
X137024095Y-96192304D01*
X137738380Y-94668495D02*
X137738380Y-95239923D01*
X137738380Y-94954209D02*
X136738380Y-94954209D01*
X136881238Y-95049447D01*
X136976476Y-95144685D01*
X137024095Y-95239923D01*
G04 #@! TO.C,R10*
X144480042Y-104287580D02*
X144146709Y-103811390D01*
X143908614Y-104287580D02*
X143908614Y-103287580D01*
X144289566Y-103287580D01*
X144384804Y-103335200D01*
X144432423Y-103382819D01*
X144480042Y-103478057D01*
X144480042Y-103620914D01*
X144432423Y-103716152D01*
X144384804Y-103763771D01*
X144289566Y-103811390D01*
X143908614Y-103811390D01*
X145432423Y-104287580D02*
X144860995Y-104287580D01*
X145146709Y-104287580D02*
X145146709Y-103287580D01*
X145051471Y-103430438D01*
X144956233Y-103525676D01*
X144860995Y-103573295D01*
X146051471Y-103287580D02*
X146146709Y-103287580D01*
X146241947Y-103335200D01*
X146289566Y-103382819D01*
X146337185Y-103478057D01*
X146384804Y-103668533D01*
X146384804Y-103906628D01*
X146337185Y-104097104D01*
X146289566Y-104192342D01*
X146241947Y-104239961D01*
X146146709Y-104287580D01*
X146051471Y-104287580D01*
X145956233Y-104239961D01*
X145908614Y-104192342D01*
X145860995Y-104097104D01*
X145813376Y-103906628D01*
X145813376Y-103668533D01*
X145860995Y-103478057D01*
X145908614Y-103382819D01*
X145956233Y-103335200D01*
X146051471Y-103287580D01*
G04 #@! TO.C,R9*
X144549833Y-101970779D02*
X144216500Y-101494589D01*
X143978404Y-101970779D02*
X143978404Y-100970779D01*
X144359357Y-100970779D01*
X144454595Y-101018399D01*
X144502214Y-101066018D01*
X144549833Y-101161256D01*
X144549833Y-101304113D01*
X144502214Y-101399351D01*
X144454595Y-101446970D01*
X144359357Y-101494589D01*
X143978404Y-101494589D01*
X145026023Y-101970779D02*
X145216500Y-101970779D01*
X145311738Y-101923160D01*
X145359357Y-101875541D01*
X145454595Y-101732684D01*
X145502214Y-101542208D01*
X145502214Y-101161256D01*
X145454595Y-101066018D01*
X145406976Y-101018399D01*
X145311738Y-100970779D01*
X145121261Y-100970779D01*
X145026023Y-101018399D01*
X144978404Y-101066018D01*
X144930785Y-101161256D01*
X144930785Y-101399351D01*
X144978404Y-101494589D01*
X145026023Y-101542208D01*
X145121261Y-101589827D01*
X145311738Y-101589827D01*
X145406976Y-101542208D01*
X145454595Y-101494589D01*
X145502214Y-101399351D01*
G04 #@! TO.C,R7*
X151079533Y-104287580D02*
X150746200Y-103811390D01*
X150508104Y-104287580D02*
X150508104Y-103287580D01*
X150889057Y-103287580D01*
X150984295Y-103335200D01*
X151031914Y-103382819D01*
X151079533Y-103478057D01*
X151079533Y-103620914D01*
X151031914Y-103716152D01*
X150984295Y-103763771D01*
X150889057Y-103811390D01*
X150508104Y-103811390D01*
X151412866Y-103287580D02*
X152079533Y-103287580D01*
X151650961Y-104287580D01*
G04 #@! TO.C,R6*
X151130333Y-101970779D02*
X150797000Y-101494589D01*
X150558904Y-101970779D02*
X150558904Y-100970779D01*
X150939857Y-100970779D01*
X151035095Y-101018399D01*
X151082714Y-101066018D01*
X151130333Y-101161256D01*
X151130333Y-101304113D01*
X151082714Y-101399351D01*
X151035095Y-101446970D01*
X150939857Y-101494589D01*
X150558904Y-101494589D01*
X151987476Y-100970779D02*
X151797000Y-100970779D01*
X151701761Y-101018399D01*
X151654142Y-101066018D01*
X151558904Y-101208875D01*
X151511285Y-101399351D01*
X151511285Y-101780303D01*
X151558904Y-101875541D01*
X151606523Y-101923160D01*
X151701761Y-101970779D01*
X151892238Y-101970779D01*
X151987476Y-101923160D01*
X152035095Y-101875541D01*
X152082714Y-101780303D01*
X152082714Y-101542208D01*
X152035095Y-101446970D01*
X151987476Y-101399351D01*
X151892238Y-101351732D01*
X151701761Y-101351732D01*
X151606523Y-101399351D01*
X151558904Y-101446970D01*
X151511285Y-101542208D01*
G04 #@! TO.C,R4*
X134358880Y-91452666D02*
X133882690Y-91786000D01*
X134358880Y-92024095D02*
X133358880Y-92024095D01*
X133358880Y-91643142D01*
X133406500Y-91547904D01*
X133454119Y-91500285D01*
X133549357Y-91452666D01*
X133692214Y-91452666D01*
X133787452Y-91500285D01*
X133835071Y-91547904D01*
X133882690Y-91643142D01*
X133882690Y-92024095D01*
X133692214Y-90595523D02*
X134358880Y-90595523D01*
X133311261Y-90833619D02*
X134025547Y-91071714D01*
X134025547Y-90452666D01*
G04 #@! TO.C,R15*
X128594380Y-103462057D02*
X128118190Y-103795390D01*
X128594380Y-104033485D02*
X127594380Y-104033485D01*
X127594380Y-103652533D01*
X127642000Y-103557295D01*
X127689619Y-103509676D01*
X127784857Y-103462057D01*
X127927714Y-103462057D01*
X128022952Y-103509676D01*
X128070571Y-103557295D01*
X128118190Y-103652533D01*
X128118190Y-104033485D01*
X128594380Y-102509676D02*
X128594380Y-103081104D01*
X128594380Y-102795390D02*
X127594380Y-102795390D01*
X127737238Y-102890628D01*
X127832476Y-102985866D01*
X127880095Y-103081104D01*
X127594380Y-101604914D02*
X127594380Y-102081104D01*
X128070571Y-102128723D01*
X128022952Y-102081104D01*
X127975333Y-101985866D01*
X127975333Y-101747771D01*
X128022952Y-101652533D01*
X128070571Y-101604914D01*
X128165809Y-101557295D01*
X128403904Y-101557295D01*
X128499142Y-101604914D01*
X128546761Y-101652533D01*
X128594380Y-101747771D01*
X128594380Y-101985866D01*
X128546761Y-102081104D01*
X128499142Y-102128723D01*
G04 #@! TO.C,R14*
X121279180Y-104478057D02*
X120802990Y-104811390D01*
X121279180Y-105049485D02*
X120279180Y-105049485D01*
X120279180Y-104668533D01*
X120326800Y-104573295D01*
X120374419Y-104525676D01*
X120469657Y-104478057D01*
X120612514Y-104478057D01*
X120707752Y-104525676D01*
X120755371Y-104573295D01*
X120802990Y-104668533D01*
X120802990Y-105049485D01*
X121279180Y-103525676D02*
X121279180Y-104097104D01*
X121279180Y-103811390D02*
X120279180Y-103811390D01*
X120422038Y-103906628D01*
X120517276Y-104001866D01*
X120564895Y-104097104D01*
X120612514Y-102668533D02*
X121279180Y-102668533D01*
X120231561Y-102906628D02*
X120945847Y-103144723D01*
X120945847Y-102525676D01*
G04 #@! TO.C,R13*
X124885980Y-103462057D02*
X124409790Y-103795390D01*
X124885980Y-104033485D02*
X123885980Y-104033485D01*
X123885980Y-103652533D01*
X123933600Y-103557295D01*
X123981219Y-103509676D01*
X124076457Y-103462057D01*
X124219314Y-103462057D01*
X124314552Y-103509676D01*
X124362171Y-103557295D01*
X124409790Y-103652533D01*
X124409790Y-104033485D01*
X124885980Y-102509676D02*
X124885980Y-103081104D01*
X124885980Y-102795390D02*
X123885980Y-102795390D01*
X124028838Y-102890628D01*
X124124076Y-102985866D01*
X124171695Y-103081104D01*
X123885980Y-102176342D02*
X123885980Y-101557295D01*
X124266933Y-101890628D01*
X124266933Y-101747771D01*
X124314552Y-101652533D01*
X124362171Y-101604914D01*
X124457409Y-101557295D01*
X124695504Y-101557295D01*
X124790742Y-101604914D01*
X124838361Y-101652533D01*
X124885980Y-101747771D01*
X124885980Y-102033485D01*
X124838361Y-102128723D01*
X124790742Y-102176342D01*
G04 #@! TO.C,R5*
X150518833Y-95996130D02*
X150185500Y-95519940D01*
X149947404Y-95996130D02*
X149947404Y-94996130D01*
X150328357Y-94996130D01*
X150423595Y-95043750D01*
X150471214Y-95091369D01*
X150518833Y-95186607D01*
X150518833Y-95329464D01*
X150471214Y-95424702D01*
X150423595Y-95472321D01*
X150328357Y-95519940D01*
X149947404Y-95519940D01*
X151423595Y-94996130D02*
X150947404Y-94996130D01*
X150899785Y-95472321D01*
X150947404Y-95424702D01*
X151042642Y-95377083D01*
X151280738Y-95377083D01*
X151375976Y-95424702D01*
X151423595Y-95472321D01*
X151471214Y-95567559D01*
X151471214Y-95805654D01*
X151423595Y-95900892D01*
X151375976Y-95948511D01*
X151280738Y-95996130D01*
X151042642Y-95996130D01*
X150947404Y-95948511D01*
X150899785Y-95900892D01*
G04 #@! TO.C,R8*
X171854833Y-104211380D02*
X171521500Y-103735190D01*
X171283404Y-104211380D02*
X171283404Y-103211380D01*
X171664357Y-103211380D01*
X171759595Y-103259000D01*
X171807214Y-103306619D01*
X171854833Y-103401857D01*
X171854833Y-103544714D01*
X171807214Y-103639952D01*
X171759595Y-103687571D01*
X171664357Y-103735190D01*
X171283404Y-103735190D01*
X172426261Y-103639952D02*
X172331023Y-103592333D01*
X172283404Y-103544714D01*
X172235785Y-103449476D01*
X172235785Y-103401857D01*
X172283404Y-103306619D01*
X172331023Y-103259000D01*
X172426261Y-103211380D01*
X172616738Y-103211380D01*
X172711976Y-103259000D01*
X172759595Y-103306619D01*
X172807214Y-103401857D01*
X172807214Y-103449476D01*
X172759595Y-103544714D01*
X172711976Y-103592333D01*
X172616738Y-103639952D01*
X172426261Y-103639952D01*
X172331023Y-103687571D01*
X172283404Y-103735190D01*
X172235785Y-103830428D01*
X172235785Y-104020904D01*
X172283404Y-104116142D01*
X172331023Y-104163761D01*
X172426261Y-104211380D01*
X172616738Y-104211380D01*
X172711976Y-104163761D01*
X172759595Y-104116142D01*
X172807214Y-104020904D01*
X172807214Y-103830428D01*
X172759595Y-103735190D01*
X172711976Y-103687571D01*
X172616738Y-103639952D01*
G04 #@! TO.C,R3*
X165949333Y-104211380D02*
X165616000Y-103735190D01*
X165377904Y-104211380D02*
X165377904Y-103211380D01*
X165758857Y-103211380D01*
X165854095Y-103259000D01*
X165901714Y-103306619D01*
X165949333Y-103401857D01*
X165949333Y-103544714D01*
X165901714Y-103639952D01*
X165854095Y-103687571D01*
X165758857Y-103735190D01*
X165377904Y-103735190D01*
X166282666Y-103211380D02*
X166901714Y-103211380D01*
X166568380Y-103592333D01*
X166711238Y-103592333D01*
X166806476Y-103639952D01*
X166854095Y-103687571D01*
X166901714Y-103782809D01*
X166901714Y-104020904D01*
X166854095Y-104116142D01*
X166806476Y-104163761D01*
X166711238Y-104211380D01*
X166425523Y-104211380D01*
X166330285Y-104163761D01*
X166282666Y-104116142D01*
G04 #@! TO.C,R2*
X165949333Y-101988880D02*
X165616000Y-101512690D01*
X165377904Y-101988880D02*
X165377904Y-100988880D01*
X165758857Y-100988880D01*
X165854095Y-101036500D01*
X165901714Y-101084119D01*
X165949333Y-101179357D01*
X165949333Y-101322214D01*
X165901714Y-101417452D01*
X165854095Y-101465071D01*
X165758857Y-101512690D01*
X165377904Y-101512690D01*
X166330285Y-101084119D02*
X166377904Y-101036500D01*
X166473142Y-100988880D01*
X166711238Y-100988880D01*
X166806476Y-101036500D01*
X166854095Y-101084119D01*
X166901714Y-101179357D01*
X166901714Y-101274595D01*
X166854095Y-101417452D01*
X166282666Y-101988880D01*
X166901714Y-101988880D01*
G04 #@! TO.C,R1*
X130626380Y-91452666D02*
X130150190Y-91786000D01*
X130626380Y-92024095D02*
X129626380Y-92024095D01*
X129626380Y-91643142D01*
X129674000Y-91547904D01*
X129721619Y-91500285D01*
X129816857Y-91452666D01*
X129959714Y-91452666D01*
X130054952Y-91500285D01*
X130102571Y-91547904D01*
X130150190Y-91643142D01*
X130150190Y-92024095D01*
X130626380Y-90500285D02*
X130626380Y-91071714D01*
X130626380Y-90786000D02*
X129626380Y-90786000D01*
X129769238Y-90881238D01*
X129864476Y-90976476D01*
X129912095Y-91071714D01*
G04 #@! TO.C,JP1*
X149471166Y-92162380D02*
X149471166Y-92876666D01*
X149423547Y-93019523D01*
X149328309Y-93114761D01*
X149185452Y-93162380D01*
X149090214Y-93162380D01*
X149947357Y-93162380D02*
X149947357Y-92162380D01*
X150328309Y-92162380D01*
X150423547Y-92210000D01*
X150471166Y-92257619D01*
X150518785Y-92352857D01*
X150518785Y-92495714D01*
X150471166Y-92590952D01*
X150423547Y-92638571D01*
X150328309Y-92686190D01*
X149947357Y-92686190D01*
X151471166Y-93162380D02*
X150899738Y-93162380D01*
X151185452Y-93162380D02*
X151185452Y-92162380D01*
X151090214Y-92305238D01*
X150994976Y-92400476D01*
X150899738Y-92448095D01*
G04 #@! TO.C,C11*
X130591142Y-96593257D02*
X130638761Y-96640876D01*
X130686380Y-96783733D01*
X130686380Y-96878971D01*
X130638761Y-97021828D01*
X130543523Y-97117066D01*
X130448285Y-97164685D01*
X130257809Y-97212304D01*
X130114952Y-97212304D01*
X129924476Y-97164685D01*
X129829238Y-97117066D01*
X129734000Y-97021828D01*
X129686380Y-96878971D01*
X129686380Y-96783733D01*
X129734000Y-96640876D01*
X129781619Y-96593257D01*
X130686380Y-95640876D02*
X130686380Y-96212304D01*
X130686380Y-95926590D02*
X129686380Y-95926590D01*
X129829238Y-96021828D01*
X129924476Y-96117066D01*
X129972095Y-96212304D01*
X130686380Y-94688495D02*
X130686380Y-95259923D01*
X130686380Y-94974209D02*
X129686380Y-94974209D01*
X129829238Y-95069447D01*
X129924476Y-95164685D01*
X129972095Y-95259923D01*
G04 #@! TO.C,C9*
X145500433Y-106529142D02*
X145452814Y-106576761D01*
X145309957Y-106624380D01*
X145214719Y-106624380D01*
X145071861Y-106576761D01*
X144976623Y-106481523D01*
X144929004Y-106386285D01*
X144881385Y-106195809D01*
X144881385Y-106052952D01*
X144929004Y-105862476D01*
X144976623Y-105767238D01*
X145071861Y-105672000D01*
X145214719Y-105624380D01*
X145309957Y-105624380D01*
X145452814Y-105672000D01*
X145500433Y-105719619D01*
X145976623Y-106624380D02*
X146167100Y-106624380D01*
X146262338Y-106576761D01*
X146309957Y-106529142D01*
X146405195Y-106386285D01*
X146452814Y-106195809D01*
X146452814Y-105814857D01*
X146405195Y-105719619D01*
X146357576Y-105672000D01*
X146262338Y-105624380D01*
X146071861Y-105624380D01*
X145976623Y-105672000D01*
X145929004Y-105719619D01*
X145881385Y-105814857D01*
X145881385Y-106052952D01*
X145929004Y-106148190D01*
X145976623Y-106195809D01*
X146071861Y-106243428D01*
X146262338Y-106243428D01*
X146357576Y-106195809D01*
X146405195Y-106148190D01*
X146452814Y-106052952D01*
G04 #@! TO.C,C8*
X158456333Y-109640642D02*
X158408714Y-109688261D01*
X158265857Y-109735880D01*
X158170619Y-109735880D01*
X158027761Y-109688261D01*
X157932523Y-109593023D01*
X157884904Y-109497785D01*
X157837285Y-109307309D01*
X157837285Y-109164452D01*
X157884904Y-108973976D01*
X157932523Y-108878738D01*
X158027761Y-108783500D01*
X158170619Y-108735880D01*
X158265857Y-108735880D01*
X158408714Y-108783500D01*
X158456333Y-108831119D01*
X159027761Y-109164452D02*
X158932523Y-109116833D01*
X158884904Y-109069214D01*
X158837285Y-108973976D01*
X158837285Y-108926357D01*
X158884904Y-108831119D01*
X158932523Y-108783500D01*
X159027761Y-108735880D01*
X159218238Y-108735880D01*
X159313476Y-108783500D01*
X159361095Y-108831119D01*
X159408714Y-108926357D01*
X159408714Y-108973976D01*
X159361095Y-109069214D01*
X159313476Y-109116833D01*
X159218238Y-109164452D01*
X159027761Y-109164452D01*
X158932523Y-109212071D01*
X158884904Y-109259690D01*
X158837285Y-109354928D01*
X158837285Y-109545404D01*
X158884904Y-109640642D01*
X158932523Y-109688261D01*
X159027761Y-109735880D01*
X159218238Y-109735880D01*
X159313476Y-109688261D01*
X159361095Y-109640642D01*
X159408714Y-109545404D01*
X159408714Y-109354928D01*
X159361095Y-109259690D01*
X159313476Y-109212071D01*
X159218238Y-109164452D01*
G04 #@! TO.C,C7*
X150455333Y-98401142D02*
X150407714Y-98448761D01*
X150264857Y-98496380D01*
X150169619Y-98496380D01*
X150026761Y-98448761D01*
X149931523Y-98353523D01*
X149883904Y-98258285D01*
X149836285Y-98067809D01*
X149836285Y-97924952D01*
X149883904Y-97734476D01*
X149931523Y-97639238D01*
X150026761Y-97544000D01*
X150169619Y-97496380D01*
X150264857Y-97496380D01*
X150407714Y-97544000D01*
X150455333Y-97591619D01*
X150788666Y-97496380D02*
X151455333Y-97496380D01*
X151026761Y-98496380D01*
G04 #@! TO.C,C17*
X117445742Y-106364657D02*
X117493361Y-106412276D01*
X117540980Y-106555133D01*
X117540980Y-106650371D01*
X117493361Y-106793228D01*
X117398123Y-106888466D01*
X117302885Y-106936085D01*
X117112409Y-106983704D01*
X116969552Y-106983704D01*
X116779076Y-106936085D01*
X116683838Y-106888466D01*
X116588600Y-106793228D01*
X116540980Y-106650371D01*
X116540980Y-106555133D01*
X116588600Y-106412276D01*
X116636219Y-106364657D01*
X117540980Y-105412276D02*
X117540980Y-105983704D01*
X117540980Y-105697990D02*
X116540980Y-105697990D01*
X116683838Y-105793228D01*
X116779076Y-105888466D01*
X116826695Y-105983704D01*
X116540980Y-105078942D02*
X116540980Y-104412276D01*
X117540980Y-104840847D01*
G04 #@! TO.C,C16*
X113898742Y-106364657D02*
X113946361Y-106412276D01*
X113993980Y-106555133D01*
X113993980Y-106650371D01*
X113946361Y-106793228D01*
X113851123Y-106888466D01*
X113755885Y-106936085D01*
X113565409Y-106983704D01*
X113422552Y-106983704D01*
X113232076Y-106936085D01*
X113136838Y-106888466D01*
X113041600Y-106793228D01*
X112993980Y-106650371D01*
X112993980Y-106555133D01*
X113041600Y-106412276D01*
X113089219Y-106364657D01*
X113993980Y-105412276D02*
X113993980Y-105983704D01*
X113993980Y-105697990D02*
X112993980Y-105697990D01*
X113136838Y-105793228D01*
X113232076Y-105888466D01*
X113279695Y-105983704D01*
X112993980Y-104555133D02*
X112993980Y-104745609D01*
X113041600Y-104840847D01*
X113089219Y-104888466D01*
X113232076Y-104983704D01*
X113422552Y-105031323D01*
X113803504Y-105031323D01*
X113898742Y-104983704D01*
X113946361Y-104936085D01*
X113993980Y-104840847D01*
X113993980Y-104650371D01*
X113946361Y-104555133D01*
X113898742Y-104507514D01*
X113803504Y-104459895D01*
X113565409Y-104459895D01*
X113470171Y-104507514D01*
X113422552Y-104555133D01*
X113374933Y-104650371D01*
X113374933Y-104840847D01*
X113422552Y-104936085D01*
X113470171Y-104983704D01*
X113565409Y-105031323D01*
G04 #@! TO.C,C15*
X112688742Y-102741942D02*
X112641123Y-102789561D01*
X112498266Y-102837180D01*
X112403028Y-102837180D01*
X112260171Y-102789561D01*
X112164933Y-102694323D01*
X112117314Y-102599085D01*
X112069695Y-102408609D01*
X112069695Y-102265752D01*
X112117314Y-102075276D01*
X112164933Y-101980038D01*
X112260171Y-101884800D01*
X112403028Y-101837180D01*
X112498266Y-101837180D01*
X112641123Y-101884800D01*
X112688742Y-101932419D01*
X113641123Y-102837180D02*
X113069695Y-102837180D01*
X113355409Y-102837180D02*
X113355409Y-101837180D01*
X113260171Y-101980038D01*
X113164933Y-102075276D01*
X113069695Y-102122895D01*
X114545885Y-101837180D02*
X114069695Y-101837180D01*
X114022076Y-102313371D01*
X114069695Y-102265752D01*
X114164933Y-102218133D01*
X114403028Y-102218133D01*
X114498266Y-102265752D01*
X114545885Y-102313371D01*
X114593504Y-102408609D01*
X114593504Y-102646704D01*
X114545885Y-102741942D01*
X114498266Y-102789561D01*
X114403028Y-102837180D01*
X114164933Y-102837180D01*
X114069695Y-102789561D01*
X114022076Y-102741942D01*
G04 #@! TO.C,C14*
X112688742Y-97703142D02*
X112641123Y-97750761D01*
X112498266Y-97798380D01*
X112403028Y-97798380D01*
X112260171Y-97750761D01*
X112164933Y-97655523D01*
X112117314Y-97560285D01*
X112069695Y-97369809D01*
X112069695Y-97226952D01*
X112117314Y-97036476D01*
X112164933Y-96941238D01*
X112260171Y-96846000D01*
X112403028Y-96798380D01*
X112498266Y-96798380D01*
X112641123Y-96846000D01*
X112688742Y-96893619D01*
X113641123Y-97798380D02*
X113069695Y-97798380D01*
X113355409Y-97798380D02*
X113355409Y-96798380D01*
X113260171Y-96941238D01*
X113164933Y-97036476D01*
X113069695Y-97084095D01*
X114498266Y-97131714D02*
X114498266Y-97798380D01*
X114260171Y-96750761D02*
X114022076Y-97465047D01*
X114641123Y-97465047D01*
G04 #@! TO.C,C13*
X113483742Y-92863942D02*
X113436123Y-92911561D01*
X113293266Y-92959180D01*
X113198028Y-92959180D01*
X113055171Y-92911561D01*
X112959933Y-92816323D01*
X112912314Y-92721085D01*
X112864695Y-92530609D01*
X112864695Y-92387752D01*
X112912314Y-92197276D01*
X112959933Y-92102038D01*
X113055171Y-92006800D01*
X113198028Y-91959180D01*
X113293266Y-91959180D01*
X113436123Y-92006800D01*
X113483742Y-92054419D01*
X114436123Y-92959180D02*
X113864695Y-92959180D01*
X114150409Y-92959180D02*
X114150409Y-91959180D01*
X114055171Y-92102038D01*
X113959933Y-92197276D01*
X113864695Y-92244895D01*
X114769457Y-91959180D02*
X115388504Y-91959180D01*
X115055171Y-92340133D01*
X115198028Y-92340133D01*
X115293266Y-92387752D01*
X115340885Y-92435371D01*
X115388504Y-92530609D01*
X115388504Y-92768704D01*
X115340885Y-92863942D01*
X115293266Y-92911561D01*
X115198028Y-92959180D01*
X114912314Y-92959180D01*
X114817076Y-92911561D01*
X114769457Y-92863942D01*
G04 #@! TO.C,C12*
X174757142Y-108211357D02*
X174804761Y-108258976D01*
X174852380Y-108401833D01*
X174852380Y-108497071D01*
X174804761Y-108639928D01*
X174709523Y-108735166D01*
X174614285Y-108782785D01*
X174423809Y-108830404D01*
X174280952Y-108830404D01*
X174090476Y-108782785D01*
X173995238Y-108735166D01*
X173900000Y-108639928D01*
X173852380Y-108497071D01*
X173852380Y-108401833D01*
X173900000Y-108258976D01*
X173947619Y-108211357D01*
X174852380Y-107258976D02*
X174852380Y-107830404D01*
X174852380Y-107544690D02*
X173852380Y-107544690D01*
X173995238Y-107639928D01*
X174090476Y-107735166D01*
X174138095Y-107830404D01*
X173947619Y-106878023D02*
X173900000Y-106830404D01*
X173852380Y-106735166D01*
X173852380Y-106497071D01*
X173900000Y-106401833D01*
X173947619Y-106354214D01*
X174042857Y-106306595D01*
X174138095Y-106306595D01*
X174280952Y-106354214D01*
X174852380Y-106925642D01*
X174852380Y-106306595D01*
G04 #@! TO.C,C10*
X172033642Y-101576142D02*
X171986023Y-101623761D01*
X171843166Y-101671380D01*
X171747928Y-101671380D01*
X171605071Y-101623761D01*
X171509833Y-101528523D01*
X171462214Y-101433285D01*
X171414595Y-101242809D01*
X171414595Y-101099952D01*
X171462214Y-100909476D01*
X171509833Y-100814238D01*
X171605071Y-100719000D01*
X171747928Y-100671380D01*
X171843166Y-100671380D01*
X171986023Y-100719000D01*
X172033642Y-100766619D01*
X172986023Y-101671380D02*
X172414595Y-101671380D01*
X172700309Y-101671380D02*
X172700309Y-100671380D01*
X172605071Y-100814238D01*
X172509833Y-100909476D01*
X172414595Y-100957095D01*
X173605071Y-100671380D02*
X173700309Y-100671380D01*
X173795547Y-100719000D01*
X173843166Y-100766619D01*
X173890785Y-100861857D01*
X173938404Y-101052333D01*
X173938404Y-101290428D01*
X173890785Y-101480904D01*
X173843166Y-101576142D01*
X173795547Y-101623761D01*
X173700309Y-101671380D01*
X173605071Y-101671380D01*
X173509833Y-101623761D01*
X173462214Y-101576142D01*
X173414595Y-101480904D01*
X173366976Y-101290428D01*
X173366976Y-101052333D01*
X173414595Y-100861857D01*
X173462214Y-100766619D01*
X173509833Y-100719000D01*
X173605071Y-100671380D01*
G04 #@! TO.C,C3*
X166744608Y-91856665D02*
X166792227Y-91904284D01*
X166839846Y-92047141D01*
X166839846Y-92142379D01*
X166792227Y-92285237D01*
X166696989Y-92380475D01*
X166601751Y-92428094D01*
X166411275Y-92475713D01*
X166268418Y-92475713D01*
X166077942Y-92428094D01*
X165982704Y-92380475D01*
X165887466Y-92285237D01*
X165839846Y-92142379D01*
X165839846Y-92047141D01*
X165887466Y-91904284D01*
X165935085Y-91856665D01*
X165839846Y-91523332D02*
X165839846Y-90904284D01*
X166220799Y-91237618D01*
X166220799Y-91094760D01*
X166268418Y-90999522D01*
X166316037Y-90951903D01*
X166411275Y-90904284D01*
X166649370Y-90904284D01*
X166744608Y-90951903D01*
X166792227Y-90999522D01*
X166839846Y-91094760D01*
X166839846Y-91380475D01*
X166792227Y-91475713D01*
X166744608Y-91523332D01*
G04 #@! TO.C,C2*
X161441275Y-91856665D02*
X161488894Y-91904284D01*
X161536513Y-92047141D01*
X161536513Y-92142379D01*
X161488894Y-92285237D01*
X161393656Y-92380475D01*
X161298418Y-92428094D01*
X161107942Y-92475713D01*
X160965085Y-92475713D01*
X160774609Y-92428094D01*
X160679371Y-92380475D01*
X160584133Y-92285237D01*
X160536513Y-92142379D01*
X160536513Y-92047141D01*
X160584133Y-91904284D01*
X160631752Y-91856665D01*
X160631752Y-91475713D02*
X160584133Y-91428094D01*
X160536513Y-91332856D01*
X160536513Y-91094760D01*
X160584133Y-90999522D01*
X160631752Y-90951903D01*
X160726990Y-90904284D01*
X160822228Y-90904284D01*
X160965085Y-90951903D01*
X161536513Y-91523332D01*
X161536513Y-90904284D01*
G04 #@! TO.C,C1*
X157477942Y-92651665D02*
X157525561Y-92699284D01*
X157573180Y-92842141D01*
X157573180Y-92937379D01*
X157525561Y-93080237D01*
X157430323Y-93175475D01*
X157335085Y-93223094D01*
X157144609Y-93270713D01*
X157001752Y-93270713D01*
X156811276Y-93223094D01*
X156716038Y-93175475D01*
X156620800Y-93080237D01*
X156573180Y-92937379D01*
X156573180Y-92842141D01*
X156620800Y-92699284D01*
X156668419Y-92651665D01*
X157573180Y-91699284D02*
X157573180Y-92270713D01*
X157573180Y-91984999D02*
X156573180Y-91984999D01*
X156716038Y-92080237D01*
X156811276Y-92175475D01*
X156858895Y-92270713D01*
G04 #@! TO.C,C6*
X137834642Y-91472666D02*
X137882261Y-91520285D01*
X137929880Y-91663142D01*
X137929880Y-91758380D01*
X137882261Y-91901238D01*
X137787023Y-91996476D01*
X137691785Y-92044095D01*
X137501309Y-92091714D01*
X137358452Y-92091714D01*
X137167976Y-92044095D01*
X137072738Y-91996476D01*
X136977500Y-91901238D01*
X136929880Y-91758380D01*
X136929880Y-91663142D01*
X136977500Y-91520285D01*
X137025119Y-91472666D01*
X136929880Y-90615523D02*
X136929880Y-90806000D01*
X136977500Y-90901238D01*
X137025119Y-90948857D01*
X137167976Y-91044095D01*
X137358452Y-91091714D01*
X137739404Y-91091714D01*
X137834642Y-91044095D01*
X137882261Y-90996476D01*
X137929880Y-90901238D01*
X137929880Y-90710761D01*
X137882261Y-90615523D01*
X137834642Y-90567904D01*
X137739404Y-90520285D01*
X137501309Y-90520285D01*
X137406071Y-90567904D01*
X137358452Y-90615523D01*
X137310833Y-90710761D01*
X137310833Y-90901238D01*
X137358452Y-90996476D01*
X137406071Y-91044095D01*
X137501309Y-91091714D01*
G04 #@! TO.C,C5*
X166012833Y-99544142D02*
X165965214Y-99591761D01*
X165822357Y-99639380D01*
X165727119Y-99639380D01*
X165584261Y-99591761D01*
X165489023Y-99496523D01*
X165441404Y-99401285D01*
X165393785Y-99210809D01*
X165393785Y-99067952D01*
X165441404Y-98877476D01*
X165489023Y-98782238D01*
X165584261Y-98687000D01*
X165727119Y-98639380D01*
X165822357Y-98639380D01*
X165965214Y-98687000D01*
X166012833Y-98734619D01*
X166917595Y-98639380D02*
X166441404Y-98639380D01*
X166393785Y-99115571D01*
X166441404Y-99067952D01*
X166536642Y-99020333D01*
X166774738Y-99020333D01*
X166869976Y-99067952D01*
X166917595Y-99115571D01*
X166965214Y-99210809D01*
X166965214Y-99448904D01*
X166917595Y-99544142D01*
X166869976Y-99591761D01*
X166774738Y-99639380D01*
X166536642Y-99639380D01*
X166441404Y-99591761D01*
X166393785Y-99544142D01*
G04 #@! TD*
M02*
